<svg width="19" height="19" viewBox="0 0 19 19" fill="none" xmlns="http://www.w3.org/2000/svg">
    <path fill-rule="evenodd" clip-rule="evenodd" d="M16.779 15.72L16.74 15.52L16.584 15.427L16.325 14.945L16.167 14.853L15.979 14.791L15.877 14.592L15.532 14.373L14.883 13.869L14.594 13.607L14.27 13.397L13.929 13.222L13.98 13.008L13.946 12.854L13.822 12.728L13.488 12.537L13.356 12.43L13.249 12.249L12.986 11.974L12.834 11.863L12.168 11.539L12.092 11.39L12.059 11.233L12.078 11.052L11.878 11.029L11.839 10.827L11.745 10.669L11.115 10.173L11.014 9.973L10.815 9.947L10.475 9.601L10.585 9.492L10.766 9.449L10.865 9.267L11.004 9.128L11.496 8.777L11.607 8.609L12 8.399L12.573 8.371V8.119L12.307 7.923L12.777 7.573L12.975 7.334L13.167 7.012L13.284 6.901L13.592 6.719L13.714 6.592L13.753 6.439L13.68 6.228L13.864 6.157L14.031 6.047L15.291 5.065L15.64 4.856L15.724 4.66L16.089 4.492L16.257 4.156L16.356 4.03L16.508 3.931L16.551 3.328L16.495 2.909L16.313 2.532L16.089 2.475L15.795 2.209L15.655 2.125L15.417 2.168L14.661 2.559L14.507 2.713L14.437 2.894L14.24 3.007L14.099 3.203L14.002 3.531L13.889 3.79H13.694L13.652 3.881L13.512 4.215L13.091 4.605L12.42 5.067L12.111 5.311L11.86 5.588L11.901 5.824L11.831 6.006L11.718 6.144L11.383 6.312L11.089 6.523L11.033 6.662L10.866 6.578L10.711 6.536L10.57 6.593L10.598 6.789L10.543 6.985L10.445 7.167L10.124 7.461L9.955 7.432L9.8 8.062L9.59 8.049L9.534 8.272L9.199 8.329L9.126 8.308L8.994 7.997L8.674 7.704L8.449 7.692L8.229 7.41L8.1 7.037L7.919 7.018L7.781 6.93L7.58 6.594L7.508 6.425L7.409 6.288L7.252 6.383L7.051 6.108L6.961 5.933L6.942 5.741L6.803 5.59L6.508 5.347L5.868 4.948L5.409 4.631L5.383 4.393L5.305 4.244L4.904 3.882L4.934 3.725L4.708 3.463L4.632 3.252L3.948 2.86L3.331 2.386L3.193 2.236L3.079 2.074L2.929 2.212L2.853 2L2.811 2.195L2.678 2.277L2.368 2.403L2.261 2.598L2.326 2.973L2.275 3.124L2.522 3.454L2.647 3.58L2.824 3.678L3.068 3.696L3.226 4.04L3.258 4.384L3.503 4.215L3.653 4.265L3.882 4.838L4.051 4.893L4.109 5.102L4.334 5.364L4.668 5.555L4.812 5.686L4.908 5.842L4.964 6.049L5.133 6.105L5.278 6.11L5.36 6.303L5.593 6.61L6.355 7.339L6.454 7.288L6.576 7.745L6.676 7.883L6.822 8.013L6.997 8.112L7.161 8.25L7.261 8.386L7.325 8.575L7.27 8.808L7.458 8.868L7.471 9.081L7.579 9.262L7.879 9.11L7.974 9.705L8.212 9.366L8.3 9.406L8.246 9.506L8.12 9.575L8.232 9.771L8.133 9.981L7.98 10.051L7.728 9.716L7.63 10.29L7.336 10.135L7.223 10.331L7.21 10.542L7.028 10.611L7.07 10.85L7.028 11.033L6.733 11.298L6.425 11.522L6.313 11.691L6.286 11.886L6.131 12.125L6.075 12.069L5.333 12.811L5.109 13.357L5.026 13.79H4.857L4.703 13.623L4.661 13.714L4.55 13.794L3.947 14.198L3.835 14.324L3.779 14.513L3.61 14.565L3.385 15.152L3.246 15.178L2.966 15.01L2.882 15.541L2.798 15.709L2.547 15.738L2.378 15.821L2.252 15.947L2 16.284L2.055 16.424L2.013 16.802L2.126 16.997L2.517 17.167L2.587 17.404L2.659 17.195L2.813 17.319L3.064 17.013L3.358 16.774L3.68 16.564L4.382 16.171L4.451 15.962L4.675 15.681L4.633 15.528L4.8 15.415L5.068 15.178L5.137 15.023L5.151 14.785L5.445 14.575L6.09 14.183L6.397 13.959L6.692 13.693L6.705 13.483L6.986 13.035L7.154 13.118L7.475 12.544L7.642 12.405L7.84 12.375L7.965 12.026L8.19 11.746L8.414 11.718L8.583 11.578L8.721 11.41L8.877 11.06L9.129 10.779L9.237 10.69L9.246 10.727L9.259 11.126L9.442 11.083L9.756 11.144L9.824 11.375L10.042 11.343L10.12 11.556L10.184 11.992L10.361 11.968L10.529 12.085L10.794 12.423L10.849 12.629L10.828 12.829L11.023 12.872L11.264 12.765L11.323 12.908L11.612 13.108L11.793 13.189L11.963 13.307L12.071 13.425L12.133 13.614L12.097 13.851L12.355 14.144L12.991 14.624L13.593 15.134L13.726 15.303L13.898 15.671L13.934 15.872L14.086 15.86L14.198 15.959L14.377 16.309L14.497 16.45L14.677 16.533L14.766 16.707L14.905 16.857L15.288 17.087L15.646 17.267L15.878 17.321L16.028 17.246L16.328 16.968L16.528 16.93L16.719 16.534L16.793 16.121L16.779 15.72Z" fill="#424242"/>
</svg>
