<svg width="14" height="14" viewBox="0 0 14 14" fill="none" xmlns="http://www.w3.org/2000/svg">
    <path fill-rule="evenodd" clip-rule="evenodd" d="M11.813 10.555L11.637 10.159L11.043 10.049L10.603 9.851L10.383 9.697L10.449 9.521L10.075 9.323L9.459 8.772L9.305 8.332L9.173 8.222H8.975L8.777 8.046L8.645 7.87L8.491 7.474L8.425 7.409L8.292 7.387L8.073 7.232L8.061 7.208L8.073 7.193L8.535 7.017L8.623 6.665L8.953 6.621L9.107 6.797L9.239 6.643L9.195 6.511L9.239 6.357L9.195 6.269V6.071L9.481 5.873L9.525 5.521L9.745 5.411L9.811 5.543H10.009L10.075 5.301L10.471 5.015L10.581 4.905L10.713 4.861L10.933 4.949L11.153 4.905L11.241 4.729V4.025L11.396 3.848L11.813 3.739L11.967 3.343L11.989 2.903L11.967 2.66L11.901 2.44L11.659 2.044L11.461 2L10.867 2.242L10.691 2.396L10.273 2.617L10.097 2.748L9.987 2.925V3.189L9.745 3.541L9.569 3.673L9.371 3.761L9.173 3.805L8.975 3.761L8.733 3.826L8.689 4.003L8.755 4.245V4.465L8.623 4.663L8.359 4.641L8.007 4.729L7.963 5.499L7.633 5.521L7.479 5.675L7.413 5.829L7.105 5.917H6.885L6.752 5.829L6.666 5.697L6.489 5.125L6.378 4.949H6.225L5.895 5.081L5.674 4.861L5.433 4.465L5.367 4.047L4.464 3.871H4.178L3.914 3.474L3.518 2.77L3.386 2.638L3.188 2.66L2.594 2.308H2.418L2.22 2.396L2.11 2.77L2.022 2.925L2 3.167L2.022 3.387L2.176 3.826L2.352 4.223L2.946 4.333L3.386 4.531L3.606 4.685L3.541 4.861L3.914 5.059L4.53 5.609L4.685 6.049L4.816 6.159H5.015L5.212 6.335L5.344 6.511L5.5 6.907L5.564 6.973L5.697 6.995L5.917 7.149L5.929 7.174L5.917 7.188L5.454 7.364L5.366 7.717L5.036 7.761L4.882 7.584L4.751 7.739L4.794 7.87L4.751 8.024L4.794 8.113V8.31L4.508 8.509L4.464 8.861L4.244 8.971L4.178 8.839H3.98L3.914 9.08L3.518 9.367L3.408 9.476L3.276 9.521L3.056 9.432L2.836 9.476L2.748 9.653V10.357L2.594 10.533L2.176 10.643L2.022 11.039L2 11.479L2.022 11.721L2.088 11.941L2.33 12.337L2.528 12.381L3.122 12.139L3.298 11.985L3.716 11.765L3.892 11.633L4.002 11.457V11.193L4.244 10.841L4.42 10.709L4.618 10.621L4.816 10.577L5.014 10.621L5.256 10.555L5.3 10.379L5.234 10.137V9.917L5.366 9.719L5.63 9.741L5.982 9.653L6.026 8.883L6.356 8.861L6.51 8.706L6.577 8.553L6.884 8.465H7.105L7.237 8.553L7.325 8.684L7.501 9.257L7.611 9.432H7.765L8.095 9.301L8.315 9.521L8.557 9.917L8.623 10.335L9.525 10.511H9.811L10.075 10.907L10.471 11.611L10.603 11.743L10.801 11.721L11.395 12.073H11.571L11.769 11.985L11.879 11.611L11.967 11.457L11.989 11.215L11.967 10.995L11.813 10.555Z" fill="#424242"/>
</svg>
