<?xml version="1.0" standalone="no"?>
<!DOCTYPE svg PUBLIC "-//W3C//DTD SVG 1.1//EN" "http://www.w3.org/Graphics/SVG/1.1/DTD/svg11.dtd" >
<svg>
<metadata>
Created by FontForge 20110222 at Tue Jun  4 06:04:35 2013
 By Orthosie Webhosting
Copr.   /lineto   Cornel Windlin, 1995. Published by FontShop International. FontFont release 13
</metadata>
<defs>
<font id="MagdaLight" horiz-adv-x="550" >
  <font-face 
    font-family="MagdaLight"
    font-weight="550"
    font-stretch="normal"
    units-per-em="1000"
    panose-1="2 0 6 6 2 0 0 2 0 4"
    ascent="800"
    descent="-200"
    x-height="406"
    cap-height="596"
    bbox="-97.5714 -296 677.095 869"
    underline-thickness="20"
    underline-position="-113"
    unicode-range="U+0020-FB02"
  />
<missing-glyph 
d="M33 0v666h265v-666h-265zM66 33h199v600h-199v-600z" />
    <glyph glyph-name="fi" unicode="fi" 
d="M209 44q0 3 2 4t3 3q4 0 8 -2.5t-4 -4.5h-9zM366 482l-57 -19q-11 7 -10.5 18t2 21t-1.5 17t-21 7q-2 -8 -3.5 -15.5t-1.5 -15.5q-3 6 -4 12.5t-3 12.5t-5.5 11.5t-11.5 9.5q-11 -5 -20 0t-17.5 10.5t-17 7t-19.5 -9.5q-5 -4 -11.5 -2t-11 4t-7 1t0.5 -11
q-15 -8 -19.5 -23.5t-14.5 -25.5q-4 -11 -6.5 -19.5t5.5 -19.5q4 -8 9.5 -11.5t12.5 -5l14 -3t13 -4.5q4 11 10 13t12 0.5t13 -3t15 3.5q8 1 15 -2t13.5 -7.5t12.5 -9t12 -5.5q5 -8 1.5 -16.5t-5.5 -17.5q-17 -9 -35 -11t-36.5 -0.5t-37.5 4t-38 2.5q-6 -6 -7 -13
t-0.5 -14.5t0.5 -15.5t-3 -16q-2 2 -3.5 -0.5t-3.5 -4.5q1 -3 4 -4l6 -2t4 -3t-3 -6q-7 0 -9 -2q10 -5 11 -11t0.5 -12.5t-0.5 -13t9 -10.5q0 -7 1 -14.5t-6 -11.5q4 -6 3.5 -14.5t-0.5 -16.5t2 -14.5t11 -8.5q-10 -13 -11.5 -26.5t-0.5 -27.5t2.5 -27.5t-1.5 -26.5
q20 -17 11 -39q-9 -5 -23 -11t-26 -4q-2 3 -2 7v8.5t-0.5 8.5t-4.5 6l-15 -8v10h6q1 7 -2.5 14t-7.5 13.5t-5.5 14t5.5 16.5q-7 10 -8 21t0.5 22.5t5 23t6.5 22.5q9 4 8 8.5t-4.5 8.5t-6 7.5t2.5 7.5q-4 7 -3.5 15t0.5 16t-2 15.5t-11 13.5q-4 11 2 14.5t14 8.5q-5 8 -4 17
l2 18t-1 17t-11 14q-9 11 -19.5 11.5t-21 0t-19 1.5t-14.5 16q-2 15 6 26t22 16q8 3 14 2.5t12 -1.5t11.5 -1.5t13.5 2.5q3 -2 4.5 -4.5t4.5 -0.5q2 8 -3 11.5t-8 11.5q2 9 1 18t-3.5 18t-3.5 17.5t1 17.5q4 0 4.5 2t0.5 5t-0.5 6t2.5 4q12 9 22.5 22.5t22 24.5t25.5 17.5
t32 0.5q1 8 8 9.5t14 1.5q9 -6 18.5 -6.5t19 0.5t19.5 2.5t19 -1.5q6 -6 11 -6.5t10.5 0.5t11.5 1.5t12 -5.5q17 -14 33 -27t30 -32q6 -17 6.5 -29.5t5.5 -29.5zM638 51q-2 -6 -2.5 -14t-2.5 -15t-6.5 -12t-13.5 -6q-22 8 -48 5.5t-45 2.5q-3 -8 -9.5 -10t-14.5 0l-4.5 9
t-9.5 6q-11 4 -16 -8q-6 4 -14 5t-15.5 1t-14.5 0.5t-11 3.5q1 -8 -2.5 -9t-8.5 -1h-10t-7 -5q-13 4 -27.5 6t-25.5 4q-9 1 -17 -1t-15.5 -4t-15.5 -1.5t-16 6.5q-2 11 -5 18t3 16l10 -10q-5 9 -2 12.5t9 6t13.5 4t10.5 5.5q6 -8 12.5 -9t12.5 0t12.5 1t14.5 -5q1 6 7 7.5
t13.5 1.5h14t9.5 4q5 2 10 1t10 -2.5t9 -1.5t8 5q-8 9 -4 18.5t4 18.5q-2 8 -7 18t-8 19.5t-2 19t11 16.5q1 8 -1.5 18.5t-7.5 18.5q9 20 8 47t-9 46q5 5 11.5 9t4.5 13q3 7 -1 11.5t-9 8t-9 8.5t-1 13q-11 13 -30 5q-2 -2 -4.5 -3.5t-0.5 -5.5q-8 10 -24.5 9t-31.5 -2
t-23 5.5t1 31.5q6 6 13 13.5t14.5 11.5t15.5 3t16 -11q8 2 16.5 4.5t12.5 10.5q7 -15 17 -15.5t21.5 2.5t22 3t18.5 -15q-4 -13 -1.5 -25.5t10.5 -21.5q-3 0 -6 -2.5t-3 -6.5q-4 -10 1 -18t10 -15.5t6.5 -15t-8.5 -17.5q9 -6 8 -12t-4.5 -11t-4.5 -10.5t9 -10.5
q3 -11 -1.5 -20.5t-1.5 -23.5q-3 -1 -6 -1.5t-4 -3.5q8 -17 9.5 -33.5t0.5 -33.5t-2 -34.5t2 -35.5q10 -6 21 -4t21.5 4.5t21 2.5t19.5 -8q9 -1 17.5 0.5t17 2t15 -2t11.5 -10.5h8zM277 470q-2 -4 -6 -3.5t-8 -1.5l4 12q4 2 8 0t2 -7z" />
    <glyph glyph-name="fl" unicode="fl" 
d="M262 34q-1 -2 -5 2l5 5v-7zM647 10q-12 4 -24 2t-24 -5t-24 -4t-23 7q-9 -5 -17 -5t-15.5 1t-16 1.5t-17.5 -2.5q-11 8 -23 6.5t-23.5 -4t-22.5 -2.5t-21 11q-8 -2 -18 -7t-21 1q-4 7 -10.5 14t-14.5 -3q-8 -8 -19 -10.5t-20 1.5q-2 5 -8 8.5t-2 10.5q2 2 6 4t4 6
q-2 2 -5 2.5t-5.5 1t-4 1.5t-0.5 5q9 5 19.5 8t19.5 14l64 -22q2 11 8.5 12t15 0.5t17.5 0t15 9.5q4 6 3.5 12.5t-2.5 13.5t-3.5 14t0.5 14q5 0 7 -3q8 13 5 28.5t-7 28.5q2 20 4 42.5t-9 42.5q3 11 3.5 22.5t0 23.5t-0.5 23.5t4 23.5q-6 7 -4.5 11.5t4 8.5t3.5 8.5t-5 10.5
q-9 6 -8.5 14t2.5 15.5t2.5 15.5t-6.5 14q7 23 10 45.5t-8 43.5q-6 0 -12 2t-12 4.5t-12 3t-13 -2.5l-5 -12q-5 0 -9.5 2.5t-9.5 5.5q5 -16 5.5 -28.5t5.5 -28.5l-2 -10l-57 -19q-11 7 -10.5 18t2 21t-1.5 17t-21 7q-2 -8 -3.5 -15.5t-1.5 -15.5q-3 6 -4 12.5t-3 12.5
t-5.5 11.5t-11.5 9.5q-11 -5 -20 0t-17.5 10.5t-17 7t-19.5 -9.5q-5 -4 -11.5 -2t-11 4t-7 1t0.5 -11q-15 -8 -19.5 -23.5t-14.5 -25.5q-4 -11 -6.5 -19.5t5.5 -19.5q4 -8 9.5 -11.5t12.5 -5l14 -3t13 -4.5q4 11 10 13t12 0.5t13 -3t15 3.5q8 1 15 -2t13.5 -7.5t12.5 -9
t12 -5.5q5 -8 1.5 -16.5t-5.5 -17.5q-17 -9 -35 -11t-36.5 -0.5t-37.5 4t-38 2.5q-6 -6 -7 -13t-0.5 -14.5t0.5 -15.5t-3 -16q-2 2 -3.5 -0.5t-3.5 -4.5q1 -3 4 -4l6 -2t4 -3t-3 -6q-7 0 -9 -2q10 -5 11 -11t0.5 -12.5t-0.5 -13t9 -10.5q0 -7 1 -14.5t-6 -11.5
q4 -6 3.5 -14.5t-0.5 -16.5t2 -14.5t11 -8.5q-10 -13 -11.5 -26.5t-0.5 -27.5t2.5 -27.5t-1.5 -26.5q20 -17 11 -39q-9 -5 -23 -11t-26 -4q-2 3 -2 7v8.5t-0.5 8.5t-4.5 6l-15 -8v10h6q1 7 -2.5 14t-7.5 13.5t-5.5 14t5.5 16.5q-7 10 -8 21t0.5 22.5t5 23t6.5 22.5
q9 4 8 8.5t-4.5 8.5t-6 7.5t2.5 7.5q-4 7 -3.5 15t0.5 16t-2 15.5t-11 13.5q-4 11 2 14.5t14 8.5q-5 8 -4 17l2 18t-1 17t-11 14q-9 11 -19.5 11.5t-21 0t-19 1.5t-14.5 16q-2 15 6 26t22 16q8 3 14 2.5t12 -1.5t11.5 -1.5t13.5 2.5q3 -2 4.5 -4.5t4.5 -0.5q2 8 -3 11.5
t-8 11.5q2 9 1 18t-3.5 18t-3.5 17.5t1 17.5q4 0 4.5 2t0.5 5t-0.5 6t2.5 4q12 9 22.5 22.5t22 24.5t25.5 17.5t32 0.5q1 8 8 9.5t14 1.5q9 -6 18.5 -6.5t19 0.5t19.5 2.5t19 -1.5q6 -6 11 -6.5t10.5 0.5t11.5 1.5t12 -5.5l15 -12q11 6 26.5 6.5t26.5 2.5q12 7 25 5.5
t27 -0.5q17 5 33 -4t26 -19q13 -4 14.5 -10.5t0 -15t-2 -17t7.5 -15.5q0 -10 2 -19t4 -20q-8 -13 -7 -24.5t-9 -24.5q10 -13 8 -27t-6 -28t-5 -28t10 -27q4 -10 3 -19.5t-3.5 -18.5t-2.5 -17.5t8 -16.5q0 -12 -6 -20.5t-6 -18.5q9 -14 9 -24.5t-3 -21t-5 -21.5t4 -26
l-10 -12q4 -5 7 -7.5t-2 -9.5q-8 -7 -6.5 -12t6.5 -8.5t11.5 -7t7.5 -7.5q7 -6 15 -6t15.5 2t16 5t17.5 2q7 8 21 4.5t25 -7.5q12 4 16.5 0t7.5 -10.5t6.5 -12.5t13.5 -6z" />
    <glyph glyph-name=".notdef" 
d="M33 0v666h265v-666h-265zM66 33h199v600h-199v-600z" />
    <glyph glyph-name=".null" horiz-adv-x="0" 
 />
    <glyph glyph-name="nonmarkingreturn" 
 />
    <glyph glyph-name="space" unicode=" " 
 />
    <glyph glyph-name="space" unicode="&#xa0;" 
 />
    <glyph glyph-name="exclam" unicode="!" 
d="M330 81q0 -9 1.5 -15.5t2 -11.5t-1 -11t-6.5 -15q-6 -5 -10.5 -14t-9 -15.5t-11 -6t-15.5 15.5q-19 -11 -33.5 -7t-24.5 15q-7 9 -9 21t-8 23q5 23 15 37t33 18q6 5 16.5 7.5t18.5 -0.5zM335 519q-5 -9 -6 -20t-2 -22.5t-4 -23t-10 -21.5q-6 -11 -3 -20t6 -17.5t2.5 -18
t-13.5 -19.5l-2 3q-5 -2 -10 -19t4 -34q5 -4 5 -9t-2 -9.5t-4 -7.5t0 -4l4.5 -3t7.5 -7t2.5 -8t-10.5 -5q-5 -8 -5.5 -17t-0.5 -17.5t-2.5 -15.5t-9.5 -11q-6 3 -14 3.5t-15 1.5t-12 4.5t-6 13.5l2 30q-4 0 -6 1t-2.5 1t-0.5 -3v-11l34 24q-12 6 -18 12t-9 12.5t-4 13
t-3 11.5q10 8 14 23t8 32q-23 25 -29 49t-10 52q3 9 -2 18t-8 18.5t-0.5 19t20.5 18.5q-9 7 -12.5 13.5t-3 12t3 9.5t5.5 6q4 7 9.5 9.5t10.5 3.5t10 2.5t10 6.5q9 1 17.5 -1.5t16 -7t15 -9.5t15.5 -8q2 -3 1.5 -6.5t0.5 -7.5q1 -9 8 -17t7 -24z" />
    <glyph glyph-name="quotedbl" unicode="&#x22;" 
d="M223 544q1 -8 1.5 -13.5t-0.5 -10t-2.5 -10t-3.5 -14.5q-9 -8 -10 -25t-10 -39q11 0 13 -1.5t2 -3.5q-8 -3 -10.5 -9t-3.5 -13t-3.5 -14.5t-9.5 -14.5q5 -16 8 -27t6 -19l-23 -20q11 -10 12.5 -17.5t-0.5 -13.5q-12 -3 -20 5q2 9 0 17t-4.5 17t-2 18.5t8.5 20.5
q-12 10 -18 22.5t-9.5 25t-7 24t-10.5 21.5q7 19 5.5 34.5t-4 31t-1 31.5t15.5 35q0 2 3 7t5 9q14 -2 28.5 -4t26.5 -13q4 -10 5.5 -22t12.5 -15zM415 553q-8 -36 -11 -74t-1 -76q-3 -8 -2.5 -16t-15.5 -17q14 -17 13.5 -28t-0.5 -20q-4 -4 -9.5 -7.5t-9.5 -7.5t-5 -9t5 -12
q0 -3 -1 -5q-8 -2 -12.5 5t-9.5 13q5 19 -5 35q2 28 -3 50.5t-12 44t-14.5 45t-11.5 53.5l10 21q4 4 6.5 12.5t6 16t10 12t19.5 0.5q11 14 16 12t11 -7q0 -15 10 -22.5t16 -18.5z" />
    <glyph glyph-name="numbersign" unicode="#" 
d="M351 411q-16 11 -42 14t-42 -2q-4 -11 -8.5 -8.5t-7.5 1.5q-2 -1 -5 -5t-6 -7t-7 -3t-8 8q-6 -2 -9.5 -2.5t-11.5 -2.5q2 -12 3.5 -20.5t6.5 -17.5q-2 -14 -3 -30.5t-18 -31.5q5 -13 6 -21t4 -21q8 0 13 -4.5t8 -6.5l18 3t8 7q11 -5 26 -7.5t26 -11.5q1 0 7 8t27 8
q-8 6 -10.5 10t-2.5 7t1 5t1 3q10 8 15 25l-12 14q4 4 4 8t0.5 8.5t2.5 10.5t9 15q-5 7 -7.5 11.5t-4.5 8.5q1 1 7 10.5t12 16.5zM523 201q-12 -3 -22.5 -11.5t-21.5 -13.5q-12 11 -26.5 11t-28.5 -1q-6 5 -13.5 7.5t-22.5 4.5q-3 -17 -1.5 -26.5t9.5 -17.5
q-1 -11 0.5 -23.5t-2.5 -24.5q-4 -6 -6 -14t-3.5 -14.5t-5 -11t-10.5 -3.5q-8 8 -17 13.5t-14 15.5q2 9 -0.5 17t-5.5 15.5l-6 15t-3 15.5q9 6 14 15t9 26q-27 2 -47 2.5t-36 -4.5q-11 -2 -19.5 2t-16.5 5q-3 -2 -9 -2t-20 4q2 -30 3 -50.5t3 -39.5q2 -7 -2.5 -13t-7.5 -11
q-13 -11 -30 -6.5t-31 9.5q-9 -1 -9 3.5t2.5 10.5t6 12.5t2.5 10.5q-5 11 -5 23t5 21q1 5 1.5 11t2.5 18q-17 4 -31 4.5t-36 -6.5q1 0 -7.5 2t-17.5 -1q-8 -2 -13 -5t-5 -4l3 4q-6 14 -10 21t-7 13q4 7 10.5 11.5t11.5 8.5l19 -5q18 7 36.5 -2t39.5 -16q7 4 11.5 7t14.5 11
q-7 6 -9.5 9t-4.5 5q1 9 -3.5 18.5t-6 20t3 22.5t22.5 26q-12 9 -15.5 16.5t-2.5 12.5t4 8.5t3 5.5q-5 0 -13 1t-7 1l4 20q-26 9 -54 11.5t-56 4.5q-3 1 -6 5.5t-3 9t3.5 7.5t12.5 1l15 10.5t10 4.5q10 -3 20 -1.5t20.5 2.5t21 -1t20.5 -13q6 0 11 2q4 2 7.5 5t3.5 10
l-16 19q1 0 2 1l6 6q-2 17 -1 38.5t-6 34.5q-1 5 -1.5 9.5t4.5 8.5q4 3 10 5t18 -14q12 10 17 9.5t7 -2.5q1 -14 -1 -31.5t-8 -37.5q5 -7 8 -11l6 -8q-2 -8 -2 -17q9 -8 11 -9t3 -1q-1 -1 -1 -1.5t-1 -1.5l13 -14q25 11 41 12t27 3q12 -4 26 -0.5t38 1.5q-4 24 -10.5 33
t-8.5 10v-7q5 6 5 14.5t-1 17t-1 17t5 16.5q5 12 12.5 22.5t22.5 9.5q4 -4 4.5 -10.5t0.5 -14t-0.5 -14.5t2.5 -12q8 -6 9.5 -15t-0.5 -20t-5.5 -23.5t-5.5 -26.5q38 8 64.5 8t49.5 1q18 -23 25 -43q-5 -10 -11 -18t-25 -2q-10 -6 -12 -10q-17 5 -33.5 7.5t-26.5 3.5
q-3 -2 -7 -6q-6 -6 -10 -12q-8 -7 -11.5 -14.5t-3.5 -15.5t2.5 -16.5t4.5 -15.5q-2 -7 -1 -14.5t1 -16.5t-2 -20t-11 -26q16 -1 26.5 -6t18.5 -11t15.5 -9.5t18.5 -1.5q3 -1 9.5 1t14 5t15.5 5.5t14 1.5q11 -2 14.5 -9.5t6.5 -17.5z" />
    <glyph glyph-name="dollar" unicode="$" 
d="M169 65q0 -8 -5 -10t-7 -7q-11 5 -14.5 8t-1.5 14q-11 -2 -18.5 4.5t-14.5 14.5q3 9 2.5 17t-0.5 15t3 12.5t12 9.5q4 -5 5.5 -12.5t3 -14.5t5 -11t11.5 -1l-7 -21q8 -6 14 -8t12 -10zM443 202q2 -9 -1 -16t-6 -13t-3.5 -12.5t7.5 -15.5q-7 -8 -6 -17.5t2.5 -19.5t-1 -18
t-15.5 -12v-13q-9 -2 -16 -10t-14 -14.5t-14.5 -8.5t-16.5 7q-6 -7 -13 -6t-14.5 3t-14.5 3t-14 -5q-3 -5 -1.5 -6.5t3 -2.5t0.5 -3t-7 -8l-10 4q-4 -7 -7 -12q-2 -5 -3.5 -10t0.5 -10q6 -3 2.5 -8t-1.5 -6l2.5 -1t4 -3t1.5 -4t-6 -3q-5 -10 -2.5 -19t-4.5 -14q-4 1 -8 1
h-7.5t-6 2t-2.5 7v11q-5 3 -6 4.5t0 -8.5l21 17q-14 5 -16.5 11.5t-4.5 12.5q5 5 7 13t4 18q3 4 2.5 4.5t-2 0.5t-3.5 1.5t-3 7.5q-5 2 -6 1.5t-1 -2.5t-1.5 -4.5t-7.5 -3.5q-10 2 -14.5 8.5t-9.5 14.5q-3 -4 -9 -6t-11 0l-4 13q8 0 9.5 5t1.5 8q5 -6 11 -6t12.5 2.5t12 4.5
t9.5 -1q8 0 14.5 2.5t12.5 4t13 1.5t16 -4q6 -3 12 -1t12 4.5t12.5 4t12.5 -2.5q18 2 23.5 16t13.5 24l13 -10q5 7 2.5 13.5t-6.5 12.5t-6 12.5t6 14.5q5 0 11.5 4.5t1.5 13.5q-5 2 -5.5 5.5t-0.5 8t-0.5 8t-4.5 5.5q-10 10 -8 23.5t4 24.5q-5 8 -9.5 5.5t-10.5 -3.5
q2 7 4.5 10.5t6.5 9.5q-19 15 -44 13q-7 -10 -14 -9t-14.5 6t-15.5 11t-16 6q-3 -8 -9 -10t-12 -2h-12.5t-11.5 -6q-4 5 -11.5 8t-15.5 5q-3 -8 -14.5 -4.5t-19.5 6.5q0 7 -3.5 10.5t-8 6.5t-7.5 6.5t-2 10.5q-10 -5 -16.5 6t-8.5 18q-4 5 -2 9t5 7.5t4 7.5t-5 9q5 2 6 7
t3 10q-2 4 -5.5 1t-5.5 -5v-2h-3q5 5 5 10t-1.5 10t-1.5 10.5t6 11.5q1 17 -1 36t7 34q-3 7 2.5 8.5t9.5 5.5q9 -3 12 0t4.5 7.5t4 9t9.5 4.5q10 -11 19 -7.5t17 9t15 5.5t15 -16l-3 -20q-6 -3 -11 -1t-9.5 7t-9 10.5t-10.5 8.5q-7 -10 -9.5 -23t-11.5 -15l3 -11
q-11 -2 -13.5 5t-12.5 10q-5 -4 -4 -9t3 -10t4 -11t0 -11q-13 -4 -12.5 -11t3.5 -13.5t3.5 -12.5t-13.5 -7q7 -7 4.5 -18t2.5 -20q-9 0 -7 -7.5t0 -12.5q5 -3 9.5 -10t-0.5 -14q1 -7 7 -8.5t13 -1.5t12.5 -1.5t6.5 -8.5q7 -8 17 -6.5t17 -5.5q5 6 11.5 7t14.5 1
q7 -8 11.5 -2t12.5 7q9 -2 18.5 1t18.5 5t17 1t14 -11q5 3 14 3.5t13 8.5q1 -2 4 -5.5t5.5 -7.5t4 -8t-0.5 -8l9 -14l18 13q18 -13 25.5 -31.5t9.5 -38.5q-7 -6 -8 -15t8 -12zM429 462q-6 3 -8 0t-4 -7.5t-5 -7.5t-9 2q-2 7 -8 13.5t-14 5.5q6 4 5 8.5t-4 8t-6 7.5t-3 9
q-25 5 -32 27q-3 -2 -7.5 -5.5t-9.5 1.5l-12 17q-9 -6 -17.5 -10.5t-9.5 -15.5l-30 10l-4 9q0 -1 1 -1q2 0 4 8q-6 7 -8 10t-2 5.5t0.5 5.5t-0.5 10q7 3 5 7.5t-5 10t-3.5 11t9.5 10.5q-11 8 -9 14t4 8q5 7 10 6.5t10 4.5q5 0 5.5 -0.5t0.5 -2t0.5 -3.5t5.5 -4q1 -2 -3 -7
t-4 -7q2 -5 8.5 -5t6.5 -7q-2 -5 -1 -10t2 -10.5t-1 -10t-11 -8.5q-6 -3 -4.5 -4t4.5 -2t4.5 -3t-5.5 -8h11q-1 -5 -2.5 -8t9.5 -3q3 -2 4.5 -0.5t2.5 3.5t2 2.5t3 -3.5l8 10t13 3q10 -7 19.5 -11t19 -7t18.5 -7.5t18 -11.5q10 -2 15 -8.5t8 -15t3.5 -17.5t1.5 -16z" />
    <glyph glyph-name="percent" unicode="%" 
d="M512 180q-1 5 -10.5 9t-11.5 9q0 6 1 19t-3 18q-5 6 -14.5 2.5t-17.5 -0.5q-8 4 -25 5.5t-25 1.5q-4 -6 -8.5 -7.5t-10 -1.5t-11.5 0.5t-14 -2.5q3 -7 0.5 -11.5t-6 -8.5t-7 -6.5t-3.5 -5.5q-2 0 -1.5 -2.5t0.5 -6t-1.5 -7t-5.5 -4.5q12 -21 10.5 -32.5t1.5 -20.5
q-7 -12 -5 -25t-1 -24q0 -16 9.5 -19t18.5 -9q0 -2 -2 -2t-3 -6q10 -7 22 -12.5t24 -10.5q3 -1 9.5 -1t13 0.5t12.5 0.5h9q5 -2 8.5 -5t8.5 -2q13 4 24 20q4 7 5 16.5t1 18t-0.5 15t0.5 9.5q3 3 3 9t-1.5 13t-2.5 14t-1 11q-3 4 -2 9t4 10.5t5.5 11t2.5 10.5zM189 303
q-6 4 -11.5 8.5t-16.5 0.5q-7 -3 -7 -10.5t-7 -10.5q-8 4 -20 1t-22 -4.5t-14.5 3t1.5 23.5l-14 16q-11 -14 -18.5 -20.5t-16.5 -8.5q-10 7 -14 16t-6 18.5t-4 19.5t-6 19q5 8 8.5 17.5t11.5 20.5q-11 8 -14 15t-3 14.5t1 14.5t-1 15q3 6 4 13.5t4 15t10 14t23 11.5
q-14 7 -15.5 8.5t0.5 2.5q7 2 8.5 -2t4.5 -10q-2 -2 -5 -4.5t-8 -6.5q13 -8 14 -14.5t-1 -10.5q-8 -8 -4.5 -17.5t-0.5 -22.5l11 -13l-19 -21q8 -14 10.5 -26.5t4.5 -24t6.5 -22t16.5 -20.5q9 -6 20.5 -2.5t22.5 5.5t19.5 -1.5t10.5 -22.5q11 0 16.5 4.5t17.5 11.5l-6 5
q-10 0 -7 1.5t8 -3.5q7 -8 7 -16zM541 150q-1 -3 -3 -4t-3 -2q-1 -19 1.5 -29t2.5 -16t-4.5 -11.5t-18.5 -15.5l8 -34q-2 -5 -3 -10.5t-16 -2.5l-23 -35q-8 -1 -17.5 1t-19 3.5t-18.5 1.5t-16 -5q-5 3 -9.5 9.5t-9.5 6.5q-3 0 -5 -2.5t-4.5 -5.5t-4.5 -4.5t-5 1.5
q-3 5 -7 8.5t-8 7.5t-7 10t-6 17q-15 0 -20.5 4t-7 10.5t-1 14t-0.5 13.5q4 8 3.5 16.5t-2 18.5t-1 21.5t7.5 26.5q-5 5 -7 6.5t-3 1.5q4 3 9 7t8 10t2.5 13.5t-7.5 16.5q0 2 -0.5 4t-0.5 4q4 5 6.5 10.5t5 10t5.5 7.5t9 3q6 5 8 12t5 14q7 -1 14.5 -9.5t23.5 -19.5
q5 14 13.5 17t9.5 0l27 -16q12 10 16 17.5t10 6.5q4 -8 13 -10t16 -5.5t9.5 -10.5t-5.5 -25l20 -10q-2 -8 0 -17l7 -9q0 -3 1 -7t2 -6q-1 -8 -2 -15t2 -15zM226 396q-2 -5 -5 -9.5t-20 -5.5q9 -20 18 -33t0 -23q-11 4 -20 8.5t-11 15.5l2 -5q-4 0 3.5 1.5t22.5 14.5
q-14 5 -18.5 9.5t-5.5 8.5t-0.5 7.5t-3.5 6.5q4 5 9.5 8t10.5 5q8 3 11 -0.5t7 -8.5zM481 681q-6 -5 -6.5 -11.5t1 -13t2 -13.5t-4.5 -14q-3 1 -10 1q-8 -8 -12 -18.5l-8 -21t-11 -19t-21 -12.5q2 -16 -4.5 -24.5t-13.5 -15t-9.5 -14.5t7.5 -22l-10 9h5q0 -11 1.5 -21.5
t-4.5 -15.5q-3 1 -14 1q-2 -7 -1.5 -14.5t-1 -13.5t-6.5 -9t-17 -2q2 -14 -1 -23t-7.5 -16.5t-8.5 -14.5t-3 -16q-9 -7 -9 -15.5t1 -17t-1 -16t-17 -11.5q-6 -12 -10 -23.5t-12 -20.5q-8 2 -16 -6t-10 -16q-2 -7 3 -12.5t10 -10t6 -8t-9 -6.5q-5 1 -10.5 -3t-10.5 -9
q1 -8 2.5 -16t-2.5 -12l-26 -19q-5 -17 -7.5 -36.5t-15.5 -39.5q7 -5 7.5 -9t-2.5 -6t-6 -3l-3 -1q-13 -3 -17 -10.5t-5.5 -16t-4.5 -16t-14 -10.5q-4 -4 -7 -8.5t0 -13.5q8 -4 3 -11t-8 -15q5 -8 4 -14.5t-5 -11.5t-9 -9.5t-8 -8.5q-11 0 -15.5 8.5t-10.5 15.5
q-3 15 7.5 27t20.5 22q15 5 17 16t-3 24q4 7 18 3q0 21 4.5 38.5t8.5 32.5q5 7 8.5 16t8 18t11.5 18t21 16q-6 9 -5 14.5t4.5 9t8 6.5t6.5 7l5 48q1 8 9 11.5t16 14.5q-5 11 -2.5 17.5t7.5 11.5t10.5 9.5t7.5 11.5q14 1 14.5 8.5t-1.5 16.5t0 18t19 13q-3 13 1.5 19.5
t6.5 11.5q11 9 15 17q0 5 -1.5 11.5t-2.5 11.5q6 1 7.5 4t2 7t0.5 8t2 9q11 6 15.5 14.5t7.5 18t8 19t16 18.5q-3 10 0 16t7 10.5t7 8.5t2 11q3 2 5 4.5t4 4.5q1 5 3.5 14t4 18t1 14.5t-3.5 2.5q-13 -11 -31.5 -21.5t-23.5 -19.5q-2 0 -2.5 3t-3 6t-8.5 5.5t-17 2.5
q17 -13 18.5 -18.5t0.5 -10.5q-8 -3 -17.5 -7.5t-25.5 4.5q-5 -17 -7.5 -27.5t-11.5 -14.5q-5 5 -12.5 7t-15.5 6q-8 -5 -11 -10t-7 -3q-1 6 -2 11.5t4 10.5q9 -1 14 1.5t10 6.5t11 8t16 6q3 9 9 13.5t12.5 7.5t13 6.5t10.5 9.5q0 6 2 6.5t4.5 -0.5t5.5 -1t5 3q0 9 5.5 14.5
l10.5 10.5q0 -1 0.5 -1t0.5 -1q7 0 9.5 2.5t3.5 5.5t2 6.5t4 6.5q9 3 12.5 10t6 14t7 12t16.5 5q2 2 11 2t11 8l1 3l-15 -3q3 -5 10 -7.5t13.5 -5.5t11.5 -8t3 -14zM230 468q-3 -6 -3.5 -13.5l-1 -15t-2 -14.5t-7.5 -11q-9 -3 -11 1t-2 11.5v16t-5 13.5q-2 10 2.5 20t8 19.5
t2 18t-14.5 16.5q-13 2 -27.5 5t-22.5 -2q-7 -2 -16.5 0t-19.5 -5q-12 -2 -23 3t-21 8q2 9 8.5 13.5t12.5 12.5q10 1 20 -1.5t19.5 -5.5t19 -5t18.5 1q3 -4 7 -4t8.5 1.5t8.5 3t9 1.5l10 -11q-5 -2 -8 -6.5l-7 -10.5q13 -11 21 -16t13 -15q-5 -7 0.5 -13.5t3.5 -15.5z" />
    <glyph glyph-name="ampersand" unicode="&#x26;" 
d="M326 147q-12 -5 -19 -3.5t-11 5t-6 8.5t-5 8q-9 1 -15 6.5t-11 12.5l-10 14t-11 12q1 9 -3 17t-9.5 16.5t-11 17.5t-6.5 20q-12 0 -20.5 5.5t-15.5 10t-14 4.5t-15 -12q-8 -16 -19.5 -26.5t-30.5 -15.5q-3 -12 -8 -22.5t-9 -19.5t-6.5 -18t0.5 -19q-6 -7 -7 -16t0 -18.5
l2 -19t-2 -18.5q-9 -16 -5 -23.5t13.5 -13t20 -12.5t14.5 -23q23 7 40 5t33 5q12 -6 27 -3.5t25 -6.5q5 0 6.5 0.5t2.5 0.5q22 -4 30 5.5t16 18.5q15 3 20 12t7 22.5t3.5 30t9.5 33.5zM270 460q6 9 5.5 17t-2.5 15t-5 12t-3 7q-1 0 -4 4t-6.5 8.5t-6 7.5t-2.5 2l19 5
q-4 7 -8 8.5t-8.5 1.5t-9.5 -1t-11 1q5 -2 0 0t-13 4q-10 3 -25 6q-14 -3 -21 -6t-13 -14q-2 -3 -6.5 -3t-15.5 3q-3 -18 -8 -30.5t-2 -24.5q-2 0 -1 -2l2 -4t0 -4t-6 -3l-2 -18q-5 -13 -0.5 -19t13 -9.5t18 -8.5t12.5 -16q-1 -9 3 -14t11 -7t15 -2.5t15 -0.5q11 7 22.5 19
t15.5 26q3 2 7 3t15 -7q8 17 8 25.5t-2 18.5zM518 44q-11 -12 -21 -19t-20 -19q-9 0 -19.5 -3.5t-20.5 -4.5t-19 3t-16 18q-13 -8 -23.5 -4t-19 10t-16.5 9t-16 -6l-7 10q-9 -13 -18.5 -19t-18.5 -7.5t-18 -1.5t-17 -1q-7 1 -14.5 -1t-15.5 -4t-15.5 -3t-14.5 1
q-14 3 -28 2.5t-27.5 -0.5t-26.5 2.5t-26 11.5q-1 14 -10.5 18t-19.5 11q5 5 3 11.5t-2 17.5q-18 4 -20.5 11t-0.5 16t5.5 18t-2.5 17q6 15 7 31t2.5 32t6.5 30t21 24q3 8 10 12t14 7t12.5 6t6.5 11q10 4 20.5 12t18.5 24q-5 6 -7.5 12t-4 11.5t-3.5 10t-8 7.5q-3 5 -7 9.5
t-4 8.5q-7 11 -8.5 25.5t-9.5 21.5q-1 7 -0.5 13t8.5 14q-1 4 -3.5 7.5t-3.5 6t0 5t6 4.5q1 6 -3 10.5t-7 8.5t-3.5 8.5t7.5 9.5q-3 18 9 20q9 0 8 6.5t4 10.5q6 9 15.5 13.5t18.5 1.5q7 -5 9.5 -4t5 5t7 8t15.5 4q1 3 6 2t11 -2.5t10.5 -3.5t4.5 -1q7 -4 16.5 -4t17.5 -1.5
t14.5 -5.5t7.5 -16q0 -8 5 -13.5t9.5 -11.5t5.5 -13.5t-7 -17.5q14 -10 15.5 -17t-2 -13t-8.5 -12.5t-4 -14.5q-5 -7 -7.5 -15.5t-6 -16.5t-9 -14t-15.5 -8q-5 -6 -11.5 -12.5t-8.5 -13.5q-12 -2 -21.5 -13t-9.5 -24q5 -8 8 -20.5t14 -18.5q2 -8 8 -14l12 -12t10 -13t1 -17
q2 -23 11 -34t29 -24l13 -9q11 8 20.5 6t17 -6t12 -5t6.5 9q5 3 8.5 6t8.5 1q8 -7 9.5 -16t-0.5 -17q-6 -3 -9 -9.5t-5 -14t-3 -15t-2 -12.5q5 -14 13.5 -23.5t19.5 -19.5q5 -5 12 -16l11 16q2 -2 3.5 -5.5t8.5 -7.5q6 11 13.5 16t15 8.5t13.5 7.5t8 13q7 6 18 -1
q2 -9 6 -15.5t1 -16.5z" />
    <glyph glyph-name="quotesingle" unicode="'" 
d="M322 515q-4 -8 -2.5 -17t3.5 -18t2 -18.5t-6 -17.5q-5 -8 -5.5 -10.5t-1.5 -4t-5 -4t-15 -11.5l-3 2q-8 -9 -12 -18q-4 -8 -6.5 -16t1.5 -15q5 -3 5 -7t-1.5 -7.5t-3 -6t-0.5 -2.5q1 1 5 -1.5t6.5 -5.5t2 -6.5t-9.5 -4.5q-4 -8 -4.5 -15.5t-0.5 -14.5t-1.5 -12.5
t-7.5 -9.5q-6 1 -12 1t-11.5 1t-9.5 4t-5 11l2 18q-8 5 -9.5 7t-1.5 -13l34 25q-22 10 -25 20.5t-6 18.5q9 8 12.5 20.5t5.5 27.5q-9 11 -12 16t-3 9t1 9t0 16q2 8 -2 15.5t-6.5 15.5t0.5 15.5t18 15.5q-8 6 -11 11.5t-3 10t2 8t4 5.5q4 6 8 8t8.5 3t8.5 2t8 5q15 2 27 -7.5
t26 -15.5q1 -3 0 -5.5t0 -4.5q2 -8 7 -14.5t5 -17.5z" />
    <glyph glyph-name="parenleft" unicode="(" 
d="M329 -136q-11 -8 -18.5 -5t-12.5 26l15 8l1 -12q1 -2 -1 -6q5 3 12.5 2t13.5 1l2 -6zM360 -83q-2 -1 -3 -1t-3 -1q-8 -4 -12 -12t-2 -15q-2 -3 -8 -5q-3 4 -7 5.5t-7 3.5t-3 6t6 14q-13 5 -17.5 6.5l-7.5 2.5q3 2 6 4.5t6 8.5q-14 13 -18 25t-14 18q-3 6 -7 12t-7 12
t-4 10.5t3 7.5q4 19 -1.5 23.5t-13.5 6.5q-5 11 -4.5 23t-6.5 21q0 4 -2.5 4h-6t-7 0.5t-4.5 5.5q-4 6 -8 11q-3 5 -4.5 9t2.5 6q3 2 7.5 0.5t6.5 0.5q2 7 0.5 14.5t-3.5 10.5v5.5t1 3t3 4t6 9.5l-22 25q5 12 4.5 27t-5.5 33q-5 2 -10.5 -0.5t-4.5 -0.5q1 0 1 3.5t1 7.5t5 8
t13 6q0 5 -1.5 8.5t-2 6t3 4.5t14.5 5q-16 20 -16.5 30.5t0.5 19.5q5 8 5.5 19.5t1.5 21.5q0 9 3.5 17.5t6.5 17t4 17t-2 17.5q3 5 8 9.5t8.5 9t4 10t-5.5 11.5q2 12 7 25.5t16 18.5q5 9 3.5 14t0.5 13q7 2 10.5 6.5t14.5 18.5q-8 7 -4 12t3 7q7 6 11 16.5t7 20t6.5 14
t9.5 -2.5q2 -2 2.5 -4.5t2.5 -4.5q3 -2 6.5 1t5.5 -3q-1 -2 -1.5 -7.5t-1.5 -7.5l-5 -21q7 -12 8 -19t-1 -11.5t-5 -7.5t-2 -7h-3q-16 2 -24.5 -12t-6.5 -31q2 -11 -2 -20.5t-10.5 -17.5l-13 -16t-9.5 -16q2 -12 1.5 -30.5t-17.5 -30.5q4 -11 2 -21.5t-6 -20t-8.5 -18.5
t-7.5 -18q5 -11 4.5 -23.5t-2.5 -26t-3 -26.5t5 -24q-6 -9 0 -22.5t8 -23.5q9 -6 11.5 -14.5t3.5 -15.5q-5 -11 -3.5 -24.5t5.5 -29.5q16 -3 19 -11.5t2.5 -17.5t1 -16.5t14.5 -7.5q0 -1 -1 -1q-2 -11 1.5 -16.5t8 -10.5t7 -11.5t-2.5 -19.5q9 -11 13 -19t6.5 -15.5t5.5 -14
t12 -12.5q2 -2 5.5 -3t6.5 -1.5t4 -2t-1 -2.5z" />
    <glyph glyph-name="parenright" unicode=")" 
d="M356 213q0 -6 -3.5 -10t-8.5 -8t-10 -7t-7 -7q-7 -10 -4.5 -20t6 -19.5t4 -19t-9.5 -18.5q-7 -1 -11.5 -5t-3.5 -11q3 -21 7 -35.5t0 -33.5q-8 0 -13 -2q-12 -4 -15 -10q-3 -8 2 -13.5t7 -12.5q-4 -4 -4 -10t-0.5 -12t-3 -11t-10.5 -6q1 -9 -3 -14t-10 -9.5t-11.5 -9.5
t-8.5 -13q-9 -9 -17.5 -15t-17.5 2q-4 5 -3 9.5t3 9t2.5 8.5t-4.5 8q0 6 5 9.5t11.5 6t13 5.5t8.5 8q4 1 3.5 5t-2 9.5t-3.5 11.5t-1 11q4 17 16 34t17 32q14 -1 13 6t-5.5 16t-7 17.5t9.5 11.5q-8 8 -5 15t7.5 13.5t6 13t-8.5 14.5l15 15q-2 20 6.5 44t12.5 40
q-5 9 -4.5 19t1.5 19.5t-0.5 19.5t-8.5 19l16 26q-12 7 -17 15.5t-8 17.5t-5.5 19t-8.5 19q2 8 -5.5 13t-13.5 7q-3 9 2 19.5t9.5 20t4.5 16.5t-13 9q-6 8 -12.5 20.5t0.5 22.5q-8 9 -10 12.5t-2 6t0.5 7t-2.5 14.5l-23 27l-18 9q-2 5 3 7t7 6q-4 1 -4.5 3.5t-0.5 5.5v5.5
t-2 4.5q8 3 15 -2t15 -7q1 -10 7.5 -13.5t14 -6t14 -6.5t7.5 -14q1 -11 4.5 -19.5t7.5 -16.5t6 -17t0 -20q9 0 9 -5.5t-2 -12.5t-3 -14t4 -10q-7 -13 -3.5 -19t5.5 -18q-2 -8 6.5 -15t18 -13.5t15 -13.5t-3.5 -15q-3 -13 2 -22.5t10 -21.5q-2 -7 -2 -15v-16t-1 -16t-4 -14
q7 -4 7 -8t-2 -8.5t-3.5 -9.5t3.5 -9q0 -9 -2 -16t-3 -13t0.5 -12.5t8.5 -13.5z" />
    <glyph glyph-name="asterisk" unicode="*" 
d="M481 408q4 -10 -2.5 -14.5t-10.5 -9.5q-9 -5 -18 -5.5t-18.5 0.5t-18.5 1t-17 -4q-5 0 -9.5 1.5t-9.5 3t-10 2t-9 -3.5l-2 -4q-8 2 -17 -2.5t-18 -6.5l1 -14q9 -1 12 -7.5t5 -13.5t4.5 -12t11.5 -2q4 -12 13 -23.5t15 -23t6 -22.5t-13 -21q-2 -4 -6 -5t-6 1
q-14 20 -21.5 38t-24.5 35q0 7 -4.5 15.5t-10.5 18t-12 22t-9 28.5q-12 -23 -20 -33.5t-6 -22.5q-4 -2 -7.5 1.5t-7.5 2.5q-9 -5 -9 -15.5t1 -21t-1.5 -19t-15.5 -9.5q-4 -2 -4.5 -6.5t-1 -8.5t-4 -6.5t-12.5 -0.5q-4 -8 -5 -14.5t-8 -2.5q-7 8 -7.5 17.5t2 19.5t6.5 20
t6 20q7 5 10.5 12t6.5 14.5t7.5 14.5t13.5 12q1 8 -2 13t-7.5 8.5t-9.5 6t-8 6.5q-12 -2 -18 -8t-9 -13q-7 5 -15 13.5t-21 3.5q-3 -8 -8.5 -9t-11.5 0q-5 7 -13 10t-15 5q-1 5 -1.5 9t4.5 8q6 5 14.5 7.5t11.5 10.5q7 1 14.5 0t14.5 -1.5t13 0.5t10 6q11 -7 25.5 -3.5
t25.5 7.5q4 7 2.5 13.5t-5.5 12t-9 11t-7 12.5q4 8 1.5 15t-7 14.5t-9 15.5t-4.5 18q-2 2 -5.5 3t-7 1.5t-6 2t-0.5 4.5q5 1 7 5l4 8t4.5 6t8.5 -1q2 -11 6.5 -21t15.5 -14q1 -2 4 -2t5.5 -1t4 -4t-0.5 -9l17 -15q-2 -4 -0.5 -18.5t2.5 -19.5q6 -5 9.5 -10.5t7.5 -11.5
t9.5 -10.5t14.5 -7.5q5 8 8.5 16t7.5 16q3 7 12.5 12.5t12.5 12.5q8 17 8.5 33.5t11.5 28.5q8 6 10 14.5t9 14.5q9 1 13.5 -2t6 -8.5t2 -12t2.5 -12.5q-5 -7 -12.5 -14t-13 -15.5t-8 -17t1.5 -18.5q-2 -4 -5.5 -5t-6.5 -1.5t-5 -3t0 -9.5l-14 -35q-2 -4 1.5 -3.5t9 1.5
t11.5 1t11 -4q20 0 43.5 2.5t45.5 -12.5q10 2 19 2.5t17 -4.5z" />
    <glyph glyph-name="plus" unicode="+" 
d="M450 150q-5 -5 -4.5 -12t1 -13.5t-2 -11t-14.5 -3.5q-9 9 -18 7.5t-17.5 -5.5t-18 -6.5t-20.5 4.5q0 2 -3 4t-6 2q-8 3 -15.5 0t-9.5 -11q6 -6 5.5 -12t-2.5 -12t-3.5 -11t3.5 -9q-6 -5 -5 -9t3.5 -8.5t3.5 -8.5t-5 -8q6 -10 2.5 -17t-9 -13.5t-9.5 -14t2 -18.5
q-3 -5 -6.5 -5.5t-7 0t-7 1.5t-6.5 -1l-8 9q-6 -3 -7 -1t-1 5.5t-1 7.5t-5 5q5 8 3 18t-3.5 19.5t0 18.5t14.5 15q4 12 2 26t-11 28q-8 7 -18 7t-20.5 -1.5t-21 -1t-19.5 7.5q-20 -7 -39 -6.5t-39 -5.5q1 4 -2.5 8.5t-6.5 9.5t-4.5 10.5t3.5 11.5q12 -4 19 2t13 12.5
t12.5 8.5t18.5 -9q19 0 37 -0.5t35 -13.5q9 0 13 6t9 13q-4 11 1.5 21t10.5 19t4 17.5t-17 15.5q4 7 3 15.5t-1.5 17.5t2 16t13.5 11l23 9q0 -2 0.5 -5.5t-1.5 -4.5q6 -3 9 -6t5 -7t5 -7.5t8 -6.5q0 -5 -4 -16t-13 -10q8 -5 10.5 -13t2.5 -17t-1.5 -19.5t-1.5 -19.5l10 -8
l3 3q-1 -8 5 -12l12 -8q8 9 16 9.5t16 -1t16 -2.5t16 5q11 -1 22.5 -8.5t21.5 -6.5z" />
    <glyph glyph-name="comma" unicode="," 
d="M410 -19l-18 -4q-6 -11 -5.5 -19.5t3.5 -15.5l-18 -18q2 -9 0.5 -16t-3.5 -13t-3.5 -11t0.5 -11q-5 -3 -12 2q-12 -8 -18 -15.5t-8 -13.5q2 -6 0 -9.5t-6 -6.5t-8 -6.5t-6 -9.5l-3 5l-18 -3q-5 -5 -16.5 -10t-19.5 -10q-16 2 -26 3t-24 5q-2 5 1 7t15 2q-3 12 -1 18.5
t6 9.5t9.5 4t10.5 2q11 -3 22.5 8.5t13.5 22.5q0 11 0.5 22t-1 20.5t-7.5 17.5t-19 14q-10 -1 -13 5t-4.5 13t-3.5 13t-8 5q0 2 -6 1t-11.5 -1t-7.5 4t6 16q-7 9 -5 15t7.5 10.5t12 9t8.5 10.5q-1 3 -4 5.5t-5 5.5t-3 5.5t3 4.5l14 17q-6 4 -6.5 6t1.5 2t6 -3t7 -9
q-1 0 -3 5t-2 9.5t3.5 7t13.5 -3.5q8 11 18.5 14t21 5t18.5 5.5t12 15.5q4 6 8 7t8.5 -0.5t9 -4t9.5 -2.5q6 -4 12 -4.5t11.5 -1t10 -4t7.5 -12.5q8 -14 9 -31t3 -32q-3 0 -5 -1q-3 -9 -1 -18.5t5 -18.5t5.5 -18t2.5 -18z" />
    <glyph glyph-name="hyphen" unicode="-" 
d="M514 121q-7 -6 -16 -10.5t-11 -14.5q-17 0 -30.5 -4.5t-30.5 -9.5q-6 10 -14 12.5t-16 1.5t-16.5 -3t-16.5 0q-5 -4 -12.5 -7t-12.5 5q-4 10 -13 9.5t-19 5.5q-4 -7 -9.5 -8.5t-12 -1.5t-13 -1.5t-11.5 -8.5q-11 0 -21 3l-20 6t-19.5 4t-18.5 -3q-10 7 -17.5 5
t-14.5 -6.5t-14.5 -8t-16.5 1.5q-6 13 -14 16.5t-17 1.5t-17.5 -6t-15.5 -5t-11 4t-3 22q3 23 13.5 38t25.5 32q8 -2 12.5 2t8.5 8.5t9 6.5t14 -4q8 -10 16.5 -8.5t17.5 5t17.5 4t16.5 -10.5q4 5 7.5 1.5t7.5 -4.5q9 19 22 20t28 -3.5t31 -8.5t32 5q10 -14 22.5 -11.5
t26 8.5t27.5 8t27 -12q10 6 20 6.5t19.5 -0.5t20 -2t22.5 3q8 -6 4 -14t-3 -16q9 -13 10 -25t-1 -28z" />
    <glyph glyph-name="hyphen" unicode="&#xad;" 
d="M514 121q-7 -6 -16 -10.5t-11 -14.5q-17 0 -30.5 -4.5t-30.5 -9.5q-6 10 -14 12.5t-16 1.5t-16.5 -3t-16.5 0q-5 -4 -12.5 -7t-12.5 5q-4 10 -13 9.5t-19 5.5q-4 -7 -9.5 -8.5t-12 -1.5t-13 -1.5t-11.5 -8.5q-11 0 -21 3l-20 6t-19.5 4t-18.5 -3q-10 7 -17.5 5
t-14.5 -6.5t-14.5 -8t-16.5 1.5q-6 13 -14 16.5t-17 1.5t-17.5 -6t-15.5 -5t-11 4t-3 22q3 23 13.5 38t25.5 32q8 -2 12.5 2t8.5 8.5t9 6.5t14 -4q8 -10 16.5 -8.5t17.5 5t17.5 4t16.5 -10.5q4 5 7.5 1.5t7.5 -4.5q9 19 22 20t28 -3.5t31 -8.5t32 5q10 -14 22.5 -11.5
t26 8.5t27.5 8t27 -12q10 6 20 6.5t19.5 -0.5t20 -2t22.5 3q8 -6 4 -14t-3 -16q9 -13 10 -25t-1 -28z" />
    <glyph glyph-name="period" unicode="." 
d="M368 93q-7 -10 -15 -16.5t-2 -15.5q-3 -6 -2 -11q-8 -6 -15.5 -14.5t-15 -14.5t-16.5 -9t-21 1q-8 -3 -13 -8t-15 -3q-7 5 -10.5 10t-11.5 6q-6 10 -15.5 14t-12.5 12q0 10 3.5 21.5t15.5 27.5q-10 2 -12 3.5t-0.5 3t4.5 2l3 0.5l18 5q-3 9 -7.5 9t-4.5 1q4 0 1.5 6.5
t3.5 6.5q10 1 18.5 9.5t17 16.5t18 11.5t22.5 -4.5q5 -7 10 -3.5t12 1.5q17 -15 29 -30t13 -38z" />
    <glyph glyph-name="slash" unicode="/" 
d="M183 0h-6l3 2zM496 670q-4 -9 -4.5 -18.5t-2 -17.5t-6.5 -14t-17 -8q-8 -22 -15.5 -42t-23.5 -37v-11q-6 1 -11 -0.5t-7 -9.5q3 -22 -10 -39q-9 -1 -18 -13q5 -14 0.5 -24.5t-12.5 -19.5t-15.5 -19t-7.5 -23q-14 -17 -21.5 -35.5t-22.5 -38.5q4 -13 -1 -21t-12 -15
t-13 -14t-4 -17q-14 -4 -18.5 -16t-10.5 -23q6 -5 5 -8t-3 -7q-11 -5 -14.5 -13t-5.5 -17.5t-6.5 -18t-17.5 -13.5q1 -12 -5.5 -22.5t-14 -21t-13.5 -22.5t-3 -25q-11 -11 -16 -26t-6 -31q-4 -3 -5 -6.5t-2 -7.5t-4.5 -8t-11.5 -7q1 -11 -3.5 -17.5t-8.5 -13.5q-6 0 -7.5 -3
t-2.5 -7q-4 2 -9 3t-11 3q-21 14 -16 42q1 9 6 15.5t9.5 12t8 12t2.5 15.5l5 17q13 9 19.5 23.5t11.5 28.5q9 3 10 10t2 14.5t5 12.5t19 3l4 6l1 -1l8 6q-6 12 -2.5 22t10.5 19.5t14 19.5t7 22q9 1 14 7.5t13 12.5q-7 8 -7.5 18.5t3.5 16.5q10 4 16 13t11 18t10.5 17
t15.5 12q6 4 6.5 10.5t0.5 13t3 12.5t15 10q-3 7 -2.5 11.5t2 8t3.5 7t1 9.5q1 10 7 17t12.5 13t12 13t5.5 18q12 20 25 43.5t14 43.5q1 12 9 19.5t16.5 13.5t13 14t-0.5 22l15 28q6 -1 8.5 2t4 7t3 8.5t4.5 6.5l11.5 11.5t14.5 6.5l11 -19h3zM438 478q-2 2 -8 1.5t-2 1.5
l4 -9z" />
    <glyph glyph-name="zero" unicode="0" 
d="M419 283q-1 8 -5 16t-15 13v113q-3 6 -1 14t3.5 16t-0.5 14t-12 9q2 3 1 7t-2.5 8.5t-1 9t5.5 7.5q-8 2 -10.5 3.5t-7.5 -5.5q-3 4 -5.5 4.5t-4.5 2.5q4 10 -4.5 19t-11.5 18l-27 -15q-9 9 -21 6.5t-23.5 -6.5t-21 -3t-15.5 18l-5 -8q-10 -8 -23 -7.5t-21 10.5
q-1 -4 -5 -7.5t-7 -7.5t-4 -7.5t4 -6.5q-4 -5 -8 -2.5t-9 2.5q-10 2 -15.5 -7.5t0.5 -17.5q-6 -7 -4 -14t5 -14t5 -14.5t-4 -15.5q-1 -4 -4 -6.5t-5.5 -5t-3 -6t5.5 -7.5q-4 -8 -2 -16t5.5 -15.5t5.5 -15t-2 -15.5h-2q-5 -14 -3 -26t-5 -25q1 -9 4.5 -18.5t-1.5 -15.5
q9 -18 8 -37.5t-3 -36.5q4 -18 1.5 -33.5t5.5 -32.5q4 -5 4.5 -11t1.5 -12.5t3.5 -11.5t9.5 -8q1 -11 8 -16.5t15 -11.5q28 -4 54 -5.5t54 0.5q6 7 13 6.5t14.5 -2.5t15.5 -4t17 1q0 7 7 8.5t15 3t13.5 5.5t3.5 17q1 6 0 13.5t-1 15t2 13.5t9 10q-8 5 -11 13t-4 16.5t-1 18
t-3 17.5q4 4 5 7.5t1 7.5v7.5t4 7.5q-6 6 -5.5 11.5t3 10.5t4 10.5t-1.5 11.5q3 2 7 2t2 7q1 1 3 1h3zM462 116q-8 -3 -8 -8t1 -10.5t1 -9.5t-8 -6q0 -7 -3.5 -11t-7 -7.5t-6 -7t-0.5 -9.5q-8 -5 -12 -12.5t-15 -9.5q3 -8 -5.5 -15t-16.5 -11q-17 7 -33 3t-33 -4
q-4 -8 -8 -6.5t-8.5 4.5t-9.5 4t-11 -6l-13 14q-4 -5 -8.5 -11t-12.5 2q-5 -3 -10.5 -6t-10.5 -4t-10 0.5t-8 9.5q-5 2 -10.5 4t-7.5 6l-5 -5l3 -1q-2 -5 -5 -6t-6.5 -0.5t-6.5 1.5t-6 0q-6 6 -13.5 8.5t-15 4.5t-15 5.5t-13.5 11.5q11 7 9.5 12.5t-7 10.5t-9.5 11.5t2 17.5
l-7 7l-8 -10q1 14 1.5 29.5t3.5 33.5q-6 5 -6.5 10t2 11t4.5 12t0 12q2 -1 4 1.5t4 3.5q-1 4 0 7.5t-3 6.5h-5q4 1 2.5 4.5t0.5 5.5l-17 13q12 2 14 9t0.5 15.5t-4.5 18.5t-1 18q-1 3 1.5 6.5t4.5 6t2 4.5t-5 4v8q2 -2 2.5 -5t4.5 -3q9 5 3 13q-4 0 -6.5 2.5l-6.5 6.5
q5 7 3.5 12.5t-3.5 10t-1.5 8.5t9.5 9q-9 5 -11.5 11.5t-1.5 13.5t4 14t4 15q-6 8 -4.5 16.5t4 17.5t2 17.5t-9.5 16.5q7 10 13.5 21t14 20t17 15.5t24.5 7.5q-4 7 -1.5 10.5t7 6l9 5t5.5 7.5q9 -9 19.5 -5t19.5 7q-1 -8 2.5 -9t8.5 -1t9.5 -0.5t6.5 -6.5q7 11 17.5 13
t23.5 2q13 -4 25 -19q2 5 6 13t13 6q9 4 9 -3t4 -11q37 7 62.5 -10.5t47.5 -46.5q6 -12 5.5 -21.5t-3 -19t-3 -19.5t5.5 -21q2 -26 0.5 -52.5t4.5 -49.5q-6 -1 -7 -5t-0.5 -8.5t0.5 -9t-3 -7.5q-4 2 -6 -1t-4 -4q1 -3 7 -4.5t11 -4t8 -6t-2 -9.5q6 -4 5 -7t-4 -6t-6 -7t0 -9
q-5 -10 -3.5 -17.5t4.5 -14t5 -14t-1 -18.5q-7 1 -8 -1.5t-1 -6t-0.5 -7t-6.5 -5.5q1 -5 3 -5t4.5 1t5 1.5t4.5 -1.5q4 -5 4 -10.5t-1.5 -10.5t-2 -10t3.5 -9z" />
    <glyph glyph-name="one" unicode="1" 
d="M439 -17q-8 -3 -15 0t-13 7t-12 5.5t-13 -4.5q-11 2 -22 7.5t-23 -0.5q1 2 -1.5 4t-4.5 4l-10 -8q-2 3 -5 3q-3 -5 -5 -4.5t-4 3t-4.5 5t-6.5 1.5l-32 -15q-11 3 -27 7t-27 -7q-16 3 -34 1t-35 -3t-32 4.5t-26 23.5q1 1 3.5 -1t5.5 -3.5t5 -1t3 6.5q-3 3 -6 4.5l-6 3
t-4.5 4t-0.5 7.5q7 9 14.5 9.5t16 -0.5t17 -1.5t16.5 7.5q7 -10 13 -10t11 4t11.5 8.5t15.5 2.5q6 3 10 1t8 -5t9 -5t12 1q9 3 11.5 9.5t3.5 13.5t2.5 13.5t7.5 10.5q-4 4 -4.5 9t-0.5 10.5t-1 10t-7 9.5q1 4 4 8t1 9q-9 4 -8.5 8.5t4 9t6 9t-3.5 8.5l12 12q-6 1 -8 4.5
t-2 8t-1 9t-6 9.5q4 4 10 7.5t2 12.5q-6 4 -5 9t2.5 10.5t0.5 10t-10 9.5q4 4 3 7t-3.5 6.5t-4.5 6.5t0 7q-2 10 3.5 18t11 15t6.5 14.5t-9 16.5q1 15 1.5 29.5t-8.5 28.5q3 5 4 12.5t1 16t-0.5 17t0.5 14.5l-10 33q-7 1 -14 -2t-13.5 -5t-13 -1.5t-12.5 9.5
q-6 0 -11.5 -4.5t-10.5 -7.5t-10.5 -2.5t-9.5 9.5q-4 17 -8.5 34.5t8.5 35.5q7 -3 17 -4t14 7v-3q8 -5 16.5 -2t15.5 7q9 -10 19 -11.5t20 -1t20.5 0.5t21.5 -7q11 -4 12 -9.5t0 -11.5t0.5 -11.5t12.5 -9.5q-8 -4 -6.5 -17t3.5 -22q-5 -5 -3.5 -9.5t3.5 -9t3 -8t-3 -7.5
q2 -4 0 -11t-7 -9q5 -8 3.5 -16t-5 -16t-7.5 -16.5t-4 -16.5l4 -4t6 -1q-4 0 -5 -3q0 -5 3 -7h7q4 -8 2.5 -18.5t0.5 -16.5l-10 -5q1 -5 4 -10.5t5.5 -12.5t3.5 -14.5t-3 -15.5q-9 -2 -10.5 -5.5t0 -8t4 -9.5t1.5 -11q11 -4 9.5 -14t2.5 -18q-9 -6 -11.5 -13.5t-1 -15.5
t4 -16.5t3.5 -16.5q-2 -7 -7 -12.5t-9.5 -10.5t-7 -10.5t1.5 -12.5q-2 -2 0.5 -4t4.5 -4l5 8q2 -13 7.5 -21t2.5 -19q11 -12 21.5 -13t21.5 1t23 4t25 -4q14 11 28 7.5t27 -9.5q-5 -7 -4 -12.5t3.5 -10.5t3.5 -10.5t-3 -12.5z" />
    <glyph glyph-name="two" unicode="2" 
d="M425 24q-2 -4 0 -6.5t2 -4.5q4 1 3.5 5t1.5 6h-7zM459 9q-5 4 -9.5 3.5t-8.5 -3t-8 -4.5t-8 -1q-7 4 -14 3.5l-14 -1t-13 0.5t-11 7q-20 -8 -44 -8.5t-41 12.5q-8 -10 -16 -8.5t-16.5 4.5t-16 3.5t-13.5 -11.5q-2 4 -6 3.5t-6 -0.5q-2 7 -1.5 15.5t-10.5 8.5q0 7 3 8.5
t6.5 0t7.5 -3t7 1.5q5 -6 14 -2.5t18.5 7t17 2t9.5 -17.5l3 -1q4 0 5 3.5l2 7t3 6t9 0.5q-4 -2 -3 -5t-1 -5l4 -2q4 8 11.5 11t15.5 4t17 0.5t17 1.5q8 5 11.5 3t11.5 0q-2 -5 2 -7t7 -6q7 2 13.5 5.5t12.5 6t12 1.5t12 -8q0 -4 3 -8.5t5.5 -9t3.5 -9.5t-3 -9zM469 503
q-6 -7 -5.5 -14t3 -14t3 -14.5t-5.5 -15.5q9 -10 4.5 -25t-4.5 -29q-10 -6 -15 -14.5t-9 -17t-10.5 -15.5t-19.5 -9q-2 -16 -11.5 -26.5t-22.5 -16.5q-11 0 -14 -5t-3.5 -12.5l-1 -15t-6.5 -11.5q-6 -3 -13 -10t-13 -12t-12 -6.5t-11 4.5q-7 -15 -17 -34.5t-27 -28.5
q-12 10 -14.5 7.5t-2.5 -10.5t0.5 -17.5t-5.5 -12.5q-15 0 -23 -8t-15 -18.5t-14 -20t-19 -13.5t-8 -11.5t4 -13.5q5 -9 15 -12t19 2v-20q-23 -5 -49 -4t-44 4q-6 8 -4 15.5t6 14.5l8 14t2 16q5 8 14 5l3 -1q2 2 2 6.5v8.5q4 3 7.5 8t8 9.5t9.5 6.5t12 0l12 20l3 -3
q6 17 13 28.5t16 25.5l7 -17q8 17 20 32.5t23 28.5q3 -2 8 -2.5t8 2.5q6 3 7 9t1.5 11.5t3 9t11.5 2.5q4 6 6 13.5l4 15t6.5 13t14.5 7.5q0 6 5.5 8t12 4t11.5 5.5t5 12.5q4 12 15.5 20.5t22.5 18t17 20.5t-1 27q5 9 3.5 16.5t-4.5 15t-5.5 15.5t-0.5 18q-11 2 -16.5 8
t-10 13t-10 13.5t-17.5 9.5q-14 -8 -22.5 -3.5t-15 11.5t-13 10t-15.5 -8q-3 1 -8 0.5t-9.5 -0.5t-7.5 2t-2 8q-7 -2 -14 -5.5t-14.5 -7t-15 -6t-15.5 -1.5q-17 -18 -32 -31.5t-26 -33.5q-13 -5 -17 -18t-8 -24q-15 -1 -17 4.5t0 13t2.5 15t-9.5 11.5l15 59q11 2 14.5 11.5
t9.5 15.5q8 3 15 8.5t14 10t15 5t17 -6.5q8 8 12.5 15.5t16.5 5.5q6 5 9 2t5.5 -7.5t5.5 -6.5t8 6q9 3 18.5 1.5t18 -4t15.5 -3t11 4.5q-2 -3 -1 -3.5l3 -1.5q6 4 12 8.5t15 -2.5q8 -8 18 -10t19 -4.5t16.5 -7.5t12.5 -18q4 1 7.5 -2.5t7.5 -8l8 -9t9 -5.5q3 -3 4.5 -8
t3.5 -9t4.5 -6.5t7.5 -0.5z" />
    <glyph glyph-name="three" unicode="3" 
d="M155 23q0 2 -3 5q-2 0 -3.5 -2t-3.5 -3q-6 6 -6.5 15.5t-11.5 11.5l-12 -2q-2 8 -5.5 16.5t-11.5 12.5q3 4 3 12q-2 2 -6.5 4t-6.5 4q-2 6 1 8.5t7 4t7 4t0 8.5q13 9 22 0.5t15 -16.5q8 -8 7.5 -18t-1.5 -19.5t1 -17.5t14 -13zM336 1q-13 5 -29 0t-33 -5q-8 -5 -17 0
l-18 10t-17.5 6.5t-16.5 -11.5l-26 8q-8 9 -7 20t-1 19q13 -3 25 8q4 -4 9 -8.5t3 -12.5l15 -2q-5 -5 -2.5 -10l4.5 -9q4 4 8 10t8.5 10.5t11 6.5t16.5 -3q8 -7 18 -6t19 3q4 11 11 8.5t16 -0.5q0 -4 3.5 -6t4.5 -4q1 -5 -1.5 -7t-5 -3.5t-5 -3.5t-1.5 -6l17 5zM460 155
q5 -12 1 -21.5t-10 -18.5t-10.5 -17.5t-0.5 -19.5l-6 -38h4q0 -8 -6 -10t-11 -6h-17l-3 16q-3 5 -6.5 1.5t-5.5 -3.5q-3 -8 5 -14q-3 3 -7.5 1t-9.5 -3t-10.5 0.5t-9.5 10.5q6 8 16 11.5t19 7.5t15.5 10t6.5 20l-10 5q6 4 5.5 8.5t-1.5 9t-1 9t7 7.5q-9 4 -8 10.5t3 14.5
l-8 39q2 3 5.5 3h7t5 1t0.5 6q-5 -1 -6.5 2t-2.5 7t-1.5 9t-2.5 8q-2 4 1 8t5 8t1.5 8t-7.5 8q1 17 -6.5 33.5t-22.5 25.5q-22 20 -50 18.5t-55 -6.5q-10 8 -8.5 20.5t3.5 21.5q2 5 8 7t7 8l-8 9q9 0 12.5 4t5.5 9.5t6 10t13 6.5q-2 7 0.5 12t6 8.5t8 7t7.5 8.5q4 0 6.5 -2
t7.5 0q0 19 10.5 37t12.5 41q-2 2 -2.5 7t-7.5 3q2 6 -0.5 10.5t-4.5 9.5q-8 1 -11 -2.5t-6 -8t-6.5 -7.5t-10.5 -1q0 5 -0.5 8.5t-4.5 5.5q-5 0 -9 -2t-9 0l-2 10q-3 -6 -7.5 -6.5t-9 0t-8 -1t-4.5 -8.5q-9 10 -21 8.5t-24 -5t-23 -3t-18 15.5q-9 -1 -13.5 -9.5t-8.5 -13.5
q-12 -3 -13 -11t0.5 -17.5t1 -18t-12.5 -12.5q-1 -3 0 -6t-3 -5l-17 12l-3 -1q0 6 -3.5 12t-5.5 12t-1 11.5t10 9.5q2 8 0.5 14t-2.5 11.5t0 11t7 11.5l25 20q3 -7 6.5 -8t8 -0.5t9 0t8.5 -5.5q12 14 23.5 12t23 -7.5t23 -7.5t23.5 13q9 -6 18 -4.5t18.5 4t18.5 2.5t18 -8
q11 5 24.5 10.5t26.5 -5.5q2 -8 4.5 -16t10.5 -10q5 2 5 7t-2 9q11 2 18 -8t16 -16q-11 -9 -13.5 -22.5t-13.5 -21.5q4 -9 -2.5 -13t-12.5 -6q-7 -6 -9 -13t-3.5 -14.5t-5 -13t-13.5 -8.5q-3 -9 -10 -18t-13.5 -17.5t-10.5 -17t0 -18.5q-5 -4 -2 -8.5t7 -4.5q9 -4 15.5 2
t8.5 11q0 -8 5.5 -14.5t13.5 -8.5q9 2 16.5 -1.5t13.5 -9t11 -12t9 -11.5l-4 -4t-1 -6q3 -5 7.5 -4.5t8 1t6 -1t2.5 -9.5q-8 -11 -8 -22.5t2.5 -23.5t4 -23t-3.5 -20l7 -17q-6 -3 -6 -6.5t2.5 -8t5.5 -9t3 -8.5z" />
    <glyph glyph-name="four" unicode="4" 
d="M387 4l12 9v-7zM357 565q-8 -4 -5 -9t3 -9q-10 -3 -13 -10t-4 -14.5t-3.5 -14.5t-11.5 -10q2 -6 -0.5 -10t-5.5 -7t-5.5 -7t-0.5 -10q-12 -5 -19.5 -13.5t-12 -19.5t-8 -23t-7.5 -22q-17 -5 -29 -17.5t-20 -27.5q2 -13 -5.5 -22.5t-16 -18.5t-13.5 -20t1 -26
q-11 0 -21.5 -4.5t-12.5 -15.5q-2 2 -3.5 -0.5t-3.5 -4.5q5 -6 1 -12.5t-9 -11.5q2 -5 1 -10t-3 -10.5t-4 -10.5t-1 -9q14 -8 23 -18t26 -14l7 10q8 -4 16.5 -11t15.5 4q-1 -5 1 -3.5t4.5 3.5t5.5 2.5t4 -5.5q7 14 16.5 15t19.5 -2t21 -7t21 -1q2 -4 7 -6.5t10 -0.5
q-4 -5 -0.5 -9.5t5.5 -9.5q-9 -3 -19 -7.5t-20.5 -7.5t-20.5 -3t-20 6q-4 7 -8.5 7t-9 -2t-9.5 -4.5t-11 -0.5l-6 -8q-12 12 -26 12.5t-28.5 -1t-29 -0.5t-27.5 14q-8 13 -13 26.5t-2 31.5q10 5 13 17t6 23t8 16.5t20 -2.5q2 2 2 8q-2 4 -3.5 4t-3.5 -1t-4.5 -1.5t-4.5 3.5
q0 12 4.5 20.5t11.5 15.5t13.5 14t11.5 16q9 6 12.5 14.5t6 17.5l5 18t10.5 16q0 11 6 16t13 9.5t13 10.5t5 18q2 3 4 3t3.5 -1t3.5 -1t4 5q-9 7 -7 13t8 11.5t12 11.5t4 14q8 5 17 9.5t7 17.5v7q6 3 8.5 8.5t5.5 11.5t6.5 12t11.5 10q6 -2 11 2.5t10.5 8.5t11 4.5
t13.5 -10.5zM455 92q-6 0 -13 3t-13 5t-12 1t-11 -9q-7 -6 -5.5 -11.5t0.5 -13.5q-2 -2 -5 1q-7 -4 -4.5 -10t9.5 -8q-9 -9 -7 -17.5t-7 -18.5q-4 3 -7.5 4.5t-7.5 5.5q2 4 4.5 7.5t0.5 8.5q-6 2 -6.5 6.5t0.5 9.5t2 10.5t-3 10.5q-6 4 -13 7t-13 7t-9.5 9.5t-1.5 15.5
q-3 4 -0.5 6.5t5.5 4.5t3.5 4t-5.5 5q3 10 11 20t15 20.5t8.5 22t-8.5 25.5q2 8 1 19t-2.5 21t-0.5 18t7 11q2 8 4.5 17t-1.5 17q-5 2 -6.5 4t-6.5 6q7 5 6.5 11t-3 11.5t-4.5 11t4 10.5q9 6 10 15.5t1.5 16.5t4.5 9.5t20 -4.5q11 -6 12 -15t-1.5 -18l-5 -18t2.5 -16
q-2 -6 -1 -13.5t1.5 -15t0 -14t-5.5 -11.5q7 -9 7 -16.5t-2 -15l-4 -15t1 -16.5q-7 -9 -4 -19l6 -20t2.5 -19t-15.5 -16v-14q20 4 43 1t42 -4q2 -7 7 -15.5t-2 -16.5z" />
    <glyph glyph-name="five" unicode="5" 
d="M468 133q-5 -16 -7.5 -34t2.5 -36q-7 1 -10.5 -2.5t-5.5 -8.5t-3.5 -10t-2.5 -7q-1 -3 -5 -6l-8 -6t-6.5 -6.5t-0.5 -7.5q-19 -9 -41.5 -19t-46.5 -5q-15 -8 -31.5 -3.5t-29.5 12.5q-13 -11 -31.5 -9t-36.5 4q-4 2 -8.5 3.5t-4.5 6.5q-3 -3 -8.5 -5t-12 -2t-12 3t-8.5 9
q-4 11 -13 17.5t-20 2.5q6 12 1 18.5t-11.5 12t-9 12t8.5 17.5q4 5 2.5 11t-3 11.5t0 10t12.5 5.5q11 0 15 -9.5t12 -12.5q-1 -8 -4 -13.5t-1 -13.5q11 -5 16.5 -16t10.5 -22q14 -9 32.5 -13t33.5 2q9 3 19 1.5t20.5 -2.5t21 0.5t19.5 11.5q7 -11 13 -10.5t13 4t14.5 5.5
t16.5 -6q6 4 11 5.5t9.5 2.5t7.5 4.5t4 12.5q-2 10 2.5 19l9 18t5.5 17.5t-8 18.5q1 6 4.5 6.5t8 0.5t8 1t4.5 7q-7 8 -7.5 17t0.5 18.5t1.5 19.5t-4.5 19q4 4 1.5 10t-5.5 12t-4.5 11.5t3.5 10.5q0 14 -9 21.5t-20 16.5q-9 -3 -15.5 1t-11.5 10q-13 -1 -26 0.5t-25 2
t-23.5 -0.5t-21.5 -8q0 9 -2.5 9.5t-6.5 -2t-8.5 -5.5t-8.5 -1q-28 5 -54.5 1.5t-46.5 -23.5q-9 0 -14.5 -1t-14.5 3q-5 6 -3.5 11.5t4 11t2 9.5t-7.5 7q2 0 2.5 -1t2.5 -2l5 5l-12 18q13 4 11 19q-12 4 -15 14.5t-1 19.5q3 4 2.5 11t-0.5 13.5t1 13t7 11.5q-11 26 -6.5 59
t13.5 59q7 10 16 10t18.5 -2t19 -2.5t17.5 8.5q4 -1 8 -4t8 -5.5t8 -2t7 7.5q-2 3 0.5 4.5t4.5 4.5q7 2 12.5 -1.5t11 -7.5t11.5 -5.5t12 4.5l54 1q3 -6 5.5 -3.5t6.5 3.5q10 -6 21.5 -4t22.5 5t21 2.5t16 -13.5l-5 -5q4 -3 7.5 -1t7.5 4t8 3t9 -3v-18q-4 -4 -9 -3t-11 2.5
t-11 0t-9 -9.5q-8 1 -14 -6t-17 -3l-5 15q-11 -18 -22 -14.5t-21 11t-20 10.5t-20 -17q-7 16 -15.5 16.5t-18 -4t-19.5 -8t-19 4.5q-7 -2 -14 -5.5t-13.5 -6.5t-13.5 -4.5t-14 0.5q-9 -3 -9.5 -8t1 -10t3 -10.5t-2.5 -9.5q3 -11 -1 -21t-7 -18.5t-1.5 -15.5t14.5 -13
q-12 -6 -11 -13t5 -14.5t5.5 -15.5t-9.5 -16q13 -5 28 -2.5t29 2.5l26 12q6 -15 18.5 -16.5t25 -1t23 -2t12.5 -18.5q4 -4 13 -4t14 6l2 3l-17 12l7 9q2 -3 3.5 -3t3 1t3 2.5t3.5 0.5q17 -9 39 -1q5 -10 14.5 -17t20 -13t19 -12.5t12.5 -15.5q13 -4 17.5 -11.5t5 -16.5
t-2 -18.5t-3.5 -17.5q8 -5 4.5 -12t-7.5 -12q3 -6 1 -11.5t-4 -11.5t-2 -11.5t8 -10.5q-5 -12 -3 -17t8 -15z" />
    <glyph glyph-name="six" unicode="6" 
d="M426 224q-7 6 -5.5 16t3.5 18q-14 6 -15.5 13t0 14.5t1 15.5t-12.5 16l-30 -10q-4 7 -11.5 10.5t-16.5 5t-18.5 2t-16.5 2.5q-13 -2 -28.5 -0.5t-32 2.5t-32.5 0t-30 -7q-8 -9 -15 -19t-6 -22l-10 -11q5 -3 4.5 -8t-2 -9.5t-1 -8t8.5 -5.5q9 -10 1.5 -17.5t-11.5 -16.5
l10 -6q-12 -12 -11.5 -21.5t5 -18.5t8.5 -19.5t-2 -23.5q5 -16 7.5 -32t13.5 -28q5 12 9 11t8.5 -6t10 -9.5t11.5 -1.5q7 7 14.5 8t15 -0.5t15 -2.5t15.5 1q5 -7 10.5 -6t10.5 3.5t9.5 2.5t7.5 -8q30 2 53 11.5t45 29.5l-10 13l10 10l5 -5q-6 15 -7 29t1 28t5.5 28.5
t5.5 31.5zM380 351q-2 4 -6.5 -0.5t-1.5 -8.5zM478 143q-1 -6 -5.5 -10.5t-8.5 -9t-4.5 -9.5t5.5 -12q-4 -11 -3.5 -24.5t-10.5 -24.5q-11 -15 -23 -24t-25.5 -15.5t-27.5 -11.5t-29 -11q-19 11 -43.5 12.5t-43.5 -2.5q-2 -3 -2.5 -5.5t-3.5 -4.5q-4 4 -9 4.5t-10 0.5
t-9.5 1t-8.5 7l-40 2q-3 6 -9.5 7t-13.5 2t-12.5 4t-7.5 14q-10 0 -12.5 9.5t-7.5 15.5q-5 14 -6.5 22t-11.5 20q7 4 8 10.5t-0.5 13.5t-4 14t-3.5 13h5q2 -5 0 -11.5t6 -8.5q12 2 8.5 9.5t-3.5 15.5q-13 4 -14 10t1.5 13t4 14.5t-7.5 15.5q6 4 6 8.5t-0.5 9t0 9t7.5 8.5
q1 6 -1.5 15.5t-4.5 19.5t-1.5 20t7.5 18q-8 10 -9 18t4 21l5 -5q7 4 5 12q-4 4 -5.5 12t-1.5 17.5t1.5 19.5t3.5 18q6 5 8.5 13.5t5.5 16t7.5 13t14.5 5.5q-7 14 -2.5 22.5t14 15.5t20 14t15.5 19q12 7 24.5 15.5t25.5 15t26.5 8.5t28.5 -2q6 16 16 17.5t21.5 -1.5t23 -5
t20.5 7q7 -4 15.5 -6.5t16.5 -6t14.5 -8.5t9.5 -12q-2 -5 -6 -8t-9 -1l-5 5l-26 -25q-9 6 -19 8t-20.5 2t-21 -1.5t-20.5 -1.5q0 2 0.5 4t-1.5 4q-11 2 -13.5 -6t-7.5 -13q-18 2 -30.5 -5t-23 -17t-21.5 -19.5t-26 -13.5q4 -6 0.5 -11.5t-9 -10.5t-8.5 -10t2 -12
q-5 -3 -6.5 -7.5t-2 -9t-0.5 -9t-2 -6.5q0 -7 3.5 -13t-1.5 -13q-4 -2 -6.5 -5t-5.5 -5q3 -10 6.5 -11t8 1.5t10 6.5t11.5 3q9 10 18.5 8.5t19.5 -4.5t19 -3t16 13q9 -12 20.5 -13.5t23.5 1t23.5 5t21.5 -1.5l10 15l48 -28t44 -36q8 -15 8.5 -39t2.5 -44q10 -8 8 -16.5
t-5.5 -17t-4.5 -17.5t11 -18q-4 -4 -7 -9t-3 -10q8 3 9 -3t9 -10z" />
    <glyph glyph-name="seven" unicode="7" 
d="M395 357l-14 -11l2 -2l13 12zM464 456q-9 -5 -13 -11t-6.5 -12t-6.5 -12t-13 -11q3 -5 3 -8.5t-1.5 -7t-4 -7t-4.5 -8.5q0 -14 -9 -25t-19.5 -22t-19 -23t-9.5 -28q-6 -17 -13.5 -28.5l-15 -23t-14.5 -23.5t-11 -29q-2 -27 -5 -50.5t-14 -49.5q-15 -4 -14 -13t-1 -19
q6 -5 8.5 -9t4.5 -12q-6 -7 -5.5 -16t0.5 -17t-4 -14.5t-18 -7.5q-6 1 -12 4.5t1 11.5q7 2 8.5 5t0 7t-3.5 8t0 9q-7 7 -10 5q8 1 10.5 6.5t2.5 12.5t-1.5 15t-1.5 14l-9 10q1 -2 4 -1t6 4t3.5 6t-3.5 6l-11 8q9 12 10.5 25t2.5 26.5t3 27t11 26.5q0 1 2 0.5t4 -1.5t4 -1
t3 2q7 9 11.5 18.5t2.5 20.5q6 -2 8 4t3 10q-10 6 -7.5 17t1.5 22q13 -1 16 5t3.5 14.5t1.5 17t9 13.5q16 8 24.5 19.5t14.5 25t11 27.5t14 26q0 8 -3 16.5t2 16.5q4 0 6.5 3.5t5.5 6.5q-5 8 -15 13t-21 15q-11 -7 -21 -4t-19.5 6t-18.5 3t-19 -13q-8 9 -18.5 9.5t-21 0
t-20.5 0.5t-18 10q-8 -2 -17.5 -7t-17.5 -13l-5 13q-17 -11 -26 -17.5t-16 -25.5l3 -39q-17 -7 -33 1.5t-24 20.5q7 7 6 14t-3.5 14.5t-2.5 14t10 12.5q-4 5 -6.5 15t1.5 18q14 10 29.5 19.5t30.5 12.5q29 -4 57.5 -4.5t57.5 -9.5q6 1 12.5 5.5t13 7t12 1.5t10.5 -9
q5 -5 9.5 -5t9.5 2.5t10 4.5t11 2q15 -6 30 -6t30 0.5t29 -1t26 -9.5q9 -6 8 -20t-3 -19z" />
    <glyph glyph-name="eight" unicode="8" 
d="M432 200q-6 8 -11 11.5t-10 5.5t-10.5 4.5t-12.5 9.5q-3 7 -6.5 11t-7 7t-8 6t-10.5 8q-6 -1 -13 3.5t-13 7.5t-11 0.5t-9 -15.5q-1 4 -4 8t-5.5 7.5t-3.5 8t3 9.5l-27 -24q-8 -6 -15.5 -6t-15 3t-15 6.5t-15.5 3.5q-7 0 -7 -6.5t-7 -9.5q-24 3 -29.5 -6t-6 -22.5t-4 -27
t-22.5 -18.5l12 -3q-9 -9 -6 -21.5t7 -22.5q-5 -12 -2 -23t7.5 -21.5t8 -21t0.5 -22.5q8 1 16 -2.5t15.5 -7t15 -5.5t14.5 3q8 -2 20.5 -3.5t21.5 -6.5q14 7 28 -1.5t28 -12.5l-7 -23q5 2 10 7t5 11q-2 13 2 16t10.5 3t14 0.5t12.5 9.5q3 6 9.5 10.5t11.5 10t6 11.5t-8 14
q8 2 17.5 8t17.5 10q2 13 4 24.5t-9 19.5q3 5 2.5 13t-0.5 15.5t2 14.5t10 11zM413 415q-6 9 -12 20t-8 24q1 11 -6.5 18.5t-7.5 20.5q-4 8 -10.5 13t-14.5 5q-5 13 -13.5 12.5t-17.5 -4.5t-18 -4.5t-15 13.5q-7 -10 -16 -11.5t-18.5 0t-19.5 3t-19 -1.5q-4 1 -6.5 -1
t-4.5 -4t-4 -2t-5 5q-3 -2 -8.5 -3.5t-9.5 -4t-5 -6t4 -9.5q-11 -11 -12.5 -23.5t-12.5 -20.5q1 -5 0 -10t-1.5 -10t1.5 -9t10 -5q4 -5 2 -7.5t-5.5 -5t-6.5 -5t0 -7.5q6 -5 7 -10.5t1 -11.5v-12t3 -10q17 -24 46 -34t58 -5q11 9 23.5 7.5t24.5 -3.5t23.5 -1.5t21.5 12.5
q2 3 5 2.5t5.5 -1.5t4.5 -1t3 5q13 7 16 17.5t4 24.5q8 4 9.5 9t1 10.5l-1 11t4.5 10.5zM465 146q-4 0 -6.5 -3t-4.5 -5q7 -8 7.5 -17.5t-1.5 -19.5t-5 -20t-3 -19q2 -12 -4 -16t-13.5 -7t-12.5 -7t-1 -14q-14 -4 -19.5 -17t-12.5 -21q-8 6 -16 3t-16 -7t-16 -5.5t-16 8.5
q-15 -2 -32 -3t-34.5 -1t-33.5 2t-28 7q-6 -4 -11 -3.5t-10 2.5t-9.5 4.5t-8.5 3.5q-2 6 -6 10l-8 8q-5 2 -12.5 1t-7.5 8q11 8 8 16t-8 16q-8 6 -17 18t-22 14q3 6 1 14.5t-3.5 16.5t0.5 14.5t12 10.5q-6 5 -5.5 11t2 12t1 11.5t-7.5 9.5q4 17 7.5 32t7.5 30q-6 10 -1.5 16
t11.5 10.5t14 10.5t7 16q0 13 -6.5 24.5t-12.5 23t-8.5 23.5t6.5 27q4 11 3.5 21.5t-3 21t-3.5 22t3 23.5q1 2 2.5 7t4 10.5t6.5 10t11 5.5q5 7 1.5 14.5t-1.5 12.5q6 2 12.5 8.5t12.5 11.5t12.5 5.5t13.5 -8.5q9 13 19 16t21.5 2.5t23.5 -1.5t24 5q6 -9 13.5 -9.5t15.5 1
t16.5 2.5t16.5 -5q10 1 20 7t23 -1q6 -12 16 -18.5t20.5 -12.5t18.5 -14t10 -24q3 -13 11 -23t3 -24q-2 -13 -8.5 -28t-10.5 -26l14 -2q-7 -10 -6 -21.5t2.5 -22.5t-0.5 -21.5t-16 -17.5q-7 -11 -10 -22t-1 -22q10 -2 16 -8t10.5 -14t8.5 -16t11 -14z" />
    <glyph glyph-name="nine" unicode="9" 
d="M417 303q-6 10 -7.5 20t-1 20t2.5 20.5t2 21.5q-11 4 -10 12t3.5 17t1.5 17t-15 13q16 -4 20.5 1t2.5 13t-7 17t-7 14q-5 3 -12 9.5t3 12.5q-3 1 -8 3.5t-8.5 5.5t-5 7.5t1.5 10.5q-8 1 -14.5 -1t-12.5 -3t-11.5 0.5t-10.5 7.5q-7 4 -11 3t-7 -5t-5 -9t-6 -8
q-6 3 -12.5 5t-6.5 10q-9 -9 -20.5 -7t-23 5t-21.5 2.5t-17 -15.5q-3 3 -7.5 3h-9t-8 1t-4.5 6q-4 -8 -7.5 -16.5t-17.5 -3.5q-2 -2 -2 -5.5t-0.5 -6.5t-2 -5.5t-6.5 -2.5l14 -9l-24 -23q0 -6 2.5 -11t4 -10t1.5 -9.5t-6 -10.5l-6 -32t-4 -32t1.5 -32t11.5 -31
q8 1 13.5 -1.5t9 -7t6.5 -10.5t7 -11q8 -4 18.5 -2.5t10.5 12.5q7 -12 18 -14t23 -1t24 2.5t22 -1.5q9 -4 13.5 -9t15.5 -1q6 11 16 11.5t21 -1.5t22 -2.5t19 7.5l-3 9q2 14 14 19t23 11zM457 249q-2 -1 -6 -1.5t-5 -5.5q2 -21 0.5 -42t-12.5 -40q4 -10 1.5 -17.5
t-7.5 -13.5t-9.5 -12.5t-5.5 -14.5l-1 4l-15 -24q-2 2 -4.5 2h-4.5q1 -11 -3 -12t-8.5 -0.5t-8 -1t-0.5 -12.5q-11 -10 -19 -18t-25 -11q2 5 -1 8.5t-4 7.5q-4 -4 -5 -8.5t-2 -9.5t-3 -10t-7 -8q-18 -5 -40.5 -7.5t-39.5 -16.5q-9 4 -18 2.5t-18.5 -3.5t-18.5 -0.5t-17 12.5
q-6 2 -10.5 0.5t-8.5 -3t-8 -1.5t-9 4q-3 6 -2 11t3 10t4.5 10t1.5 11q33 2 65 3.5t60 -8.5q4 10 13 8.5t17 -3.5q0 -2 1 -2.5t3 -2.5q12 6 18.5 16.5t13 20.5t14.5 17t23 7q6 3 7 9t1.5 12t4 10.5t13.5 5.5q5 11 12 22.5t16 23.5q-8 6 -6 10.5t6.5 8.5t6 8t-7.5 10
q5 5 0.5 10t-5.5 10q-17 -15 -37.5 -14.5t-40.5 -0.5q-3 5 -7.5 6t-8.5 2t-7.5 2.5t-5.5 7.5q-8 -4 -5.5 -10.5t0.5 -11.5q-11 4 -22 3.5t-21.5 -3t-20.5 -3.5t-19 3q-3 -6 -5.5 -5t-4.5 3t-4.5 2.5t-5.5 -5.5l1 -11q-4 14 -15.5 17.5t-23.5 6t-21 8t-7 23.5
q-4 -1 -8.5 -3.5t-8.5 2.5q1 9 -4 16.5t-9.5 15t-5.5 15.5t9 17q0 3 1.5 9.5t1.5 13t-2.5 11.5t-10.5 5q1 2 4 3t6 4q-14 9 -16.5 22t-0.5 26.5t5.5 27.5t1.5 25h-9q0 5 3.5 10.5t7.5 10.5t4.5 11t-5.5 12q9 18 20.5 33.5t28.5 23.5q2 8 7 10t11 2t13 0.5t12 4.5q8 8 15 5
t13 -7t12.5 -5t13.5 11q7 4 13 3t11.5 -3.5t11.5 -4.5t13 1v-1q9 7 16 4t14 -8t14 -6t15 11q10 1 19 -1.5t17.5 -6t17.5 -6.5t19 -3q3 -7 9 -12.5t10.5 -11t6.5 -11.5t-4 -14q0 -2 2 -4l4 -4t2.5 -4t-3.5 -5q10 -2 13.5 -7.5t4 -12t1 -14.5t4.5 -15q-4 -9 -4.5 -17t0 -16
t0.5 -16.5t-2 -19.5q6 -9 4.5 -18t-4.5 -18t-5.5 -18t1.5 -19z" />
    <glyph glyph-name="colon" unicode=":" 
d="M365 8q-6 2 -9.5 -3.5t-8.5 -8.5q8 -19 7.5 -33.5t-9.5 -32.5q-18 -20 -41.5 -21t-46.5 1q-9 4 -19 8.5t-18 15.5q-14 -4 -21.5 3t-12.5 17l-2 4l10 6q-8 7 -13 18t0 21q7 3 9 7t2.5 9t0 9.5t1.5 8.5q-5 6 -0.5 16t11.5 14q10 -1 17 5.5t13.5 14t13.5 11t18 -3.5
q28 2 51.5 -13t41.5 -39q-6 -6 -3.5 -10.5t7 -8.5t6.5 -7.5t-5 -7.5zM355 248q-6 -8 -10.5 -16t-9 -15.5t-11 -13.5t-16.5 -10q-7 -3 -13.5 1.5t-12.5 8.5t-11.5 5t-11.5 -9q-8 -2 -13.5 0.5t-10 5.5t-9.5 6t-13 2q0 9 -5 12l-3 -2q-7 13 -17.5 19t-11.5 22q-1 9 1 16
t5 13.5t6.5 14.5t5.5 18q4 7 10.5 6.5t12.5 -2t10 0t3 14.5q8 7 16.5 9.5t17.5 3.5t18.5 1.5t18.5 5.5q-1 -13 4.5 -15.5t12 -2.5t12.5 -2t6 -14q0 -6 2.5 -10t6 -7.5l7 -7t5.5 -9.5z" />
    <glyph glyph-name="semicolon" unicode=";" 
d="M343 28q-6 -5 -7.5 -12t-2 -15t-2.5 -15.5t-10 -11.5q5 -6 5.5 -11.5t-1 -11.5t-2.5 -12.5t1 -13.5q-5 -5 -13 -12.5t-16 -1.5q-6 -8 -5 -18.5t1.5 -21t-3.5 -17.5t-20 -7q-11 -3 -17.5 -9.5t-12.5 -14t-13 -13t-19 -5.5q-5 3 -10.5 3t-10.5 0.5t-8 4t-2 12.5
q-2 8 2.5 11t10 4.5t9 4.5t-0.5 12q8 2 7.5 9t2.5 10q1 -3 4.5 -3t5.5 3q4 6 8.5 13t-0.5 15l26 2q-3 6 -3.5 12.5t0 13t-0.5 12.5t-5 11q-11 -6 -18 -1t-14 13.5t-14 16t-18 7.5l-2 3q0 7 6 8t6 7q-5 12 -15 20.5t-10 23.5q19 14 15 34q14 2 28 9t16 21q13 3 24 3t25 8
q9 4 16.5 1t14.5 -8t14.5 -9.5t17.5 -4.5q5 -5 3.5 -10.5t-3 -10.5t-0.5 -10t10 -9q-3 -5 -1.5 -10t3.5 -10t3 -10t-5 -9zM361 347q-12 -5 -19 -13.5t-13 -17.5t-14 -15.5t-21 -5.5q-12 -7 -23.5 -4.5t-22.5 9t-21 14.5t-19 14q-8 24 -7 51.5t23 46.5q-1 5 -2.5 9t1.5 9
q8 -3 15.5 1t15.5 9t15.5 6.5t15.5 -5.5q14 3 28.5 -3.5t26.5 -13.5q6 -11 7 -22.5t1.5 -23t2.5 -23.5t10 -22z" />
    <glyph glyph-name="semicolon" unicode="&#x37e;" 
d="M343 28q-6 -5 -7.5 -12t-2 -15t-2.5 -15.5t-10 -11.5q5 -6 5.5 -11.5t-1 -11.5t-2.5 -12.5t1 -13.5q-5 -5 -13 -12.5t-16 -1.5q-6 -8 -5 -18.5t1.5 -21t-3.5 -17.5t-20 -7q-11 -3 -17.5 -9.5t-12.5 -14t-13 -13t-19 -5.5q-5 3 -10.5 3t-10.5 0.5t-8 4t-2 12.5
q-2 8 2.5 11t10 4.5t9 4.5t-0.5 12q8 2 7.5 9t2.5 10q1 -3 4.5 -3t5.5 3q4 6 8.5 13t-0.5 15l26 2q-3 6 -3.5 12.5t0 13t-0.5 12.5t-5 11q-11 -6 -18 -1t-14 13.5t-14 16t-18 7.5l-2 3q0 7 6 8t6 7q-5 12 -15 20.5t-10 23.5q19 14 15 34q14 2 28 9t16 21q13 3 24 3t25 8
q9 4 16.5 1t14.5 -8t14.5 -9.5t17.5 -4.5q5 -5 3.5 -10.5t-3 -10.5t-0.5 -10t10 -9q-3 -5 -1.5 -10t3.5 -10t3 -10t-5 -9zM361 347q-12 -5 -19 -13.5t-13 -17.5t-14 -15.5t-21 -5.5q-12 -7 -23.5 -4.5t-22.5 9t-21 14.5t-19 14q-8 24 -7 51.5t23 46.5q-1 5 -2.5 9t1.5 9
q8 -3 15.5 1t15.5 9t15.5 6.5t15.5 -5.5q14 3 28.5 -3.5t26.5 -13.5q6 -11 7 -22.5t1.5 -23t2.5 -23.5t10 -22z" />
    <glyph glyph-name="equal" unicode="=" 
d="M494 118q12 -6 18 -16t5.5 -21t-7.5 -20t-21 -12q-17 1 -35 -0.5t-33 -1.5v5q6 -3 14 -3q2 4 1.5 8.5t-0.5 9.5q-1 3 -3.5 2.5t-4.5 -0.5q-1 -9 -3 -9.5t-4.5 2l-5.5 5.5t-7 0q4 -9 -1 -11l-10 -4q-9 2 -17.5 3t-14.5 -8q-6 2 -12 -1t-11.5 -5t-9.5 -0.5t-5 13.5
q-5 4 -15 3.5t-15 -8.5q-3 -6 -7.5 -5.5t-9.5 3t-10 4.5t-8 -2q-10 0 -22.5 -3.5t-26 -5.5t-26 -1t-21.5 10q-11 -4 -23 -11t-23 4q-10 -1 -19.5 -3t-18 -2t-16 3.5t-12.5 13.5q-5 4 -6 8.5t-1.5 9t-1.5 8.5t-6 8l5 5q0 -4 3 -5q5 -2 10 5q-5 5 -3.5 10t6 9.5t10 8t10.5 5.5
q7 2 10 -0.5t5 -6t5 -6.5t10 -2q7 12 15.5 11t17 -5t17 -6t16.5 7q5 -4 10.5 -1.5t9.5 6.5q15 0 33.5 -0.5t32.5 -11.5q5 -2 8 3t7 7q0 -5 1 -11t9 -7q10 2 21 6t21.5 7t20.5 2.5t20 -7.5q6 -2 11.5 2t10.5 7.5t9.5 3t9.5 -10.5q6 -2 13 1t13.5 5t11 0.5t6.5 -11.5l-4 -2
q4 -4 9.5 -2t10.5 5.5t11 6.5t12 2zM519 265q2 -5 -2 -9.5t1 -10.5q-7 -2 -14.5 -5t-15.5 -5t-16 -1.5t-16 6.5q-8 -2 -15.5 -1t-15.5 1t-15 -1.5t-13 -8.5q-16 -3 -32 -1l-32 4t-31 2.5t-28 -5.5q-6 4 -11.5 3t-11 -3.5t-10.5 -3.5t-10 4q-5 -2 -11 0.5t-12 4t-10.5 -0.5
t-6.5 -13q-12 1 -27.5 5.5t-30.5 7t-29 -1t-24 -18.5h-16q1 2 3.5 3.5t0.5 3.5q-3 9 -7 6.5t-12 0.5q2 9 -6 12.5t-14 7.5q-2 18 11 31.5t27 22.5q13 -6 26.5 -7t27 0t27.5 3.5t28 3.5l7 -8q10 -3 20 -1l20 4t20 2t19 -7q5 4 9 3t7 -3.5t6.5 -3.5t7.5 4l2 -10q6 7 12.5 8.5
t14 1l15 -1t14.5 3.5q4 -3 9 -1t10 5t10 5.5t9 0.5q12 -8 25.5 -9t27 0.5t27 3.5t25.5 0v3q14 -4 19 -13.5t7 -23.5z" />
    <glyph glyph-name="question" unicode="?" 
d="M324 -27q-8 -3 -13 -9.5t-10 -11.5t-11 -8t-15 1q-7 -9 -14 0q-8 6 -5 14q7 -3 9 0t2.5 7.5t1.5 9.5t6 7q0 4 -2.5 7.5t-4.5 7.5q-8 -4 -9.5 -8.5t-2.5 -9.5t-2.5 -10t-7.5 -9l-8 8q8 4 11.5 13.5t1.5 17.5q12 -3 17 8l-7 25q7 0 11.5 5t9.5 0q1 -6 5 -8.5t9 -4t9.5 -3.5
t6.5 -6q3 -4 1.5 -9t-3 -9.5t0 -7t9.5 -1.5q-2 -10 4 -16zM473 434q1 -10 -6 -18.5t-11 -15.5q4 -2 10.5 -3t4.5 -9q-7 2 -10 -1t-5 -7v-15q-4 -2 -7 -0.5t-5 -3.5q0 -6 5 -11l7 6q4 -9 1 -15.5t-8.5 -12t-10 -12t-1.5 -15.5q-18 -8 -33.5 -21t-35.5 -13q-15 -3 -18.5 -10.5
t-5 -16t-4.5 -16t-16 -10.5q-8 -2 -11.5 -7.5t-5 -12.5t-4 -13.5t-8.5 -10.5v-15q-4 2 -6 -0.5t-4 -4.5q15 -8 13.5 -20.5t-6.5 -23.5q-9 -2 -20 1.5t-9 18.5q-7 4 -4 9.5t7 9.5q5 1 6.5 3t0.5 4.5t-2.5 5.5t-2.5 6l-5 -5l-2 1q5 3 7.5 9.5t-5.5 11.5q3 10 5.5 22.5t7.5 24
t12 21t19 14.5q1 5 4 8.5t6 6.5t3.5 5.5t-3.5 6.5q19 9 30.5 15t27.5 21q2 16 11 25.5t19.5 17t19 16.5t9.5 25q-3 8 -10 11t-14 5t-12 5.5t-3 12.5q-6 2 -10.5 8.5t-9.5 11.5t-11 6.5t-13 -5.5q-2 7 -7 11t-11.5 6t-13.5 4t-12 7q-5 1 -9.5 -2.5t-9 -5.5t-9 -1.5t-8.5 8.5
q0 1 4 5q-4 2 -7.5 5.5t-9.5 0.5q-3 -8 -7 -10.5t-9.5 -2t-11 1.5t-11.5 0q-2 1 -4.5 5t-7.5 1q-6 -4 -8.5 -13t-5.5 -17.5t-7.5 -12t-15.5 2.5q-9 2 -15 -3.5t-10 -11.5q0 -13 -4.5 -22.5t-11.5 -20.5q-6 4 -13 4q-5 -2 -5 -4.5t1.5 -5t2.5 -5t-1 -4.5q2 -3 4 -2.5t3.5 2
t3.5 1.5t4 -3q-2 -7 1 -10.5t7 -6.5t6.5 -6t-0.5 -9q-8 8 -16 14t-23 0q4 7 2.5 11.5t-4.5 8.5t-7 8.5t-5 10.5l14 1q2 9 -7.5 14t-11.5 13q11 10 15.5 24t9 26.5t13 21t27.5 8.5q6 15 17.5 18t24.5 2.5t26 0t23 9.5l20 -6l85 1q3 -8 9 -9t12.5 -1t13 -1t9.5 -9h13
q15 -8 23.5 -17.5t15 -20.5t13.5 -22.5t18 -22.5z" />
    <glyph glyph-name="A" unicode="A" 
d="M145 80l10 7v-7h-10zM205 356q-8 -7 -8.5 -15t-1 -14t-4.5 -9t-20 1q-3 -20 -7 -36t-9 -35q9 -5 18 -8.5t15.5 -8t10 -12t2.5 -19.5q-13 -2 -26.5 -2.5t-24.5 -8.5q3 -4 6 -8.5t5 -9t1.5 -8.5t-5.5 -8q-8 -5 -9 -11.5t-0.5 -13.5t-1 -13.5t-11.5 -9.5l5 -16
q-5 -5 -9.5 -5.5t-8.5 -5.5q10 -8 10 -21.5v-22.5q-3 -5 -8 -8.5t-2 -9.5l3 -4q-18 0 -34 11q-9 5 -10.5 15t0.5 18q2 4 5.5 6.5t1.5 7.5l-2 2q9 0 11 4.5t1.5 10l-1 11t3.5 7.5q-8 20 -3.5 39.5t8.5 37.5q9 -2 11.5 5.5t4.5 14.5q-7 11 -1 18.5t12.5 13t7 10.5t-18.5 12
l15 12q-7 6 -5.5 15.5t3.5 16.5q5 2 6 7.5t6 7.5q-8 4 -9 9.5t1 11.5t5 11.5t3 11.5q9 9 10 20.5t1 23.5t1.5 23.5t11.5 20.5q2 -7 6 -8t8.5 -0.5t8.5 -1t5 -9.5q-4 -11 -8.5 -21t-11.5 -14q4 -11 8.5 -24t17.5 -15zM318 209q-2 -5 -8.5 -5.5t-13 -0.5t-10 -1.5t0.5 -7.5
q-9 3 -19 3.5t-19 2.5t-16 7t-10 17q5 -2 14.5 4t16.5 10q7 -4 16.5 -3.5t18 0.5t15 -2.5t7.5 -13.5zM470 25q-6 -11 -18.5 -15.5t-25.5 -0.5q-4 2 -6.5 5t-5.5 5v9q3 -2 4 0.5t3 4.5q2 5 -1.5 7t-5.5 7l-8 -4q-5 4 -2 9t7 5q-5 10 -11 22.5t1 26.5l8 10q-12 8 -17.5 21.5
t-10.5 27t-13.5 25t-26.5 14.5q-2 10 -7.5 21t2.5 19q9 0 17 2t12 14q3 6 0.5 10.5t-4.5 8t-2 7t6 7.5q4 10 1.5 16t-7.5 11.5t-10.5 10t-7.5 11.5q7 7 11.5 18t-0.5 21q-7 4 -8 8t-0.5 8.5t-0.5 9t-7 8.5q4 5 2.5 10.5t-4 11t-4 11t2.5 11.5q-8 6 -7.5 13.5t3 14.5t3 14.5
t-8.5 13.5q-4 15 -11.5 27.5t-12.5 29.5q-10 0 -25 1.5t-20 9.5q-15 2 -21 -7q4 -5 3 -8.5t-6 -8.5q-9 2 -11 -2.5t-3 -10.5t-3 -11.5t-12 -6.5q2 -4 0.5 -8t-3 -8.5t-2 -9t2.5 -9.5q-8 -2 -13 3t-12 7q6 2 7.5 8t2.5 11.5t4 9t11 0.5q0 7 -6 4.5t-9 2.5q1 9 5.5 17.5
t11.5 16.5t14 15l13 13q10 -8 20.5 -6.5t21 4t20.5 1t18 -16.5q11 -3 23.5 -8.5t16.5 -20.5q6 -6 6 -11t-1 -10t-1 -10t8 -10q-4 -19 -6 -31t-1 -31q3 -8 8 -14t9 -11.5t6.5 -12.5t0.5 -16q11 -13 8.5 -30.5t-0.5 -34.5q-4 -2 -3.5 -6.5t-4.5 -6.5q4 -2 10 -3.5t10 -3.5
t4.5 -6.5t-4.5 -12.5l12 -6q-4 -22 -2.5 -48t12.5 -49q6 -1 6.5 -3.5t0.5 -6v-7t5 -6.5q0 -5 -3.5 -11t1.5 -11h-3l5 -16h-12q3 -6 4 -10.5t2 -8.5t2.5 -8t6.5 -10q5 3 6.5 6t9.5 4q-3 -6 2 -6.5t8 -3.5q-5 -9 -7 -15.5t2 -18.5l13 -11q-5 -5 -8.5 -11.5t-4.5 -12.5
q3 -3 5 -3t3.5 1.5l3 3t3.5 0.5z" />
    <glyph glyph-name="B" unicode="B" 
d="M433 146q-14 3 -17 10.5t-2 16.5t3.5 17.5t1.5 14.5q5 2 7 7t2 9q-8 9 -12 20.5t-9 22t-12 18t-21 10.5q-8 -5 -15.5 -5.5t-15 -0.5h-15.5t-15 -4q-10 4 -18.5 4t-16.5 -1t-17 -1.5t-19 3.5q-14 -7 -26.5 -7t-24.5 1.5t-23 1t-23 -9.5q-1 -9 2 -17t12 -12q1 -7 -1.5 -9.5
t-6 -5t-6 -5.5t-0.5 -10q5 -5 4 -11t-2.5 -12.5t-1 -12t9.5 -8.5q-1 -4 -4 -3t-6 0q5 -7 4 -13t-3.5 -12t-4.5 -11.5t3 -12.5q-4 -5 -2 -16.5t3 -19.5q4 -9 9.5 -11.5t12 -3.5t13.5 -2t13 -7q10 0 20.5 -1.5t20 -0.5t18.5 5.5t15 15.5q14 -17 36 -19.5t42 -0.5q7 2 13 6.5
t11.5 6.5t10 -0.5t9.5 -12.5l2 1q-2 9 0.5 15t7.5 10t11.5 7t12.5 6q2 12 10 24t10 26h-10zM472 219q4 -8 -0.5 -14t-9 -11t-5 -10t10.5 -12q-2 -8 -8.5 -17t0.5 -15q-5 -8 -4 -18t2.5 -21t2 -22t-5.5 -21l-10 9q-8 -13 -11.5 -28.5t-19.5 -20.5q-11 6 -19 2t-15.5 -9.5
t-15.5 -8t-19 5.5q-23 -12 -49.5 -8.5t-52.5 9.5q-4 -7 -9.5 -8.5t-11.5 -1.5t-12 0.5t-12 -0.5q-8 7 -16.5 6t-17 -3.5t-16 -1.5t-13.5 13q-8 0 -16 0.5t-13 9.5l-5 5q7 0 10 8.5t-1 15.5q-9 6 -13 14.5t-6 18.5q10 4 12 11t1 15t-3 16t0 14q-7 13 -7 28.5t2 31.5t4.5 31
t0.5 28q-6 10 -3.5 20t6 19t4.5 18t-8 19l12 12q-12 7 -12.5 16t1.5 19t4 20.5t-5 20.5q4 6 8.5 8t10 2t10.5 -0.5t10 1.5q-4 -11 1 -21.5t4 -23.5q-4 0 -5 -2t-4 -3q6 -6 5 -13.5t-2 -14.5t1 -13t15 -7q6 6 12.5 7.5t13.5 0.5t14 -4t14 -4q2 3 5 3t7 -1t7.5 -2t5.5 0
q11 -4 22 -2.5t21.5 4.5l21 6t20.5 1q0 2 1 2.5t2 2.5q6 -14 12.5 -13t13 5t13.5 5.5t14 -11.5q14 0 20.5 5t11.5 19q-3 9 2.5 12.5t10.5 7.5q-5 14 -2 27t7 25.5t6.5 24.5t-1.5 25q-10 4 -7.5 12t1.5 15q-12 8 -22 16t-26 6q-8 11 -16.5 16.5t-22.5 5.5q-8 -9 -17.5 -8
t-17.5 -4q-5 13 -18.5 12.5t-23.5 -5.5l-3.5 -3.5t-1.5 -3.5q-2 10 -12 11.5t-19 3.5q-7 -6 -19.5 -3.5t-24.5 4t-19.5 -2t-4.5 -21.5q1 -7 -7 -13t-8 -13q-8 -17 -9 -32t-1 -32q-2 -3 -3.5 -2t-3.5 3.5t-4.5 4.5t-6.5 1q2 9 0.5 17.5t-3.5 16t-3 15t4 15.5q-11 14 -8 32
t3 30q9 3 18.5 8t19 8t20 3.5t21.5 -3.5q5 11 15.5 11.5t18.5 -1.5q6 -8 12.5 -9t13.5 -1h14t14 -5q20 11 36 15.5t39 -5.5q10 5 17.5 0.5t15.5 -10.5q6 -5 13 -4.5t13 1.5t12 -0.5t11 -8.5q6 -3 7.5 -6.5t1.5 -7.5t-0.5 -7.5t2.5 -7.5q12 -11 15.5 -24t4.5 -26.5t0.5 -27
t4.5 -25.5q-5 -9 -4.5 -20.5t1 -22.5t-1.5 -22.5t-10 -20.5q-3 -7 -7.5 -11.5t-8 -9t-6 -10.5t-0.5 -15q19 -18 31.5 -42.5t12.5 -50.5z" />
    <glyph glyph-name="C" unicode="C" 
d="M465 97q-1 -11 -6.5 -19.5t-11.5 -16.5t-11 -16.5t-5 -20.5q-6 -9 -14 -11.5t-17 -3t-18 0t-18 -0.5l-11 10q-8 -17 -18 -19t-21.5 1l-23 6t-21.5 -3l-32 15l-10 -18q-11 2 -19.5 10t-6.5 18q-5 5 -12.5 -0.5t-5.5 -10.5v5q-7 -16 -22 -10t-24 20q-3 11 -10.5 17.5
t-15.5 11.5t-13.5 12t-4.5 20l17 12q-2 4 -7 7.5t-9.5 7.5t-6.5 9t3 11q4 -2 5.5 0.5t4.5 4.5q-8 7 -10.5 16.5t-2.5 20t1.5 20.5t1.5 18q5 0 6.5 3.5t1.5 8t-1.5 9t-1.5 7.5q-5 3 -4 8t3.5 9.5t2 8.5t-8.5 6q11 10 12 22.5t-0.5 26t-1 26.5t9.5 23q-8 5 -8 11t2.5 12.5
t3.5 13t-6 12.5q8 3 16 3t13 9q5 -6 8 -10t5.5 -7.5t3.5 -8.5t1 -13q-4 -12 -1.5 -24.5t5 -25.5t1 -25t-12.5 -23q6 -9 7.5 -18t2 -19l1 -20t2.5 -20q-1 -14 -3 -30t13 -25q-7 -4 -7 -8.5t1 -9.5t0 -9.5t-9 -7.5q4 -6 3 -11t-3.5 -10t-4 -10t1.5 -11q6 -13 15 -20t21 -10
t25 -3.5t27 1.5q0 -8 4 -10.5t9 -3t11 -0.5t10 -3q6 4 15.5 4t9.5 9q-2 8 -7.5 5t-9.5 -1q-1 4 2 4t7.5 -1.5t9 -2.5t6.5 1q5 -10 16.5 -8t19.5 7q13 3 21.5 13.5t16.5 21t18 17.5t25 2l5 -5q4 2 6.5 7t0.5 10q-2 3 -7 3q-2 5 1 5t6 2q6 -3 10 -7.5t8 -9.5q-5 -23 14 -27z
M465 513q-2 -11 -4.5 -23t-10.5 -21q-5 -2 -9 -0.5t-8 3.5t-7.5 3.5t-7.5 -1.5q0 5 5.5 9.5t-0.5 9.5q-4 6 -7.5 7t-6.5 1.5t-4.5 3t-1.5 11.5q-3 6 -9.5 9t-12.5 5t-8 5.5t4 11.5q-4 6 -6.5 4t-6.5 -4l-2 -9q1 19 -4.5 22.5t-14.5 1t-19.5 -5.5t-19.5 4q-12 -2 -24.5 -1
t-24.5 1.5t-23 -2t-21 -11.5q-4 4 -8.5 3t-9.5 -1q-6 -11 -19 -20.5t-23 -20t-13.5 -22.5t9.5 -27q2 -8 -6.5 -10t-15.5 -4q-5 -2 -8 0t-6 5t-6 5.5t-7 0.5q1 4 3.5 4.5t6 0.5t6.5 1t4 5q-8 2 -12.5 6.5t-6.5 10.5t-2.5 13t-1.5 14q4 5 7.5 13.5t12.5 7.5q5 -3 5 1l-7 9
q4 3 6.5 8t5.5 10.5t6.5 9.5t10.5 6q7 -2 12 0.5t10 5.5t10 5t12 -1q4 15 13.5 20t20.5 6t23 -1t23 -2q2 -4 6 -4t7.5 -0.5t5.5 -2.5t1 -10l5 -5q2 13 7 18.5t12.5 6.5t16.5 -0.5t18 -2.5q9 -5 18 -7.5t19 -0.5q11 -9 19.5 -20t19.5 -9q12 -1 17.5 -7.5t9 -15.5t6.5 -19
t11 -17z" />
    <glyph glyph-name="D" unicode="D" 
d="M117 74q-3 1 -4 -1.5t-3 -3.5q0 -4 5 -11l-10 -4t-9 -7q7 -7 5 -11q-8 -4 -10.5 2t-7.5 10q-2 11 6 15t12 11q10 0 14 6q-1 3 -3.5 4t-5.5 1t-5 1t-1 6q0 4 3.5 5.5l7 3t5.5 4t-1 7.5q9 -8 6.5 -18t-4.5 -20zM125 172q-2 2 -0.5 5.5t-2.5 6.5q-5 -1 -6.5 -3.5t-1.5 -6v-7
t-4 -5.5l-27 5q9 5 10 13t1 16t2 14t14 6q-3 -9 1.5 -13t11 -7.5t11.5 -8.5t1 -15h-10zM362 53q-3 0 -4.5 -1.5t-5.5 0.5q-3 1 -2.5 3t0.5 3q5 2 7.5 2t4.5 -7zM132 332q-7 -8 -13 -19.5t3 -19.5l-7 -6q9 -5 9.5 -9.5t-2 -9.5t-4 -11t3.5 -13q-5 -5 -11 -1t-11 6
q-12 21 -8 41.5t4 40.5q-7 3 -7 5.5t2 5t4 6t1 8.5q3 4 8 2.5t8 2.5l-6 10h11q-2 -11 1 -21t14 -18zM497 312q-6 -5 -6 -12.5t-0.5 -15t-4 -12.5t-16.5 -4q2 -5 -1.5 -8t1.5 -7l19 7q3 -6 1 -9.5t-5.5 -7t-6 -7t-0.5 -9.5l16 -8q1 -6 -3 -12t-9 -8q11 -22 6.5 -41.5
t-4.5 -41.5q0 -12 -4.5 -19t-12 -12t-16.5 -8.5t-17 -7.5q-2 0 -4.5 2.5t-5.5 -2.5l5 -7q-4 -3 -8 -4.5t-2 -9.5q-5 3 -3.5 5.5t4 5.5t2.5 6.5t-6 6.5q-4 1 -5.5 -1l-3 -4l-3 -4t-5.5 -1l10 -15l-13 -4l5 -12q-7 5 -11 3.5t-8 -5.5t-8.5 -6.5t-11.5 0.5q2 -7 -5.5 -10.5
t-11.5 -8.5q-6 2 -14.5 0.5l-17 -3t-17 -0.5t-14.5 7q-19 -8 -35 -5t-34 10q-5 -2 -8.5 -6.5t-10.5 -2.5q-1 4 -2 7.5t-6 6.5q-7 1 -8 -3t-7 -6v-6q-20 -7 -37.5 -3t-28.5 19q8 0 12.5 4t8.5 9.5t9 10.5t14 5q4 -6 18.5 -11t25.5 6l1 4q4 -2 4 -9l-17 -2q2 -8 5 -8.5t8 -2.5
q3 6 4.5 6.5t3 0t3.5 -1.5t5 1q0 4 3.5 4.5l7 1t5.5 2.5t-1 8q6 1 11.5 3.5t11.5 1.5q1 -8 5 -11t10 -4t11.5 -1.5t9.5 -4.5q7 3 14 2t13.5 -2t12.5 0.5t12 9.5q6 3 11 1.5t10.5 -4t11 -3.5t11.5 3q6 6 8.5 16t5 18t8 12t19.5 -2q3 1 6.5 3.5t5.5 5.5t1.5 6t-5.5 5
q4 13 12 26.5t4 27.5q11 6 12.5 11.5t-1 11.5t-6 12t-0.5 14q-3 8 2 17t9.5 17.5t4 15.5t-15.5 10q6 9 6.5 18.5t-1 20.5t-3 22.5t0.5 24.5q-5 7 -5 15.5t1.5 18t3.5 19.5t2 20q-3 2 -5.5 3t-4.5 3q9 6 8.5 10.5t-5 9t-8 10t-0.5 13.5q2 -5 8 -2.5t12 4.5t9.5 -0.5
t0.5 -15.5l-5 -18q11 4 13.5 -4t10.5 -12q-9 0 -10 -3t1 -7.5t5 -10t2 -9.5q9 -5 8 -10.5t-4.5 -11t-4.5 -10.5t8 -10q2 -6 1 -11.5t-2 -10.5t-1 -10t5 -9zM125 435q0 -15 -4.5 -18t-15.5 -10h-5q-3 8 -3.5 19t9.5 13q-1 -5 1.5 -7.5t4.5 -6.5q7 0 5 9q1 5 -0.5 7t-4 3.5
l-5 3t-2.5 6.5q3 3 1 4.5l-4 3t-2.5 3.5t5.5 4q11 3 17 -8q-4 -5 -7 -14t10 -12zM106 493q0 4 0.5 8.5t5.5 6.5q6 -2 7 -6t1 -9h-14zM149 552q-4 4 -9.5 3t-7.5 4l17 8v-15zM199 557q-8 -4 -15.5 2t-9.5 17q4 7 15 7zM292 588q10 -6 9 -12t-6.5 -10.5t-12.5 -7t-10 -1.5v8.5
t-5 6.5q-9 5 -14.5 -3t-5.5 -17q0 -4 -4 0t-1 7l6 8l-6 9q15 2 26.5 2.5t23.5 9.5zM434 478q3 6 -2 9.5t-8 7.5q5 2 2 5q-2 5 -6 5.5t-8.5 0t-9 -0.5t-8.5 3l-32 31q-1 -6 -3.5 -7t-5.5 0t-6.5 3t-6.5 2q-8 6 -12 12.5t-2 17.5q20 7 40 -0.5t43 -12.5q3 -2 3 -4.5t-0.5 -4.5
t0 -4t4.5 -2q-3 -10 0.5 -15t10.5 -8t13.5 -6.5t9.5 -9.5z" />
    <glyph glyph-name="E" unicode="E" 
d="M446 25q2 -5 5 -10.5t0 -11.5q-23 0 -45 -4.5t-44 4.5q-20 -4 -34 -2t-34 -2l-5 10q-5 -6 -11.5 -8.5t-13 -4t-13.5 -3.5t-13 -6q-5 5 -9 12t-13 5q-11 0 -24 -3t-26.5 -5.5t-27 -1.5t-25.5 10q-8 -2 -15 3.5t-15 10.5q2 9 3 17t-7 17l12 49q-3 2 -3 6t0.5 8t-0.5 6.5
t-5 1.5q4 7 4.5 16t0 18.5t1 19t7.5 17.5l-13 6q12 10 10.5 22t-5.5 25t-6 26t9 25q-7 4 -8 9.5t0.5 11.5t3 11.5t-0.5 11.5q8 3 11.5 11t-1.5 15q3 4 2.5 8t-2 8.5t-3 9.5t-0.5 11q-15 9 -14.5 18t5.5 19t9 20.5t-2 21.5q4 7 2.5 15t-3 16.5t-1 17t6.5 16.5q-7 16 -3 24
t13 13.5t19.5 9t16.5 10.5q6 -5 11 -10.5t14 -2.5q4 1 4 8q6 -2 11.5 -0.5t10.5 2.5t9.5 0t8.5 -7q10 9 19.5 8t19 -3.5t19 -2.5t18.5 10q11 -9 22 -8t22 4.5t22 5t21 -6.5q10 6 19.5 5.5t19 -3.5l19 -6t19.5 -1q-3 -6 0 -12l6 -12t3 -12.5t-9 -12.5q-5 -2 -12 0t-14.5 3
t-15 -0.5t-12.5 -9.5q-14 10 -26.5 8.5t-29.5 -6.5q-12 5 -27.5 3.5t-26.5 6.5q-9 2 -17.5 -0.5l-17 -5t-16 -4t-15.5 2.5q-2 -8 -5.5 -7.5t-7.5 2t-8.5 2.5t-8.5 -5q-8 1 -15 4t-14 -6v-10l-7 7q-6 -12 -16 -18.5t-12 -17.5q2 -4 6.5 -3t8.5 0q2 -7 -0.5 -15l-5 -16
t-2.5 -15.5t8 -14.5q-2 -3 -6 -6.5t-4 -7.5q8 -1 10 -9.5t0 -13.5q-9 -8 -4.5 -20.5t4.5 -23.5q7 -3 15 -2.5t16 0.5t16 -1.5t16 -7.5q7 -2 16.5 -0.5t19.5 2.5t20.5 0t20.5 -7q1 -4 4.5 -8.5t6 -9t2 -9t-7.5 -8.5q-17 -8 -29 -11t-31 2q-7 7 -14 8t-14 0t-15 -2t-17 3
q-2 -11 -12 -14q-10 -2 -9.5 -14t-3.5 -21q4 -7 3.5 -13.5t-2 -13t-2 -13t3.5 -13.5q-6 -8 -4 -16.5t-4 -13.5q4 -8 3 -16t-3.5 -15.5t-2.5 -15.5t8 -16q-1 -3 -5.5 -5.5t-8.5 -5t-6 -6t1 -8.5q7 4 8 6t9 -3q-2 -9 2 -18q-4 6 -9 2.5t-10 -6.5q6 -9 15.5 -9.5t19.5 2t20 5.5
t18 1q9 -6 18 -3.5t17.5 5.5t16.5 3t17 -10q19 -7 35 -2.5t31 10.5t29.5 8t31.5 -11q9 0 21.5 1.5t24.5 0t21.5 -7.5t12.5 -20z" />
    <glyph glyph-name="F" unicode="F" 
d="M242 312q-8 2 -7 8.5t-2 10.5q3 -8 -2 -11.5t-8 -7.5h19zM228 195q-7 0 -8 4v5q4 0 6 -3t2 -6zM468 547q-4 0 -4 2v4t-1 4t-5 2q4 -12 0.5 -15t-10.5 -3t-15 1t-14 -3q-30 6 -57.5 5.5t-55.5 -5.5q-10 9 -20.5 6.5t-20 -7t-17.5 -5.5t-13 11q-10 -3 -21 -2l-22 2
t-20.5 -1.5t-16.5 -14.5q-4 2 -5.5 0t-4.5 -5q4 -17 2.5 -38.5t-10.5 -35.5q9 -17 10.5 -37t-2.5 -37q8 -4 7.5 -9t1.5 -13q-4 0 -7 -2.5t-7 -4.5q10 -10 21.5 -12t23.5 -1t24 3t24 0q-2 5 3 6t7 4q3 0 4.5 -3.5t3.5 -7.5t5 -7t8 -2q8 2 14.5 6t17.5 4q-1 -5 2.5 -9t7 -7.5
t5 -7t-2.5 -8.5q-17 -16 -38.5 -18.5t-44.5 -3.5q-13 8 -33 4t-33 -8q-4 -6 -4 -15l-1 2q4 -7 3 -14.5t-4 -14.5t-6.5 -14t-2.5 -13q7 -5 8.5 -14t1 -19t-1 -19.5t2.5 -16.5q-2 -8 -6.5 -16.5t-7 -17t-0.5 -17t13 -15.5q-7 -10 1 -21h4v-6l-4 1l-5 -5q9 3 9.5 -7t4.5 -17
q-2 -10 -10.5 -17t-16.5 -15q-14 -4 -24 2.5t-17 18.5q9 0 11.5 4t2.5 9t-0.5 11t2.5 11q-2 -2 -9 0.5t-8 -5.5v-2q-7 6 -5 13t6 14.5t7 16t-3 16.5v6q5 0 12 5q-3 4 -4.5 10t-7.5 4q0 7 -2.5 14.5t-5 15.5t-2.5 16.5t6 16.5q0 6 3.5 12.5t5.5 13.5t1 13t-10 11h-1
q8 16 4 33.5t-4 34.5q7 11 8 22t-1 22.5t-4.5 24t-1.5 26.5q0 4 -0.5 10.5t1 12.5t5 10.5t10.5 4.5q0 7 -4.5 16.5t4.5 17.5q-8 3 -9.5 9t-1 13t1 13.5t-2.5 10.5q1 8 3 15.5t9 11.5l-12 10q9 2 11 9t2.5 14.5t3 12t13.5 0.5q6 3 14 1.5t16.5 -3t17 -1t15.5 7.5
q5 -5 13.5 -3.5t16.5 6.5q17 0 35 -4.5t29 6.5q33 -7 62 -10t62 8q6 -8 14.5 -9.5t16.5 -2t13.5 -3.5t4.5 -15q4 -5 11 -9t-3 -10z" />
    <glyph glyph-name="G" unicode="G" 
d="M455 194q-11 -11 -8 -22.5t1 -21.5q11 -8 10 -15.5t-5.5 -15.5t-7.5 -16t5 -18q2 -6 -1 -13.5t-11 -9.5q11 -16 11.5 -31.5t-1.5 -32.5q-5 -5 -11.5 -10t-13 -7t-12.5 -1t-12 7l-13.5 9t-15.5 -2q-4 -2 -2.5 -5t-0.5 -5q-13 9 -23.5 8.5t-20.5 -4t-20 -5.5t-22 6
q-3 6 -9 7t-12.5 2t-11.5 4t-5 11q3 -8 0 -12.5t-8.5 -7.5t-12 -5.5t-9.5 -8.5q-9 9 -21 13.5t-23 -0.5q-6 -5 -11.5 -4t-10.5 4t-10.5 7t-11.5 5q-3 3 -2 6.5t2.5 7t1.5 7t-5 6.5l-10 -6q2 8 -1 12.5t-8 7.5t-10 5.5t-7 6.5q5 -2 9.5 0t9.5 5q-1 7 -6 8.5t-10.5 2.5
t-10.5 3t-5 11q4 18 8.5 34.5t-5.5 33.5q4 0 6 2.5t4 4.5q-9 10 -9 24t-6 25q4 5 8.5 2t6.5 -8q4 3 4.5 7t-0.5 8.5t-1.5 8.5t1.5 9h5q4 2 -1 5.5t-8 5.5h-10q2 17 3 33t7 32q3 4 6.5 6t2.5 7q-11 3 -16.5 11.5t-5.5 17.5v5q8 -5 15.5 3.5t6.5 15.5q2 6 -0.5 9t-6 6t-7.5 6
t-5 9q-3 11 -1.5 20t4 17.5t4 17.5t-1.5 19h2q-3 10 0.5 18.5t9.5 16.5t12 16.5t7 18.5q14 9 30.5 14.5t33.5 12.5q4 7 8.5 7t9 -2t9.5 -4.5t10 -0.5q15 5 27.5 4.5t25 -3t25 -4.5t27.5 -1q10 -5 22 -2t25 1q8 -8 18.5 -9.5t20.5 -4.5q11 -17 23.5 -32t10.5 -35
q14 -3 15 -8.5t-3.5 -12.5t-10 -14t-5.5 -14l-10 -5q-9 8 -15 19t-12.5 21.5t-15.5 19t-24 12.5q-8 11 -21 14.5t-23 14.5q-2 -6 -7 -7t-10.5 -0.5t-10.5 -0.5t-8 -7h-5q2 2 -0.5 5t-4.5 5q-5 -4 -9 -5t-8 -1.5t-7.5 -2t-5.5 -5.5q-5 -1 -9 3.5t-8.5 8.5t-9.5 5t-11 -8
q-5 -6 -13.5 -2.5t-16 7t-12 2t-2.5 -16.5q-4 -5 -9.5 -9t-9.5 -8.5t-4 -9.5t8 -11q-6 -4 -8.5 -9t-3 -11t-1.5 -12t-5 -11v-41q-2 0 -5 -3q-2 -5 -0.5 -7t4.5 -2.5t5.5 -2t3.5 -5.5q-7 -14 -5.5 -24.5t4.5 -20.5t5 -20t-2 -23q2 -5 5 -10.5t2 -11.5h-5t-4 -2q2 -6 5 -11
t0 -13q-5 -8 -12 -11.5t-3 -16.5q2 -3 5 -2.5t5 0.5q0 -4 -0.5 -8.5t2.5 -6.5h7q-7 -18 -13.5 -38.5t4.5 -37.5q-9 -5 -10.5 -11t0 -13t3 -15t-2.5 -17l5 -5l5 7q5 0 9 -5.5t9 -11t11.5 -8t16.5 3.5q7 -8 14 -7.5t14.5 3t15 3t13.5 -8.5q14 0 31 0.5t32 13.5q9 -12 19 -11.5
t20 4t19.5 6.5t17.5 -3q11 0 12 9.5t5 16.5q-6 9 -4 16.5t5.5 14.5t6 14t-2.5 15l12 12q-6 4 -9 15t-7 20.5t-10.5 13.5t-19.5 -5q-3 4 -8 6.5t-10 4.5t-8.5 4.5t-3.5 8.5l-12 5l5 10l-15 4q1 2 1.5 4.5t3.5 5.5h8q0 -7 2 -9q6 -1 7.5 2t2 6.5t1.5 6t7 -0.5q3 -4 4 -7.5
t5 -6.5q19 11 38.5 12.5t40.5 1.5q9 -4 11 -11t3 -15t2.5 -15.5t9.5 -12.5z" />
    <glyph glyph-name="H" unicode="H" 
d="M98 97h-5q-2 -4 0.5 -5.5t4.5 -4.5v10zM484 194q1 -7 -2 -11t-7.5 -7.5t-9 -6.5t-5.5 -9q6 -3 8 -7.5t2.5 -10t1 -10.5t5.5 -9q-6 -6 -7.5 -10.5t-1.5 -9t-1 -10t-5 -13.5q10 -10 14 -22t4 -25q-1 -5 -5 -5.5t-7.5 -0.5t-5.5 -1.5t0 -7.5h13q0 -13 -5 -18.5t-5 -18.5
q-8 -5 -14 -2.5t-15 0.5q3 4 5 9t0 11l-15 4q0 5 1.5 8t0.5 8q-8 -4 -11.5 4.5t1.5 14.5q1 7 4 12t1 13q8 -2 13 3.5t9 10.5q-12 6 -11 13t4 14t4 14t-11 13q-5 -3 -4.5 -7t1.5 -8t1 -8t-6 -7q-6 4 -7 10.5t0 13t2.5 13.5t-0.5 13q11 4 8 14q-15 9 -11.5 18t9.5 18.5t8 19
t-14 18.5q7 6 7 10.5t-3 8.5t-7 8.5t-4 10.5q-11 -2 -22.5 -0.5t-22.5 3t-22 0.5t-21 -10q-9 10 -18.5 9.5t-19 -3t-19 -2.5t-18.5 13q-21 -9 -46 -10t-47 -7q-1 4 0 6.5t-3 5.5q-11 -9 -16 -24t-14 -24q5 -5 6 -12.5t1.5 -16t3 -16.5t9.5 -14q-7 -3 -7.5 -6.5t1 -8t2 -8.5
t-5.5 -7q11 -11 12.5 -28.5t-2.5 -31.5q-4 -2 -8.5 -4t-6.5 -7q-3 -8 4.5 -12t7.5 -10h8q-8 -3 -9 -7.5t1 -9t4.5 -10t1.5 -11.5q-6 -10 -8 -23t-15 -17q-8 5 -16 11t-16 14q7 19 7 41.5t11 39.5l-2 2q-6 -2 -9 -6.5t-9 1.5q5 3 5 5.5t-2.5 5.5t-5 6.5t-2.5 6.5q2 0 5 -2.5
t5 2.5q0 2 0.5 5t-3.5 5q-2 0 -6 -4q-2 3 0.5 7.5t5.5 9.5t4 10.5t-4 10.5l3 6l8 -1q-1 26 -4 52.5t1 50.5q-2 2 -4 8t-10 4q4 12 3.5 25.5t-1.5 26.5t0.5 26t9.5 25l5 7q-6 9 -8 20.5t-2.5 23t-3 22.5t-9.5 20q7 9 8 21t0.5 25t-2 25t-0.5 22q-1 10 2.5 21.5t16.5 7.5l5 8
q8 -1 12 -7.5t7.5 -13.5t8.5 -11.5t14 -1.5q-10 -7 -12 -17t-1.5 -21t1.5 -23t-4 -22q4 -6 11.5 -5t11.5 4q-11 -7 -15 -19.5t-6 -26.5t-3 -27.5t-6 -23.5q7 1 10 -2.5t4 -8.5t1.5 -10.5t4.5 -8.5q-5 -11 0 -17t5 -17q12 -11 25.5 -8t28 8.5t28.5 7.5t26 -11q4 1 8 5t6 8
q-2 -1 1.5 -2t9 -2.5t11 -2.5t8.5 -1q10 11 21 13q4 -6 15.5 -6.5t17.5 -6.5q10 0 17.5 1.5t14.5 3t14.5 0.5t16.5 -5q9 9 5 18.5t-8.5 18t-3 13.5t21.5 4q9 5 10 13.5t-1 15.5q-4 5 -9.5 7.5t-9.5 -2.5q2 8 -1.5 16t-7.5 16t-5.5 16t4.5 16h2q9 13 5 24t-9.5 21.5
t-6.5 21.5t16 24q0 3 -2 6.5t0 7.5q6 2 11 7t14 3q11 -6 14 -14t4 -16t1.5 -16.5t6.5 -16.5q-5 -11 -6.5 -23.5t9.5 -25.5q-5 -6 -2 -13t7 -12q-1 -7 -7 -13t-11 -11.5t-5.5 -11.5t8.5 -13q-6 -6 -4.5 -11t4.5 -10l6 -10t1 -11q-13 -18 -12 -41t12 -42h-7q3 -8 2.5 -18.5
t0.5 -21t4 -20.5t12 -16zM157 537q-2 4 2 7.5t7 -0.5z" />
    <glyph glyph-name="I" unicode="I" 
d="M189 8q0 6 -7 5t-11 -4l10 -10zM399 -6q-2 2 -5.5 4.5t-8.5 0.5q3 -4 6.5 -4.5t7.5 -0.5zM259 155v-10q1 0 2 1.5t3 -0.5q0 7 3 9h-8zM433 9q-5 -2 -7 -0.5t-3 4t-1 5.5t-1 5q2 -5 7.5 -7t4.5 -7zM424 571q0 -6 -3 -9.5t-6.5 -6t-6 -6t-2.5 -10.5q-4 -3 -11 -3h-14.5
t-13 -2.5t-5.5 -11.5q-4 0 -11 4.5t-15 7.5t-16 2t-14 -13q-5 -6 -4 -12.5t3.5 -12.5t2.5 -11t-7 -9q11 -10 10 -21t-4.5 -22.5t-4.5 -22.5t11 -21q1 -4 -1.5 -7.5t-4.5 -8t-3 -9t4 -10.5q-4 -11 -4 -21.5t9 -17.5q-3 -2 -6.5 -0.5t-5.5 -2.5q-2 -7 4 -8.5t8 -3.5
q-2 -14 -5.5 -26.5t-4.5 -27.5q8 -4 9.5 -8.5t3.5 -12.5l2 2l5 -5l-12 -3q4 -5 2.5 -11.5t-2.5 -13t0 -13.5t10 -11q5 -8 2 -16t-7 -15.5t-5.5 -14.5t7.5 -14q3 -9 -2.5 -16t-10.5 -13.5t-5.5 -12.5t11.5 -13h10.5t9.5 -5q0 -7 -3 -9q6 -5 14.5 -5t16 -0.5t12.5 -5.5t4 -18
q5 -6 8.5 0t10.5 4l5 7q3 -1 3.5 -3t0.5 -4.5t1 -4t5 -0.5l7 1q-3 -6 -2.5 -14.5t-9.5 -10.5q-9 4 -18.5 1.5t-19 -5.5t-18.5 -3.5t-17 7.5q-9 3 -16.5 -0.5l-15 -7t-14.5 -3t-13 10.5q-8 0 -15.5 -6t-14.5 -11t-14.5 -5t-14.5 12q-2 -9 -9 -8t-11 -1q-6 1 -11 4.5t-10 6.5
t-10.5 4.5t-11.5 -1.5q-5 4 -6.5 9.5t-3.5 10.5h5q0 -1 4 -5q5 7 5 14l-10 10q2 5 6.5 5h9.5t9.5 1t6.5 9q8 0 16.5 -4.5t16 -7.5t14.5 -2t12 12q10 4 25 13.5t32 7.5q2 1 4.5 2.5t1.5 3.5q-2 4 -4.5 5t-5.5 0t-5.5 -1.5t-5.5 2.5q-11 24 -30 32q10 1 12.5 5.5t1.5 10
t-2.5 12t0.5 12.5l-12 4q0 6 3 12l6 12t3.5 12t-5.5 13q-1 4 -4 4h-6t-5 1t-1 6q8 -1 14.5 2.5t6.5 11.5l-5 20q2 0 5 3t3 6q3 10 -8 17q-3 1 -6 -2q5 9 8.5 16t7.5 18q1 8 -2 13t-5.5 9.5t-2.5 9t8 12.5q-5 3 -6 5.5t0 5t3.5 5.5t4.5 6q-13 33 -11 72.5t4 74.5
q-8 1 -11.5 5.5t-5.5 9.5t-5.5 9t-11.5 3q-9 -4 -18.5 -5t-19 -1h-18.5t-17 -3q-8 0 -11.5 8t-8.5 13q-5 21 3 24t19 1t21.5 -0.5t10.5 19.5q6 0 10.5 -3l9 -6t9 -4.5t10.5 1.5q3 -6 5.5 -6t5.5 2.5t6.5 4.5t7.5 1q22 -7 45 -2.5t47 7.5l7 8q15 -6 30.5 -15t33.5 -4z" />
    <glyph glyph-name="J" unicode="J" 
d="M460 156q-2 -8 -1.5 -16t0.5 -16.5t-3 -16.5t-11 -15q8 -5 5 -14t0 -20q-6 3 -9 -0.5t-4.5 -8t-3.5 -9t-7 -4.5q-6 -5 -5.5 -13.5t2.5 -13.5q-5 -10 -12 -12.5t-15.5 -3.5t-16 -3t-12.5 -11q-8 -2 -18 -3.5t-16 5.5l-5 8q-2 2 -4 -0.5t-3.5 -5t-3.5 -2t-4 7.5
q-4 -2 -4 -8q-17 -3 -32 -3t-32 -8l-12 17q-8 -18 -17.5 -18.5t-20 5t-22 11t-23.5 -0.5q-5 11 -8 19t-5 16q-5 -5 -9.5 -4.5t-9 3t-9 6t-8.5 4.5q-1 13 -7.5 20.5t-14.5 18.5q3 2 6.5 3t5.5 4q-1 6 -6.5 7.5t-1.5 9.5q9 1 14.5 3.5t10 3.5t9 -1.5t11.5 -11.5
q-5 -9 -1.5 -13.5t9.5 -8t11 -8t3 -12.5q6 -2 7 -8t2 -11.5t4 -9.5t13 -1q5 4 4.5 9.5t8.5 5.5q2 -9 9.5 -11.5t16.5 -3.5q-5 -11 -0.5 -17t12.5 -9q7 3 8 7.5t0.5 9.5t0.5 9t9 5q9 3 17.5 -0.5t16 -6.5t13.5 -2t11 14q5 2 11 -0.5l12 -5t13 -3.5t13 5q9 -2 15 0.5t11 6
t10.5 6.5t13.5 1q-5 8 0 16t10.5 14.5t6.5 11t-12 7.5q9 2 11.5 11.5t4.5 17.5q-13 5 -15.5 22.5t-5.5 33.5q16 2 19 13l-14 4q1 3 5 4t7.5 1.5t4.5 2.5t-3 8h-9l33 21l-14 8q7 5 1 9.5t-6 9.5q-9 3 -10 7.5t0.5 9.5t1.5 11t-6 12q3 4 7 6.5t2 7.5q-10 3 -12 9t-0.5 14
t3.5 16.5t-1 16.5q-2 4 1.5 9t6 9t2 7.5t-9.5 6.5q-2 7 4 8t8 7q-4 13 -8 25.5t-8 25.5q7 -2 10 1t6 7q-10 8 -11.5 18t-2 20t-3 19.5t-14.5 17.5q-7 -9 -16 -9.5t-19 0.5t-19.5 1t-17.5 -8q-6 3 -13.5 8.5t-15 9t-15.5 3t-16 -9.5q-9 8 -16 6t-17 -6q-6 -9 -16 -10
t-21.5 -1t-23 -1.5t-19.5 -11.5q-13 8 -16.5 23t1.5 29q19 11 44 9t45 -4q16 3 32 4t31 -5q11 6 23.5 4.5t25.5 -3.5l5 -5q3 11 7.5 10.5t9 -3.5t10.5 -5.5t12 3.5q7 -6 17.5 -4.5l21 3t19 -1.5t11.5 -20q-5 -10 -3.5 -18t4 -15.5t4.5 -15t-1 -16.5q-10 -9 -9 -23
q11 -2 11 -10.5t-2 -15.5q-2 -6 -5 -3.5t-5 -1.5l6 -13q0 -1 -1.5 0t-3.5 2t-4 0.5t-3 -4.5q3 -5 7 -9t7 -7.5t4 -8t-2 -10.5q8 -7 5 -16.5t1 -16.5q-5 -1 -6.5 -5t-1 -9.5t1 -10.5t0.5 -8q-3 -5 -2 -11t2.5 -12t0 -11t-9.5 -7q6 -16 7.5 -29.5t1.5 -26.5t1.5 -26.5
t8.5 -29.5z" />
    <glyph glyph-name="K" unicode="K" 
d="M492 14q-13 -24 -37 -27l-31 2q-1 11 -5 19.5l-8 17t-6.5 17t-0.5 19.5q-18 4 -26 18t-21 22q4 4 9.5 4t5.5 6v9q-15 -3 -23 2t-14.5 13.5t-12.5 18t-16 15.5q-6 8 -8.5 17.5t-5.5 18t-8 16t-17 11.5q-2 4 -1 8t1.5 8t-1 7.5t-7.5 6.5l-13.5 -1.5t-8.5 0t-8 2t-11 4.5
q-9 -8 -10 -17.5t-9 -17.5q-1 -18 -9.5 -31t-17 -25t-14 -25t0.5 -31q5 -31 1.5 -61t-5.5 -61q-4 -3 -9 -7.5t-10.5 -7.5t-11.5 -3t-12 6q-9 8 -9 20t-7 21q4 15 7.5 28.5t1.5 28.5q-5 3 -3.5 8t-5.5 8l-8 -10q-8 1 -4 8t4 12q7 -1 9.5 3.5t4 11l3 13t5.5 11.5q1 5 -3.5 8
t-8.5 6t-5 6t8 8h5t4 2q-11 2 -12 6t0.5 9.5t2 11t-7.5 9.5q-5 6 -1.5 14t7 14.5t3 11t-13.5 4.5q-3 6 0.5 12t6.5 12t3.5 11.5t-7.5 11.5q-2 26 1.5 51.5t7.5 51.5q2 2 7 3t3 7q-2 3 -0.5 6t-3.5 4h-6q4 6 3 12t-3.5 12.5t-4 12.5t0.5 12q-9 0 -10 3.5t0.5 8t1.5 8.5t-7 6
q-1 6 1 8t5 3.5t6 3.5t3 7q-5 8 -2 16l6 16q2 2 5.5 3t6.5 5q-7 8 -0.5 11.5t10.5 7.5q4 -4 9.5 -4t5.5 -6q-2 -11 3 -18t5 -16q-10 0 -11 -8.5t-4 -15.5q11 -20 12 -39t-7 -44q3 -17 4 -28.5t6 -26.5q-1 -4 -4.5 -8.5t4.5 -8.5q4 -8 1.5 -16l-5 -16t-2.5 -15t11 -14
q-10 -16 -13 -39q6 -1 8.5 -5t3.5 -8t3.5 -6.5t8.5 -0.5q0 13 7 21.5t16 16t17.5 15t13.5 18.5q4 6 11 13t12.5 14t8.5 14t0 13q9 0 12 5.5t5 12.5t5.5 12t12.5 4q1 6 5.5 9t8.5 5.5t5.5 6.5t-3.5 11q7 1 10.5 6t5.5 10.5t5 11t9 7.5q-4 9 0 13t9 7.5t7.5 7.5t-3.5 13
q13 2 19.5 11.5t14.5 17.5q-6 9 -3.5 13.5t8.5 7t12.5 4.5t8.5 8q5 3 9.5 1.5t8.5 -5t8 -6t9 -0.5q-2 -1 -3.5 -6t3.5 -7h4q-5 -11 -11.5 -18t-14.5 -18q5 -5 2.5 -8.5t-7.5 -7.5t-10 -8.5t-5 -10.5q-12 -11 -24.5 -22t-23.5 -23.5t-18.5 -27t-9.5 -30.5q-9 0 -11 -5t-3 -11
t-3.5 -10.5t-11.5 -2.5q-13 -11 -15 -25.5t8 -27.5q-4 -1 -2.5 -5t-0.5 -6q4 -8 12 -6t12 1q2 -7 6.5 -12.5t9.5 -10t9 -9.5t5 -11q6 0 11 -5t8 -10q-9 -17 -3.5 -23t15.5 -9t18.5 -7.5t4.5 -19.5q8 -5 15.5 -14.5t1.5 -16.5l12 -13l3 2q-1 -9 6.5 -15t14.5 -11l-6 -5
q13 -5 22.5 -17.5t11.5 -26.5q2 -2 5 -2.5t5 -2.5q0 -6 -3.5 -10t-1.5 -10q4 -8 9 -6t10 2z" />
    <glyph glyph-name="L" unicode="L" 
d="M161 14q-5 3 -8 0.5t-1 -6.5h9v6zM387 9q2 -2 0.5 -5t3.5 -5q5 -1 8.5 1.5t7.5 3.5zM489 13q-8 0 -15 -6t-13.5 -10.5t-13 -5t-13.5 11.5q-11 5 -15.5 -5t-6.5 -19q-7 -3 -13 0.5t-11.5 6.5t-10.5 3.5t-10 -8.5l-20 6q0 4 3 7.5t2 9.5l-9 9q-5 -8 -15.5 -16.5
t-14.5 -17.5q-7 5 -2 12.5t12 7.5q-3 2 -3 9q2 3 4 2.5t4 -2.5l4 -4t4 -1l16 22q33 8 63.5 6.5t59.5 -3.5zM304 23q4 -11 -6.5 -19t-15.5 -17q-9 -9 -19 -6.5t-19 5.5t-17.5 3t-15.5 -13l-17 11l-8 -11l-5 13q-6 -2 -13.5 -5.5t-15 -5.5t-15 -1t-14.5 7q-5 6 -1.5 14.5
t7.5 16t3 11t-15 -0.5q0 7 -2.5 14.5t-3.5 15t1 13.5t11 9q-5 3 -4.5 9t1 11.5t-1.5 9t-12 0.5q5 27 7.5 50.5t-10.5 47.5h5q2 -2 0.5 -5t3.5 -5q2 7 2 16v18t1.5 17.5t7.5 13.5q0 4 -4 7l-8 6t-6 7.5t1 11.5q5 0 6 2t0 4.5t-2.5 5t-1.5 5.5q3 15 3.5 28t0 25.5t0 26
t5.5 28.5q-5 5 -6 10.5t-2 11.5t-3 11.5t-8 10.5q3 4 7 9t6 9.5t0.5 9t-8.5 9.5q6 7 4 13t-5.5 12t-4 12t8.5 12q6 1 7.5 5.5t1.5 9t2 8t10 2.5q10 2 15.5 -2t8.5 -10.5l6 -13t10 -9.5q-7 -12 -8.5 -25.5t-1 -28t0.5 -29.5t-3 -30l16 -9q-8 -6 -10 -13t-1.5 -15t0.5 -16.5
t-3 -17.5l9 -22q-4 1 -6 -1.5t-5 -3.5q-1 -7 4 -6t3 -1q0 -9 -1 -20.5t-4 -21.5q-2 0 -5 -3.5t-5 -5.5q2 -3 8 -3q-4 -9 0 -16t8 -13.5t5.5 -13.5t-6.5 -17q8 -14 10 -29.5t-0.5 -31.5t-6.5 -31t-8 -28q10 -4 12 -13.5t3.5 -19t6.5 -16t20 -3.5l31 -29q4 0 -0.5 -2t-2.5 -4
q5 0 9.5 -2.5t8.5 3.5q1 4 -1.5 7l-5 6t-3 7t4.5 9q10 1 18 -1t15.5 -4.5t15 -3t15.5 3.5z" />
    <glyph glyph-name="M" unicode="M" 
d="M479 528q-9 -4 -6 -9t3 -11q-2 -7 -4 -13t-8 -11q-13 4 -19 10l-1 -1q6 9 3.5 17t-7 16t-7.5 16.5t2 19.5q-3 4 -7 4.5t-8.5 0.5t-8 1.5t-5.5 7.5q-6 0 -12.5 -2t-13 -3.5t-12.5 -1t-11 6.5q-4 -6 -3 -13t2.5 -13t0.5 -12t-10 -11q3 -16 -7 -22.5t-18 -11.5
q10 -7 18.5 -16.5t1.5 -22.5q-10 -5 -10 -13.5t1.5 -17.5t0.5 -16.5t-12 -10.5q3 -8 0 -16.5t-6.5 -16.5t-5.5 -16.5t3 -16.5q-2 -2 -6.5 -4t-8 -5t-4.5 -6.5t4 -7.5q4 -3 8 -4t6 -6q-5 -7 -10.5 -16.5t-12 -16t-15 -8t-20.5 6.5q-2 8 -0.5 15.5t2 15t-1.5 14.5t-10 14
q-2 5 -6.5 6.5t-8.5 3.5q0 10 8.5 13.5t8.5 11.5q-7 2 -10 6.5l-7 10.5q-2 14 -6.5 25t-17.5 19l10 12q-8 4 -13 15t-7 19v8q5 -1 10 6q2 12 -2.5 26.5t-12.5 27.5h-19q4 5 3 10t-4 10.5t-6 11.5t-3 12q-18 2 -34 -5q-14 -7 -19 -18.5t-9 -25.5q7 -8 5.5 -16.5t-3.5 -17
t-1.5 -17t12.5 -15.5q1 -5 -3 -10t-8.5 -10t-5 -10t8.5 -11q0 -7 2.5 -16t4 -18t0.5 -18t-7 -16q4 -8 3 -15l-2 -14t-0.5 -13t7.5 -13q0 -7 -3 -14.5t-5 -14.5t-0.5 -13.5t10.5 -10.5q-7 -9 -7 -18t3 -18t7 -18.5t5 -18.5q-9 -6 -9.5 -12.5t1 -14t2 -14.5t-6.5 -14
q-3 -8 -0.5 -14.5t5.5 -12.5t4.5 -12.5t-1.5 -13.5q7 2 9 -3.5t5 -9.5q-4 -2 -3 -5t-1 -5l-18 3q-2 -8 -3.5 -15t-3.5 -15q-14 -3 -25.5 5.5t-18.5 16.5q1 11 4 21.5t6 20.5t5 20t0 20q-7 3 -7.5 6.5t0.5 7t0 6.5t-8 4q8 3 8 7.5t-2.5 10.5t-3.5 13t5 13q-7 8 -10 20t5 21
q7 10 6 22.5t-3 24.5t-3 24t5 22q-3 2 -2.5 6.5t0.5 6.5q9 3 9.5 5.5t-2.5 5.5t-6 6.5t-1 7.5q2 8 1 16.5t-2.5 17t-1.5 17t5 17.5q2 7 -0.5 13t-5.5 11.5t-4 11t5 11.5q-2 11 -5.5 24t-5 25.5t1.5 24.5t14 21q-2 12 2 17t10 8t12.5 6.5t9.5 12.5q7 0 14 -4t14.5 -6.5
t14 -1.5t11.5 10q9 8 15 6t12 -7.5t11.5 -11t13.5 -4.5q4 -8 9 -15t9.5 -14.5t6.5 -16t-1 -18.5q-5 -5 -4 -9.5t4 -9.5t6.5 -10t3.5 -11q-9 -10 -8 -20t4.5 -20t6 -19.5t-2.5 -18.5q6 -8 11 -17t19 -12q16 7 29 20q-13 7 -13 14.5t3.5 15.5t7 17t-2.5 19q1 3 5.5 7.5t9 9.5
t6.5 10.5t-2 10.5q-7 8 -7.5 20.5t-2.5 23.5q1 10 7.5 13.5t13.5 5t12 5t2 14.5q13 12 29 18.5t34 0.5q1 -2 3.5 -4.5t6.5 -0.5q2 8 7 9t10 6q8 0 13 -3t8.5 -6.5t7.5 -8t10 -7.5q6 -8 5.5 -14.5t-5.5 -14.5q8 -4 14 -13.5t-1 -20.5zM494 78q-6 -8 -11.5 -16.5t-6.5 -18.5
q-3 2 -5.5 -0.5l-4.5 -4.5q0 -2 1.5 -4.5t3.5 -0.5h8v-10q-20 0 -33 1t-21 21l-8 -2q-3 6 -0.5 9t6 4.5t6.5 3.5t3 7q9 -2 11.5 5.5t5.5 14.5q0 6 -4.5 14t4.5 15l-14 5q3 14 9.5 22t10.5 22q-6 7 -15 1q-2 3 1.5 9.5t8.5 6.5q-9 8 -10 15t-0.5 14t1 14.5t-5.5 16.5
q3 7 7 14.5t-7 11.5q-3 15 0.5 29l7 28t5.5 29t-3 32q-2 18 -2.5 36.5t-10.5 36.5q2 13 13 19q8 -5 16.5 -8.5t12.5 -8.5q1 -3 -1 -5.5l-4 -5t-3.5 -5t0.5 -6.5q9 -2 11.5 -7.5t2 -12t-2.5 -13t-1 -10.5q-4 -10 -1 -23.5t8 -25.5q-3 -14 -3 -28t-1 -27t-4.5 -24.5
t-13.5 -19.5q1 -6 7 -12t11 -12t6 -12t-6 -12q-2 4 -8 4l-5 -5q4 -8 11.5 -11t6.5 -13q1 -3 2.5 -8t1 -10.5t-3.5 -9.5t-10 -4q-11 -6 -8 -17q10 -4 11.5 -9t6.5 -11q0 -7 1 -15t9 -13z" />
    <glyph glyph-name="N" unicode="N" 
d="M449 63q8 -5 9 -10t0 -13q-10 -3 -17.5 -9t-15 -11t-16 -6.5t-19.5 4.5q-6 2 -15.5 3.5t-17 5t-11 10.5t4.5 19v2l-15 -5q3 4 1.5 9l-3 10t0.5 8t11 2q-2 9 -4.5 22.5t-15.5 17.5q-3 -2 -5.5 -2.5t-4.5 -2.5q-8 12 -5.5 19.5t5.5 18.5q-8 -2 -11 1.5t-5 9t-5.5 9.5
t-12.5 2q2 -2 5.5 2t6 10.5t1.5 13t-8 11.5q-7 7 -9 14.5t-3 15.5t-3 16t-9 15q2 4 3 6.5t1 6.5q-7 3 -9.5 6t-6.5 8q1 7 -0.5 11t-3.5 7.5t-3 8t2 12.5q-4 8 -9 4t-9 -4q0 9 -3 17.5t-5.5 17.5t-2.5 17.5t6 16.5q-10 1 -13.5 6.5t-6 12t-6 11.5t-13.5 5q0 9 5.5 17t-0.5 17
q-9 2 -13 8.5t-6.5 13.5t-6.5 13.5t-13 8.5q-3 -1 -4.5 -4.5t-3.5 -7t-4.5 -4.5t-7.5 4v7q-10 4 -19 -5q0 -5 3 -8t5 -6.5t2.5 -7t-5.5 -8.5q7 -25 10.5 -53t-6.5 -51q8 -8 6 -16t-5.5 -15.5t-3.5 -14t13 -11.5q4 -11 2.5 -20.5t-2.5 -18.5h6q-12 -8 -11 -17t5 -17.5
t4 -17.5t-13 -17q7 -5 8.5 -11t1.5 -12t1.5 -11.5t9.5 -9.5q0 -9 -4.5 -17l-9 -16t-5.5 -16.5t8 -18.5q-8 -8 -5.5 -13t7.5 -9.5t8 -9.5t-5 -12q8 -8 8.5 -14.5t-2.5 -12.5t-8 -12.5t-8 -12.5q-2 -3 -6.5 -2.5t-8.5 0.5q-9 18 -8.5 33t6.5 35q-2 1 -4 3t-4 2q-2 -4 -6 -7.5
t1 -7.5q0 -6 -4 -6l-6 11l10 5q0 6 -5.5 11t-3.5 14q1 3 3.5 4t4.5 2t3 3t-2 5q-2 2 -4 1.5t-5 -0.5q-1 6 2.5 10t7.5 7.5t5.5 7t-4.5 9.5l-12 -5q4 9 2 18.5t-5 19t-3.5 18.5t6.5 17q6 8 5 16.5t-3 16.5t-1 16t11 15q1 4 -4 6.5t2 7.5q-13 2 -14.5 9.5t0 17.5t2 20t-7.5 17
q7 11 5 21.5t-5 21t-3.5 20.5t9.5 20q4 9 1.5 18t-5.5 17t-4 15.5t8 13.5q7 6 4.5 10.5t-6.5 8.5t-5.5 8t7.5 8q3 15 -11 24q0 3 2.5 4.5t5.5 2t5 2t2 6.5q6 6 13.5 9t14.5 6t13.5 6.5t12.5 10.5q7 1 11 -3t7 -9t7 -8t10 2l34 -20q-8 -2 -7.5 -9t0.5 -13q4 -3 4 -7t-1 -8
t-1.5 -8t3.5 -8q11 -7 12 -17t1 -20t2 -18.5t16 -13.5q-4 -7 -1.5 -12.5t5.5 -10t4.5 -8.5t-3.5 -8h5q-3 -6 -0.5 -9.5t6.5 -6t7 -6t1 -9.5q4 -8 4 -15.5v-15t1.5 -15t9.5 -14.5q2 -5 0.5 -12.5t-2 -14.5t2.5 -12t14 -5q2 -5 8 -9.5t12 -2.5q7 -14 9 -28.5t4 -28.5t7 -27
t17 -24q3 -6 4 -13.5t2.5 -14.5t5 -12.5t9.5 -8.5q-4 -3 -3 -6.5t-1 -5.5q10 -5 13.5 -14.5t6.5 -17.5t9.5 -10.5t23.5 6.5q1 6 -1.5 8.5t-6 3.5t-8.5 1t-8 2q2 3 2.5 6.5l1 7t3 5.5t7.5 2q2 -7 3.5 -14t6.5 -12q9 4 8 12.5t-3 13.5q-7 10 -11.5 18.5t-2.5 20.5
q7 17 8.5 31.5t-3.5 34.5q3 6 1 11.5t-5 11t-3.5 11t7.5 11.5q4 6 1 13t-5.5 13t-2 9t12.5 2q-6 1 -6.5 4.5t0.5 7.5l2 8t-3 7q-4 14 -3.5 30t-10.5 25q1 5 5.5 9.5t7.5 9t3 9t-7 9.5q-5 10 -2 22t6 23.5t3 23t-11 20.5h5q3 6 0.5 10t-5.5 8t-5.5 8.5t-0.5 11.5h1
q1 6 0 12.5t-2.5 13t-1.5 14t3 14.5q6 8 8.5 16.5t16.5 0.5q15 -12 15 -29t5 -32q1 -13 0.5 -23t-2.5 -19t-4.5 -18.5t-3.5 -20.5q4 -2 6.5 -4.5t7.5 -6.5q-8 -8 -5 -18t11 -15q-8 -10 -7.5 -19.5t2.5 -19.5t2 -20t-9 -21q-4 -19 -1 -36t3 -37l9 -15q-7 -4 -8 -9.5t0 -12
t2 -14t-3 -15.5q10 -11 12 -24.5t1.5 -28t-1.5 -28.5t2 -25l10 -10z" />
    <glyph glyph-name="O" unicode="O" 
d="M460 298q-4 2 -8.5 0.5t-1.5 -6.5q2 -4 5 -4q2 3 4.5 4.5t0.5 5.5zM441 498q0 2 1.5 5t-2.5 5q0 -2 -0.5 -5t1.5 -5zM470 180q-1 -4 0 -8t1 -7.5t-2.5 -7t-8.5 -6.5q1 -5 4 -10.5t5 -10.5t1 -10t-7 -9q4 -5 2.5 -10.5t-4.5 -10.5t-5.5 -11t-0.5 -12q-8 -4 -13 -11t-2 -18
q-5 -9 -18 -18t-21 -17q-14 -2 -26.5 -1.5t-24.5 -0.5t-24 -4.5t-25 -12.5q-6 -1 -13 2t-13 5.5t-11.5 3t-9.5 -5.5q-13 -2 -29 2.5t-29 -2.5q-13 5 -30.5 8t-30.5 16q-5 6 -7 15t-5 16.5t-8.5 13t-16.5 5.5q14 13 12 27.5t-6.5 28.5t-5 26t16.5 20q-8 5 -9.5 11t-0.5 12.5
t3.5 14.5t1.5 16q-13 7 -13.5 16t2.5 18t6 19t-2 20q7 0 8.5 5t0.5 10l-14 5q11 24 10 55t-10 57q6 4 6.5 8.5t-1 9.5t-3.5 10.5t-2 11.5q-1 15 1.5 25.5t7 19.5t11 18t12.5 20q10 3 18.5 8t17.5 9.5t18 7t21 -0.5q-2 -4 0.5 -5t4.5 -4q4 13 11 14.5t15 -1.5t16.5 -6t16.5 2
q9 -4 8 -11.5t0 -15.5q-4 -5 -7.5 -2t-7.5 5l-10 15q-4 -6 -10 -8t-13 -3t-12.5 -4.5t-8.5 -12.5q-5 0 -5.5 2.5t-0.5 5.5t-1 5t-5 2q-6 -8 -6 -18t-11 -16q-10 4 -16 -2.5t-11 -12.5q-2 -7 3 -12t9 -5q-11 -7 -13.5 -17.5t-2 -22.5t0.5 -24.5t-7 -23.5q0 -7 5 -10.5
t9.5 -6.5t7 -6.5t-2.5 -10.5q-10 -7 -11.5 -14t-1 -14t1 -14.5t-4.5 -16.5q2 -7 6 -9t4 -10l-13 -5q2 -8 5.5 -15t6 -14.5t2.5 -15t-6 -14.5q3 -11 6 -19.5t5 -19.5v-8q-11 -8 -9 -19.5t3 -23.5q4 -3 4.5 -6.5t0 -7t0.5 -7t6 -6.5q2 -4 2.5 -9.5t1.5 -10.5t3.5 -8t10.5 -2
q4 -4 5.5 -11t9.5 -3q5 -8 6.5 -17.5t12.5 -15.5q6 0 12 3.5t12.5 5.5t12.5 1.5t12 -7.5q6 -3 10 -1t8 5t8 5t10 -1q6 6 12.5 3.5t13.5 -5.5t13.5 -4t12.5 8q6 -6 12 3q10 -5 20 -1.5t19 1.5q1 6 5 12.5t7.5 12.5t3.5 12.5t-6 13.5q2 7 9.5 7t8.5 8q-15 7 -13.5 14.5t7 14.5
t8.5 13.5t-10 12.5q4 6 3.5 11.5t-2 10.5t-1 10t7.5 10q-2 3 -1.5 8t0.5 9t-1.5 6.5t-7.5 1.5q11 9 9.5 16t-7 13.5t-10.5 13.5t0 16q4 0 7.5 0.5t5.5 4.5q-8 4 -8 9.5t1.5 11.5t1 11.5t-7.5 10.5q4 9 3 20t12 15q2 8 -1 13.5t-9 10.5l-2 46q7 1 8 4t0.5 6.5t-1 7.5t4.5 7
q-8 3 -12 8.5t-5 12t-0.5 13.5t0.5 13q2 3 4.5 4.5t0.5 5.5q-2 5 -4 5.5t-4.5 -1t-5 -3.5t-4.5 -2q-13 -4 -19.5 2.5t-11.5 17.5l5 10l-20 5q4 0 9 3t9.5 5t9 1.5t9.5 -7.5q5 -10 15.5 -18.5t20.5 -16.5t16.5 -18t3.5 -23q6 -5 6 -9t-1.5 -8.5t-2.5 -8.5t3 -8l5 7
q-2 -14 1 -31.5t-6 -34.5l7 -9q-8 -7 -5.5 -16t6.5 -18.5t5.5 -20t-8.5 -19.5q3 -5 8 -8t2 -11q-11 -10 -7.5 -26t7.5 -33h-8q0 -5 3.5 -11.5t6 -12.5t0 -10t-14.5 -5q-3 -5 1 -11.5t2 -11.5zM331 562q-6 -1 -6 4.5t-2 9.5q3 0 7.5 -3.5t7.5 -8t2.5 -9.5t-7.5 -8z" />
    <glyph glyph-name="P" unicode="P" 
d="M144 58h-5l5 -5v5zM433 277q-6 4 -7 10t-1 12t-1.5 11.5t-9.5 8.5q8 14 6 28.5t6 28.5q3 8 2 16t-3 16t-3.5 15.5t1.5 15.5h5l-2 30q-2 5 -7 10t4 9q4 7 1 11.5t-9 7.5t-13.5 4.5t-12.5 3.5q-1 19 -8 20.5t-16 -2t-18 -6t-14 9.5q-13 4 -21.5 -2.5t-17.5 -12.5l-24 17
q-8 1 -8 -5.5t-7 -10.5q-9 0 -16 1.5t-12 9.5h-9t-7 -2q-6 -11 -13 -9t-14.5 6.5t-15 6t-14.5 -8.5q1 -7 -1 -13.5t-4.5 -12.5t-2.5 -11.5t6 -11.5q-2 -4 -5 -9t-8 -3q4 -3 7 -8t3.5 -10t-1.5 -10t-9 -8q-2 -13 5.5 -25.5t7.5 -28.5q9 -19 5 -41t-10 -42q13 -18 10 -40
q8 -8 17.5 -9.5t19 -1.5h19.5t19 -3q7 -9 13 -9.5t12.5 2t13.5 4.5t15 -2q6 7 12.5 7t13.5 -2t13.5 -3.5t14.5 3.5q5 -7 8.5 -6.5t6.5 3.5t6 7t8 5q12 -12 20 -10.5t15 9t13.5 17t15.5 13.5zM134 -11q-3 2 -5 -0.5t-4 -4.5q-2 2 -2 5v5q3 8 9 5t2 -10zM475 304
q-2 -7 -6.5 -17t-1.5 -10l-4 1q-1 -1 -1 -8l-6 7q-6 -9 -4.5 -21.5t-0.5 -22.5q-7 -16 -17 -23t-22.5 -10.5t-25.5 -6t-26 -8.5l-25 4v1q-21 3 -43 3t-44 -0.5t-43.5 -1t-40.5 2.5q-2 -9 -5 -19t-5 -20q2 -5 0.5 -10.5t-3 -11.5t-0.5 -12t8 -10q1 -5 -1 -8t-3.5 -5.5
t-2 -5.5t4.5 -7q-4 -11 -5.5 -22t-12.5 -16q5 -7 5 -13.5t-0.5 -12l-1 -11t4.5 -11.5v-1q-18 2 -27 14t-20 21q4 -2 10 -1t10 6q3 8 -5 14q-2 1 -5 -1.5t-5 -3.5q1 4 -2.5 8.5t-6.5 8.5t-2.5 7.5t9.5 5.5q2 -2 1 -6t6 -4q4 2 4 4t-1.5 4.5t-3.5 5.5t-1 6q-9 -1 -10 1.5
t1.5 6.5t5 8.5t0.5 8.5t-0.5 9t2.5 9.5t0 7.5t-7 3q4 4 4.5 7.5t0 7t-0.5 7t4 7.5q-1 9 -5.5 19.5t-7.5 20t-3 18.5t8 16q-2 18 -4.5 36t-0.5 37q2 -2 4 0.5t4 4.5l-5 31h-3q6 8 4 15t-5 13t-3 12.5t9 13.5q-2 19 -3 29t-9 25q13 14 10 33.5t-8 33.5q-2 12 6.5 24t16.5 19
q4 9 11.5 10t16.5 -1t18.5 -4t17.5 1q8 10 16 8.5t16.5 -5.5t16.5 -7t16 4l13 6q2 -8 3 -18t9 -8q0 13 11 17t21 7q6 1 12 -2t12 -4.5t11.5 -0.5t10.5 9q11 2 18.5 -4t14 -12t14.5 -9.5t20 4.5q16 -9 26.5 -23t23.5 -24q0 -4 -3.5 -11t8.5 -9q1 -8 -1.5 -15.5t-4.5 -14.5
t-2.5 -14.5t4.5 -15.5q4 -4 5 -10t0.5 -13t-1.5 -14t0 -12l-9 -6q15 -6 17.5 -15.5t0 -20t-4.5 -21t4 -19.5z" />
    <glyph glyph-name="Q" unicode="Q" 
d="M448 282q-8 2 -9.5 -3t-4.5 -9h14v12zM470 307q-11 -17 -6.5 -32t4.5 -32q0 -5 2 -11.5t3 -13t-0.5 -13t-9.5 -10.5q9 -28 8.5 -59.5t-23.5 -53.5q4 -6 3.5 -8.5t-3 -3t-6 -2t-6.5 -6.5q-2 0 -5 2t-5 -2q0 -3 1.5 -4.5t3.5 -4.5q-9 -6 -9 -12t3 -12.5l6 -13t0 -12.5
l27 -34l-3 1l-2 -43q-10 -2 -14 6.5t-8 14.5q-16 0 -20 6.5t-6 15t-6 16t-19 8.5q-1 8 -4 14.5t-11 9.5q-9 -3 -17.5 -3t-17 1t-16.5 1t-16 -4q-15 5 -31 5t-32 -1.5t-32 -2t-32 3.5q0 8 -5.5 12.5t-10.5 10.5q-9 -2 -15 0.5t-11 7t-9.5 10.5t-9.5 10q-1 13 -6 25t-9.5 23.5
t-4.5 23t10 24.5q-7 7 -7 20l19 9q-7 10 -15.5 18t-10.5 22q4 6 4 14v16t0.5 15.5t5.5 13.5l-10 4q6 1 8 4.5t3.5 8t2.5 9t5 7.5q-8 4 -9 11t-0.5 14.5t0 15t-7.5 13.5q10 7 10.5 16t-1 18t0 17.5t14.5 14.5q-5 6 -8.5 11.5t-12.5 3.5q-3 7 -1.5 13.5t4 13t4 13t-1.5 14.5
q4 2 7 5l7 7q-7 5 -6.5 15t2.5 17q7 9 16 19t20 10q2 -5 7.5 -10.5t9.5 -10.5q7 0 9 3t2 7.5t-0.5 9.5t1.5 9q8 -2 13 4t5 11q5 0 10.5 -5t5.5 -10q2 -15 -7 -19.5t-17 -10.5q-4 -2 -9.5 -1.5t-7.5 -5.5q2 0 2 -7q-13 -2 -15.5 -14t-5.5 -23l10 -10q0 -2 -3 -3.5l-6 -3
t-4 -4t3 -6.5q-6 1 -8 -4.5t-3.5 -13t-4 -15t-9.5 -11.5q3 -5 10 -5q3 -8 -2.5 -11.5t-7.5 -7.5q11 -15 16.5 -25.5t-4.5 -28.5q3 -2 1.5 -4t-3.5 -4t-2.5 -4.5t4.5 -5.5q-8 2 -12 -6q-1 -4 1 -6t5 -3.5l6 -3t5 -3.5q-2 -12 -4.5 -22.5t-0.5 -21.5q1 -5 4 -5.5t6 -0.5
t4.5 -1t-1.5 -7q-1 -2 -3 0t-4.5 3.5t-4 1t-1.5 -7.5q6 -5 5.5 -10t-2 -11t-2.5 -12.5t4 -12.5q-7 -9 -3 -18t6 -17q9 -5 10 -12q0 -6 -2 -12.5t-3.5 -12.5t-1 -12.5t5.5 -13.5l-12 -14q4 -6 9.5 -9.5t10 -7.5t6 -9.5t-1.5 -13.5q17 2 32 3t30 -13q7 11 16 8t20 2
q8 -5 15 -4t13.5 2.5t13.5 1t15 -8.5q5 3 12.5 6.5t7.5 12.5q-2 15 -8 25t-13 19t-12.5 18.5t-6.5 22.5q-4 8 -9 16t0 16q3 -2 4.5 0.5t4.5 4.5q6 0 9.5 -7t7 -14.5t9 -13.5t16.5 -4q5 -11 7.5 -23.5t1.5 -24.5q7 -4 11 -10.5t8.5 -12.5t10.5 -9t17 0q12 -19 37 -17l5 6
q-5 4 -11.5 2t-8.5 9q6 17 5.5 35.5t-3 37t-3 37.5t5.5 37q-7 6 -7.5 15t1.5 19.5t5.5 21t3.5 19.5v43t2 41q-4 9 -5.5 21t13.5 13q-4 4 -7 10t2 11q3 0 4 1.5t3 3.5q-2 7 -5 15t-5 16t-2 15.5t5 15.5q-8 7 -3.5 14t3.5 15q-14 2 -26 8t-23 17q2 11 -1 20t-14 11l-3 3l5 5
q2 -8 7.5 -8h10.5q-1 -9 9 -12l12 5q26 -23 45 -54t17 -66q-5 -4 -10.5 -7.5t-9 -8t-3.5 -10t8 -11.5q-8 -4 -5 -8t5 -9h10q-2 -12 -0.5 -23t2.5 -22t0 -22t-7 -23q4 -13 12 -15zM254 603q-3 -4 -1.5 -9t3 -9t0 -6.5t-8.5 -1.5q-8 -1 -9 0.5t-0.5 4.5t-0.5 6t-7 5
q-2 -2 -2.5 -3t-2.5 1l-5 5q6 8 16 5.5t18 1.5zM370 583q-5 -8 -10.5 -7.5t-14.5 0.5v-10q-11 10 -18.5 12.5t-13.5 17.5q-4 -6 -8.5 -15.5t-15.5 -8.5q-5 5 -5.5 9.5t0 8.5t1.5 9t-1 12h5q1 -6 3 -6.5t5 0.5t5.5 1.5t5.5 -3.5q4 -5 9.5 -5.5t10.5 2t10.5 5t11.5 3.5
q-2 -2 1.5 -5t5.5 -5q-3 2 -5 -2q-2 -9 5.5 -9t12.5 -4z" />
    <glyph glyph-name="R" unicode="R" 
d="M149 368q-2 10 -11 9t-13 -6h-5q-1 6 -4.5 11.5t-7 10.5t-5 10t1.5 12l5 5q2 -1 2.5 -2t2.5 -1q5 10 -0.5 21.5t-8.5 22.5q5 -2 11.5 -0.5t12 1.5t10 -2t5.5 -9q-3 -3 -6.5 -9.5t-4.5 -12.5t2 -11.5t13 -7.5v-13q-5 -5 -8 1.5t-9 6.5l-5 -8q6 -5 16 -12.5t6 -16.5z
M475 47q-5 -2 -4.5 -4.5t1.5 -4.5t1.5 -4.5t-3.5 -5.5q-6 -9 -17 -15t-22 6q-9 0 -12 9q-1 2 -3.5 2t-4.5 1q0 7 6.5 4.5t8.5 2.5q-4 9 -6.5 20t1.5 22q-3 9 -7.5 14.5t-10 10.5t-11 10.5t-10.5 13.5q-2 20 -3.5 43.5t-16.5 36.5q5 18 -2.5 37.5t-18.5 36.5q1 9 -2 11
t-7.5 1t-10 -2.5t-8.5 0.5q-5 -8 -10 -7.5t-9.5 4t-10 7t-11.5 0.5q-9 -5 -16.5 -4.5t-15 2t-15 2t-15.5 -4.5v1q-6 1 -14 2t-15.5 0t-14.5 -3.5t-12 -9.5q0 -3 -0.5 -5t1.5 -4l-8 -4t-7 -6q0 -5 2 -8t4 -6.5t2.5 -7t-3.5 -8.5q-2 -7 -0.5 -12.5t2.5 -10.5t0 -10t-7 -10
q3 -9 4 -19t1 -16q-4 3 -6 1t-3 -6t-1.5 -8.5t-2.5 -7.5q13 -8 11 -14l-6 -18q-2 -13 4 -26t10.5 -25.5t4 -24.5t-15.5 -23q-17 -3 -27 6.5t-12 23.5q4 5 5 10.5t2 10t3.5 8.5t8.5 7l-14 13q9 4 11 10.5t1.5 13.5t-2.5 14t-1 14q-8 8 -8 16t1.5 16t1 16.5t-8.5 16.5
q-4 13 0.5 22.5t9 18.5t5.5 18t-10 20q-1 12 9 19l-4 16t-6 14q9 -3 11 0.5t2 8.5t-0.5 11t2.5 9q11 -9 19 -16.5t6 -22.5l9 9l12 -17q6 4 8.5 10.5t6 12.5t8.5 9.5t16 -0.5q18 -13 35 -10q2 6 9.5 4t12.5 2q-2 -8 4 -9.5t11 -5.5l21 5q4 -2 3 -7.5t5 -7.5q2 0 5 -0.5t5 2.5
v8q9 -11 19 -7t17 17q1 4 8 4q-2 -4 0.5 -5t4.5 -4q5 5 12 8.5t12.5 7t9 9t2.5 14.5q3 4 8.5 6t10.5 3t8.5 3t2.5 7l3 -4q3 5 -1 8.5t-9 6.5t-8 7t0 12l3 -3q16 10 16 20t-5 19.5t-8 19t7 19.5q-11 4 -15 12.5t-8 18t-9 18.5t-17 15q-9 -8 -18.5 -7t-19 5t-19.5 7.5
t-20 -0.5q-2 4 -5.5 9.5t-8.5 -1.5q-1 -6 -4.5 -8t-7 -2.5t-7.5 -1.5t-6 -6q-18 17 -41.5 16t-46.5 -6q-2 -12 -7 -13.5t-11 -1t-11.5 -0.5t-6.5 -12q-6 -2 -11.5 -5.5t-11.5 1.5q-4 8 -0.5 10.5t5.5 8.5l-4 18t9 16l8 -5q1 6 6 8.5t11 3t12.5 0t11.5 0.5q9 5 18.5 4.5
t18.5 3.5q2 -9 9 -10.5t13 0.5q2 4 5 6.5t7 5.5q10 4 15 -4.5t12 -12.5q13 -7 27 -3t27.5 9.5t26 6.5t22.5 -13q6 -4 13.5 -5t14.5 -2t13.5 -3.5t10.5 -8.5q-6 -9 -0.5 -15.5t7.5 -14.5q13 -5 16.5 -14t3.5 -19.5t-1.5 -22t0.5 -20.5l-12 -15q8 -3 10.5 -9t2.5 -12.5
t-0.5 -13t2.5 -11.5q-2 0 -4 -2t-4 -3q0 -4 3 -5q-6 -2 -12 -6t-10 -8l19 -3q-3 -6 -6 -16t-7.5 -20t-12 -17t-18.5 -8q-8 0 -14.5 3t-14.5 -3q4 -6 5 -15.5t2 -17.5t5.5 -14t16.5 -5h-4t-3 -2q2 -8 7 -15.5t8.5 -15t3.5 -15.5t-7 -17q11 -5 13.5 -12t3.5 -15t3 -16t12 -13
q1 -8 -1.5 -16.5t-3.5 -16.5t2 -15t15 -12q2 -2 4 -3.5t4 -1.5v-6q-5 3 -6.5 -1t-3.5 -5q3 -2 5.5 -5.5t5 -6.5t5 -3t6.5 5zM140 483q-10 -3 -13.5 5t-9.5 12v8l13 -15l2 2q4 -2 5 -6t3 -6z" />
    <glyph glyph-name="S" unicode="S" 
d="M159 47q0 -8 -5.5 -10.5t-8.5 -8.5q-11 6 -15.5 9t-2.5 16q-11 -2 -19.5 5t-16.5 16q3 9 2.5 18t-0.5 17t3.5 14.5t13.5 10.5q5 -5 6.5 -13.5t3 -16t5 -12t12.5 -1.5l-7 -24q9 -7 15.5 -8.5t13.5 -11.5zM463 199q3 -10 -0.5 -17.5t-6.5 -14t-3.5 -14t7.5 -17.5
q-8 -8 -6.5 -19t3 -21.5t-1 -20t-17.5 -13.5v-15q-10 -2 -18 -10.5t-16 -16t-16 -10t-18 7.5q-7 -8 -14 -7.5t-14 2t-14.5 2t-14.5 -6.5q-18 7 -36 -5q-1 4 -4.5 8t1.5 8q-6 2 -11 0t-10.5 -6t-11 -8.5t-11.5 -5.5q-11 3 -16 10.5t-11 15.5q-9 -10 -22 -7l-5 15
q9 0 10.5 5.5t2.5 8.5q5 -6 12 -6t13.5 2.5t13 4.5t10.5 -1q9 0 16 2.5l14 5t15 2.5t18 -5q7 -3 13.5 -1t13.5 5t13.5 4t13.5 -3q10 1 16 6t10 12t7 14t8 13l15 -11q6 8 2.5 15t-8 13.5t-6 14t6.5 16.5q6 0 13 4.5t2 15.5q-6 2 -6.5 6t-0.5 8.5t-0.5 9t-4.5 6.5
q-11 11 -9 25.5t4 27.5q-5 9 -10 6t-12 -4q2 8 5 11.5t7 10.5q-21 17 -49 15q-8 -11 -15.5 -10t-16 6.5t-17 12t-17.5 6.5q-4 -9 -10 -11t-13.5 -2t-14.5 -0.5t-13 -6.5q-4 6 -12.5 9t-16.5 6q-2 -5 -6.5 -5.5t-10 0.5t-11.5 3t-10 4q0 7 -4 11.5t-9 7.5t-8.5 7t-2.5 12
q-5 -3 -9.5 -0.5t-8.5 7t-6 10t-3 9.5q-5 6 -2.5 10.5t5.5 8.5t4.5 8.5t-5.5 9.5q5 2 6.5 8t3.5 11q-3 5 -6.5 1.5l-5.5 -5.5v-3h-4q6 6 6 11.5t-1.5 11.5t-1.5 12t6 12q2 20 -1 40.5t8 37.5q-4 8 2.5 9.5t10.5 5.5q10 -3 13.5 0.5t5 8.5t4.5 10t11 5q11 -12 20.5 -8
t18.5 9.5t17.5 6t16.5 -17.5l-4 -22q-7 -4 -12 -1.5t-10 8t-10.5 11.5t-11.5 9q-4 -5 -6 -12t-4.5 -13t-5 -11t-7.5 -6l3 -12q-6 -2 -9.5 0t-5.5 5t-5 6.5t-9 5.5q-5 -5 -4 -10.5t3.5 -11.5t4.5 -12t0 -12q-15 -5 -14 -12.5t4.5 -15t3.5 -13.5t-16 -8q7 -8 5 -20t3 -22
q-5 0 -6.5 -2.5t-1.5 -6t0.5 -7.5t-0.5 -6q6 -4 11 -11.5t-1 -15.5q2 -8 9 -9.5t14.5 -1.5t13.5 -1.5t7 -9.5q4 -5 8.5 -6t10 -1.5t10 -1.5t8.5 -5q5 7 12.5 8t16.5 1q4 -5 7 -4.5t6 2.5t6 5t8 3q10 -2 20.5 1t20.5 5.5t19 1t16 -12.5q5 4 15 4.5t15 9.5q2 -5 10.5 -14.5
t3.5 -17.5l10 -16l20 14q20 -14 28.5 -34.5t10.5 -43.5q-8 -6 -9 -16t9 -14zM448 488q-6 4 -9 0.5t-5 -8.5t-5 -8t-10 2q-2 8 -9 15t-16 6q6 5 5.5 9.5t-4 9l-7 9t-3.5 9.5q-12 2 -21.5 9t-13.5 21q-4 -2 -9 -6t-10 1l-13 19q-11 -7 -20 -11.5t-11 -17.5l-33 12q-3 8 2 12.5
t8 11.5l20 5q-2 -5 3 -8t9 -4q3 -2 6 -1t5.5 1.5t4.5 0t4 -4.5q4 5 5.5 14t11.5 7q11 -8 21.5 -12l21 -8t21 -8.5t19.5 -12.5q11 -3 17 -10t9 -16.5t4 -19.5t2 -18z" />
    <glyph glyph-name="T" unicode="T" 
d="M480 528q-9 10 -19.5 7.5t-19.5 -6.5t-17 -4.5t-13 14.5q-10 -7 -19.5 -6t-18.5 4t-18.5 4t-19.5 -7q-5 0 -13 -3.5t-14 1.5q-3 -6 -4.5 -13t-4 -14t-6.5 -12.5t-12 -8.5q14 -3 16 -8.5t1 -12.5t-0.5 -14.5t10.5 -13.5q-11 -6 -9.5 -20.5t4.5 -24.5q-4 0 -5 -2t-4 -3
q12 -12 12.5 -24t-1.5 -24t-4.5 -23.5t3.5 -21.5q0 -5 -5.5 -8t-9.5 -6q5 -9 7 -20t3 -19q-2 3 -6.5 3t-6.5 -4q0 -10 4 -13t8.5 -5.5t8 -6t2.5 -13.5q0 -5 -3.5 -10t-6 -10t-2.5 -9.5t6 -8.5l-5 -12l6 -4q-7 -11 -7.5 -23t1 -24t3 -24.5t-2.5 -22.5q1 -7 5 -14.5t7 -14
t2.5 -13t-8.5 -12.5q-6 2 -11 -3t-11 -10t-13 -6t-15 10q-11 14 -16 28t4 31q-4 7 -10.5 11t0.5 13q4 -2 6 0.5t4 4.5q-2 6 -8 10.5t-2 13.5q1 8 4.5 16t-4.5 14q6 51 6.5 101t3.5 99q-7 7 -5 15.5t6 16.5t5 14.5t-8 8.5q3 5 2.5 11.5t-0.5 12.5t2 12.5t10 11.5
q-4 11 -5 23.5t-2 25.5t-3.5 24.5t-8.5 19.5q4 1 3 5t-1 7l-5 5q-4 -17 -10.5 -15t-14 8t-16.5 9t-19 -12q-7 -2 -14.5 1.5t-15.5 6t-15.5 1.5t-14.5 -11q-3 0 -7.5 4t-10 7.5t-12.5 6t-14 -0.5q-2 6 -5 12.5t-1 14.5q1 8 6 8.5t10 -0.5t9.5 -0.5t5.5 9.5q10 6 19 3.5
t17.5 -5.5t16.5 -3.5t16 10.5q8 1 16 -1t15 -4.5t14 -2.5t14 6q5 -10 17 -8t21 10q7 -3 16 -4t18.5 -1t18 -0.5t16.5 -4.5q6 0 11 1t9 7q12 4 22.5 1.5t20 -6t19.5 -3.5t21 10q15 1 29.5 -5.5t19.5 -21.5q11 -9 7.5 -21.5t-7.5 -21.5zM489 572h5v-5z" />
    <glyph glyph-name="U" unicode="U" 
d="M455 58q-4 2 -5 -0.5t-4 -4.5q7 -8 6 -14t-5.5 -11t-10.5 -9.5t-8 -10.5q-7 2 -11 -0.5t-7.5 -6t-7.5 -6.5t-11 -1q-7 -9 -16.5 -10.5t-19.5 0t-20 4t-17 -0.5q-4 7 -10 14.5t-17 7.5l-7 -6l19 -19q-7 1 -14 -1t-13.5 -4.5t-12 -4t-8.5 1.5q-6 -4 -11.5 -1t-11 7t-11 5
t-11.5 -6q-10 0 -19 4t-18 8.5t-17 7.5t-17 2q-10 4 -13.5 12.5t-6 18t-6.5 18t-15 11.5q4 8 3 16.5t-3.5 17.5t-2.5 17.5t6 16.5q-6 9 -6 19t0.5 19t-1.5 17t-11 14q6 6 6 11t-1.5 10t-1 9t8.5 9q2 7 1 12.5t-2.5 11t-1.5 10t6 10.5q-8 6 -7.5 11.5t2.5 10.5t2.5 10.5
t-7.5 11.5q3 8 2 17l-2 18t-0.5 18t5.5 17q-6 7 -6 15.5t1 16.5t0 16t-9 16q5 8 5.5 15.5t-0.5 14.5t-2 14.5t2 16.5q-4 6 -6 14t6 13q9 0 13.5 5t8 10t8.5 7t14 -4q12 -11 15.5 -24t3 -26.5t-4.5 -27t-8 -25.5q8 -4 8.5 -14.5t4.5 -19.5q-11 -7 -12.5 -16.5t1 -20.5
t5.5 -22t1 -20q11 -8 5 -14t-10 -11q4 -11 3 -18.5t-3 -15t-3.5 -15.5t3.5 -19q6 -5 6 -11t-2 -12t-5 -12t-4 -12q10 -5 9.5 -15.5t5.5 -17.5q-9 -11 -9 -25t-4 -27q12 -7 15.5 -17t4 -21t2.5 -22t11 -19q5 -3 13 -9t16 0q19 -8 34 -10t35 0q9 -11 17.5 -8.5t17.5 8
t18.5 8.5t19.5 -8q13 9 24 5l22 -8q10 34 44 37q6 8 8.5 12t13.5 8q9 0 7.5 -9.5t-2.5 -14.5zM451 121q4 -5 3 -9.5t-4 -8t-6 -6t-3 -5.5q-9 7 -9.5 19.5t-0.5 22.5q7 -1 9.5 -8t10.5 -5zM455 155q-2 -5 -8 -8.5t-11 -5.5q7 5 4.5 10.5t-4.5 10.5q5 0 11 -0.5t8 -6.5z
M467 189q-8 -7 -16.5 -13t-19.5 4q3 9 -0.5 17t-6.5 15t-3.5 14t7.5 13q4 7 14 5.5t18 -5.5l7 -10q-3 -6 -3 -20t3 -20zM467 361q-8 6 -10 3.5t-2.5 -8.5t-1.5 -12t-7 -8q8 -9 11 -22t5 -26q-8 -6 -14 -13.5t-17 -9.5q3 7 -1 13t-7.5 12t-3 12t11.5 12q-14 16 -13.5 35
t3.5 38t1 36.5t-20 30.5l14 10l-5 9q9 2 11 8.5t1 14.5t-3.5 16.5t-1.5 15.5q-2 2 -3.5 4.5t-3.5 1.5q5 11 11.5 21t8.5 22q4 2 7 4.5t8 1.5q6 -2 8.5 -6.5t3.5 -9.5t2.5 -10t6.5 -8l-2 -124q-8 -6 -7.5 -13.5t3.5 -16t5.5 -17t0.5 -17.5z" />
    <glyph glyph-name="V" unicode="V" 
d="M455 592q-6 -3 -5 -8.5t2.5 -11.5t1.5 -11.5t-6 -8.5q5 -15 1.5 -28.5t-1.5 -30.5q-11 -3 -11.5 -13t-6.5 -16q4 -8 2.5 -16.5t0.5 -17.5q-13 -17 -17 -42t7 -42q-1 -12 -8 -21.5t-13.5 -19t-10 -19.5t2.5 -23q-9 -7 -8 -13t4.5 -11t4.5 -11t-9 -13q2 -8 1.5 -17.5
t8.5 -15.5q-6 -8 -8.5 -17.5t-4.5 -19.5t-5 -18.5t-12 -14.5q-5 -10 -3.5 -20.5t2 -20.5t-2 -19t-15.5 -17q4 -9 -3.5 -11t-11.5 -6q-11 -4 -23.5 -3t-17.5 -6q-4 6 -11 5.5t-15 -1.5t-15 0t-11 10q-16 -4 -24.5 1t-19.5 9q-3 15 -6.5 32t-14.5 32q3 2 6.5 0.5t5.5 2.5
q-3 4 -0.5 10t4.5 11t1.5 9.5t-10.5 7.5l-5 -5q4 -2 4 -7q-2 -4 -9 -4q0 5 0.5 14.5t9.5 4.5q2 7 -0.5 12t-6 9t-8 8t-7.5 10q6 9 3.5 17t-6 15t-4 14t8.5 16q-7 3 -5 8t0 9l3 4q-14 0 -15 4t1.5 10t3.5 12.5t-8 12.5q-5 6 -5.5 13t-0.5 14t-2 13t-8 10q4 9 3.5 16
t-2.5 13.5t-4.5 14.5t-1.5 19q-11 6 -10.5 14.5t2.5 18t0.5 18t-15.5 13.5q5 4 5 9.5v10.5t1 9t9 5q3 8 -5 14q-3 -5 -6.5 -3.5t-7.5 -0.5q-4 15 -2 37t1 41q8 8 17.5 4.5t17.5 -7.5q13 -16 16 -35t-6 -36q5 -14 10.5 -25t10.5 -21.5t9 -21.5t7 -25q-8 -9 -8 -17.5t3 -16.5
t7 -16.5t4 -17.5q2 -12 1.5 -23t-1 -21.5t1.5 -21t8 -22.5q7 -11 7 -22t-1 -21.5t-0.5 -21t9.5 -20.5q-3 -11 0.5 -20t8.5 -17.5t8.5 -18t0.5 -21.5q3 -2 4.5 -5.5t3 -6.5t4 -4.5t7.5 0.5q-2 -19 7.5 -26t23.5 -12q11 -2 19 4t15 14t13.5 16t14.5 11q-2 -5 0.5 -8t4.5 -7
q5 -2 7.5 2t4.5 6t-2 6h-10q4 8 6.5 24t-1.5 30q-10 -3 -12.5 5t2.5 15q6 1 8 4.5t3 7.5t2.5 8t6.5 5q4 3 3 7t-1 9l-5 5q-2 0 -2.5 -2t-2.5 0q-5 3 -5 5.5t2 5t4.5 6t1.5 7.5q-5 12 -0.5 26.5t12.5 23.5q4 0 6 -2.5t4 -3.5q8 9 6.5 17t-5.5 15.5t-7.5 15.5t1.5 16
q0 10 0.5 22t8.5 18q6 9 3.5 17t-4.5 15.5t-1.5 14t12.5 11.5q-3 14 -3 29.5t6 32.5q4 2 8 -2t4 4q-1 6 -3.5 13.5t-5 15.5t-2 15.5t5.5 14.5q-4 5 -2.5 10.5t5.5 10.5q3 -5 3 -12t9 -5q3 6 3 12.5t1.5 12t5.5 8t14 0.5q11 2 13 -6.5t7 -15.5z" />
    <glyph glyph-name="W" unicode="W" 
d="M497 544q-6 -6 -6 -14.5t1.5 -17t2 -16t-5.5 -13.5q-2 -4 -1 -7l2 -6t0 -5.5t-6 -5.5q2 -13 6.5 -25.5t-1.5 -26.5l-7 -7l7 -91q-3 1 -4 -1.5t-3 -3.5q6 -6 3.5 -10t-5.5 -7.5t-4.5 -7t6.5 -9.5q-11 -16 -10 -36.5t6 -39.5q0 -5 0.5 -11.5t-0.5 -12.5t-4 -11t-9 -8
q-3 -18 -2 -34t2 -31t0.5 -30t-5.5 -33l-51 -36q-7 -1 -16 0t-18 1t-17.5 -2.5t-12.5 -9.5q-8 9 -17.5 11.5t-19 4t-19 4.5t-17.5 12q-9 1 -16 -3t-13 -8.5t-13 -6.5t-17 4q-8 -10 -21 -7.5t-26 0.5l-16 12l-6 -7q-29 20 -47 53.5t-26 65.5q2 2 8 -2.5t11 3.5
q-9 22 -12.5 40.5t-16.5 37.5q7 4 8 10t0.5 13.5l-1 15t2.5 15.5q-4 18 -3 36.5t0 38.5q-6 8 -5 16.5t3.5 16t2.5 15t-8 14.5q5 7 3.5 14t-4 13t-3.5 11.5t5 10.5q-4 20 -2 37.5t-3 37.5q4 9 3.5 19t-1 19t3 16.5t16.5 11.5q9 -2 17.5 -6t15.5 -13q-4 -6 -3 -12l2 -12
t-0.5 -11t-9.5 -9q7 -11 7.5 -22.5t-0.5 -22.5t-1 -22t5 -21q0 -8 3.5 -17t5.5 -18t0.5 -17t-11.5 -15q-3 -9 -1.5 -17.5t4.5 -16.5t5.5 -16t1.5 -16q-9 -16 -4.5 -30.5t4.5 -32.5h-3q4 -5 5 -11.5t1.5 -14t3 -14.5t8.5 -12q4 -8 0.5 -11t-8.5 -4t-8.5 -3t1.5 -9
q7 -5 10 -11.5t4 -13.5t1.5 -13.5t4.5 -10.5q-5 -6 -3.5 -11t5 -9t7.5 -8.5t5 -9.5q8 -5 20 -5l5 9q2 -11 11.5 -11t17.5 -4q13 14 27.5 32.5t16.5 41.5q-7 9 -7.5 16.5t0.5 14.5t1.5 15t-3.5 18q2 6 1 12t-1.5 11.5t1.5 10t10 8.5q-12 8 -12.5 17t2 18t5.5 19t-1 21
q8 2 10 5.5t1.5 7.5t-3 8.5t-4.5 8.5q7 6 8.5 15t2.5 18.5t3 18.5t10 16q8 -2 14 -5.5t13 -8.5q-6 -8 -5.5 -16t2.5 -16t3 -16t-5 -16q0 -6 3 -13t5.5 -14t1.5 -12.5t-10 -9.5q8 -4 4.5 -5.5t-4.5 -7.5l5 -36q4 2 6 -0.5t4 -4.5q2 -8 -3 -7t-7 -1q-2 -10 -0.5 -20l3 -20
t1.5 -20t-6 -20q4 -5 2.5 -7t-4.5 -3.5t-6 -3.5t-2 -6q6 -13 11.5 -27.5t22.5 -25.5q5 5 12 4t14.5 -3.5t16 -5t16.5 -0.5q-1 5 3.5 11t9 13t5.5 14t-6 15q10 4 11 8t-1.5 9t-4.5 10.5t3 11.5q6 2 8.5 7.5t3 11.5t-0.5 11.5t-1 8.5q-4 2 -4.5 7.5t-1 10.5t-3.5 8t-11 1v5
l15 3q-2 8 3.5 13l11 10t8.5 11t-4 17q-9 10 -15.5 23.5t6.5 23.5q12 3 15 10t2 15t-3 15.5t0 13.5q-7 7 -5.5 15.5t1.5 13.5q8 -2 10 4.5t4 10.5q-6 6 -5.5 13t2 14t0 12.5t-11.5 9.5q-2 4 2 9t8 10.5t5.5 11.5t-5.5 13l2 46q7 1 11 6.5t8 10t9.5 6t15.5 -4.5
q8 -5 8.5 -12.5t4.5 -15.5z" />
    <glyph glyph-name="X" unicode="X" 
d="M475 45q-2 -3 -5.5 -4t-6.5 -2t-5 -3t-2 -7q-11 -2 -22 -5t-22 5q-10 6 -6 15.5t9 16.5t5 9.5t-18 -3.5l-34 27l5 6q-4 9 -7.5 18.5t-12.5 14.5q-2 15 1.5 28t-1.5 26q-3 -1 -5.5 -3.5t-5 -4.5t-6 -3t-7.5 1q-2 5 -7 8.5t-3 9.5q4 2 7.5 0.5t6.5 3.5q0 2 -3 4t-6 2
q-8 -6 -12 -4t-7 7t-5.5 10.5t-8.5 7.5q-5 4 -5 10t1 12t0 10.5t-8 5.5q-2 3 -1.5 5t-2.5 4q-7 1 -8.5 -3t-2.5 -9t-3 -9.5t-9 -3.5q-12 -14 -14.5 -29t-7.5 -26q-9 -8 -19 -19.5t-19 -25t-15.5 -28.5t-7.5 -31q-2 -13 -8.5 -20.5t-15 -14l-17 -13t-13.5 -17.5q-7 4 -14 3.5
t-8 10.5q2 2 1.5 7.5t-0.5 10.5l-8 6q1 2 3.5 4t4 4t1 4t-5.5 4l5 48q13 19 33.5 42t31.5 47q6 2 12 2.5t8 8.5q-4 10 -1 18t7.5 14.5t9.5 13t6 14.5q5 5 12.5 7t9.5 10q-4 6 -2.5 11t5 10t7 10.5t3.5 11.5q0 9 -4.5 15.5t-8.5 13t-5 13.5t5 17q-11 1 -13.5 4.5t-2.5 8.5
t-1 9.5t-8 6.5l5 10q-5 9 -15.5 11t-20.5 4t-17 8t-7 21q-5 17 -13 37.5t-25 31.5q0 11 -5 23.5t-7 25.5q4 10 11 11.5t14.5 -1.5t15 -7t13.5 -5q-2 -3 -1 -6t1.5 -6t0 -5.5t-4.5 -4.5q9 -10 20.5 -20.5t10.5 -28.5l8 -6q-2 -11 7 -20t9 -19q2 -6 8.5 -12t12 -11.5t5.5 -12
t-11 -13.5q14 -17 27.5 -25t33.5 -13q3 9 10.5 12.5t15.5 6.5t14 7t5 13q3 4 2 9t-2.5 10.5t-1.5 10.5t7 9q5 18 17 40t17 41q6 -3 9.5 1t7 10t6.5 12t8 8q13 9 20.5 20t21.5 14q6 -7 10 -16.5t12 -17.5q-9 -9 -12.5 -21t-6.5 -24t-7.5 -23t-15.5 -18q-10 -4 -16 -12
t-9.5 -17.5t-6.5 -20t-6 -20.5q-19 -11 -27 -32t-17 -40q-8 -11 -12 -22t-18 -17q4 -13 9.5 -13.5t15.5 -7.5q10 -6 12 -15t2.5 -18t3.5 -16t16 -10q10 -8 13.5 -18.5t6 -21.5t6.5 -20.5t15 -13.5q-4 -9 -1.5 -13.5t7.5 -7.5t10 -5t7 -6q1 -7 5.5 -13.5t8.5 -13t6.5 -13.5
t0.5 -14q19 -18 32 -39z" />
    <glyph glyph-name="Y" unicode="Y" 
d="M462 611q-5 -20 -8 -36.5t-11 -36.5q-6 -1 -11.5 -4t-10.5 -7q4 -12 1.5 -19t-9 -13t-15 -11t-14.5 -12q12 -4 11.5 -16t-2.5 -21q-10 -8 -15 -18.5t-8.5 -22.5t-7.5 -24.5t-12 -22.5q-12 -9 -16.5 -20t-7 -23.5t-6 -25t-13.5 -24.5q2 -7 0.5 -13t-3 -12.5t-1.5 -13.5
t4 -15q-3 -4 -7 -5.5t-8 -3.5t-6.5 -5t-0.5 -9q7 -1 9.5 -4t2.5 -7.5v-10t4 -9.5q-13 -6 -14 -13t1.5 -15.5t4 -17t-6.5 -16.5l15 -7q-4 -8 -7.5 -10t-7.5 -0.5t-8.5 5t-9.5 5.5q-8 5 -6 11t5.5 11.5t3 10t-13.5 6.5q5 4 5.5 9t-1 10.5t-3 10t-1.5 9.5q-11 0 -9.5 11t3.5 19
q6 6 7 13t0.5 14t-0.5 14t3 13q-3 15 -10.5 27t-21.5 17q-2 17 1 30.5t-3 27.5q-9 4 -12.5 12t-5.5 17.5t-5 19t-11 15.5q-8 -1 -11 4t-4.5 11t-4 11t-10.5 4q-2 20 -10.5 30.5t-16.5 27.5h-5q5 17 -10 18q0 12 -3 22t-7.5 19.5t-8.5 19t-5 20.5l-12 9q1 9 6.5 13t13 4
t15.5 -2t14 -5l14 -10l-4 -3q11 -13 14.5 -23.5t0.5 -27.5q11 -3 14 -9t7 -15q-6 -4 -5 -7t4 -6t6 -7t0 -9q5 -2 7 -7.5l4 -11t5 -10t11 -4.5q1 -8 3 -17t2.5 -17.5t-1.5 -16.5t-9 -14l-5 -5q9 4 14 0t9 -9t8.5 -9.5t12.5 -1.5q4 -5 5.5 -13t3.5 -15t7.5 -10t18.5 2
q2 10 8.5 19.5t12.5 18.5t9.5 18.5t-1.5 20.5q11 0 14.5 6.5t5 14t5 13t14.5 4.5q8 0 10.5 7.5t6.5 11.5q-3 11 -1.5 19.5t4 16t5.5 15.5t4 18q5 3 10 8.5t10 10.5q-4 6 -2.5 15.5t12.5 9.5l7 -1q4 4 6.5 10t4 12t4 11t8.5 7z" />
    <glyph glyph-name="Z" unicode="Z" 
d="M260 13l5 -5l2 1zM369 544q-2 -5 5 -10q5 0 5.5 3.5t2.5 6.5h-13zM137 28q-9 -5 -10 3t-4 16h5q-2 -16 9 -19zM152 18q-2 1 -2.5 3t-0.5 4l8 -2zM242 18q-13 -5 -24 -2.5t-25 -1.5v5q8 -1 9.5 5.5t3.5 11.5zM152 209l7 2v-2h-7zM453 -8q-9 -11 -18.5 -10.5t-19 3.5
t-19.5 4.5t-21 -5.5q-6 -3 -12.5 0l-13 6t-12.5 3t-12 -9q-14 4 -27.5 12.5t-27.5 1.5q-6 6 -13 10t-7 15q3 2 4 -1t3 -4l5 23q9 5 21 2t21 -7q8 7 15.5 8.5t15 1.5t15 0.5t15.5 6.5q8 5 16.5 2t16 -6.5t15 -3t13.5 12.5q9 2 13 -4t9 -13q-6 -9 -2 -13.5t9 -8t9 -7t-2 -9.5z
M446 572q4 -25 -6.5 -50t-25.5 -43q-6 -12 -18 -24t-14 -25q-2 4 -8 4q-3 -2 -2.5 -4t-1.5 -5l9 -8q-8 -11 -16 -23t-18 -23q3 -11 -0.5 -18.5t-8.5 -13.5t-9 -12.5t-2 -14.5q-4 -6 -13 -10.5t-18 -4.5q-5 -5 -3 -15t-5 -12l-9 3q6 -8 3 -13t-8 -10t-7.5 -10.5t5.5 -12.5
q0 -6 -4.5 -8.5t-9.5 -4.5t-9.5 -5t-4.5 -9q-11 -8 -15 -20t-11 -25q0 -9 -5.5 -13t-11 -6.5t-10 -6t-3.5 -11.5q-6 2 -8.5 -0.5t-4 -6t-3.5 -7t-6 -3.5q0 -7 -6.5 -9t-8.5 -10q-2 -4 -0.5 -8t2.5 -7.5t0 -6t-7 -3.5q-3 2 -7 1.5t-9 -0.5q-2 12 3 24t11 20l5 -5
q13 8 10.5 22t-3.5 26q2 0 5 2t3 4q2 20 9.5 30.5t14.5 27.5q-5 8 -1.5 11.5t8.5 5.5t9.5 5.5t0.5 11.5q8 0 12.5 4.5t7.5 10t5.5 11t6.5 9.5q-4 14 7.5 21.5t22.5 14.5q3 15 4.5 29t14.5 25l25 7q-8 8 -5.5 15t0.5 20q9 -4 13 2.5t9 11.5q-1 6 3 11t8.5 9t7 9t-1.5 11
q8 4 10.5 14.5t4.5 14.5q10 0 13.5 3t4 8t1 11t5.5 12l-7 5q-5 -17 -20 -9q-9 12 -19.5 14.5t-21.5 1l-22 -3t-22 3.5l-8 -17q-2 6 -7 6.5t-10 0.5t-9 1t-4 9q-6 0 -14 -1.5t-16.5 -3t-17 0t-15.5 7.5q-7 -12 -15.5 -12.5t-17.5 2.5t-19 6t-19 -1q-9 6 -10.5 16.5t5.5 18.5
q2 9 8 11.5t12 7.5q6 -5 10.5 -2.5t9 7t9.5 6.5t12 -4q6 -12 11.5 -12.5t12.5 1.5t15 4.5t18 -3.5q8 0 16 3t15.5 5.5t14.5 1.5t13 -10q11 9 20 6.5t18 -7t18 -6t19 9.5q13 -4 27 -3t27.5 1t25.5 -3t21 -14z" />
    <glyph glyph-name="backslash" unicode="\" 
d="M386 63h-6l3 2zM501 10q5 -28 -16 -42q-6 -2 -11 -3t-9 -3q-1 4 -2.5 7t-7.5 3q-4 7 -8.5 13.5t-3.5 17.5q-8 3 -11.5 7t-4.5 8t-2 7.5t-5 6.5q-1 16 -6 31t-16 26q3 13 -3 25t-13.5 22.5t-14 21t-5.5 22.5q-13 5 -17.5 13.5t-6.5 18t-5.5 17.5t-14.5 13q-2 4 -3 7t5 8
q-6 11 -10.5 23t-18.5 16q1 10 -4.5 17t-12.5 14t-12 15t-1 21q-15 20 -22.5 38.5t-21.5 35.5q0 13 -7.5 23t-15.5 19t-12.5 19.5t0.5 24.5q-9 12 -18 13q-13 17 -10 39q-2 8 -7 9.5t-11 0.5v11q-16 17 -23.5 37t-15.5 42q-12 2 -17 8t-6.5 14t-2 17.5t-4.5 18.5h3l11 19
q8 0 14.5 -6.5l11.5 -11.5q3 -2 4.5 -6.5t3 -8.5t4 -7t8.5 -2l15 -28q-5 -14 -0.5 -22t13 -14t16.5 -13.5t9 -19.5q1 -20 14 -43.5t25 -43.5q0 -11 5.5 -18t12 -13t12 -13t7.5 -17q-1 -6 1 -9.5t3.5 -7t2 -8t-2.5 -11.5q12 -4 15 -10t3 -12.5t0.5 -13t6.5 -10.5
q10 -4 15.5 -12t10.5 -17t10.5 -18t16.5 -13q4 -6 3.5 -16.5t-7.5 -18.5q8 -6 13 -12.5t14 -7.5q0 -12 7 -22t14 -19.5t10.5 -19.5t-2.5 -22l8 -6l1 1l4 -6q15 2 19 -3t5 -12.5t2 -14.5t10 -10q5 -14 11.5 -28.5t19.5 -23.5l5 -17q-1 -9 2.5 -15.5t8 -12t9 -12t6.5 -15.5z
M131 535l-6 6q2 2 8 1.5t2 1.5z" />
    <glyph glyph-name="asciicircum" unicode="^" 
d="M449 513q-9 -12 -19.5 -12.5t-22.5 1.5t-23.5 2t-21.5 -12q-7 -1 -13 2.5t-10.5 8.5t-8.5 11t-7 11q3 2 12 11q-18 5 -27.5 12t-14 16t-7.5 20t-7 24q-13 -6 -17.5 -11.5t-5 -11.5t1 -11.5t0.5 -9.5q-16 -5 -26 -19.5t-20.5 -27t-24.5 -17t-38 11.5q-11 -8 -21 -12.5
t-16 1.5q-10 1 -13 7t-3.5 13.5t-1.5 15t-7 12.5q5 17 16 33.5t20 33.5q10 0 16 6t10.5 13.5t9.5 15.5t13.5 12t20.5 1.5t32 -15.5q-4 34 0.5 48.5t15.5 22.5q6 7 12 8t12 -1t12 -5.5t11 -4.5q6 -5 15.5 -6t16 -4t9 -10.5t-4.5 -23.5q8 -6 15.5 -7.5t14.5 -2t12.5 -1.5
t9.5 -5q0 -15 9.5 -21.5t21.5 -11t22.5 -11.5t12.5 -23q1 -14 1.5 -24t1 -18t1.5 -16t3 -19z" />
    <glyph glyph-name="grave" unicode="`" 
d="M389 510q-3 -11 -5.5 -21t-10.5 -18q-10 0 -17.5 4.5t-17.5 -0.5q-5 -9 -10.5 -5.5t-10.5 8.5q-8 11 -16.5 19.5t-21.5 14.5q-4 8 -10.5 14.5t-14.5 3.5q-8 16 -18 31.5t-29 14.5q-8 8 -18 4l9 5q-1 2 -11.5 8.5t-21.5 15.5q-11 -4 -17.5 -1t-11 8t-8.5 11.5t-10 10.5
q-4 10 -0.5 18.5t9.5 16t12.5 14.5t9.5 16q5 4 15 4q7 -8 15.5 -7t17.5 3t18 0t16 -15q6 0 11.5 3.5t10.5 6.5t8.5 3t5.5 -8q8 -12 17 -22t11 -24q20 -11 33 -25.5t16 -32.5q7 -9 17 -17.5t17.5 -17.5t11.5 -19.5t-1 -24.5z" />
    <glyph glyph-name="a" unicode="a" 
d="M403 191q-7 3 -9.5 12t-4.5 16.5t-7 9.5t-17 -7q-8 2 -17.5 0.5t-15.5 7.5l-12 -13q-8 0 -16 -4.5t-16 4.5q-13 -3 -30 -0.5t-31 -1.5q-5 -11 -11.5 -12.5t-13 1.5t-13.5 7.5t-11 3.5q-2 -9 -8 -14t-13 -9t-13.5 -8t-9.5 -11q7 -11 2.5 -19t-10 -15t-7 -15t10.5 -19
q5 0 9 0.5t8 -2.5q16 -2 14 -13.5t-7 -19.5q8 0 15.5 -4.5t15.5 2.5q4 -3 8.5 -0.5l9 5t9.5 3t10 -5.5q17 5 34 3t33.5 -4.5t33 -1.5t31.5 11q-5 13 1.5 16.5t14 5t12 5.5t-2.5 17q17 4 19 12.5t0 18t-3.5 20t8.5 18.5zM474 68q5 -3 8 -9t3.5 -12.5t-3 -12.5t-10.5 -8
q-9 -2 -12.5 2t-6 9t-5.5 10.5t-10 6.5q-11 0 -21.5 0.5t-19 -1t-15.5 -6.5t-11 -16q-5 -6 -9.5 -6t-9 2.5t-9.5 5t-11 1.5q-8 -3 -18 -3h-20t-18.5 -1t-14.5 -6q-8 7 -18 8t-20 0t-19.5 -0.5t-18.5 7.5q-15 -13 -26.5 -11t-22 10t-21.5 18.5t-23 13.5q-2 14 -9.5 27
t-16.5 22q-1 26 6.5 49t14.5 47q17 9 37.5 18.5t29.5 27.5q24 -8 47.5 -5.5t43.5 10.5q6 3 12 1.5t11.5 -4t11 -3t11.5 5.5l3 -21q5 1 8 6.5t5.5 10t6.5 5.5t11 -6q10 8 25 12.5t27.5 10.5t19.5 17t1 32q-6 4 -8 10t-3 12.5t-3.5 12t-9.5 9.5q-27 4 -58 11.5t-59 0.5
q-5 6 -9 6.5t-8 -1t-8.5 -3.5t-9.5 -2q-5 -13 -12.5 -13.5t-15.5 1t-15 0t-11 -14.5q-10 -5 -13.5 -15t-6.5 -18t-8.5 -12t-19.5 3q-3 4 -8.5 7.5t-9.5 7.5t-5.5 8.5t3.5 11.5q1 8 6.5 15.5t11.5 14.5t11.5 14.5t6.5 16.5q19 13 41 17.5t45 5t46 0t43 4.5q12 -7 25 -7h25.5
t23.5 -3.5t19 -16.5q14 -1 21 -17q0 -4 1.5 -8.5t6.5 -6.5q7 -11 12 -23t13 -23q2 -8 -1 -13.5t-7 -11t-6 -11.5t3 -13q-9 -7 -9 -15t2.5 -16t3 -15t-8.5 -13q1 -8 4.5 -16.5t6 -16.5t3 -15.5t-5.5 -13.5q4 -5 3.5 -8.5t-3.5 -6.5t-7 -5.5t-6 -5.5q6 -9 8.5 -21t6.5 -22.5
t10 -19t19 -11.5z" />
    <glyph glyph-name="b" unicode="b" 
d="M213 41q2 5 -1.5 7.5t-5.5 2.5v-5q2 -2 3 -3.5t4 -1.5zM443 296q4 13 0.5 22t-10 17t-13.5 16t-11 18q-13 2 -25.5 8t-25.5 11q-6 -6 -12.5 -6t-13.5 2t-14.5 4t-13.5 0q-9 -11 -18.5 -10t-18.5 4t-18 3t-18 -13q-5 9 -10 9.5t-10.5 -2t-11.5 -4.5t-13 2q-14 -11 -24 -31
t-8 -40q-8 -6 -5 -13t7.5 -13.5t5.5 -13.5t-10 -14l12 -10q-8 -6 -9.5 -17.5t-6.5 -17.5q7 -14 9.5 -27.5t3 -27t2 -27.5t6.5 -27q2 -2 6 -3.5t7 -3.5t4.5 -5t-0.5 -8q6 -1 11 -5t10 -7.5t11 -4t12 6.5q7 -2 9 -7t2.5 -10.5t1.5 -11t7 -8.5q6 3 6.5 5.5t-1.5 4.5t-4 4.5
t1 5.5q8 -7 22 -2q11 13 32.5 17t41.5 -1q6 8 15.5 7.5t19.5 -2.5q10 -3 13.5 1.5t5.5 11t5.5 10.5t13.5 0q-5 5 -3.5 13t-3.5 13q5 14 5 23t8 17q-8 11 -7 20t5 17.5t7 17t-1 18.5q-2 4 -5 7.5t-5.5 7.5t-3 7.5t3.5 6.5q-5 11 2.5 22t19.5 13zM490 271q-17 -20 -15.5 -44
t12.5 -46q-7 -5 -7.5 -11.5t1 -13.5t1.5 -13.5t-7 -10.5q4 -10 1.5 -21.5t-10.5 -20.5q-8 -2 -11.5 -9.5t-6 -15.5t-5.5 -14t-11 -5q-9 -5 -18 -12t-18.5 -11.5t-20 -4.5t-20.5 8q-7 -8 -13.5 -6.5t-13 5t-13.5 5t-14 -5.5q-8 -6 -16 -3.5t-16 5.5t-16 3.5t-17 -8.5
q-9 7 -18.5 7t-18.5 -0.5t-18.5 0t-18.5 8.5h-24q-3 -3 -1.5 -8.5t3 -10t0 -8t-11.5 -2.5q-1 10 -9.5 17.5t-16 15t-9.5 15.5t11 20q-8 6 -7.5 13.5t3 15t4 15t-5.5 13.5q-3 13 1 26.5t-5 24.5h10q0 12 -3 24.5t-5 25t-1 24t8 22.5q-4 16 -3.5 31t2 28.5t1.5 27t-5 28.5
q-1 9 1 19.5t3 21.5t-0.5 21t-7.5 19q4 8 3.5 16.5t-1.5 17.5t-1 18t4 18q-10 13 -9.5 26t3.5 28q10 6 18.5 15.5t21.5 9.5q23 -13 26.5 -31.5t0.5 -38.5t-7.5 -41.5t1.5 -40.5q-5 -10 -1 -20t9 -19q24 -5 47.5 0.5t45.5 4.5q11 2 23.5 1.5t25 0t24 3t20.5 9.5q8 -13 21 -12
t25 -3q10 -6 21 -11.5t20.5 -12t17.5 -15t13 -21.5q-1 -14 -1.5 -28.5t1.5 -29t7.5 -27t16.5 -21.5z" />
    <glyph glyph-name="c" unicode="c" 
d="M449 300q-10 4 -17 8t-13 12q2 8 -2 13.5t-9 10t-8 10t2 13.5q-14 9 -31.5 19t-37.5 3q-7 -6 -14.5 -2t-15 8.5t-15 5t-14.5 -11.5q-17 4 -32.5 7.5t-30.5 -8.5q-9 2 -17 -2t-14.5 -9t-13.5 -10t-14 -5q-10 -11 -10 -23.5t2.5 -25.5t3.5 -25t-8 -22q1 -10 -1.5 -21
t-4 -21.5t0 -21t10.5 -19.5v-54l30 -44q-2 -3 -4 -4.5t-1 -5.5q6 2 10 -2.5t7 -8.5t7 -5.5t10 6.5q15 3 28 1t25 -5.5t24.5 -5.5t27.5 1q7 -7 12.5 -5t11 6t11.5 7.5t14 0.5q2 7 6 7.5t8.5 0t8 0.5t4.5 7q4 -3 7.5 -1.5t6 4.5t5.5 5.5t7 1.5q2 8 2 15.5v14.5t1.5 13.5
t6.5 13.5q6 4 14 2.5t14 2.5q5 -11 8.5 -24.5t5.5 -24.5q-8 -4 -11 -12t-5 -16.5t-5 -15.5t-11 -10q-2 -13 -12.5 -14t-18.5 -6q-2 2 -4 4.5t-6 2.5q-4 -3 -2.5 -7t-0.5 -8q-7 -3 -15 -6.5t-16 1.5l-8 15q-11 -8 -27 -9t-29 -1q-5 2 -4.5 6.5l1 9t-1 7.5t-10.5 2
q-2 -23 -13.5 -26t-28.5 1q-11 -3 -19.5 -1.5t-17 5t-17 6t-19.5 0.5q-14 8 -28 20t-14 29q-15 6 -19 16t-4 22t0.5 25t-6.5 25q2 19 7 38t5 39q8 3 9.5 7.5t-0.5 10.5t-5.5 11.5t-5.5 9.5q-3 24 1.5 44.5t14 38t22.5 33t26 28.5q13 4 27 5t28 1h27t25 4q9 -11 19 -10.5
t20 4t20.5 5.5t21.5 -6q12 7 23 4.5t21.5 -8.5t21.5 -13t22 -8q13 -23 14 -50t10 -51z" />
    <glyph glyph-name="d" unicode="d" 
d="M125 291q-2 3 -2.5 6t-2.5 4v-6l1.5 -3t3.5 -1zM470 109q-10 -5 -10 -12t3 -14t4.5 -13.5t-4.5 -10.5q-6 4 -8 2.5t-3.5 -5.5t-3 -8.5t-4.5 -6.5q4 -7 3 -16t-9 -13q-5 7 -10.5 18.5t-16.5 15.5q-2 -6 -7 -7t-10.5 -1t-10 -1.5t-3.5 -10.5q-8 1 -16 5t-14 -5q3 -3 1.5 -5
t-4 -3t-5 -3t-1.5 -5q-8 3 -18.5 4.5t-19.5 4t-15 8.5t-6 19l7 8q15 -15 33 -16.5t38 3.5q0 4 3.5 7.5l7 7t5.5 6.5t-1 8q-2 5 3 9t9 6q11 -4 15 -1t5.5 9t2 13t4.5 11q-6 6 -7.5 14.5t0 17l3 17t1.5 15.5q10 8 9 14t-6 12t-9 12.5t0 15.5q5 2 9 -1t7 3q-11 8 -10 17.5
t3.5 18.5t1.5 17.5t-16 14.5q7 4 11.5 12t4.5 16q-12 2 -19 10.5t-13 17t-14.5 13.5t-23.5 0q-5 11 -13 10.5t-17 -0.5q-5 -8 -14 -9.5t-18 2.5q-5 3 -6 7.5t-6 8.5q-9 -5 -16 -3.5t-18 -0.5q-10 0 -20.5 -4l-21 -8t-21.5 -7t-21 -3q-4 -4 -7 -11t-6.5 -13t-9 -9.5
t-15.5 -0.5q1 -7 2.5 -9t4 -3t6 -3t6.5 -8q-6 -6 -4 -12.5t4.5 -12.5t1.5 -10t-11 -4q-2 -4 -1.5 -9t0.5 -10.5t-1.5 -9.5t-8.5 -5q10 -14 9 -27t-3 -29q4 -22 10.5 -45.5t8.5 -47.5q-6 -4 -4 -6.5t4 -6.5q4 2 7 0t5.5 -3.5t5.5 -1.5t6 5q8 -4 16.5 -9t17 -9.5t18 -6.5
t19.5 1l32 -2q-3 -20 -15.5 -28.5t-32.5 -10.5q-8 2 -15 5.5t-13.5 5t-13.5 -0.5t-13 -10l-29 21q-2 -4 -5 -3t-5 1q-5 10 -13 20t-14.5 20.5t-8 21.5t6.5 23l-8 15q2 2 4 0q1 -1 1 -2q8 3 6.5 9t-0.5 11q-5 3 -8 5t-5 7q2 8 0.5 15.5t6.5 11.5q3 7 -0.5 13.5t-6.5 12.5
t-3 11.5t10 11.5q-4 3 -6.5 7.5t-0.5 9.5h2q-2 11 -0.5 22.5t3.5 20.5q-5 8 -16 12t-20 6q14 4 31 16t34 15q0 6 -3 9t-6.5 5.5t-5.5 6t1 9.5q0 14 8 20t19 10.5t21.5 9.5t15.5 17q10 4 19 3t18 -3.5t18 -4.5t18 2q10 1 19 -5t20 0q9 11 18 10t19 -5.5t20.5 -6.5t21.5 7
q9 -4 17.5 -8t20.5 -2q9 9 17.5 19.5t-2.5 24.5q-5 11 -5 21.5t0.5 21t0.5 20.5t-5 20q8 8 6.5 16.5t-4 16t-2 14.5t13.5 12q4 0 9.5 2t11 3t10.5 0t8 -7q2 -5 3.5 -10t1.5 -12q-11 -2 -9.5 -10.5t6.5 -14.5q-5 -29 -2.5 -53.5t-4.5 -49.5q9 -20 2.5 -45t-11.5 -45
q9 -9 13 -21t5.5 -25t3 -26.5t4.5 -25.5q-9 -3 -11 -7.5t-1.5 -10t3 -12t2.5 -12.5q-7 -17 -5 -27t10 -19l-8 -32q8 -6 7.5 -16.5t2.5 -18.5z" />
    <glyph glyph-name="e" unicode="e" 
d="M422 251q-11 4 -12 9.5t2.5 12.5t7.5 14t2 14q-8 14 -14 29t-6 29q-9 -3 -16.5 1t-14.5 9t-15 6.5t-18 -6.5q-10 9 -20 10t-20.5 -0.5t-21 -2t-21.5 5.5q-4 -5 -8 -8.5t-12 -1.5q-11 10 -22 8t-21.5 -6.5t-21 -5.5t-20.5 11q4 -5 3 -9.5t-3.5 -9.5t-4 -10t1.5 -10
q-10 -6 -12 -13t-1 -15t4 -16t4 -15q-7 -2 -14.5 -2.5t-9.5 -9.5q9 -4 10 -9t-0.5 -11t-1.5 -12t6 -10q10 6 20 0.5t18 -10.5q3 8 6.5 8t7.5 -2.5t8 -4t9 3.5q9 -5 18.5 -2t18.5 6t18 4t18 -8q19 13 40 10.5t44 -0.5q6 1 13.5 1t13.5 -2.5t9.5 -7.5t0.5 -15l5 7
q-5 8 -2 12.5t8 7.5t10.5 6.5t5.5 9.5zM460 217q-3 -10 -10 -13.5t-14.5 -4t-16 -0.5t-14.5 -3q-2 7 -5.5 8t-7 -1.5t-7.5 -5.5t-8 -4q-32 -8 -65 -5.5t-62 0.5q-8 9 -16 8.5t-16 -3t-16 -3.5t-16 8q-3 -7 -7 -6t-8.5 3.5t-9.5 3.5t-9 -6q-9 -3 -10.5 -9.5t-2 -13.5t-3 -12
t-13.5 -6q1 -4 -1 -7.5t-4 -6.5t-3 -6.5t1 -7.5q3 -7 8.5 -7t7.5 -7q-5 -1 -4 -10.5t10 -11.5q-4 -24 9.5 -36.5t33.5 -17.5q8 -2 6.5 4.5t3.5 10.5q0 -6 4 -9.5t9 -4t10 1.5t7 7q3 -8 8.5 -9.5t11.5 0l12 3t12 -1.5q6 11 12 9t12 -6.5t12 -5.5t11 13q11 10 22 8t21.5 -5
t20 -0.5t16.5 21.5q8 -1 13 3t8.5 9t6 11t6.5 10q1 12 -1 20t9 16q16 -4 18.5 -12t0 -18t-5.5 -21t2 -20q-14 -19 -28 -34.5t-31 -23.5q-8 -4 -17 -2.5t-17.5 2t-15.5 -1.5t-12 -13q-6 11 -15 13.5t-18.5 2.5h-20t-19.5 5q-3 -14 -8.5 -15.5t-12 1.5t-14 7.5t-14.5 2.5
h-17.5t-18.5 -7q-5 2 -8.5 7.5l-7 11t-8.5 7.5t-13 -2q-13 13 -23.5 27.5t-16.5 31.5q5 1 6 5.5t0 9.5l-2 10t1 9q-5 4 -5 10v12h5q-6 14 -5.5 29t2.5 30.5t3.5 31t-2.5 31.5q-4 4 -4 9t1.5 10t2.5 10t0 11q2 12 3 23.5t4 22t9.5 18.5t19.5 12q9 2 14 7.5t9 11.5t9.5 11
t16.5 6q8 -6 18 -4.5t20 -0.5q5 13 15.5 9.5t18.5 -6.5q12 6 24.5 5t25.5 -3.5t25.5 -2.5t24.5 8q13 -12 31 -18.5t34.5 -13.5t28.5 -19t13 -34q-3 -15 -0.5 -31t-5.5 -28z" />
    <glyph glyph-name="f" unicode="f" 
d="M218 44q8 2 4 4.5t-8 2.5q-1 -2 -3 -3t-2 -4h9zM468 496l-57 -19q-11 7 -10.5 18t2 21t-1.5 17t-21 7q-2 -8 -3.5 -15.5t-1.5 -15.5q-3 6 -4 12.5t-3 12.5t-5.5 11.5t-11.5 9.5q-11 -5 -20 0t-17.5 10.5t-17 7t-19.5 -9.5q-5 -4 -11.5 -2t-11 4t-7 1t0.5 -11
q-15 -8 -19.5 -23.5t-14.5 -25.5q-4 -11 -6.5 -19.5t5.5 -19.5q4 -8 9.5 -11.5t12.5 -5l14 -3t13 -4.5q4 11 10 13t12 0.5t13 -3t15 3.5q8 1 15 -2t13.5 -7.5t12.5 -9t12 -5.5q5 -8 1.5 -16.5t-5.5 -17.5q-17 -9 -35 -11t-36.5 -0.5t-37.5 4t-38 2.5q-6 -6 -7 -13
t-0.5 -14.5t0.5 -15.5t-3 -16q-2 2 -3.5 -0.5t-3.5 -4.5q1 -3 4 -4l6 -2t4 -3t-3 -6q-7 0 -9 -2q10 -5 11 -11t0.5 -12.5t-0.5 -13t9 -10.5q0 -7 1 -14.5t-6 -11.5q4 -6 3.5 -14.5t-0.5 -16.5t2 -14.5t11 -8.5q-10 -13 -11.5 -26.5t-0.5 -27.5t2.5 -27.5t-1.5 -26.5
q20 -17 11 -39q-9 -5 -23 -11t-26 -4q-2 3 -2 7v8.5t-0.5 8.5t-4.5 6l-15 -8v10h6q1 7 -2.5 14t-7.5 13.5t-5.5 14t5.5 16.5q-7 10 -8 21t0.5 22.5t5 23t6.5 22.5q9 4 8 8.5t-4.5 8.5t-6 7.5t2.5 7.5q-4 7 -3.5 15t0.5 16t-2 15.5t-11 13.5q-4 11 2 14.5t14 8.5q-5 8 -4 17
l2 18t-1 17t-11 14q-9 11 -19.5 11.5t-21 0t-19 1.5t-14.5 16q-2 15 6 26t22 16q8 3 14 2.5t12 -1.5t11.5 -1.5t13.5 2.5q3 -2 4.5 -4.5t4.5 -0.5q2 8 -3 11.5t-8 11.5q2 9 1 18t-3.5 18t-3.5 17.5t1 17.5q4 0 4.5 2t0.5 5t-0.5 6t2.5 4q12 9 22.5 22.5t22 24.5t25.5 17.5
t32 0.5q1 8 8 9.5t14 1.5q9 -6 18.5 -6.5t19 0.5t19.5 2.5t19 -1.5q6 -6 11 -6.5t10.5 0.5t11.5 1.5t12 -5.5q17 -14 33 -27t30 -32q6 -17 6.5 -29.5t5.5 -29.5zM277 470q-2 -4 -6 -3.5t-8 -1.5l4 12q4 2 8 0t2 -7z" />
    <glyph glyph-name="g" unicode="g" 
d="M453 -42l-5 -3l5 -5v8zM409 376q-10 -3 -16.5 1.5t-12.5 11.5t-12.5 13.5t-16.5 8.5q-13 4 -24.5 1.5t-22.5 -5.5t-22.5 -3.5t-24.5 7.5q-7 -10 -19 -5q-13 16 -27.5 9.5t-23.5 -19.5l-28 10q-2 -19 -14.5 -37.5t-14.5 -41.5q11 -12 12 -25t-0.5 -26.5t-2 -26.5t5.5 -24
q-9 -5 -8 -10.5t4 -12t5.5 -13.5t-3.5 -15q-4 -8 -3 -16.5t4 -16.5t6.5 -15.5t4.5 -13.5q8 -8 17.5 -9t19.5 -1q8 -9 17.5 -11.5t19 -2t19.5 1t19 -2.5v-4q6 -6 15 -3.5t14 8.5q10 2 21 5t19 -5q15 3 24 9.5t23 12.5q8 19 16.5 31t5.5 33q11 16 5 31.5t-15 28.5
q15 5 17.5 13.5t1.5 19t-2.5 21.5t5.5 20q5 4 4 8.5t-3 9.5t-2 9t8 7zM192 -66q-4 0 -5 1.5t-1 4v5t-2 3.5l10 -3zM471 27q-5 -8 -11.5 -19.5t0.5 -24.5q12 -17 7 -33t-14 -31q-3 -17 -16.5 -22.5t-25.5 -16.5l-6 7q0 -6 -4.5 -8.5t-10.5 -4t-11.5 -4.5t-8.5 -10q-6 4 -12 3
t-12 -2.5t-12 -1t-10 7.5q-17 -2 -36 -3.5t-35 -3.5q-8 -7 -16.5 -6.5t-17.5 3t-19 5t-21 -1.5q-3 6 -9 9.5t-11.5 6.5t-6.5 6.5t7 9.5l-5 5q6 1 12 6t12 9t12.5 6t12.5 -2q11 10 22 9.5t21.5 -4.5t20.5 -6.5t20 4.5q13 -9 24 -7t21.5 7.5t21 9.5t21.5 0q4 18 18 30t24 26
q-8 8 -8.5 17.5t1.5 19.5t3.5 18.5t-4.5 15.5q-17 -6 -42 -7t-38 -3q-7 0 -16 -4.5t-18 -7.5t-17.5 -1t-14.5 15q-9 -5 -19.5 -5t-22 1t-22.5 0.5t-20 -5.5l-9 9q-10 -2 -17 5.5t-15 14.5q-8 6 -18.5 5t-15.5 10q-4 4 -4.5 10t-0.5 12t-1.5 11.5t-8.5 8.5q6 12 4.5 24
t-4.5 23t-4.5 22.5t4.5 23.5q-5 6 -2 13t6 13t2.5 10t-11.5 5q-11 13 -4 27t11 27q3 8 1 17.5t-3.5 19t0 17.5t10.5 14q-4 16 1 25t14 14.5t19.5 10.5t16.5 14q15 13 30.5 15t31.5 -0.5t32 -5.5t33 -1q6 10 15 10t18.5 -1.5t18.5 -1t16 9.5q21 -4 40 -15t39 -20
q2 -12 10.5 -22l17 -20t13 -20t-1.5 -23q-5 0 -10 5q-5 -8 -2 -19t7 -18l2 4q4 -20 7 -40.5t-14 -37.5q-3 -14 7 -26q-4 -14 -3 -26.5t3 -24.5l4 -24t-1 -26h-5q-6 -7 -4 -13t5 -12t5 -12t-4 -12q4 -5 3 -11t-2 -11.5t0 -10.5t10 -8z" />
    <glyph glyph-name="h" unicode="h" 
d="M434 149q0 8 -7 14v-11q2 -1 3.5 -2t3.5 -1zM250 29q2 -4 -0.5 -7t-4.5 -3l-2 -3q-5 2 -5 6.5t-2 8.5zM475 54q-3 -6 -9 -11.5t0 -13.5q3 -8 0.5 -11t-8 -5l-11 -4t-8.5 -7q-11 -2 -15.5 3t-6 12.5l-3 15t-7.5 11.5q-3 8 0 14.5t6.5 12t5.5 11.5t-2 13q7 4 8 10.5t-1 14
t-5 15t-3 12.5q-4 2 -4 7l5 -7q11 16 7 33t-2 35q-12 69 -15 135q-10 4 -17.5 11.5t-15.5 13.5t-17.5 9t-23.5 -2q-1 5 -3 5.5t-4.5 0t-5.5 -1t-6 2.5q-20 4 -38.5 2t-35.5 -7q-13 8 -26 10t-27 -6q-7 -11 -16.5 -17.5t-18 -12.5t-14.5 -13.5t-6 -21.5q10 -10 8 -18
t-7 -15.5t-8.5 -15.5t3.5 -18q7 -22 8 -40t0.5 -35.5t1 -36.5t9.5 -41q-10 -2 -10 -9.5t2.5 -14.5t2.5 -11.5t-10 0.5q-5 -14 -8 -26t2 -23q0 -3 -3 -6.5t-7.5 -5.5t-9 -2t-8.5 5q-5 5 -4.5 10.5t1 10.5t-1.5 9.5t-11 8.5q3 14 3.5 30.5t-8.5 30.5q5 29 2.5 58.5t-0.5 58.5
h3l-3 69q10 5 6.5 10.5t-1.5 13.5q-1 7 3 16.5t6 18.5t-0.5 16.5t-15.5 10.5q-2 8 1 13.5t6 10.5t3.5 10t-5.5 12q7 11 5.5 20.5t0.5 18.5q-12 13 -12.5 29.5t2.5 35t5.5 38t-1.5 37.5q8 4 16.5 8.5t19.5 1.5q3 -6 9.5 -12t10.5 -12t3 -11.5t-13 -11.5q7 -5 8.5 -10.5
t0.5 -11.5t-1.5 -12t2.5 -12q2 -23 -0.5 -45.5t-19.5 -35.5q2 -10 6 -13t8.5 -4.5t9.5 -3.5t10 -9q8 -2 12 2l8 8v3l-2 -5q3 -5 11 -5l5 5l-5 5q14 11 33.5 7t38.5 -10q8 8 17 9.5t18.5 0.5t19.5 -2.5t21 0.5q8 -4 18.5 -1.5t20.5 4t18 -0.5t11 -15q13 2 25 -5.5t22 -18.5
q9 -6 13 -14.5t4 -17.5q-7 -3 -5.5 -6.5t4.5 -8t4.5 -9t-4.5 -8.5q6 -11 5.5 -21t-2 -20.5t-1 -20.5t7.5 -21q-3 -3 -3 -5t1.5 -3.5t2.5 -3.5t0 -5h-1q2 -6 -1.5 -12t-6.5 -12t-3.5 -12t7.5 -11q-4 -17 0 -31.5t-1 -27.5q-2 1 -3 2t-2 1l-6 -5l11 -12q-4 0 -7 5t-7 -1
q0 -9 5.5 -15.5t11.5 -12.5t9 -13.5t-2 -18.5z" />
    <glyph glyph-name="i" unicode="i" 
d="M468 39q-2 -6 -2.5 -14t-2.5 -15t-6.5 -12t-13.5 -6q-22 8 -48 5.5t-45 2.5q-3 -8 -9.5 -10t-14.5 0l-4.5 9t-9.5 6q-11 4 -16 -8q-6 4 -14 5t-15.5 1t-14.5 0.5t-11 3.5q1 -8 -2.5 -9t-8.5 -1h-10t-7 -5q-13 4 -27.5 6t-25.5 4q-9 1 -17 -1t-15.5 -4t-15.5 -1.5t-16 6.5
q-2 11 -5 18t3 16l10 -10q-5 9 -2 12.5t9 6t13.5 4t10.5 5.5q6 -8 12.5 -9t12.5 0t12.5 1t14.5 -5q1 6 7 7.5t13.5 1.5h14t9.5 4q5 2 10 1t10 -2.5t9 -1.5t8 5q-8 9 -4 18.5t4 18.5q-2 8 -7 18t-8 19.5t-2 19t11 16.5q1 8 -1.5 18.5t-7.5 18.5q9 20 8 47t-9 46q5 5 11.5 9
t4.5 13q3 7 -1 11.5t-9 8t-9 8.5t-1 13q-11 13 -30 5q-2 -2 -4.5 -3.5t-0.5 -5.5q-8 10 -24.5 9t-31.5 -2t-23 5.5t1 31.5q6 6 13 13.5t14.5 11.5t15.5 3t16 -11q8 2 16.5 4.5t12.5 10.5q7 -15 17 -15.5t21.5 2.5t22 3t18.5 -15q-4 -13 -1.5 -25.5t10.5 -21.5q-3 0 -6 -2.5
t-3 -6.5q-4 -10 1 -18t10 -15.5t6.5 -15t-8.5 -17.5q9 -6 8 -12t-4.5 -11t-4.5 -10.5t9 -10.5q3 -11 -1.5 -20.5t-1.5 -23.5q-3 -1 -6 -1.5t-4 -3.5q8 -17 9.5 -33.5t0.5 -33.5t-2 -34.5t2 -35.5q10 -6 21 -4t21.5 4.5t21 2.5t19.5 -8q9 -1 17.5 0.5t17 2t15 -2t11.5 -10.5
h8zM336 535q-11 -14 -24.5 -24.5t-26.5 -23.5q-4 0 -8.5 6.5t-10.5 13t-14 9t-19 -4.5q-13 7 -14.5 16t1 18t5 19t-1.5 20q10 2 16.5 8t12 12.5t12.5 10.5t18 2q4 4 7.5 3t7 -3l7 -4t8.5 1q0 -6 1 -11t8 -9q2 1 2.5 2t2.5 -1q1 -6 4 -13t6 -14.5t3.5 -15.5t-3.5 -17z" />
    <glyph glyph-name="j" unicode="j" 
d="M431 -22q2 -4 0.5 -6.5t-4.5 -4.5t-5.5 -4t-2.5 -5q-3 -9 1 -15.5t8.5 -12.5t5.5 -12t-8 -14q-7 -4 -7 -10.5v-13.5q-2 -4 -7.5 -2.5t-7.5 -2.5q-7 -5 -7.5 -11t-0.5 -12t-2.5 -11t-13.5 -6l-15 6q0 -13 -11.5 -17t-20.5 -8q-7 -6 -14.5 -2t-14.5 8.5t-11.5 4t-5.5 -15.5
q-13 2 -28 3.5t-29 -7.5q-8 2 -15 7t-14.5 9.5t-15 7t-15.5 0.5q-15 6 -20 17t-7 22.5t-6 22.5t-16 18v18q7 -5 9 -2.5t3 7t3 8t9 2.5l19 -49q10 0 19.5 -7.5t18.5 -14t18 -9.5t18 6q7 -7 16 -7t18.5 2.5t19.5 5.5t20 1q9 4 19 11t20 -3q5 5 5.5 12t0 13t1 10t9.5 4
q6 4 7 10.5l2 13t3 12t8 8.5q-8 9 -11.5 21.5t1.5 24.5q6 0 7.5 -6t9.5 -4q3 10 1 18.5t-6 16.5t-8 16.5t-4 19.5q7 0 10 5q-14 8 -14 20t-1 25q6 -1 9 2t6 7q-14 17 -11 39t1 42h-5q4 13 3 25t-2.5 24t-0.5 23.5t8 23.5q4 0 7.5 0.5t6.5 4.5q1 5 -2.5 9t-6.5 7h-10
q-1 9 1.5 18.5t3 18t-3 15.5t-16.5 12q-6 -12 -14 -14t-17 -0.5t-18.5 3.5t-18.5 -1q-10 5 -8 16t0 19q6 3 10.5 7.5t12.5 3.5q4 -10 11.5 -12t15.5 -2t15.5 -1t11.5 -9q6 15 13 16t15 -4t16 -12t16 -7q4 -28 0.5 -51.5t-5.5 -46.5q6 -20 6.5 -47t6.5 -46q-4 -5 -4.5 -11.5
l-1 -13t-3.5 -11.5t-11 -6q2 -5 6.5 -9t8.5 -8l-20 -14q3 -8 8 -10t9.5 -2.5t6.5 -3.5t-2 -14q-2 0 -3.5 -0.5t-3.5 2.5q-3 -2 -3 -7q2 -2 4 -4.5t4 -0.5l2 2q9 -5 3 -12t-8 -14q2 -26 0.5 -45.5t9.5 -42.5zM426 541q-7 -2 -10.5 -7.5t-6.5 -11.5t-7 -11t-12 -5
q-8 1 -16 -3.5t-15.5 -7.5t-14.5 -2t-13 13q2 9 -6 17.5t-15 15.5t-8 12.5t14 10.5q1 7 4.5 13t7 12.5t5 13t-1.5 13.5q9 6 18 3.5t18 -6.5t18 -6t19 4q13 -17 16 -32.5t6 -35.5z" />
    <glyph glyph-name="k" unicode="k" 
d="M470 70q-5 -8 -3.5 -18t2.5 -19.5t-2 -18t-16 -12.5q-11 -1 -18.5 5.5t-13.5 15t-13.5 15.5t-18.5 6q-2 8 -5.5 16t0.5 15q-5 6 -12 8.5l-14 5t-11 7t-2 14.5q-11 11 -22 20.5t-22 21.5q1 4 -1.5 8t-6 8.5t-6.5 9t-1 10.5q-6 1 -12 5.5t-11.5 8.5t-11.5 5t-13 -5
q-25 -16 -42.5 -36.5t-26.5 -48.5q-8 -5 -13.5 -16t8.5 -16q-11 0 -12.5 -6.5t-1 -13.5t-1.5 -12t-14 -2q-1 -9 1 -18.5t-6 -20.5q-8 2 -14.5 5.5t-10.5 11.5q6 9 0 16.5t-9 15.5q-7 7 -8.5 14t-1.5 14.5t0.5 15.5t-0.5 17q8 18 10.5 41.5t-5.5 43.5q7 4 8 8.5t1 11.5
q-1 4 -4 9t-5.5 11t-2 11.5t6.5 10.5q-5 12 -4.5 25.5t2 27t1 27t-7.5 25.5q2 17 5.5 38t-1.5 36q7 9 5.5 18.5t-5 19t-4.5 19.5t9 19q-5 6 -6 12.5t-0.5 12.5t0 12.5t-4.5 12.5q0 8 3.5 13.5t8 10.5t9.5 10t7 11l10 4q9 -13 15.5 -28.5t1.5 -26.5q1 -21 4 -45t-8 -46
q15 -8 12.5 -14t-9.5 -11t-10 -11t12 -15q9 -5 6 -15t-6 -18q-9 -6 -9.5 -12t1 -13t2.5 -14t-4 -14q1 -6 4 -12t5 -12.5t2 -13t-6 -11.5q3 -2 6.5 -4.5t2.5 -7.5h-5q-4 -17 -2.5 -35t12.5 -29q-7 -8 1 -13q14 -4 21.5 5t14 19.5t14.5 18t25 0.5q4 4 5 9.5t2.5 10.5t4 9
t10.5 5q1 11 8 13.5t15 4t14.5 5t6.5 16.5q3 11 12 18t19.5 13.5t19.5 14t13 18.5q11 6 19 15t16 18.5t17 18t22 13.5q12 -2 21 -5.5t18 -10.5q5 -11 2 -18t-8 -13l-10 -12t-4 -16q-11 4 -21 -3.5t-16 -18.5q2 -4 -1.5 -6.5t-5.5 -5.5q-17 1 -28.5 -11.5t-20.5 -25.5
q-5 -10 -18.5 -19t-24.5 -19.5t-14.5 -23.5t10.5 -31q2 -6 6 -7t8.5 -1.5t9.5 -1.5t8 -5q11 -3 17.5 -10t11.5 -15.5t10.5 -17t14.5 -13.5l2 2q8 -2 13 -11t10 -11q2 -3 4 -8t5 -9t7.5 -6t12.5 1q6 0 10.5 -10.5t13.5 -14.5z" />
    <glyph glyph-name="l" unicode="l" 
d="M82 34q-1 -2 -5 2l5 5v-7zM465 10q-12 4 -24 2t-24 -5t-24 -4t-23 7q-9 -5 -17 -5t-15.5 1t-16 1.5t-17.5 -2.5q-11 8 -23 6.5t-23.5 -4t-22.5 -2.5t-21 11q-8 -2 -18 -7t-21 1q-4 7 -10.5 14t-14.5 -3q-8 -8 -19 -10.5t-20 1.5q-2 5 -8 8.5t-2 10.5q2 2 6 4t4 6
q-2 2 -5 2.5t-5.5 1t-4 1.5t-0.5 5q9 5 19.5 8t19.5 14l64 -22q2 11 8.5 12t15 0.5t17.5 0t15 9.5q4 6 3.5 12.5t-2.5 13.5t-3.5 14t0.5 14q5 0 7 -3q8 13 5 28.5t-7 28.5q2 20 4 42.5t-9 42.5q3 11 3.5 22.5t0 23.5t-0.5 23.5t4 23.5q-6 7 -4.5 11.5t4 8.5t3.5 8.5t-5 10.5
q-9 6 -8.5 14t2.5 15.5t2.5 15.5t-6.5 14q7 23 10 45.5t-8 43.5q-6 0 -12 2t-12 4.5t-12 3t-13 -2.5l-5 -12q-6 0 -12 4t-12 7.5t-11.5 4t-10.5 -6.5q-9 2 -15 7t-14 3q-8 18 -3 27.5t15.5 13.5t24 4.5t23.5 1.5q12 7 25 5.5t27 -0.5q17 5 33 -4t26 -19q13 -4 14.5 -10.5
t0 -15t-2 -17t7.5 -15.5q0 -10 2 -19t4 -20q-8 -13 -7 -24.5t-9 -24.5q10 -13 8 -27t-6 -28t-5 -28t10 -27q4 -10 3 -19.5t-3.5 -18.5t-2.5 -17.5t8 -16.5q0 -12 -6 -20.5t-6 -18.5q9 -14 9 -24.5t-3 -21t-5 -21.5t4 -26l-10 -12q4 -5 7 -7.5t-2 -9.5q-8 -7 -6.5 -12
t6.5 -8.5t11.5 -7t7.5 -7.5q7 -6 15 -6t15.5 2t16 5t17.5 2q7 8 21 4.5t25 -7.5q12 4 16.5 0t7.5 -10.5t6.5 -12.5t13.5 -6z" />
    <glyph glyph-name="m" unicode="m" 
d="M497 208q-6 -7 -7 -15t-1 -16.5t-0.5 -17t-6.5 -15.5q9 -4 10 -9t-2 -11l-6.5 -13t-1.5 -13q-2 -10 1 -20t5 -20t1.5 -19t-7.5 -18q4 -7 -2 -13t-9 -13q-11 -8 -16.5 -5t-8 10.5t-4 16.5t-4.5 14q-1 9 -3 17.5t-3.5 17.5t-0.5 17.5t7 16.5q0 27 -3.5 48.5t1.5 44.5
q2 0 3.5 1.5l3.5 3.5q1 11 -7 19q8 4 5.5 9.5t-3.5 10.5q0 7 2 15t3.5 15.5t0.5 14.5t-8 14q2 13 3 28.5t-1 29.5q-5 8 -12.5 9t-15.5 0t-15.5 0t-11.5 9q-8 -6 -18.5 -3t-20 6t-16 1t-7.5 -17q-11 1 -19.5 -9.5t-12.5 -19.5l22 -39q-4 -2 -7.5 -5.5t-7.5 -6.5v-9t5 -6
q0 -14 -4.5 -29t4.5 -32q-1 -6 -4.5 -11t-6.5 -11t-4.5 -12.5t3.5 -14.5q13 -6 12 -15t-4.5 -18.5t-4 -19t13.5 -16.5q-5 -3 -5 -7.5t1 -9t1.5 -9t-4.5 -8.5q8 5 8.5 -2.5t3.5 -12.5q0 -15 -9.5 -24t-16.5 -22q-8 -2 -15.5 2.5t-9.5 12.5q3 7 -1 12.5t-8.5 10.5t-5.5 10
t7 11q-14 12 -12 21.5t8.5 19.5t11 20t-4.5 22q5 3 5 6t-1.5 7t-2 7.5t3.5 6.5q4 7 3 15t-1 14q-4 5 -8.5 9.5t-1.5 10.5l13 17q-6 0 -8.5 3t-3.5 7.5t-1 9t-2 7.5q7 6 7 14t-1.5 16.5t-1 16.5t7.5 14q-3 17 -13.5 32t-25.5 24q-5 -7 -15.5 -5.5t-16.5 3.5q-5 8 -12 9.5
t-14.5 -1t-14.5 -6t-13 -5.5q-3 -8 -11 -15.5t-14 -15t-6.5 -14.5t12.5 -14q-2 -11 0.5 -22.5t-8.5 -18.5q10 -6 8.5 -13.5t-5.5 -15.5t-6.5 -16t6.5 -17q4 -6 1 -12.5t-7 -12.5t-4.5 -12.5t7.5 -12.5q-3 -8 -0.5 -14.5t5.5 -12.5t3 -12.5t-8 -12.5q6 -6 5 -13t-3 -14
t-3 -14t4 -13q-4 -13 -4 -24t-11 -20q-9 2 -16.5 8t-17.5 6v13h2q6 19 4 36.5t-5.5 34.5t-4.5 34t6 37q-2 23 -2.5 44t5.5 42q-9 8 -8.5 12.5t4 9t5 9t-5.5 12.5q-1 7 1 14t3.5 13t0.5 11.5t-8 11.5q3 9 3.5 18.5t1.5 19t5 18t13 15.5q7 0 14.5 -4.5t15 -8t14.5 -3t14 10.5
q8 0 14 -1.5t11 -6.5q20 6 44 5.5t46 -2.5q2 -6 4.5 -12.5t8.5 -10.5q6 0 11 5t9.5 10.5t10 9.5t13.5 3q4 -4 9.5 -2.5t10.5 -0.5q1 9 5 11t10 1t12.5 -3t11.5 -1q4 -6 11 -8.5t13 5.5l5 5q9 -10 26 -14t30 -15h13q2 -6 3.5 -13t10.5 -9q4 -24 5.5 -49t-14.5 -44
q7 -7 9.5 -16.5t3 -19.5t2 -19.5t6.5 -15.5z" />
    <glyph glyph-name="n" unicode="n" 
d="M476 276q-5 -3 -5 -6.5t1 -7t1.5 -7.5t-2.5 -8q-9 -9 -8 -20t3 -21.5t1.5 -21t-13.5 -18.5q3 -11 6 -20.5t13 -13.5q-5 -5 -5 -10.5t1.5 -12t2 -12.5t-3.5 -12q-6 -10 -3.5 -19.5t5.5 -19.5t3 -19.5t-10 -19.5q-6 -1 -7 -5t-1 -8t-1.5 -7t-9.5 -2t-16 3.5t-14.5 7
t-9.5 12t0 18.5q-5 7 -2 13.5t6 13.5t4 13t-8 12q1 4 4.5 9t6 9.5t1 8.5t-10.5 5q-5 14 -2.5 26t5.5 23t4 23t-7 26q-2 18 1 38.5t3 34.5q-2 8 3.5 14.5t10.5 12.5t5.5 11t-11.5 11q-6 7 -13.5 12t-15 9.5t-15 10.5t-13.5 15q-11 -5 -22 -7.5t-22 2.5q-6 9 -13 6.5t-14 -7
t-12.5 -6t-9.5 8.5q-9 9 -20 5q-5 -9 -16.5 -8t-23.5 2.5t-20.5 -2t-7.5 -21.5q-14 5 -18.5 1.5t-6 -11t-4 -16t-12.5 -11.5q-3 -8 -3 -17.5t0.5 -18.5t-0.5 -17.5t-7 -14.5q7 -8 8.5 -16.5t1.5 -18t-0.5 -18.5t2.5 -16q4 -6 10.5 -7t4.5 -10q-9 -1 -20 -12q-3 -8 -1 -17.5
l4 -19t1 -18t-11 -14.5q2 -5 4 -5.5t4.5 0.5t5.5 3t6 2q5 -8 0.5 -14.5t-8.5 -12.5q-5 2 -7.5 -2.5t-7.5 -4.5q-3 -6 5 -10q-2 -4 0.5 -9t4.5 -10t0.5 -8.5t-10.5 -4.5q-3 -10 -8 -11.5t-11 0t-12.5 4.5t-12.5 2q3 10 -1 17t-8 13t-4 12t11 15q0 7 1 13t9 8q-6 2 -7.5 6.5
t-2 9.5t-3 10t-9.5 8q8 5 11 11.5t4.5 14t2.5 15t6 13.5l-5 5q-2 -3 -3.5 -2.5t-3.5 0.5q0 17 4 33t-7 33q-4 16 -1.5 33.5t5 35.5t1 35.5t-13.5 32.5q11 8 15 18.5t-1 23.5q-3 2 -2.5 3.5t0.5 3.5q5 6 13.5 6.5t17.5 1.5q0 -6 3.5 -7t7.5 -1.5t8 -1.5t6 -5q13 2 22 3.5
t17.5 4t17.5 5.5l21 7q14 -6 26.5 -5.5t24.5 2.5t24.5 4t27.5 1q9 6 16.5 3t15.5 -7.5t16.5 -6.5t18.5 6q7 -13 21.5 -21.5t27.5 -18t20.5 -22t0.5 -33.5q11 3 15 -2.5t5 -15t0 -20t0 -16.5z" />
    <glyph glyph-name="o" unicode="o" 
d="M427 198q-12 17 -14 40t-3.5 46t-7.5 44t-27 34q-8 -6 -14 -2.5t-11.5 8.5t-11.5 7t-14 -8q-1 2 -3.5 3.5t-1.5 3.5h-22q-3 -7 -7 -7.5t-8.5 1t-9 2t-7.5 -5.5q-7 7 -14 7.5t-14 -1t-14.5 -2t-14.5 5.5q-15 7 -20.5 -0.5t-9 -17t-9.5 -14.5t-21 7q-2 -8 -7 -17t-8 -18
t-2.5 -18t9.5 -17q-2 -4 -5 -2.5t-5 -0.5q0 -7 -3.5 -13t1.5 -12q3 -5 8.5 -12.5t11.5 -3.5q-6 -12 -8 -25t-2 -25.5v-25.5t-3 -25q-12 -12 -9.5 -17t9 -8.5t11.5 -8.5t-1 -17q10 -1 16.5 -7t12 -12t12 -10.5t17.5 -2.5q14 -4 25.5 -2t23.5 -3l5 5q14 -2 29 1.5t30 3.5
q6 -4 15 -9.5t14 -0.5q5 9 11.5 4.5t13.5 -4.5q-1 3 1 5.5t4.5 5t3 5.5t-3.5 6q11 6 15.5 17.5t8.5 23.5q0 4 3 5.5t5 3t2 3t-5 6.5q10 17 13.5 35t9.5 36zM458 100q-12 -6 -13 -15.5t-0.5 -18.5t-2.5 -16t-18 -9q-3 -12 -11 -15.5t-17.5 -5.5t-18 -6t-12.5 -17
q-9 9 -23.5 8t-25.5 -3q-23 6 -48 4t-49.5 -3t-46 5t-37.5 28q-12 3 -17 11t-8 18l-6 20t-10 18q3 7 4.5 13t7.5 11q-7 4 -10 10.5t-5 13.5t-3 14.5t-4 12.5q2 4 0 10.5t-2.5 12.5t2 10t12.5 4l-10 2q2 11 5 24t-2 23q4 7 3 16t-3.5 18t-2.5 18t8 17q9 17 19 32t30 23
q2 10 9 15t16 7.5t19.5 3.5t18.5 4q31 0 59 -0.5t61 5.5q4 -6 11 -7t14 -0.5t13.5 -1t10.5 -8.5q7 3 12 -1t10 -9t11 -8.5t14 0.5q3 -12 11 -22.5t15.5 -20t10 -20.5t-5.5 -24q6 -12 7 -25.5t0 -27.5t-3.5 -27t-3.5 -25q-3 -2 -7 -3t-7 -5q9 -20 16 -43t3 -45z" />
    <glyph glyph-name="p" unicode="p" 
d="M426 126q-4 15 -2.5 28t-2.5 28q-5 0 -7 3q0 4 -0.5 9.5t5.5 7.5q5 15 3 28.5t-4 26t-2 24.5t8 24q-4 12 -9 24t-18 19q-11 2 -23 8.5t-24 11t-23.5 2.5t-22.5 -16q-6 4 -12 10.5t-15 6.5q-5 0 -9.5 -3t-9 -5.5t-8.5 -2t-7 7.5q-9 4 -18.5 3t-18 -3t-17 -3.5t-15.5 3.5
q-2 -3 -4 -7.5t-4.5 -7.5t-6.5 -3.5t-9 3.5q-8 -4 -5.5 -11.5t-2.5 -12.5q-10 -5 -12 -12t-0.5 -15.5t4 -18t1.5 -17.5q-9 -4 -5 -9.5t2 -12.5q8 -7 9.5 -17t0 -22t-4 -24t-2.5 -23q5 -8 4.5 -15.5t-2 -15t-2 -15t4.5 -15.5q7 -4 9.5 -10.5t3.5 -13t3 -12t9 -6.5
q13 9 24.5 5.5t23 -11t23 -12.5t26.5 1q12 14 23.5 13.5t23.5 -4t23.5 -5t23.5 10.5l5 -8q19 -7 26 -1.5t10 17t5.5 24t11.5 19.5q-11 3 -11.5 6t4 5.5t10.5 5t9 5.5zM470 109q-2 -15 -9 -27.5t-16.5 -24.5t-19 -23.5t-16.5 -24.5q-12 10 -22.5 7t-20 -8t-19 -7.5t-19.5 8.5
q0 3 2.5 4.5t0.5 6.5q-6 6 -10 5q-2 -3 -3 -6t-6 -5l6 -8q-8 -9 -16 -7.5t-16.5 5.5t-17.5 6t-18 -6q-13 3 -24 1.5t-21.5 -3t-20.5 0.5t-20 13q-8 -6 -12 -2.5t-7 8t-7 7.5t-13 -4l-4 -24q-4 0 -5.5 -2.5t-4.5 -4.5q5 -3 5 -7t-0.5 -8t0.5 -7.5t9 -4.5q1 -4 4 -3t5 2
t3.5 0.5t-0.5 -6.5q-3 0 -4 -1.5t-3 -3.5q10 -3 13.5 -10.5t4 -16.5t0.5 -18.5t4 -16.5q-12 -6 -11 -16.5t4 -22t2 -22.5t-17 -17l2 -7q-10 -2 -15.5 0.5t-9 7.5t-6.5 11.5t-8 11.5q-9 5 -7 11t0 12q0 5 6 8.5t4 8.5q-11 5 -7 12t2 12q11 7 10.5 14.5t-4 15t-5 15t8.5 14.5
q6 3 6 7t-1.5 9t-3.5 9.5t-1 8.5h-3q1 6 -1 13t-3 14.5t1 15.5t11 14q-8 3 -8 8t1.5 10.5t1 11t-7.5 9.5q-2 6 0 11.5t4 10.5t2 10.5t-6 11.5h3q-5 4 -4 11t2.5 13.5t0.5 13t-9 11.5q5 48 11 96.5t-4 96.5q6 6 7 16.5t11 12.5q8 2 16 -2.5t15 -12.5q19 2 31.5 13t27.5 17
q0 -6 3 -8t6.5 -3.5t7.5 -3t7 -4.5q8 8 17.5 11t19.5 3.5t19.5 -0.5t17.5 0l29 -15q10 1 16.5 11t16.5 12q7 -1 12.5 -6t11 -9.5t12 -7.5t14.5 0q17 -14 28.5 -31.5t25.5 -31.5h-5q-3 -9 1 -21.5t7 -24.5t1 -22t-15 -15q11 -20 10.5 -37.5t-2.5 -34.5t-2.5 -35.5t10.5 -39.5
z" />
    <glyph glyph-name="q" unicode="q" 
d="M402 125q0 9 -4.5 17t-8.5 15.5t-3.5 15.5t9.5 17q9 7 9.5 16.5t-2 19t-4.5 19t2 17.5q0 4 1.5 11.5t1.5 15.5t-2 14.5t-9 9.5l-3 -2l-22 41q-5 3 -8.5 1.5t-6.5 -4t-6.5 -3t-6.5 5.5q-9 -3 -16.5 0.5t-14 7.5t-13.5 4.5t-15 -9.5q-3 9 -8 8.5t-11 -3.5t-12.5 -5.5
t-12.5 2.5q-15 11 -38 8t-41 -10q-17 -13 -27.5 -32t-16.5 -39l-4 -22t7 -22q-8 -9 -6.5 -15t6.5 -11t10.5 -10t5.5 -14q0 -5 -5 -8t-9 2q3 -9 1.5 -18l-3 -18t0.5 -17t11 -14q-2 -2 -2.5 -3t-2.5 1l-2 -32q7 -11 13.5 -9.5t15.5 -5.5q-1 -9 2.5 -12t9 -3t11 1t9.5 -1
q4 -5 9.5 -9t4.5 -10q10 10 20 8t19.5 -7t19 -8t19.5 5q5 -2 5 -7t6 -3q2 8 7.5 9t11.5 0.5t12 0.5t8 10l19 -18q-6 15 1.5 19t17 6.5t15 7.5t-3.5 21q7 9 15 4.5t14 -6.5q-4 7 -5.5 14t-9.5 12q2 8 9.5 10.5t14.5 7.5zM449 5q9 -14 8 -35.5t-6 -38.5q0 -7 6 -12t-1 -12
q-5 2 -10 -5l10 -17h-2q5 -15 3 -30.5t-6 -28.5q-3 -1 -4.5 2.5t-2.5 6.5t-2.5 3.5t-5.5 -5.5q2 -5 4.5 -12t-2.5 -14q-5 -5 -11 -1t-11 7q-3 20 -9.5 37t-11.5 32l5 15l16 -12l6 7q-8 11 -16 17t-11 20q-6 13 -2.5 24.5t8 22t5.5 21t-9 22.5q-4 -2 -8.5 -1t-9 2.5t-8.5 1
t-8 -4.5q-5 -6 -11 -8.5t-13 -3.5l-14 -2t-13 -5q-1 8 -9.5 13.5t-13.5 0.5q-8 -8 -17 -8.5t-18 1t-17.5 1.5t-15.5 -8h-10v6q-4 2 -9.5 0.5t-11.5 -3.5t-12 -2t-11 5q-5 8 -14.5 9t-19.5 2t-18 5t-9 19h-13q-2 10 -7 18.5t-9.5 17t-6.5 17t2 18.5q2 11 0 22t-4.5 22
t-4.5 21.5t-1 20.5q8 5 9 13.5t1 17.5t2 17.5t14 14.5q-7 14 -15 26.5t1 27.5q-8 11 -2.5 17.5t16.5 7.5q4 24 21 39.5t34 26.5q11 -4 21 0t20 8.5t20 5.5t21 -9q7 8 16.5 6t19.5 -4.5t17.5 -1t10.5 16.5q11 0 16 -8t14 -12q7 13 20.5 11.5t21.5 -6.5q3 -6 9 -7l12 -2
t11 -2.5t7 -8.5q5 2 8.5 8t7.5 11.5t10 7.5t15 -4q-2 -14 0.5 -27t5.5 -25.5t4 -24.5t-5 -24q-2 2 -4 -0.5t-4 -4.5q4 -9 12 -20t1 -24q-4 -29 2.5 -61t6.5 -68q1 -8 2 -13t-6 -12q4 -10 2.5 -20.5t-9.5 -16.5q-4 -13 -3 -28t15 -21z" />
    <glyph glyph-name="r" unicode="r" 
d="M444 256q-2 -1 -7 -2.5t-10.5 -1.5t-9.5 2.5t-5 9.5q7 7 5.5 12t-5.5 9.5t-7 9t2 11.5q-4 12 -12 21.5t-18 16.5q-6 0 -11.5 3t-11 5t-10.5 2.5t-11 -5.5q-9 -4 -13 2t-11 8q-9 -8 -23 -9t-26.5 -2.5t-20 -8t-3.5 -24.5q-18 4 -24 -2.5t-6 -17t3 -23t2 -21.5
q6 -5 10.5 -8t8.5 -11q-8 -8 -16 -18t0 -23q-2 -4 -0.5 -6t3.5 -4t4.5 -3.5t3.5 -4.5q-9 -16 -9.5 -34t-4.5 -36q7 -6 6 -15.5t-2 -18t2 -14.5t18 -6q8 -8 18 0v10q6 1 9.5 -2t5.5 -7.5t4 -10t7 -8.5q-8 -2 -8.5 -12.5t4.5 -13.5l4 -3q9 3 9 9t-2 12t-2 12t10 9
q18 -2 32 -3.5t27 -6.5q1 -8 -3 -15t-9.5 -12.5t-12 -10.5t-10.5 -9q-11 7 -23 7t-23.5 -1t-22 -0.5t-18.5 9.5q-5 0 -14 -2t-11 -10q-11 7 -23 5.5t-23.5 -3.5t-22.5 -1.5t-19 11.5q-2 -6 -9 -5t-11 3q-8 7 -9.5 15.5t-6.5 15.5q8 5 17.5 6.5t19 2t19.5 3t19 8.5q7 5 9 11
t2 12t1 11t8 10q-9 4 -8.5 13t-3.5 16q8 4 8.5 10t-1 12.5t-3 12.5t2.5 12q-5 8 -3.5 16.5t3 16t0 13.5t-11.5 10q5 10 6.5 22t3.5 25q-12 6 -13.5 13.5t1.5 15.5t6.5 16t0.5 16q-1 11 -7.5 17.5l-14.5 14.5q-10 -2 -20.5 -8.5t-21.5 0.5q0 6 -5.5 10.5t-2.5 12.5q2 -1 5 0
t3 6q2 6 -2.5 9.5t-9.5 5.5h-1q-2 4 0 5.5t4.5 2.5t5.5 1.5t5 3.5q8 0 17 -2t17.5 -3.5t16.5 0t16 7.5q6 3 10 0t7 -8t5.5 -11t6.5 -10l5 9q8 -6 16.5 -5t16 5.5t15 10t13.5 9.5q3 -6 5.5 -6.5t5.5 1t6.5 3.5t6.5 2q30 2 53 -6t50 -9q10 -14 23 -21.5t26 -17.5
q-1 -14 6 -28.5t12.5 -28.5t4 -27t-19.5 -24z" />
    <glyph glyph-name="s" unicode="s" 
d="M460 90q3 -10 -1.5 -16.5t-11.5 -12t-14.5 -11.5t-10.5 -14l-1 3q-2 -9 -8.5 -14.5t-14 -9.5t-15 -9t-10.5 -14q-6 8 -15 9.5t-18.5 0.5t-19 -2.5t-16.5 0.5q-18 -8 -31.5 -7t-24.5 14q-3 -6 -8.5 -7.5t-11.5 -1.5t-12 -1t-10 -5q-9 9 -19.5 5t-19.5 -7q-6 3 -11.5 7.5
l-11 9t-11 8t-12.5 4.5q-6 10 -11 23t-2 26q-8 9 -15 17.5t-9 19.5q8 -2 18.5 2t10.5 15q4 -3 9.5 -4t10.5 -3t8 -5.5t1 -11.5q-8 -1 -10 -4t-1.5 -7.5t0.5 -9.5t-3 -9q4 -8 11.5 -9.5t15 -2t13.5 -3.5t9 -12q5 3 9.5 2t9 -1.5t8 -0.5t7.5 5q9 -8 20 -9t23 -0.5t24 1.5
t24 -2q3 7 7.5 7t9.5 -0.5t10 -0.5t9 7v-18q4 3 9 2t10 -1.5t9.5 0.5t6.5 7q4 1 8.5 0t8.5 -2t7 0t5 7t-1 9t-7 4.5t-8 3.5t-4 7q6 -2 17.5 -0.5t12.5 12.5q-2 9 -5 19t9 18q-5 19 -20 35.5t-28 30.5q-8 -4 -16 0.5l-16 9t-16 5t-16 -11.5q-10 -9 -19 -6.5t-17.5 6.5
t-17.5 5.5t-19 -8.5q-1 2 -1 8q6 0 8 -3q2 2 2 8q-6 6 -10 4.5t-8 -5t-8 -6t-10 1.5q-5 -6 -12.5 -5.5t-14.5 2.5q-4 8 -11 10.5t-6 13.5q-6 3 -12.5 2.5t-12 -0.5t-9.5 3t-5 13q1 8 -2 12.5t-6.5 9t-6 9.5t-0.5 13q-7 5 -7.5 12t1.5 14.5t5 15t3 14.5q0 6 3.5 10t7 8.5
t5.5 9.5t-1 11q8 3 15.5 7.5l15 9t15.5 7.5t17 1q2 5 6.5 5.5t10.5 -0.5l12 -2t10 2q6 3 10 9.5t13 2.5q3 -11 12 -13q16 -1 33 1.5t34 2.5t33 -4.5t30 -18.5q8 1 12 -2.5t7 -8.5t5 -10t7 -8q-4 -10 1.5 -17t8.5 -13q8 -3 8 -7t-3 -9.5t-7 -10.5t-3 -9q-13 1 -18 8t-7.5 16
t-5.5 17.5t-10 14.5q-8 10 -16 14t-17 6t-17.5 3t-16.5 4q-6 1 -12.5 -1t-12.5 -3.5t-12 -1t-11 7.5q-5 3 -7.5 0t-4.5 -6t-4.5 -4.5t-8.5 3.5h-14.5t-14.5 7q-5 -2 -10 -6t-10 -7t-10.5 -4.5t-10.5 2.5q-8 0 -14 -6t-6 -15q-6 -12 -6 -24.5t2.5 -25.5t4.5 -27t1 -29
q3 -5 6.5 -3.5t7 3.5t7.5 3t8 -5q9 -6 19.5 -5t21 3t21 1.5t20.5 -7.5q5 1 7.5 4.5t4.5 5.5q12 -7 24 -6.5t24.5 2t25 0.5t24.5 -11q8 5 13 3.5t9 -5.5t7.5 -9t8.5 -8q3 -6 10 -12.5t14 -14t10 -16t-1 -18.5q7 -3 8 -8.5t0 -11.5t-1 -12t5 -10h-1z" />
    <glyph glyph-name="t" unicode="t" 
d="M88 369q-3 4 -2.5 7.5t-1.5 7.5q4 -2 6 -6.5t-2 -8.5zM465 109q-3 -2 -3.5 -0.5t-1.5 1.5q-5 -6 -4 -13t2 -13.5t0 -13t-9 -11.5q-1 -10 -8.5 -17.5t-4.5 -20.5q-4 -14 -13.5 -15t-20 0.5t-19 0t-10.5 -16.5h-16.5t-13.5 7q-19 -7 -40 -11t-35 9q-10 0 -19 4t-17.5 10
t-17.5 12.5t-18 9.5q-7 26 -16.5 50.5t-9.5 52.5l5 5q-2 -9 6 -12h1q-5 15 -5 34.5t9 36.5q-5 15 -5 29.5t0.5 28.5t0 28t-6.5 29q9 4 12 14.5t-1 21.5q-5 6 -9 6h-8.5t-8.5 2t-8 10q-11 -9 -24.5 -11t-24.5 6q-2 9 -4 20.5t9 20.5q34 12 67 0q10 12 9 24.5t-5.5 25t-7 25.5
t5.5 26q7 6 9.5 13t2.5 14.5t-1 15.5t1 16q-4 -1 -6.5 1t-5.5 4q4 7 8.5 14.5t13.5 11.5q11 -9 22 -15.5t14 -20.5q6 -20 4.5 -38.5t-4 -36.5t-4 -35.5t3.5 -34.5q6 -9 13 -8.5t14.5 3t15 3.5t14.5 -8q13 -3 30.5 2t33 7.5t28 -1t16.5 -22.5q5 -15 -5 -25t-22 -14
q-7 -2 -12.5 0.5t-11.5 4.5t-12 2t-13 -7q-6 0 -13.5 2t-14.5 3.5t-13.5 0.5t-12.5 -7q-9 1 -14 9.5t-13 10.5q-9 -2 -10 -7t-0.5 -11t-1.5 -11t-12 -7q9 -6 11.5 -14.5t2.5 -19t-0.5 -21.5t2.5 -21q2 -11 -0.5 -21t-5 -20.5t-1.5 -21t10 -21.5q-6 -10 -7.5 -17.5t0 -15
l3 -15t1.5 -16.5q-4 0 -6 -3.5t-4 -5.5q1 -13 8 -18.5t15.5 -9.5t17 -8.5t13.5 -14.5q11 8 23 4t23 -8.5t19.5 -2.5t13.5 23q9 1 9 -6t6 -10q20 20 36.5 35t31.5 35q8 0 16 -1t8 -9zM417 389q-1 -2 -1.5 -5.5t-4.5 -6.5q-2 0 -5 3t-1 8q2 2 6 3.5t6 -2.5z" />
    <glyph glyph-name="u" unicode="u" 
d="M324 16h5q0 1 4 5zM421 345h-4v-7h4v7zM476 26q-6 -5 -6.5 -12.5t-1 -14.5t-2.5 -13t-10 -9q-11 -3 -23 3.5t-23.5 12t-23 4t-21.5 -19.5q-11 1 -18 9.5t-18 10.5q-4 -6 -9.5 -7t-12 -0.5t-12.5 0.5t-11 -3q-12 -11 -22 -10.5t-20.5 4t-21.5 7t-23 -2.5q-20 -5 -35 0.5
t-28 16t-25 23.5t-25 24q4 18 0 32.5t-7 32.5q4 1 8 5l8 8q-7 4 -8 10t0 12.5t2 13.5t-3 13q-3 6 -2.5 11.5t1 11.5t0 12t-5.5 11q1 15 1.5 26.5t1.5 22.5t3 22t5 25q-14 40 0 81q8 11 19 7.5t19 -7.5q5 -4 6.5 -10.5t2 -14t3 -14t9.5 -10.5q-7 -29 -8.5 -55t4.5 -55
q12 -10 9 -23q-6 -6 -8 -13.5t-1.5 -15.5t1 -15.5t-0.5 -14.5l11 -4q-10 -4 -12 -10.5t-2 -14.5t1 -16.5t-3 -14.5q4 -6 4 -13t0.5 -14t2.5 -14t9 -11q7 -6 15.5 -7t17.5 -1.5t17 -1.5t14 -7q9 4 17.5 4.5t17.5 -1t18.5 -2.5t18.5 1q3 -3 4 -6.5t5 -5.5q4 0 4.5 3.5t1.5 7.5
t3 5.5t8 -1.5q6 -10 17.5 -9.5t19.5 9.5q5 6 12.5 5l15 -2t14 1t9.5 13q-2 6 1.5 9.5l7.5 7.5t5 7.5t-6 9.5q8 3 7.5 6.5t-2.5 8t-2.5 9t7.5 8.5q2 4 0 9.5t-3.5 10t-0.5 8t9 4.5q0 5 -4 9t4 8l-20 20q7 3 7 7.5t-2 9t-3 9t5 8.5q-7 6 -5.5 11.5t4.5 10.5t4 10.5t-8 11.5
l17 41q-11 2 -12.5 6.5t-0.5 10t1.5 11.5t-5.5 12q6 4 7 12.5t2 18t4 17.5t14 13q9 3 14.5 -1t9 -10.5t5.5 -14t5 -13.5q7 -15 3.5 -30t-7.5 -29t-4.5 -25.5t13.5 -18.5q-5 -4 -5.5 -8t1 -8.5l3 -9t1.5 -8.5q-4 -9 -5 -19.5l-2 -21t-3 -21t-7 -19.5q7 -6 9 -13t2.5 -14
t1 -14.5t5.5 -14.5q-12 -5 -16 -20.5t1 -28.5q5 -5 7.5 -9.5t7.5 -8.5z" />
    <glyph glyph-name="v" unicode="v" 
d="M460 349q3 -6 -0.5 -12t-7.5 -12t-6.5 -12t3.5 -12q0 -12 -4.5 -22.5t-10 -21t-10 -21.5t-5.5 -24q-8 -6 -8 -14t1.5 -15.5t1 -14t-9.5 -10.5q9 -15 3 -24.5t-14.5 -18.5t-13 -18.5t7.5 -23.5q-7 -26 -25 -48t-41 -35q-16 7 -29.5 2t-25.5 -10t-23 -4.5t-20 19.5
q-7 0 -13 3.5t-11.5 8.5t-11.5 9.5t-12 7.5l6 23h-7q-2 13 -0.5 27.5t-4.5 23.5q-2 -2 -4.5 -3t-0.5 -4l1 -3q-5 14 -16 28.5t-12 25.5q8 6 7 15.5t1 18.5q-8 4 -9.5 9.5t-0.5 11.5t2.5 13t-0.5 13l-31 31q1 12 -2 24t-6 23t-3 21.5t8 20.5q-2 6 -6.5 10t-10 8.5t-9.5 9
t-5 11.5q6 6 11.5 13t11.5 12.5t13 7.5t17 -1q6 -5 12 -8.5t11 -7t8 -9t3 -14.5q-12 -11 -11.5 -21.5t5.5 -20.5t12 -20t9 -20q-2 -16 2.5 -28.5t9.5 -24.5t7.5 -25t-2.5 -29q9 -4 10 -9.5t-0.5 -11.5t-2 -12t5.5 -11q-6 -8 -3 -15t8 -13t8 -12.5t-3 -13.5q7 -3 9 -9.5
t3.5 -12.5t4.5 -11t12 -6q4 -1 8.5 1t8 3t7.5 -0.5t7 -8.5q11 -5 23 -5.5t21 3.5v3.5t-2 3.5h-5q8 3 10 7.5t3 10t2.5 11t9.5 10.5q-17 13 -3 24q5 -7 10 -5l5 8q-5 2 -8.5 7t1.5 10q10 -3 19 8q-11 12 -12 22.5t7 23.5q9 5 10 12.5t0 15.5t-1 15.5t8 13.5q-2 9 1.5 16l7 14
t6 14.5t-1.5 16.5q7 1 9 4t2 7t-1 8.5t0 9.5q-6 7 -7 14.5t1.5 15t6.5 15t8 13.5l5 5q-3 -14 7 -21h3q4 7 -0.5 13.5t-4.5 15.5q13 11 39 22q13 -15 15 -38.5t-8 -40.5zM170 344l-1 18l5 -17z" />
    <glyph glyph-name="w" unicode="w" 
d="M101 369q4 2 2.5 6.5t-5.5 6.5q1 -4 0 -7.5t3 -5.5zM302 266q3 -10 1 -18.5t-5 -17.5t-5 -18t1 -19q-5 2 -7.5 -1.5t-6.5 -5.5v-3h13t6 -10q-4 -20 -5 -36.5t-5 -36.5q4 -2 2.5 -6.5t0.5 -8.5q-5 -3 -11.5 -3.5t-5.5 -8.5q1 4 -1 6.5t-5 5t-4 5.5t3 8q-2 3 -7.5 9.5
t-8.5 13t-1.5 13t12.5 10.5q-1 2 -1.5 5t-3.5 5h-8q-3 10 -1 17.5t4 14.5t2.5 14.5t-5.5 16.5q16 6 14.5 13t-7 14.5t-8.5 14.5t9 15l10 -13q9 8 17 13t17 -8zM488 379q3 -12 1 -23.5t-5 -22.5t-4 -21.5t5 -20.5q-5 -10 -2 -20t-8 -19q9 -15 6.5 -27.5t-7 -24.5t-6 -24
t7.5 -24q0 -6 -4 -10t-8 -8.5t-6 -10t3 -13.5q9 -6 9 -12t-3 -12.5t-6.5 -13.5t-0.5 -16q-5 -2 -8 -6.5t2 -8.5q2 -2 4 -2h3q-17 -5 -17 -23q-17 -9 -35 -18.5t-41 -7.5q-4 -8 -9.5 -9t-12 0.5t-13.5 4t-14 1.5q-8 9 -17.5 8t-19 -3t-18.5 -2t-16 10q-8 -7 -16.5 -8
t-17.5 -1t-17.5 -1.5t-15.5 -7.5q-5 -3 -8.5 -1t-6.5 4.5t-5.5 3t-5.5 -3.5q-4 2 -0.5 6t-2.5 9q0 7 6 8t7 8q-4 6 -10 6.5t-10 -3.5q-4 -3 -3.5 -5t2 -4.5t3 -4.5t0.5 -5q-7 -6 -13.5 -0.5t-15.5 5.5q8 7 6 17t-13 12q-13 3 -22 12q6 6 6 12.5t-2.5 13.5t-4.5 13.5t1 12.5
h-5q-6 10 -3.5 19t5.5 17.5t3.5 17t-10.5 16.5q7 11 2 21.5t-7 22.5q6 -1 8 1.5t2.5 6t1 8t2.5 7.5q-8 4 -11.5 12t-5 17t-3.5 18.5t-6 17.5q11 15 7 35t-10 37q-3 10 1 13.5t10.5 5t13.5 2t12 5.5q10 -5 11.5 -12.5t1 -16t0.5 -16.5t9 -13q9 -9 7 -20t-5.5 -22t-4 -22
t12.5 -20q-5 -3 -6.5 -9t-3 -11.5t-4 -9t-8.5 -1.5q-8 -12 -2.5 -18t13 -11t11.5 -11t-5 -17q-2 -9 3.5 -11.5t10.5 -4.5q0 -8 -0.5 -13.5t1.5 -14.5q-4 -5 -11.5 -7.5t-3.5 -11.5q17 -1 18.5 -9t-1.5 -18.5t-3.5 -21.5t13.5 -17q5 5 11 4.5t12.5 -2.5t13 -5t14.5 -2
q6 3 12.5 2t12.5 -1t11 2.5t8 11.5q2 3 1 6t-2.5 6t-1 5t5.5 4q7 2 8.5 -0.5t1.5 -7t0.5 -9t4.5 -7.5q4 3 8 7.5t7.5 7.5t8 3.5t10.5 -5.5q-2 -7 0.5 -11t6.5 -7t9.5 -5t9.5 -5q19 4 34.5 4t32.5 11q16 14 23.5 33t-2.5 38q6 5 5 9.5t-4 10.5q2 11 7.5 20.5t7.5 20.5
q-1 4 -4 3t-6 0q-3 7 -1 14.5t5.5 16t5.5 16.5t-1 17q8 5 4 11.5t-4 12.5q3 6 2.5 13l-1 14t2 12.5t11.5 9.5q-12 3 -14 9.5t-0.5 14.5t1.5 16t-7 14q7 9 14 22t25 12z" />
    <glyph glyph-name="x" unicode="x" 
d="M120 21q1 -4 -1 -10t-6 -4q-3 2 -3 9zM172 2q-8 0 -13 5q-2 4 0.5 5t4.5 4q4 3 7.5 1t5.5 -5.5t1.5 -7t-6.5 -2.5zM476 16q0 2 -1.5 4t-3.5 4q-6 -2 -9.5 -6t-7.5 -7t-8.5 -4t-11.5 3q-11 13 -15.5 22t-11.5 24q-17 -5 -23.5 2t-11 17t-9.5 19t-18 9q-13 5 -19.5 22.5
t-13 32t-16.5 18.5t-29 -17q-9 1 -13 -3.5t-6.5 -11t-4.5 -14t-7 -11.5q-6 -6 -14 -11.5t-14.5 -12t-11 -14.5t-2.5 -20q-6 -6 -15.5 -9t-18.5 -6t-14.5 -9.5t-2.5 -20.5q-6 -2 -10 -3.5t-8 6.5q-2 7 -0.5 13t2.5 10.5t0 9t-7 9.5q1 10 8.5 15t15 9.5t13 11t2.5 20.5
q6 8 14.5 12t16.5 7.5t14.5 10t8.5 19.5q10 5 17.5 6.5l17.5 3.5q7 4 3 7.5t-4 7.5q8 0 12 7t6 14q-2 6 -8 7t-11.5 2.5t-9 5t-0.5 13.5q-18 12 -32 26.5t-26.5 28.5t-25.5 28.5t-29 26.5q3 12 -4.5 19.5l-13.5 13.5t-6.5 11.5t16.5 13.5q17 -4 29.5 -16t27.5 -23
q-2 -2 -5 -4t-3 -6q5 -7 10 -5q21 2 28.5 -10.5t11.5 -27.5t10.5 -27t27.5 -10q2 -14 13.5 -22.5t21.5 -16.5q11 3 16 11.5t3 19.5q-3 7 0.5 9t8 2.5t8 2.5t1.5 10q9 11 22 10q-3 12 2 20t12 15t14 13.5t9 15.5q13 -4 23.5 4.5t20.5 19.5q-1 2 -2 5.5t-1 7.5q9 5 18.5 8.5
t20.5 -1.5q-3 -5 -1 -12t3 -14t-1 -12t-13 -6q-10 -19 -28.5 -34.5t-27.5 -38.5q-8 1 -12.5 -2.5t-7.5 -9t-6 -11.5t-6 -9q-6 -8 -16 -16.5t-16 -17.5q-5 -5 -12.5 -3.5t-9.5 -6.5q-2 -13 6 -20.5t9 -18.5q4 -3 9.5 -5l11 -4t9.5 -6.5t4 -11.5q9 -1 15.5 -6.5t12 -13.5
t10.5 -16.5t11 -14.5q-2 -8 4 -13t8 -12l10 5q0 -8 5 -11.5t11 -7t10.5 -8t2.5 -12.5q9 -4 17.5 -12t0.5 -16z" />
    <glyph glyph-name="y" unicode="y" 
d="M370 230q1 -8 3 -18t2.5 -20.5t-2.5 -20.5t-12 -17v-12q-5 -8 -14 -14.5t-17.5 -12.5t-12.5 -13.5t1 -18.5q-3 -6 -2.5 -14t0.5 -14.5t-2.5 -11t-11.5 -4.5q-6 -6 -4.5 -15.5t-0.5 -16.5q-11 -11 -18.5 -24.5t-14 -28t-13.5 -29.5t-16 -28q-13 -5 -20.5 -16.5
t-20.5 -20.5q-6 -4 -11 -3t-9.5 2t-9 0.5t-9.5 -6.5q-6 -4 -11 -3t-9.5 4t-8 7.5t-5.5 8.5v12l4 -3q5 2 5 4.5t-1.5 5l-3 5t0.5 5.5q5 7 16 7.5t21.5 1t17 4.5t3.5 19q-4 9 3 20t21 7q0 22 12.5 40t19.5 38q3 4 7.5 6.5t9 4.5t7.5 5t3 9q3 18 -5.5 28.5t-18.5 19t-17 18.5
t-1 27q-12 9 -17 20.5t-9 23.5t-9 23t-16 19l10 21q-9 6 -20 16t-17 23q-3 8 -3 18t-9 12q-3 10 -4.5 21t-3 21.5t-5 20t-12.5 17.5q2 6 0 11.5t-3 11t1.5 9.5t12.5 6q9 2 13 -1.5t6 -9t3.5 -12t6.5 -9.5q-1 -11 5 -18.5t13 -14.5t12 -15t1 -19q1 -4 4 -3t6 -1
q-8 -13 -1.5 -22t15 -17t12.5 -17t-9 -23q-1 -9 4 -16.5t10.5 -14.5t8.5 -14.5t-1 -17.5l18 -17l2 2l7 -15l5 5q1 -8 7.5 -16.5t-1.5 -19.5q6 -4 5.5 -9t-2 -10.5t-1.5 -10.5t7 -9q4 10 10.5 19t11.5 18t8 19.5t0 23.5q3 0 4.5 1.5t4.5 3.5q2 6 -3.5 9t-1.5 10q7 -6 12 -4
t9.5 7t10 10.5t12.5 6.5v8l5 -13zM465 453q8 -8 9.5 -17.5t-1 -19.5t-6 -20t-4.5 -19q-17 -20 -30.5 -43.5t-11.5 -52.5q-12 -1 -17.5 -8.5t-10 -15t-10 -13t-18.5 -2.5q2 7 3.5 15.5t11.5 8.5l-15 13q7 3 7 5.5t-2 5.5t-4 7t1 9q10 4 11.5 12t1 16t1.5 13t14 3q-4 5 -7 8
t2 9q12 5 19 17q-5 6 -3 11.5t7 11t10.5 10t7.5 9.5q4 4 6.5 10.5t5 12t7.5 7t15 -2.5z" />
    <glyph glyph-name="z" unicode="z" 
d="M145 300v-10t-8 -4q-7 2 -10.5 9t-11.5 11q5 5 15.5 3.5t14.5 -9.5zM483 2q-10 -3 -19 -10t-18.5 -13.5t-19 -9.5t-21.5 3q-2 -5 -4 -5.5t-4.5 1t-4.5 4t-5 3.5q-44 -2 -79.5 0t-72.5 7q-7 1 -14.5 -3.5t-14.5 -8.5t-12.5 -3t-9.5 13q-9 -8 -18 -7t-17.5 4t-17 4
t-16.5 -6q-8 -1 -12.5 1.5t-6.5 7t-4 9.5t-6 9q6 6 8 14.5t4 17.5t5.5 16.5t12.5 10.5q2 5 6 9l8 8q4 1 7 -1.5t5 -4.5t4.5 -2t5.5 5q-14 13 -9.5 21t14.5 15t19 15.5t5 22.5q9 4 15 11l12 14t12.5 12.5t17.5 6.5q0 8 5 12.5t9.5 8.5t7 9t-1.5 14q12 0 19.5 5t13 11.5t10 14
t10.5 13.5q1 9 6 13.5t11 7.5l12 6t11 10l-3 32q-9 4 -16.5 2t-14 -4t-13.5 -2t-15 8q-10 3 -13.5 -1t-5 -9.5t-2.5 -10.5t-6 -5q1 14 -12 22q-12 9 -21 4t-17 -11.5t-16 -8t-17 15.5q-6 1 -10 -2.5t-8 -7.5t-8 -6.5t-11 1.5q4 8 -3 11.5t-9 8.5q-15 -1 -25.5 -2t-18.5 14v7
q3 -3 5.5 -2.5t5.5 2.5l6 4t7 1q-2 2 -1 5.5t-3 4.5q-2 2 -4 -0.5t-4 -4.5q1 13 -6 22t-16 15q19 3 39.5 -2t39.5 4q10 -10 21.5 -9.5t22.5 3t21.5 2.5t17.5 -11q9 7 20.5 7t23.5 -1t23.5 -0.5t20.5 9.5q6 -14 14 -15t17 2.5t19 7t19 -1.5q9 7 17 5.5t19 -3.5q3 -5 6.5 -7.5
t7.5 -4t6 -4.5t2 -9q-7 0 -14.5 -5.5t0.5 -13.5q5 -6 9.5 -0.5t9.5 5.5q5 -9 1.5 -14t-9 -8.5t-10 -8.5t-1.5 -15q-8 -6 -13 -13t-10 -14.5t-11.5 -13t-17.5 -8.5q1 -9 -4 -16t-11 -13.5t-10.5 -13.5t-1.5 -14q-3 -6 -9 -8t-11.5 -4.5t-9.5 -6t-4 -10.5q-14 -1 -20 -10
t-11 -19t-11.5 -18.5t-20.5 -8.5q-11 -8 -18 -21t-15 -26q-2 -5 -8 -8t-11.5 -6t-7.5 -6.5t5 -9.5q6 -12 15 -16t19 -4.5t20.5 -0.5t19.5 -3q0 13 13 14t21 1q4 -9 13 -8.5t17 -1.5q10 16 18.5 13.5t16.5 -9.5t16 -10t17 14q9 1 15 -2.5t12 -8.5t12 -8.5t15 -0.5q7 -3 7 -8
t-1.5 -10t-0.5 -9t10 -5z" />
    <glyph glyph-name="bar" unicode="|" 
d="M270 77h-2q-9 -1 -7 -10.5t0 -18.5l-1.5 -6t-0.5 -6q0 -5 1.5 -7.5t2.5 -6.5q0 -5 1 -9q0 -5 0.5 -7t-0.5 -7q-1 -4 -3 -5.5t-4 -5.5q-1 -2 1 -3.5t0 -2.5q-2 -2 -3.5 -1t-3.5 0q-2 -2 -0.5 -4t-0.5 -4q-1 -1 -1 -0.5t-1 -0.5q-2 -1 -1 -2t-1 -3q-1 -1 -2 1.5t-3 0.5
l-2 -2q-2 -1 -5 -1q-4 2 -4 4t-2 5q-2 4 -1.5 6.5t-0.5 6.5q0 5 -1.5 9t-2.5 9q-1 7 1.5 13t-3.5 11q-1 1 -0.5 0t-0.5 0q-1 2 2 0t4 0q1 3 -2 6t-2 7t4 4.5t4 4.5q0 5 -3 8t-4 7q-2 4 -0.5 7t2.5 7q0 2 -1 4t0 4q1 4 3 5t2 5q0 5 -3.5 9t-4.5 9q-1 6 4 9t5 9q1 5 -1 8t-3 7
q-1 7 1 14t-4 11q-2 1 -2 0.5t-2 0.5q-3 2 3.5 3t6.5 5q1 5 0.5 8.5t0.5 7.5q0 3 1 6t1 6q0 4 -5.5 5.5t-3.5 4.5q2 2 3 2t2 2q3 5 0.5 8.5t-4.5 8.5q0 4 -5 7t-1 3h1v15q1 0 2 1h2q8 1 9.5 10t-3.5 15l-2 2q-5 5 -0.5 10t4.5 11v13q1 6 2.5 12t-2.5 12q-2 2 -2.5 2t-1.5 1
q-2 3 -1 5t3.5 4.5t5 5.5t2.5 6q0 11 -2.5 23t-11.5 14q3 7 10.5 9.5t7.5 9.5q0 10 -4 15q-1 1 -1.5 2t-2.5 2t-3 1q4 2 4 8.5t-2 12.5q-2 3 -4 3.5t-2 3.5q1 3 4 4t3 5q1 5 1 11q1 8 1.5 15t0.5 16q1 5 0.5 8.5t-1.5 8.5q-1 6 -2 10t0 10q0 2 -0.5 2t-0.5 2q1 3 2.5 3
t3.5 3q4 6 6.5 11.5t-2.5 11.5l-2 2q-2 2 0.5 4.5t2.5 5.5q0 7 1 11q0 2 -3 3t-4 2q0 1 1 1q5 1 6 7t3 11q2 2 2.5 3t2.5 2h3q4 0 4.5 -4t0.5 -9t0.5 -9t4.5 -4q4 -2 5 -2q0 -2 -7 -4.5t-7 -7.5v-3q2 -2 2.5 -3.5t2.5 -3.5q3 -4 -2 -5.5t-5 -5.5q-4 -8 -1 -16q1 -3 2 -4.5
t2 -4.5q0 -5 -1.5 -7t-1.5 -7q0 -4 -0.5 -6t0.5 -6q0 -6 3.5 -9t4.5 -9q0 -2 -0.5 -3.5t0.5 -4.5t3.5 -5t2.5 -5q2 -7 -4 -10.5t-6 -10.5v-3q2 -4 2 -5q1 -2 -1 -2t-2 -1q-1 -2 -2 -2.5t-2 -2.5q-2 -3 2.5 -7t2.5 -8q0 -1 -0.5 -1t-0.5 -1q-3 -6 1.5 -9.5t4.5 -9.5
q0 -2 -2 -4q-3 -10 -5 -20t8 -12h3q7 0 7 -5t-3 -12t-6.5 -15t-4.5 -14q-1 -8 -2 -12.5t-3 -12.5l-1.5 -6t-0.5 -7v-6q-1 -4 3.5 -6.5t4.5 -6.5q0 -2 -1.5 -3.5t-1.5 -3.5q0 -3 1 -5.5t2 -4.5q0 -5 -2.5 -9t0.5 -9q1 -2 2 -2t2 -2q2 -2 -1 -4t-4 -6t-1 -11q-7 -5 -6.5 -17.5
t2.5 -23.5q0 -8 5.5 -11.5t5.5 -10.5q-2 -5 -6.5 -8t-1.5 -8q1 -2 2 -2t2 -2t0 -2.5t-1 -2.5q0 -3 2.5 -4.5t2.5 -4.5q0 -2 -1 -3t-1 -3v-2q0 -2 1 -3.5t2 -3.5l2 -2q1 -4 -2 -7t-2 -7q-1 -2 1 -7t2 -8.5t2 -8.5q2 -2 2 -4q0 -1 1.5 -1t-0.5 -1z" />
    <glyph glyph-name="asciitilde" unicode="~" 
d="M403 650l-5 -18l-14 -13l-18 -2l-4 -12v-1l-13 -10h-19l-6 6l-19 -8l-19 4l-23 6l-23 21l-11 12q-1 5 -2 9q-1 6 -7 14q-10 9 -21 2t-20 -15q-5 -4 -8.5 -8t-5.5 -8q-3 -4 -5 -10l2 -6q1 -5 -1 -11q-2 -2 -4 -5.5t-5 -2.5l-18 -2l-17 25l11 29l19 28h17l6 8q2 3 5 6.5
t7 5.5q7 3 20 -1l12 -4q2 1 5 3q2 1 5 2l6 2t6.5 0.5t6.5 -0.5q4 -1 7 -1l13 -10q3 -5 3 -12v-7l16 -12q1 2 3 3q4 2 7 3q4 0 9 -3q3 -2 5 -4q6 -3 10 -7q9 -7 15 -16l9 -7v8q0 3 1 5q2 0 6 1q2 1 5.5 1t5.5 2q5 2 6.5 8t3.5 12l2 14l2 10l11 7l15 -1l6 -16l5 -6z" />
    <glyph glyph-name="exclamdown" unicode="&#xa1;" 
d="M325 15q0 -16 -7 -24t-8 -17q-1 -4 -0.5 -7.5t-1.5 -6.5q-8 -3 -15.5 -8t-15 -9.5t-16 -7t-17.5 -1.5q-5 5 -10 6.5t-10 2.5t-10.5 3.5t-9.5 9.5q-3 2 -5.5 6t-3 9.5t3 12t12.5 13.5q-18 9 -20.5 18.5t0.5 19t8 18.5t2 18q4 28 10 51.5t29 49.5q-4 17 -8 32t-14 23
q2 5 3 11.5t4 13t9 12.5t18 12l-34 24v-11t0.5 -3t2.5 1t6 1l-2 30q1 10 6 13.5t12 4.5t15 1.5t14 3.5q7 -5 9.5 -12t2.5 -15t0.5 -17t5.5 -17q10 -2 10.5 -5.5t-2.5 -7.5t-7.5 -7l-4.5 -3q-2 -1 0 -4.5t4 -8t2 -9t-5 -8.5q-9 -17 -4 -34t10 -19l2 3q13 -11 13.5 -20
t-2.5 -17.5t-6 -18t3 -19.5q7 -10 10 -21.5t4 -23t2 -22.5t6 -20zM310 474q-3 -18 -10.5 -28.5t-25.5 -13.5q-5 -4 -12.5 -5.5t-13.5 0.5l-31 31q0 7 -1.5 11.5t-1.5 8.5t1 8.5t5 11.5q4 3 7.5 10t7 11.5t8 4.5t11.5 -11q14 8 25 5t19 -11q5 -7 6 -16t6 -17z" />
    <glyph glyph-name="cent" unicode="&#xa2;" 
d="M449 300q-10 4 -17 8t-13 12q2 8 -2 13.5t-9 10t-8 10t2 13.5q-14 9 -31.5 19t-37.5 3q-7 -6 -14.5 -2t-15 8.5t-15 5t-14.5 -11.5q-17 4 -32.5 7.5t-30.5 -8.5q-9 2 -17 -2t-14.5 -9t-13.5 -10t-14 -5q-10 -11 -10 -23.5t2.5 -25.5t3.5 -25t-8 -22q1 -10 -1.5 -21
t-4 -21.5t0 -21t10.5 -19.5v-54l30 -44q-2 -3 -4 -4.5t-1 -5.5q6 2 10 -2.5t7 -8.5t7 -5.5t10 6.5q15 3 28 1t25 -5.5t24.5 -5.5t27.5 1q7 -7 12.5 -5t11 6t11.5 7.5t14 0.5q2 7 6 7.5t8.5 0t8 0.5t4.5 7q4 -3 7.5 -1.5t6 4.5t5.5 5.5t7 1.5q2 8 2 15.5v14.5t1.5 13.5
t6.5 13.5q6 4 14 2.5t14 2.5q5 -11 8.5 -24.5t5.5 -24.5q-8 -4 -11 -12t-5 -16.5t-5 -15.5t-11 -10q-2 -13 -12.5 -14t-18.5 -6q-2 2 -4 4.5t-6 2.5q-4 -3 -2.5 -7t-0.5 -8q-7 -3 -15 -6.5t-16 1.5l-8 15q-11 -8 -27 -9t-29 -1q10 -1 16 -4q5 -2 7.5 -6t-5.5 -10l-4 -19
q-5 -6 -9 -12q-3 -5 -4.5 -11t1.5 -11q7 -5 2.5 -10t-2.5 -6l3 -1.5t5 -4t1 -4.5t-7 -3q-5 -11 -3.5 -21t-5.5 -15q-8 2 -16.5 1.5t-10.5 10.5l2 12l-1 1l17 13q-16 7 -18 14t-4 13q6 6 8.5 14.5t4.5 19.5q-6 7 -5.5 15t2 14t0.5 9.5t-10 2.5q-10 -5 -21.5 -3.5t-24 4.5
l-25 6t-23.5 1q-14 8 -28 20t-14 29q-15 6 -19 16t-4 22t0.5 25t-6.5 25q2 19 7 38t5 39q8 3 9.5 7.5t-0.5 10.5t-5.5 11.5t-5.5 9.5q-3 24 1.5 44.5t14 38t22.5 33t26 28.5q13 4 26 5t25.5 1h25t23.5 2q-1 7 -3 15.5t-2.5 17t2.5 15.5t12 12q-12 8 -10 15t4 9q5 8 11.5 8
t11.5 5q5 0 7 -1t2.5 -3.5t2 -5t6.5 -4.5q1 -2 0.5 -3.5t-0.5 -3.5q2 -5 5.5 -9.5t3.5 -12.5q-5 -10 -4 -27.5t-3 -30.5q10 3 20.5 5t21.5 -6q12 7 23 4.5t21.5 -8.5t21.5 -13t22 -8q13 -23 14 -50t10 -51z" />
    <glyph glyph-name="yen" unicode="&#xa5;" 
d="M523 309q2 -5 -2 -9.5t1 -10.5q-15 -3 -31 -9t-32 6q-8 -1 -16 0.5t-15.5 2t-14.5 -1t-14 -7.5q-19 -2 -38 1.5t-38 6.5q-2 -9 -5.5 -17.5t-10.5 -16.5q2 -7 0.5 -13t-3 -12.5t-1.5 -13.5t4 -15q16 5 31.5 7.5t29.5 -8.5q6 -3 12 0.5t11 6.5t9.5 2.5t8.5 -10.5
q6 -2 13.5 0.5t14 4t11 -0.5t5.5 -12l-4 -2q4 -4 9.5 -2t10.5 5t11 6t12 1q12 -6 17.5 -16.5t4.5 -21t-8.5 -19.5t-21.5 -11q-17 2 -35.5 1.5t-33.5 -0.5l2 5q4 -3 13 -3q3 4 2.5 8.5t-0.5 9.5q-1 3 -3.5 2.5t-4.5 -0.5q-2 -9 -4 -9.5t-4 2.5t-5 6t-7 1q4 -10 -1 -11.5
t-10 -3.5q-9 2 -17.5 3.5t-15.5 -6.5q-5 2 -11.5 -1t-12 -4.5t-9.5 0.5t-4 14q-5 4 -15 3.5t-15 -7.5q-1 -3 -4 -4q-4 -7 -2.5 -17t3.5 -20t2.5 -19.5t-6.5 -16.5l14 -52q-4 -8 -9 -10t-10 -0.5t-10.5 5t-10.5 5.5q-8 5 -4.5 21t8.5 34t5.5 33t-12.5 17q7 6 6 12.5t-3 13.5
q-1 0 -2 -1q-10 1 -23 -2t-26.5 -4.5t-25.5 0.5t-21 12q-11 -4 -23.5 -10t-23.5 5q-10 0 -20 -1.5t-18.5 -1t-15.5 4t-11 14.5q-5 4 -5.5 8.5l-1 9t-1.5 8.5t-5 8l5 5q0 -4 3 -5q5 -2 10 5q-5 5 -3.5 9.5t6.5 8.5t11 7.5t11 5.5q7 2 9.5 -0.5t4.5 -6.5t4.5 -7t9.5 -3
q8 12 16.5 10.5t17 -5.5t17 -6.5t16.5 6.5q5 -5 10.5 -3t10.5 6q14 0 32 -1.5t30 -13.5q1 9 -0.5 18t3.5 17q-3 15 -10.5 27t-21.5 17v4q-5 0 -10.5 3t-10.5 4t-9 -1t-6 -12q-12 1 -27 7t-30 9t-29 0.5t-25 -17.5l-16 2q1 1 3.5 2t0.5 3q-2 10 -6.5 8t-11.5 1q3 9 -5 12.5
t-14 7.5q0 18 13 31t27 21q13 -6 26.5 -8t27 -1.5t27.5 2.5t28 2l7 -9q9 -3 18.5 -6t19.5 -7q-9 4 -12.5 12t-5.5 17.5t-5 19t-11 15.5q-8 -1 -11 4t-4.5 11t-4 11t-10.5 4q-2 20 -10.5 30.5t-16.5 27.5h-5q5 17 -10 18q0 12 -3 22t-7.5 19.5t-8.5 19t-5 20.5l-12 9
q1 9 6.5 13t13 4t15.5 -2t14 -5l14 -10l-4 -3q11 -13 14.5 -23.5t0.5 -27.5q11 -3 14 -9t7 -15q-6 -4 -5 -7t4 -6t6 -7t0 -9q5 -2 7 -7.5l4 -11t5 -10t11 -4.5q1 -8 5.5 -13t9 -9.5t6 -10.5t-2.5 -16l-10 -23q9 4 11 0.5t2.5 -8.5t2.5 -9t10 -1q4 -5 5.5 -13t3.5 -15
t7.5 -10t18.5 2q2 10 8.5 19.5t12.5 18.5t9.5 18.5t-1.5 20.5q11 0 14.5 6.5t5 14t5 13t14.5 4.5q8 0 10.5 7.5t6.5 11.5q-3 11 -1.5 19.5t4 16t5.5 15.5t4 18q5 3 10 8.5t10 10.5q-4 6 -2.5 15.5t12.5 9.5l7 -1q4 4 6.5 10t4 12t4 11t8.5 7l24 -10q-5 -20 -8 -36.5
t-11 -36.5q-6 -1 -11.5 -4t-10.5 -7q4 -12 1.5 -19t-9 -13t-15 -11t-14.5 -12q12 -4 11.5 -16t-2.5 -21q-10 -8 -15 -18.5t-8.5 -22.5t-7.5 -24.5t-12 -22.5q-2 -1 -6 -5q8 2 12 4q4 -3 9 -1t10 4.5t10 4.5t9 0q12 -8 25.5 -10t27 -1l27 2t25.5 -2v3q14 -4 18.5 -13.5
t5.5 -23.5z" />
    <glyph glyph-name="section" unicode="&#xa7;" 
d="M424 -41q4 -6 1.5 -10.5t-6 -8.5t-5 -7.5t4.5 -8.5q-4 -8 -9.5 -14t-5.5 -15q2 -2 5 -4t3 -4q-12 -6 -23.5 -15t-23 -17t-25 -13.5t-29.5 -5.5l-5 -9q-4 2 -6.5 3t-6.5 3q-5 2 -9 2.5t-10 0.5q-14 0 -24 -5q2 0 2 2q2 4 -2 4q-5 9 -11 5t-12 -1q-6 10 -16.5 14t-20.5 8
t-17.5 9.5t-8.5 19.5l3 3q-9 4 -12.5 11t-7.5 18l10 25q-2 -2 2 -5q2 -2 2.5 0t2.5 2q-7 8 -3.5 14t8.5 13q11 3 17.5 -1.5t11 -11t8.5 -14t12 -10.5q-4 -5 -4.5 -9t-0.5 -12q11 -6 19 -15.5t18 -18.5q8 12 21 8.5t23 -8.5q5 -1 12 4t15 5q17 -2 31.5 3t21.5 22q-2 6 2 10
t10 8t12 7.5t9 8.5q2 2 4.5 4t2.5 6q-4 4 -9.5 3t-10.5 1q5 4 3.5 7t-5.5 6t-8.5 6.5t-4.5 7.5q-9 1 -12.5 6.5t-11.5 10.5q1 5 2.5 10t2.5 10t-0.5 9.5t-6.5 8.5l12 2q-2 2 -2 4v5q8 -8 17 -14.5t16 -13t10.5 -15.5t0.5 -23q8 0 9.5 -4t0.5 -9t-0.5 -10t7.5 -8zM392 367
q-6 -5 -13.5 -7.5t-15.5 -4.5q-5 7 -9.5 16.5t-10 17.5t-13.5 13t-19 2q-1 4 1.5 8t5 7.5t1.5 6.5t-8 5q0 5 2.5 9.5t0.5 9.5q-8 10 -16 8.5t-16 -5t-15 -3.5t-12 13l-32 -20l4 -4q-3 -2 -5 -4t-6 -1q-4 4 -3.5 10t-6.5 6q-8 2 -11.5 -2t-5 -9.5t-4 -10t-8.5 -4.5
q2 -5 -1.5 -11.5t-11.5 -6.5q-2 -7 1.5 -10t3.5 -11q-6 1 -9.5 -1t-5.5 -6t-3 -8.5t-4 -7.5v-16q-6 2 -10 -0.5t-9 -4.5q-2 -9 6 -13l13 8q2 -6 3 -13t4 -12q8 -7 15 -12.5t3 -16.5h7q-4 -11 1 -17.5t12 -12t13.5 -11.5t5.5 -16q1 -5 3 -5t4 1t4.5 1.5t4.5 -2.5
q14 -12 24 -27.5t30 -23.5q7 -5 10.5 -12.5t7.5 -14t9.5 -9.5t16.5 2q8 2 13 -3.5t12 -9.5q-9 -5 -8.5 -11.5t2.5 -13t1 -11t-14 -5.5q11 -7 16 -12.5t3 -16.5q-5 -1 -12.5 1t-11.5 -6q0 4 -5.5 9t-10 10.5t-5.5 11.5t6 13q-6 5 -13.5 8.5t-15 6.5t-12.5 8t-5 13
q-11 -1 -14 4.5t-4.5 12t-4.5 10.5t-15 0q4 1 2.5 4t-1.5 6q-6 -2 -8.5 1t-4 6.5t-4 6.5t-8.5 3q-4 3 -6 8.5t-5 11t-7 8t-11 -0.5l-7 15q-2 -2 -4.5 -5t-5.5 -3q5 8 3 14t-7.5 11.5l-11 11t-7.5 12.5q-2 5 -6 8.5t-8 6.5t-5.5 7.5t3.5 10.5q-14 4 -10 16q7 4 7 10.5v12.5
q-11 1 -14 7.5t-1.5 14t5 15t5.5 12.5l8 -8q5 2 7 7.5t0 10.5q-5 9 -12 4q11 2 12.5 12t-2.5 18q4 9 11.5 13.5t15 8.5t13 9t6.5 15q6 0 14.5 -6t19.5 1q-3 -11 8 -17l12 15l-2 2l19 22q-2 -7 -4 -12t4 -10q6 -6 12.5 -4t12.5 5t12.5 5t13.5 -3q1 -4 4.5 -2.5t5.5 -0.5
q2 -11 9.5 -15t14.5 -12q-8 -7 -4 -14q13 4 18.5 -3.5t10.5 -16.5l39 -20l-9 -12zM414 135q-3 -6 -6 -7.5t-6.5 -2t-6.5 -2t-6 -7.5q-6 -1 -7.5 2t-2.5 6.5t-2.5 6t-7.5 -0.5q-2 4 0.5 6.5l5.5 5.5t3.5 5.5t-3.5 6.5h27q-2 -3 -5 -4t-5 -5l10 -10q3 7 5.5 4.5t6.5 -4.5z
M453 179q-13 4 -15.5 0t-2 -10t-1 -12t-11.5 -7q-5 5 -4 10t3.5 9.5t3.5 9t-3 7.5v8q11 -2 18 7.5t12 16.5q4 0 4 -14t-4 -25zM451 296q-2 -4 -2.5 -11.5t-7.5 -5.5q-3 9 -11 11.5l-16 5t-13 7.5t-2 18q10 6 17 4t12.5 -7t11 -11.5t11.5 -10.5zM358 713q2 -6 -2.5 -11
t-10.5 -7q-5 -1 -8 2t-6.5 5.5t-7 2.5t-7.5 -7q-3 3 -2 5.5l2 5t0.5 5t-5.5 4.5q-11 -14 -23 -14.5t-23.5 1.5t-23.5 3t-23 -10q-6 0 -7.5 -2t-1 -5t1 -6.5t-2.5 -6.5q-7 -11 -13.5 -19t-1.5 -18q2 -6 2 -15t1.5 -17t5 -14.5t11.5 -9.5h8l2 -24q9 2 19 -5q-3 -11 1.5 -19
t11.5 -15.5t12 -15t3 -18.5q-4 12 -16 14.5t-22 -3.5q-3 8 -9 12.5t-10 10.5q2 3 5 3.5l6 1t4 2.5t0 7q-17 -2 -30 5t-26 15q-10 7 -11.5 16.5t-0.5 20l2 21t-3 20.5q2 10 -1 16t-1 19h5q-3 6 -0.5 11.5t7 10.5t8.5 10.5t6 11.5q15 3 26.5 9.5t22.5 19.5q6 -2 8 -5t7 -5
q17 2 32 3t30 -8q5 8 14.5 9t16.5 1q3 -3 4 -7t2.5 -7.5t3.5 -6.5t8 -3z" />
    <glyph glyph-name="dieresis" unicode="&#xa8;" 
d="M208 533q-11 1 -19 -5t-15 -12t-15.5 -9t-21.5 4q-2 8 -8 13t-12 9.5t-10.5 9t-3.5 12.5q8 3 10.5 10t4.5 13t5.5 10t13.5 1q9 15 17 16.5t16 -3t16.5 -11t18.5 -7.5q3 -6 6.5 -9.5t6.5 -7.5t4.5 -9t0.5 -14zM440 561q-3 -5 -4.5 -11.5t-3.5 -12.5t-5.5 -10t-11.5 -4
q-10 2 -18.5 -1.5t-16 -7t-15 -4t-15.5 6.5q-1 7 -5 12.5t-9 10t-9 9t-5 10.5q10 2 14.5 10.5t9 17.5t12 15t23.5 2q3 -5 9 -6l12 -2t11 -3.5t7 -9.5l-19 -14q6 -7 11 -4.5t10 6t9.5 3t8.5 -12.5z" />
    <glyph glyph-name="copyright" unicode="&#xa9;" 
d="M393 215q-8 -6 -12.5 -12t-6.5 -14q-10 -8 -17 -18t-20 -8q-4 3 -8 2.5t-8.5 -1t-10 1t-12.5 8.5q-11 -8 -19.5 -8.5t-16.5 1t-15.5 3t-14.5 -0.5q-4 1 -8 1.5t-9 -1.5q-6 4 -12.5 5.5t-10.5 4.5q-11 3 -16 13t-11 20l10 10q-11 7 -13.5 12t-2 8t2 5.5t-1.5 5.5
q2 7 4.5 18t-7.5 22q0 5 3 9.5t5 11.5l8 8q-8 10 -14.5 11.5t-4.5 4.5q11 8 9.5 15.5t-4.5 14.5l6 28q17 14 35 26.5t39 7.5q5 -1 11 2t15 -3q11 4 14.5 5t6.5 0q7 -5 14 -2t13 2q10 -2 21.5 -2.5t25.5 -11.5h1q5 -10 16 -19.5t15 -26.5q10 -10 2.5 -17.5t-15.5 -14.5
q-3 2 -4.5 5.5t-3.5 5.5q-5 6 -15 11.5t-10 22.5q-16 5 -26 9.5t-22 6.5q-10 -10 -12 -11.5t-3 -1.5l2 7q1 1 -3.5 4.5t-15.5 1.5q-5 -2 -13.5 -6t-22.5 3q-15 -12 -21 -19t2 -17l-4 -3q-5 0 -5 3q-1 1 0 3q-1 -2 -2 -1t-1 13l-5 -12q-14 -5 -15 -11.5t2 -15t6 -18t-4 -19.5
q7 -14 8 -28t1 -26t3 -21t15 -14q9 -12 32 -15q6 3 10 -1.5t-10 -4.5q-3 -5 6 -4.5t11 5.5q7 3 15 3t15.5 -0.5t15.5 0t15 6.5q13 -3 22.5 7.5t26.5 31.5q-14 0 -15 -0.5t10 12.5h3l0.5 0.5t2 1.5t7.5 4q3 -4 6 -8.5t3 -13.5q6 -5 6 -11t1 -12zM504 143q3 23 1 34t-5 19
q6 6 5 12t-5.5 12t-11 12.5t-10.5 14.5q3 2 7.5 5.5t12.5 5.5q-3 20 -7.5 33t-12.5 25l1 2q15 17 17 36.5t-7 39.5q0 7 -3.5 15.5t-6.5 19t-4 23t4 28.5q-17 0 -34 8t-28 16q3 10 -5 21q-43 2 -84 2.5t-71 -2.5q-10 3 -17 -2t-13 -10t-13 -6.5t-17 8.5q-20 15 -32 11.5
t-22 -14t-21 -22.5t-30 -16q-5 -11 -11 -22.5t-11 -24.5t-7.5 -26.5t-0.5 -28.5q-1 -6 0 -19t6 -27q-4 1 -16 1l7 -44q3 -7 2 -13.5t-4 -14t-5.5 -15t-1.5 -15.5q0 -6 2 -3.5t4 7t4 8t4 -1t3 -20.5t1 -49q10 -41 36.5 -68t80.5 -41q1 12 6.5 17.5t12.5 7t14.5 0t14.5 -4.5
q10 -16 19.5 -13.5t20 10t22.5 12t26 -8.5q13 -13 28.5 -11.5t33 7.5t38 11.5t44.5 0.5v20l1 6t4.5 13t11 13t22.5 6zM536 152q-9 -12 -14.5 -27t-25.5 -26q-3 -14 -7.5 -22.5t-10.5 -15.5q-6 1 -11.5 -1t-12.5 -4t-15 -3t-19 2q-8 -11 -15 -20.5t-15 -3.5q-12 5 -25.5 5.5
t-28 -0.5t-29.5 -2.5t-28 -0.5q-19 7 -36.5 2t-34.5 -9.5t-34 -2.5t-35 23q-24 4 -40.5 16.5t-29 29t-23.5 33.5t-25 31q2 13 4.5 29.5t-7.5 27.5q3 1 8 1.5t10 8.5q-6 12 -8 20t-5 15q3 5 8 11t15 12q-15 11 -18.5 22t-2.5 20.5t2.5 19t-3.5 17.5q0 12 -2 23.5t-3.5 23.5
t-0.5 23t8 22q13 11 24.5 24.5t23.5 26.5t25.5 24t31.5 18l8 -7q12 2 23.5 6t22.5 6.5t22 0.5t22 -12q16 10 31.5 9.5t30.5 -3.5t28.5 -3.5t25.5 9.5q16 -5 31.5 -6.5l31 -3t30.5 -5.5t29 -13q23 -17 36 -38.5t19 -45.5t6.5 -49t-1.5 -49q-2 -4 -2.5 -9t-3 -11t-8 -13
t-17.5 -16q17 -3 25 -7t11 -9t2 -10.5t-2 -10.5q-8 -11 -8.5 -21.5t2 -22.5t5.5 -25.5t0 -29.5z" />
    <glyph glyph-name="registered" unicode="&#xae;" 
d="M370 333q0 19 -5 29.5t-7 26.5q-3 9 -8.5 13.5t-13.5 6.5t-17 3t-18 4q-10 -8 -18 -5t-20 1q-5 -8 -10.5 -8t-11 2t-11.5 3.5t-11 -4.5q-5 -2 -8.5 -0.5t-8.5 -1.5q-2 -9 -4 -15.5t5 -11.5q0 -2 -0.5 -5.5t-5.5 -8.5q7 -17 6.5 -30.5t5.5 -31.5q19 2 30.5 -2t23.5 0
q11 -5 23 -1.5t30 -0.5q4 7 7 8.5t7 0.5l8 -2t10 1q3 11 8 16t14 13zM400 172q6 -2 3 -4t-7.5 -3.5l-7.5 -2.5t3 -2v-5q-1 0 -13 1t-21 3q-5 9 -5.5 10t-8.5 8q0 10 -1 9t-9 1l-13 21q4 1 1.5 2t-3.5 8q-8 5 -10.5 10l-3.5 7q-5 5 -6 11t-3 12t-6 11t-15 8q-6 -8 -9.5 -10.5
t-5 -2t-1.5 3v4.5q-9 -1 -18 -4t-23 7q-7 -7 -9 -8t-4 -4q-2 -9 2 -13.5t-2 -12.5q2 -16 4 -22.5t-4 -22.5q2 -8 1 -13t-3.5 -8.5t-4.5 -5.5t-2 -4l-1 -1l2 -4q-15 -6 -22.5 0.5t-10.5 14.5q2 2 3.5 4.5t1.5 4.5q4 12 5 20t-1 21q4 8 6 17t5 22l-6 4q1 4 0.5 10.5t-1 14
t0.5 16.5t6 18q-5 15 -11.5 23t-1.5 22l4 10q2 13 0.5 14.5t-9.5 11.5q-2 10 4.5 15t8.5 13q11 6 21.5 6t21.5 3q14 -2 32.5 -5.5t35.5 4.5q14 -5 28 -5t29 -6q10 2 14 -4t9 -13q0 -21 16 -24q5 -7 5 -12t-1 -9.5l-2 -9t2 -11.5q2 -9 1 -18.5t-3 -17.5q-5 -3 -10 -8t-13 -10
t-21.5 -10t-35.5 -8q13 -7 18 -9.5t5.5 -3.5t-1.5 -1t-2 -1q0 -8 4.5 -11t9.5 -11q14 -7 19 -15.5t8 -12.5q-1 -4 1 -5.5l4 -3t4 -5t1 -10.5q8 -8 13.5 -10t8.5 -3zM509 340q-8 1 -5 8.5t3 15.5q-17 11 -17 28t2 31q-2 6 -13.5 8t-19.5 3t-6 2.5t27 5.5q-16 12 -26.5 19.5
t-15.5 13.5t-6 12.5t3 16.5q-11 11 -24.5 14.5t-27 2.5t-26.5 -4t-22 -5q-9 9 -20 11t-21.5 -0.5t-20.5 -6.5t-18 -5q-10 13 -20.5 12.5t-22 -3.5t-24 -4.5t-27.5 10.5q-23 -2 -30.5 -9.5t-12 -15.5t-11.5 -14.5t-29 -6.5q2 -11 1 -20q-1 -8 -3.5 -14t-8.5 -6q-3 0 -6.5 -1
t-3.5 4q-2 -2 -1 -6t3.5 -9.5t4 -11.5t0.5 -11q-2 -8 -9 -11.5t-8 -11.5q0 -3 2 -6l4 -6t2.5 -5t-3.5 -2q0 -2 -3.5 -5.5t-7.5 -9t-8 -12t-5 -13.5q-5 -5 -4 -5.5t5 -1.5t7.5 -5t3.5 -16q11 -10 13 -20t4 -18q-14 -3 -15 -15t2.5 -27.5t7.5 -32.5t0 -29q2 -6 8 -7.5t11.5 -2
t7 -3t-5.5 -9.5q1 -21 11.5 -27t24 -7.5t26.5 -1.5t19 -9q10 -11 20.5 -12t20.5 1t19.5 3t18.5 -5q12 -6 19 -6t13 5q6 -4 13.5 -2.5t15 4t15.5 3.5t16 -3q15 -10 29 -8t28.5 7.5t30.5 11.5t36 5q7 4 14 10q6 5 13 13t12 19q7 12 10 24.5t-6 21.5q-8 7 -6 18t7.5 23t10 23
t3.5 19q-2 11 -3.5 22.5t-7.5 20.5q5 5 11 5zM537 348q4 -6 3 -11t-3 -10.5t-4 -10.5t0 -11q-3 -8 -0.5 -17t4 -19t0 -21.5t-11.5 -24.5q10 -11 10.5 -19t-1.5 -14.5t-3.5 -12.5t5.5 -13q2 -8 -0.5 -15.5t-19.5 -8.5q-5 -32 -19 -47t-28 -31q-5 -5 -12.5 -6.5t-16.5 -2.5
t-18.5 -2t-18.5 -4q-11 -18 -22 -18.5t-22.5 4.5t-23.5 9t-24 -4q-32 6 -68.5 8t-63.5 -12q-3 1 -9 -1q-10 12 -27 17t-32 7q-11 -5 -16 3.5t-5 9.5q0 3 -5.5 2.5t-12 0.5t-10.5 5t0 18q-17 8 -28.5 12.5t-16.5 13.5q3 14 -0.5 28t-6 28.5t0 29t17.5 28.5q-8 15 -9.5 28
t-1 24.5t2 22.5t-1.5 23q2 5 1 10t-2 10.5t0 11.5t7 13q-8 12 -9.5 22t1 19t7 17t7.5 15q8 9 11 23.5t9 26.5q6 13 16.5 19t22.5 9t24.5 5.5t21.5 10.5q12 -5 24 0t24 9.5t24.5 3t26.5 -19.5q16 13 30.5 14.5t27.5 0t25 -1.5t24 12q10 4 17 1.5t13.5 -6t12.5 -5.5t14 3
q12 -3 22.5 -9t20.5 -13t20 -12.5t22 -7.5q8 -6 11.5 -15.5t-4.5 -27.5q14 -7 20 -22t9.5 -33t6.5 -36.5t11 -32.5z" />
    <glyph glyph-name="degree" unicode="&#xb0;" 
d="M449 300q-10 4 -17 8t-13 12q2 8 -2 13.5t-9 10t-8 10t2 13.5q-14 9 -31.5 19t-37.5 3q-7 -6 -14.5 -2t-15 8.5t-15 5t-14.5 -11.5q-17 4 -32.5 7.5t-30.5 -8.5q-9 2 -17 -2t-14.5 -9t-13.5 -10t-14 -5q-10 -11 -10 -23.5t2.5 -25.5t3.5 -25t-8 -22q1 -10 -1.5 -21
t-4 -21.5t0 -21t10.5 -19.5v-54l30 -44q-2 -3 -4 -4.5t-1 -5.5q6 2 10 -2.5t7 -8.5t7 -5.5t10 6.5q15 3 28 1t25 -5.5t24.5 -5.5t27.5 1q7 -7 12.5 -5t11 6t11.5 7.5t14 0.5q2 7 6 7.5t8.5 0t8 0.5t4.5 7q4 -3 7.5 -1.5t6 4.5t5.5 5.5t7 1.5q2 8 2 15.5v14.5t1.5 13.5
t6.5 13.5q6 4 14 2.5t14 2.5q5 -11 8.5 -24.5t5.5 -24.5q-8 -4 -11 -12t-5 -16.5t-5 -15.5t-11 -10q-2 -13 -12.5 -14t-18.5 -6q-2 2 -4 4.5t-6 2.5q-4 -3 -2.5 -7t-0.5 -8q-7 -3 -15 -6.5t-16 1.5l-8 15q-11 -8 -27 -9t-29 -1q-5 2 -3 1.5t5 -3t3 -5t-9 -3.5q0 -3 -2 0.5
t-4.5 8t-5 8t-3.5 2.5l2 -23l16 -17l8 -75l30 -5l2 -3l2 -15h12l3 -3l10 -9v-18l2 -11l5 -10l1 -11l4 -24l-4 -4l-10 -10l4 -12l-2 -6l-4 -20l-14 -15l-30 3l-8 -18l-21 -2l-12 -8l-13 -10l-14 2l-20 16l-5 -18h-4l-4 4l-1 13l-14 19l-3 7l-3 23l2 9h7l9 26v-3l9 -1l24 -1
l13 4l5 -1l1 -4l10 -26l19 8l14 9l8 18l26 23l-23 26l-7 -3l-4 9l-14 9l-13 1l-21 -8l-5 5l-20 21l-12 -9l-8 7l2 14h1l12 5l27 16l-11 18l12 8v30l1 13l9 26q-5 -2 -11.5 -1t-14.5 3q-11 -3 -19.5 -1.5t-17 5t-17 6t-19.5 0.5q-14 8 -28 20t-14 29q-15 6 -19 16t-4 22
t0.5 25t-6.5 25q2 19 7 38t5 39q8 3 9.5 7.5t-0.5 10.5t-5.5 11.5t-5.5 9.5q-3 24 1.5 44.5t14 38t22.5 33t26 28.5q13 4 27 5t28 1h27t25 4q9 -11 19 -10.5t20 4t20.5 5.5t21.5 -6q12 7 23 4.5t21.5 -8.5t21.5 -13t22 -8q13 -23 14 -50t10 -51z" />
    <glyph glyph-name="acute" unicode="&#xb4;" 
d="M410 596q10 -14 6 -33.5t-18 -30.5q-5 -2 -9.5 2t-9 7.5t-9 3.5t-8.5 -8q-2 -6 -1.5 -11.5t0 -10t-3 -8t-10.5 -4.5q-4 -1 -8 1t-7.5 3t-7 -0.5t-6.5 -7.5q5 -1 3.5 -4t0.5 -6q-6 4 -10.5 2t-8.5 -6.5t-7.5 -9.5t-7.5 -8q3 -2 2 -6q-2 0 -2.5 -2t-2.5 0q-3 5 -2.5 10.5
t1 10t-2 7t-12.5 1.5q3 16 14 28l7 -3l66 64q5 -2 11.5 -3.5t8.5 -6.5q5 3 7 10t4.5 12.5t7.5 8t15 -1.5z" />
    <glyph glyph-name="periodcentered" unicode="&#xb7;" 
d="M335 377q4 -7 3 -12.5t-4 -11t-6.5 -10t-4.5 -9.5q-9 -1 -15.5 -6t-12.5 -11t-13 -10t-17 -2q-2 9 -6 17.5t-12 16.5q-9 -3 -16 3.5t-11 12.5q6 13 13 26t12 24q8 -3 12.5 0.5t8.5 8.5t9 8t14 -1q5 -9 16 -11.5t20.5 -5t13.5 -8t-4 -19.5z" />
    <glyph glyph-name="periodcentered" unicode="&#x2219;" 
d="M335 377q4 -7 3 -12.5t-4 -11t-6.5 -10t-4.5 -9.5q-9 -1 -15.5 -6t-12.5 -11t-13 -10t-17 -2q-2 9 -6 17.5t-12 16.5q-9 -3 -16 3.5t-11 12.5q6 13 13 26t12 24q8 -3 12.5 0.5t8.5 8.5t9 8t14 -1q5 -9 16 -11.5t20.5 -5t13.5 -8t-4 -19.5z" />
    <glyph glyph-name="cedilla" unicode="&#xb8;" 
d="M372 -84q-4 -20 -15 -34.5t-17 -32.5q-13 -9 -28.5 -10t-32 0t-32.5 1.5t-29 -6.5q-3 1 -4.5 5t-2.5 7.5t-3 5.5t-7 1q3 4 1.5 8t-4.5 7.5t-5 7t-1 8.5q-5 2 -8.5 7.5t-11.5 1.5q-2 7 0.5 10.5t7 5.5t9 3.5t7.5 4.5q8 -5 13.5 -3t10.5 6t10.5 6.5t13.5 -1.5
q5 -11 13.5 -21.5t20.5 -11.5q2 3 3 5t6 4q-2 -4 0.5 -6t3.5 -3q5 2 6.5 6.5t1 9.5t-0.5 10.5t2 10.5q-3 4 -7 3t-8 -3t-8 -2t-5 7q1 1 4.5 11t5.5 12q-11 -3 -16.5 1.5t-10 11.5t-10 12.5t-15.5 5.5l-2 11q0 14 6.5 14t12.5 4q10 7 18 10.5t19 1.5q5 -1 8.5 -2t5.5 -5
q2 -2 1 -5t1 -5q2 -4 6 -1t8 7t8.5 7t7.5 0q6 -5 8.5 -8t-7.5 -19q6 -11 10.5 -27.5t12.5 -27.5q-2 -7 -2.5 -12.5t-0.5 -13.5q5 5 9.5 1t11.5 -2z" />
    <glyph glyph-name="onequarter" unicode="&#xbc;" 
d="M332 -184l9 7v-5zM309 237q-5 -3 -3 -7t2 -7q-8 -2 -10 -7t-3 -11t-2.5 -11t-8.5 -7q1 -5 -0.5 -8t-4 -5t-4.5 -5t0 -8q-18 -7 -27.5 -21t-15.5 -29q-13 -5 -18.5 -18t-10.5 -24q1 -10 -4.5 -17t-11.5 -14t-10.5 -15t0.5 -19q-8 0 -16 -3.5t-9 -11.5q-2 1 -3 -1t-2 -3
q4 -5 1 -9.5t-7 -8.5q2 -8 -2.5 -15.5t-3.5 -14.5q11 -6 18 -13.5t19 -10.5l5 7q6 -2 12.5 -7.5t11.5 2.5q0 -3 1 -2t3.5 2.5t4.5 1.5t3 -4q5 10 12 11t14.5 -1.5t15.5 -5.5t16 0q4 -8 13 -6q-3 -4 -0.5 -7t4.5 -7q-14 -5 -30 -11t-30 2q-3 5 -6.5 5t-7 -1.5t-7.5 -3.5t-8 0
l-4 -6q-9 9 -19.5 9.5t-21.5 -0.5t-22 -0.5t-21 10.5q-5 10 -9 19.5t-2 23.5q7 4 9.5 13t4.5 17t6 12.5t15 -1.5q2 1 2 6q-1 3 -2.5 3t-3 -0.5t-3.5 -1t-3 2.5q0 9 3.5 15t8.5 11.5t10.5 10.5t8.5 12q7 4 9.5 10.5t4 13.5t3.5 14t8 12q0 8 4.5 12t10 7t9.5 7.5t4 13.5
q1 3 2.5 2.5l3 -1t2.5 0t3 3.5q-7 6 -5.5 10t6 8t9 8.5t3.5 10.5q5 4 12.5 7.5t5.5 12.5v6q8 4 10.5 15t13.5 16q5 -2 8.5 2t7.5 7t8 3t10 -8zM383 -118q-5 0 -10 2.5t-9.5 4t-9 0.5t-8.5 -7q-5 -5 -4 -8.5t0 -10.5q-3 -3 -3 1q-5 -3 -3.5 -7t6.5 -6q-7 -7 -5 -13t-5 -14
q-3 2 -6 3t-5 4q1 3 3 5.5t0 6.5q-5 2 -5 5.5t1 7t1.5 8t-2.5 7.5q-4 3 -9.5 5.5t-10 5t-7 6.5t-1.5 12q-2 3 0 5t4 3.5t2.5 3t-3.5 3.5q2 7 8 14.5t11 15.5t6.5 16.5t-6.5 19.5q2 6 1 14.5t-2 16t-0.5 13.5t5.5 8q2 5 3.5 12.5t-1.5 12.5q-4 2 -5 3.5t-5 4.5q6 4 5.5 8
t-2.5 8.5t-3.5 8.5t3.5 8q7 5 7.5 12t0.5 12t3.5 7t15.5 -3q8 -5 9 -11.5t-1 -13.5t-3.5 -14t1.5 -12q-3 -9 0 -21t-4 -19q6 -7 6 -12.5t-2 -11t-3.5 -11t0.5 -12.5q-5 -7 -3 -14.5t4.5 -15t2 -14t-11.5 -12.5v-10q15 2 32.5 0t31.5 -3q2 -5 5.5 -11t-1.5 -13zM90 307
q-8 -5 -6 -8.5t5 -6.5t4 -6t-8 -7q-24 8 -34 27q8 6 19.5 7t19.5 -6zM129 306q-3 -5 -4 -10t-5 -9q-5 -2 -8 1l-7 7q2 10 9.5 8.5t14.5 2.5zM201 302q0 -9 -7.5 -12t-12.5 -8q-5 -2 -12 0.5t-12 6.5v23q13 4 23 -1.5t21 -8.5zM227 306q-3 -3 -4.5 -5t-6.5 0l-3 1zM242 289
q-11 0 -8.5 7t1.5 10l7 5q-3 -3 -2.5 -6t2 -5.5t2.5 -5t-2 -5.5zM186 388q0 7 -3 7t-6.5 -2t-6 -4.5t-1.5 -0.5h17zM350 301q-8 12 -16.5 11.5t-17 -4.5t-17.5 -7t-18 5q-2 -3 -2 -8t-1 -9t-3 -6t-6 1q4 1 9 0t8 3q7 9 12.5 9.5t11 -2.5t11.5 -7t14 -3q15 1 15 17zM252 385
q-9 4 -18.5 -2t-20.5 -6q-5 6 0.5 13.5t2.5 9.5q4 -4 12 -2.5t14.5 2.5t10 -1t-0.5 -14zM465 306q2 -14 -6.5 -17t-15.5 -10q-11 -5 -15.5 0t-7.5 11t-7.5 8.5t-15.5 -6.5q3 -2 2.5 -4t-0.5 -4q-3 -4 -6 -3t-6 3.5t-6.5 4t-6.5 -1.5l-7 14q6 -2 11 0t9.5 4.5t9.5 2.5t11 -6
q12 4 27.5 8t29.5 -4zM389 388q-4 -7 -9 -8t-10.5 0.5t-11.5 2.5t-10 -1q-8 4 -14 -2t-14 -8q0 4 1.5 5t3.5 3q-4 6 -11.5 9.5t-14.5 -1.5q-2 -2 -2.5 -4.5t-2.5 -6.5q0 7 -5 11t-9.5 7.5t-6.5 7.5t3 11q11 6 16.5 -1t10 -14.5t10 -9.5t17.5 15q7 1 14.5 -1.5t15 -6.5
t15 -6.5t14.5 -1.5zM286 493q-3 0 -4.5 -1.5t-5.5 0.5v1h10zM309 747q-5 -2 -8 -6t-7 -8q11 -7 15 -17t3 -21t-5 -22t-8 -19q11 -8 10 -17t-3 -17q-6 -2 -3 -6.5t3 -8.5q-2 -9 -6 -19.5t4 -19.5q6 -6 5 -12.5t-4.5 -13t-6 -14t0.5 -14.5q-2 -2 -4 -4.5t-6 -0.5q-2 8 -6 16
t-7 15.5t-4.5 15.5t2.5 17l10 19q-8 2 -10 9t-1.5 15.5t1.5 17.5t0 17q4 6 2.5 10t-4 8.5t-3 9.5t6.5 11q-7 4 -9 11t-3.5 14.5t-5 14t-13.5 9.5q-8 0 -15.5 -2t-14 -3t-11.5 2.5t-8 15.5q1 14 8.5 16t17.5 0.5t20.5 -2t17.5 7.5q17 0 28 -7.5t21 -17.5z" />
    <glyph glyph-name="onehalf" unicode="&#xbd;" 
d="M198 -137q-11 -4 -15 -13t-10 -18l-21 5q-1 9 1 19.5t6 19.5q5 0 8 3l6 6t6 5t9 0q1 -8 8.5 -13.5t1.5 -13.5zM227 -158q1 -5 -4.5 -6t-9.5 -4q-13 4 -10 15q5 8 12 3t12 -8zM232 -90q0 -8 -6 -13t-13 -7q0 5 -4 11.5t4 10.5zM279 -158q-5 7 2.5 10t7.5 -5zM345 -149
q-4 -5 -6.5 -11t-8.5 -11q-3 3 -7.5 3h-9t-7 1.5t-0.5 8.5q11 5 19.5 10t19.5 -1zM379 -171l-17 13q5 5 12.5 4t12.5 -9zM294 -36q-1 -4 -4.5 -6.5t-5.5 -6.5l-8 10q4 4 10.5 7.5t7.5 -4.5zM348 -7q0 -5 -7 -7t-11 -7q-8 0 -6 7t1 9q6 1 12.5 4t10.5 -6zM198 169
q-5 -3 -7 -9t-4 -11t-6.5 -6.5t-13.5 4.5q-4 9 -1.5 12t7 4.5t10 3t8.5 7.5zM90 307q-8 -5 -6 -8.5t5 -6.5t4 -6t-8 -7q-24 8 -34 27q8 6 19.5 7t19.5 -6zM213 174q-9 4 -6 10t1 15l24 -10zM129 306q-3 -5 -4 -10t-5 -9q-5 -2 -8 1l-7 7q2 10 9.5 8.5t14.5 2.5zM402 32
q-8 -5 -15 -13t-18 -6q-3 5 -1 8.5t5 6t4.5 6t-3.5 8.5q4 0 5.5 2.5t4.5 4.5q2 8 -4 9t-8 6q6 4 7.5 11t2.5 13.5t4 10.5t13 2q13 -6 16 -14t1 -17.5t-7 -19.5t-7 -18zM306 196q-6 -3 -11 -8t-14 -2q-3 10 -13.5 8.5t-18.5 -4t-11 -1t9 18.5q5 -2 9.5 0t9 3.5t9 1.5t9.5 -4
q2 2 5 4.5t7 4.5l8 -9q-4 -2 -2 -6.5t4 -6.5zM201 302q0 -9 -7.5 -12t-12.5 -8q-5 -2 -12 0.5t-12 6.5v23q13 4 23 -1.5t21 -8.5zM227 306q-3 -3 -4.5 -5t-6.5 0l-3 1zM399 116q2 3 -0.5 6.5l-5 7t-2 6.5t7.5 4q9 1 10 -2.5t-1.5 -8t-6 -8.5t-2.5 -5zM328 214q-9 -9 -15 -6
q0 5 5 6.5t10 -0.5zM392 145q-9 1 -14.5 7t-11.5 12.5t-13 11.5t-18 5l-10 -2l-7 17l25 8q4 -3 4.5 -9t0.5 -11.5t2.5 -8.5t11.5 0l2 4l-5 5q4 2 8 4.5t10 0.5q3 -5 9 -10.5t10 -11t4 -11t-8 -11.5zM242 289q-11 0 -8.5 7t1.5 10l7 5q-3 -3 -2.5 -6t2 -5.5t2.5 -5t-2 -5.5z
M186 388q0 7 -3 7t-6.5 -2t-6 -4.5t-1.5 -0.5h17zM350 301q-8 12 -16.5 11.5t-17 -4.5t-17.5 -7t-18 5q-2 -3 -2 -8t-1 -9t-3 -6t-6 1q4 1 9 0t8 3q7 9 12.5 9.5t11 -2.5t11.5 -7t14 -3q15 1 15 17zM252 385q-9 4 -18.5 -2t-20.5 -6q-5 6 0.5 13.5t2.5 9.5q4 -4 12 -2.5
t14.5 2.5t10 -1t-0.5 -14zM465 306q2 -14 -6.5 -17t-15.5 -10q-11 -5 -15.5 0t-7.5 11t-7.5 8.5t-15.5 -6.5q3 -2 2.5 -4t-0.5 -4q-3 -4 -6 -3t-6 3.5t-6.5 4t-6.5 -1.5l-7 14q6 -2 11 0t9.5 4.5t9.5 2.5t11 -6q12 4 27.5 8t29.5 -4zM389 388q-4 -7 -9 -8t-10.5 0.5
t-11.5 2.5t-10 -1q-8 4 -14 -2t-14 -8q0 4 1.5 5t3.5 3q-4 6 -11.5 9.5t-14.5 -1.5q-2 -2 -2.5 -4.5t-2.5 -6.5q0 7 -5 11t-9.5 7.5t-6.5 7.5t3 11q11 6 16.5 -1t10 -14.5t10 -9.5t17.5 15q7 1 14.5 -1.5t15 -6.5t15 -6.5t14.5 -1.5zM286 493q-3 0 -4.5 -1.5t-5.5 0.5v1h10z
M309 747q-5 -2 -8 -6t-7 -8q11 -7 15 -17t3 -21t-5 -22t-8 -19q11 -8 10 -17t-3 -17q-6 -2 -3 -6.5t3 -8.5q-2 -9 -6 -19.5t4 -19.5q6 -6 5 -12.5t-4.5 -13t-6 -14t0.5 -14.5q-2 -2 -4 -4.5t-6 -0.5q-2 8 -6 16t-7 15.5t-4.5 15.5t2.5 17l10 19q-8 2 -10 9t-1.5 15.5
t1.5 17.5t0 17q4 6 2.5 10t-4 8.5t-3 9.5t6.5 11q-7 4 -9 11t-3.5 14.5t-5 14t-13.5 9.5q-8 0 -15.5 -2t-14 -3t-11.5 2.5t-8 15.5q1 14 8.5 16t17.5 0.5t20.5 -2t17.5 7.5q17 0 28 -7.5t21 -17.5z" />
    <glyph glyph-name="threequarters" unicode="&#xbe;" 
d="M332 -184l9 7v-5zM309 237q-5 -3 -3 -7t2 -7q-8 -2 -10 -7t-3 -11t-2.5 -11t-8.5 -7q1 -5 -0.5 -8t-4 -5t-4.5 -5t0 -8q-18 -7 -27.5 -21t-15.5 -29q-13 -5 -18.5 -18t-10.5 -24q1 -10 -4.5 -17t-11.5 -14t-10.5 -15t0.5 -19q-8 0 -16 -3.5t-9 -11.5q-2 1 -3 -1t-2 -3
q4 -5 1 -9.5t-7 -8.5q2 -8 -2.5 -15.5t-3.5 -14.5q11 -6 18 -13.5t19 -10.5l5 7q6 -2 12.5 -7.5t11.5 2.5q0 -3 1 -2t3.5 2.5t4.5 1.5t3 -4q5 10 12 11t14.5 -1.5t15.5 -5.5t16 0q4 -8 13 -6q-3 -4 -0.5 -7t4.5 -7q-14 -5 -30 -11t-30 2q-3 5 -6.5 5t-7 -1.5t-7.5 -3.5t-8 0
l-4 -6q-9 9 -19.5 9.5t-21.5 -0.5t-22 -0.5t-21 10.5q-5 10 -9 19.5t-2 23.5q7 4 9.5 13t4.5 17t6 12.5t15 -1.5q2 1 2 6q-1 3 -2.5 3t-3 -0.5t-3.5 -1t-3 2.5q0 9 3.5 15t8.5 11.5t10.5 10.5t8.5 12q7 4 9.5 10.5t4 13.5t3.5 14t8 12q0 8 4.5 12t10 7t9.5 7.5t4 13.5
q1 3 2.5 2.5l3 -1t2.5 0t3 3.5q-7 6 -5.5 10t6 8t9 8.5t3.5 10.5q5 4 12.5 7.5t5.5 12.5v6q8 4 10.5 15t13.5 16q5 -2 8.5 2t7.5 7t8 3t10 -8zM383 -118q-5 0 -10 2.5t-9.5 4t-9 0.5t-8.5 -7q-5 -5 -4 -8.5t0 -10.5q-3 -3 -3 1q-5 -3 -3.5 -7t6.5 -6q-7 -7 -5 -13t-5 -14
q-3 2 -6 3t-5 4q1 3 3 5.5t0 6.5q-5 2 -5 5.5t1 7t1.5 8t-2.5 7.5q-4 3 -9.5 5.5t-10 5t-7 6.5t-1.5 12q-2 3 0 5t4 3.5t2.5 3t-3.5 3.5q2 7 8 14.5t11 15.5t6.5 16.5t-6.5 19.5q2 6 1 14.5t-2 16t-0.5 13.5t5.5 8q2 5 3.5 12.5t-1.5 12.5q-4 2 -5 3.5t-5 4.5q6 4 5.5 8
t-2.5 8.5t-3.5 8.5t3.5 8q7 5 7.5 12t0.5 12t3.5 7t15.5 -3q8 -5 9 -11.5t-1 -13.5t-3.5 -14t1.5 -12q-3 -9 0 -21t-4 -19q6 -7 6 -12.5t-2 -11t-3.5 -11t0.5 -12.5q-5 -7 -3 -14.5t4.5 -15t2 -14t-11.5 -12.5v-10q15 2 32.5 0t31.5 -3q2 -5 5.5 -11t-1.5 -13zM90 307
q-8 -5 -6 -8.5t5 -6.5t4 -6t-8 -7q-24 8 -34 27q8 6 19.5 7t19.5 -6zM129 306q-3 -5 -4 -10t-5 -9q-5 -2 -8 1l-7 7q2 10 9.5 8.5t14.5 2.5zM201 302q0 -9 -7.5 -12t-12.5 -8q-5 -2 -12 0.5t-12 6.5v23q13 4 23 -1.5t21 -8.5zM227 306q-3 -3 -4.5 -5t-6.5 0l-3 1zM242 289
q-11 0 -8.5 7t1.5 10l7 5q-3 -3 -2.5 -6t2 -5.5t2.5 -5t-2 -5.5zM171 387q0 3 -2 3t-2.5 -1t-2.5 -2q-4 4 -4 11t-8 9l-7 -3q-2 6 -4.5 11.5t-7.5 8.5q1 2 1 8q-1 2 2 5t2 4q-1 5 -1 6.5t0.5 2t0.5 1t-2 4.5q9 7 15 0.5t11 -10.5q5 -6 4.5 -13t-1.5 -13.5t0.5 -12t9.5 -8.5z
M350 301q-8 12 -16.5 11.5t-17 -4.5t-17.5 -7t-18 5q-2 -3 -2 -8t-1 -9t-3 -6t-6 1q4 1 9 0t8 3q7 9 12.5 9.5t11 -2.5t11.5 -7t14 -3q15 1 15 17zM295 372q-10 3 -21 0t-22 -3q-5 -3 -11 0t-12 6.5t-12 4.5t-12 -8l-18 6q-5 6 -4 13.5t0 12.5q4 0 8 1.5t9 3.5l5.5 -5.5
t1.5 -8.5l11 -1q-4 -3 -2 -6.5t3 -5.5q3 2 5.5 6t5.5 7t7.5 4.5t10.5 -1.5q6 -5 12.5 -4.5t13.5 1.5q2 9 6.5 6t11.5 -1q0 -2 2 -3t2 -3q2 -6 -3.5 -7.5t-3.5 -6.5l10 5zM465 306q2 -14 -6.5 -17t-15.5 -10q-11 -5 -15.5 0t-7.5 11t-7.5 8.5t-15.5 -6.5q3 -2 2.5 -4t-0.5 -4
q-3 -4 -6 -3t-6 3.5t-6.5 4t-6.5 -1.5l-7 14q6 -2 11 0t9.5 4.5t9.5 2.5t11 -6q12 4 27.5 8t29.5 -4zM378 476q3 -8 0 -14t-7 -12t-6.5 -11.5t0.5 -12.5l-5 -28h3q0 -5 -4 -6.5t-8 -3.5h-11l-3 10q-2 5 -3.5 2.5t-3.5 -2.5q-2 -7 3 -10q-2 1 -5.5 0t-7 -1.5t-6.5 0.5t-6 7
q4 6 10.5 8.5l13 5t11 7t4.5 13.5l-7 2q4 3 3.5 6l-1 6t-0.5 6t5 5q-7 4 -6.5 8.5t2.5 9.5l-6 26q3 4 9 2.5t4 4.5q-6 -1 -6 6t-3 12q-1 2 0.5 4.5t3 5.5t1.5 5.5t-5 4.5q1 12 -4.5 23.5t-15.5 16.5q-14 14 -32.5 13.5t-37.5 -4.5q-8 5 -7 14.5t3 14.5q2 3 6 4t5 6l-6 6
q6 0 8 2.5t3.5 6t4 6.5t9.5 4q-2 10 4.5 14.5t10.5 10.5q2 0 3.5 -1t5.5 1q0 11 7 23.5t8 27.5q-1 2 -1.5 5.5t-3.5 3.5q1 4 -1 6t-3 7q-5 0 -7.5 -2t-4.5 -5t-4.5 -5.5t-7.5 -1.5q0 9 -3 10q-3 0 -5.5 -2t-6.5 0l-1 7q-3 -4 -6 -4.5t-6 0t-5 -0.5t-3 -6q-6 7 -14 6
t-16.5 -3.5t-16 -2t-12.5 10.5q-5 -1 -8 -6.5t-6 -7.5q-8 -3 -8.5 -8.5t0.5 -12.5t0.5 -12.5t-8.5 -8.5q-1 -2 -0.5 -3.5t-1.5 -3.5l-11 8l-2 -1q0 4 -2.5 9t-4 9t-0.5 7.5t7 5.5q1 10 -2.5 17t4.5 15l18 14q1 -5 4 -5.5t6 0t6 0.5t5 -3q8 9 15.5 7t15.5 -5.5t16 -5t16 8.5
q6 -4 12 -3t12.5 2.5t12.5 2t12 -4.5q8 2 17 6.5t18 -4.5q2 -5 3.5 -10.5t6.5 -6.5q4 1 4 4.5t-2 6.5q8 2 12.5 -5t11.5 -11q-8 -7 -9.5 -16t-8.5 -14q2 -6 -2.5 -9t-9.5 -3q-5 -5 -6 -10l-2 -10t-3.5 -9t-9.5 -5q-1 -7 -5.5 -13t-9 -11.5t-7 -11t0.5 -11.5q-4 -4 -2 -7
t3 -3q7 -2 11.5 1.5t5.5 8.5q0 -7 4 -10.5t10 -6.5q11 3 19.5 -6t13.5 -17q-4 -2 -4 -7q3 -3 5.5 -2.5l5 1t4 -0.5t1.5 -7q-5 -8 -5 -16t2 -16t3 -15.5t-2 -13.5l4 -11q-8 -4 -2 -9.5t6 -12.5z" />
    <glyph glyph-name="questiondown" unicode="&#xbf;" 
d="M455 43q-11 -10 -15.5 -24t-9 -26.5t-13 -21t-27.5 -8.5q-6 -15 -17.5 -18t-24.5 -2.5t-26 0t-23 -9.5l-20 6l-85 -1q-3 8 -9 9t-12.5 1t-13 1t-9.5 9h-13q-15 7 -23.5 17t-15.5 21t-13.5 22.5t-17.5 22.5q-1 10 6 18.5t11 15.5q-4 2 -10.5 3t-4.5 9q7 -2 10 1t5 7v15
q4 2 7 0.5t5 3.5q0 6 -5 11l-7 -6q-5 9 -1.5 15.5t9 12t10 12t1.5 15.5q18 8 33.5 21t35.5 13q15 3 18.5 10.5t5 16t4.5 16t16 10.5q8 2 11.5 7.5t5 12t4 13.5t8.5 11v15q4 -2 6 0.5t4 4.5q-15 8 -13.5 20.5t6.5 23.5q9 2 20 -1.5t9 -18.5q7 -4 4 -9.5t-7 -9.5
q-5 -1 -6.5 -3t-0.5 -4.5t2.5 -5.5t2.5 -6l5 5l2 -1q-5 -3 -7.5 -9.5t5.5 -11.5q-3 -11 -5.5 -23t-7.5 -23.5t-12 -21t-19 -14.5q-1 -5 -4 -8.5t-6 -6.5t-4 -5.5t4 -6.5q-19 -9 -30.5 -15t-27.5 -21q-2 -17 -11 -26t-19.5 -16.5t-19 -16.5t-9.5 -25q3 -8 10 -11t14 -5.5
t11.5 -5.5t3.5 -12q6 -2 10.5 -8.5t9.5 -11.5t10.5 -7t13.5 6q1 -8 6.5 -11.5t12 -5.5t13.5 -4.5t12 -6.5q5 -1 9.5 2.5t9 5.5t8.5 1.5t9 -8.5q0 -1 -4 -5q4 -2 7.5 -5.5t9.5 -0.5q3 8 7 10.5t9.5 2t11 -1.5t11.5 0q2 -1 4.5 -5t7.5 -1q6 4 8.5 13t5.5 17.5t7.5 12
t15.5 -2.5q9 -2 15 3.5t10 11.5q0 13 4.5 22.5t11.5 20.5q6 -4 13 -4q4 2 4.5 4.5t-1 5t-2.5 5t1 4.5q-2 3 -4 2.5t-3.5 -2t-3.5 -1.5t-4 3q2 7 -1 10.5t-7 6.5t-6.5 6t0.5 9q8 -8 16 -14t23 0q-4 -7 -2.5 -11.5t4.5 -8.5t6.5 -8.5t5.5 -10.5l-14 -1q-2 -9 7.5 -14t11.5 -13
zM302 506q-8 -4 -11.5 -13.5t-1.5 -17.5q-12 3 -17 -8l7 -25q-7 0 -11.5 -5t-9.5 0q-1 6 -5 8.5t-9 4t-9.5 3t-6.5 6.5q-3 4 -1.5 9t3 9.5t0 7t-9.5 1.5q2 10 -4 16q8 3 13 9.5t10 11.5t11 8t15 -1q7 9 14 0q8 -6 5 -14q-7 3 -9 0t-2.5 -7.5t-1.5 -9.5t-6 -7q0 -4 2.5 -7.5
t4.5 -7.5q7 4 9 8.5t3 9.5t2.5 9.5t7.5 9.5z" />
    <glyph glyph-name="Agrave" unicode="&#xc0;" 
d="M145 80l10 7v-7h-10zM205 356q-8 -7 -8.5 -15t-1 -14t-4.5 -9t-20 1q-3 -20 -7 -36t-9 -35q9 -5 18 -8.5t15.5 -8t10 -12t2.5 -19.5q-13 -2 -26.5 -2.5t-24.5 -8.5q3 -4 6 -8.5t5 -9t1.5 -8.5t-5.5 -8q-8 -5 -9 -11.5t-0.5 -13.5t-1 -13.5t-11.5 -9.5l5 -16
q-5 -5 -9.5 -5.5t-8.5 -5.5q10 -8 10 -21.5v-22.5q-3 -5 -8 -8.5t-2 -9.5l3 -4q-18 0 -34 11q-9 5 -10.5 15t0.5 18q2 4 5.5 6.5t1.5 7.5l-2 2q9 0 11 4.5t1.5 10l-1 11t3.5 7.5q-8 20 -3.5 39.5t8.5 37.5q9 -2 11.5 5.5t4.5 14.5q-7 11 -1 18.5t12.5 13t7 10.5t-18.5 12
l15 12q-7 6 -5.5 15.5t3.5 16.5q5 2 6 7.5t6 7.5q-8 4 -9 9.5t1 11.5t5 11.5t3 11.5q9 9 10 20.5t1 23.5t1.5 23.5t11.5 20.5q2 -7 6 -8t8.5 -0.5t8.5 -1t5 -9.5q-4 -11 -8.5 -21t-11.5 -14q4 -11 8.5 -24t17.5 -15zM318 209q-2 -5 -8.5 -5.5t-13 -0.5t-10 -1.5t0.5 -7.5
q-9 3 -19 3.5t-19 2.5t-16 7t-10 17q5 -2 14.5 4t16.5 10q7 -4 16.5 -3.5t18 0.5t15 -2.5t7.5 -13.5zM470 25q-6 -11 -18.5 -15.5t-25.5 -0.5q-4 2 -6.5 5t-5.5 5v9q3 -2 4 0.5t3 4.5q2 5 -1.5 7t-5.5 7l-8 -4q-5 4 -2 9t7 5q-5 10 -11 22.5t1 26.5l8 10q-12 8 -17.5 21.5
t-10.5 27t-13.5 25t-26.5 14.5q-2 10 -7.5 21t2.5 19q9 0 17 2t12 14q3 6 0.5 10.5t-4.5 8t-2 7t6 7.5q4 10 1.5 16t-7.5 11.5t-10.5 10t-7.5 11.5q7 7 11.5 18t-0.5 21q-7 4 -8 8t-0.5 8.5t-0.5 9t-7 8.5q4 5 2.5 10.5t-4 11t-4 11t2.5 11.5q-8 6 -7.5 13.5t3 14.5t3 14.5
t-8.5 13.5q-4 15 -11.5 27.5t-12.5 29.5q-10 0 -25 1.5t-20 9.5q-15 2 -21 -7q4 -5 3 -8.5t-6 -8.5q-9 2 -11 -2.5t-3 -10.5t-3 -11.5t-12 -6.5q2 -4 0.5 -8t-3 -8.5t-2 -9t2.5 -9.5q-8 -2 -13 3t-12 7q6 2 7.5 8t2.5 11.5t4 9t11 0.5q0 7 -6 4.5t-9 2.5q1 9 5.5 17.5
t11.5 16.5t14 15l13 13q10 -8 20.5 -6.5t21 4t20.5 1t18 -16.5q11 -3 23.5 -8.5t16.5 -20.5q6 -6 6 -11t-1 -10t-1 -10t8 -10q-4 -19 -6 -31t-1 -31q3 -8 8 -14t9 -11.5t6.5 -12.5t0.5 -16q11 -13 8.5 -30.5t-0.5 -34.5q-4 -2 -3.5 -6.5t-4.5 -6.5q4 -2 10 -3.5t10 -3.5
t4.5 -6.5t-4.5 -12.5l12 -6q-4 -22 -2.5 -48t12.5 -49q6 -1 6.5 -3.5t0.5 -6v-7t5 -6.5q0 -5 -3.5 -11t1.5 -11h-3l5 -16h-12q3 -6 4 -10.5t2 -8.5t2.5 -8t6.5 -10q5 3 6.5 6t9.5 4q-3 -6 2 -6.5t8 -3.5q-5 -9 -7 -15.5t2 -18.5l13 -11q-5 -5 -8.5 -11.5t-4.5 -12.5
q3 -3 5 -3t3.5 1.5l3 3t3.5 0.5zM325 605q-3 -11 -5.5 -21t-10.5 -18q-10 0 -17.5 4.5t-17.5 -0.5q-5 -9 -10.5 -5.5t-10.5 8.5q-8 11 -16.5 19.5t-21.5 14.5q-4 8 -10.5 14.5t-14.5 3.5q-8 16 -18 31.5t-29 14.5q-8 8 -18 4l9 5q-1 2 -11.5 8.5t-21.5 15.5q-11 -4 -17.5 -1
t-11 8t-8.5 11.5t-10 10.5q-4 10 -0.5 18.5t9.5 16t12.5 14.5t9.5 16q5 4 15 4q7 -8 15.5 -7t17.5 3t18 0t16 -15q6 0 11.5 3.5t10.5 6.5t8.5 3t5.5 -8q8 -12 17 -22t11 -24q20 -11 33 -25.5t16 -32.5q7 -9 17 -17.5t17.5 -17.5t11.5 -19.5t-1 -24.5z" />
    <glyph glyph-name="Aacute" unicode="&#xc1;" 
d="M145 80l10 7v-7h-10zM205 356q-8 -7 -8.5 -15t-1 -14t-4.5 -9t-20 1q-3 -20 -7 -36t-9 -35q9 -5 18 -8.5t15.5 -8t10 -12t2.5 -19.5q-13 -2 -26.5 -2.5t-24.5 -8.5q3 -4 6 -8.5t5 -9t1.5 -8.5t-5.5 -8q-8 -5 -9 -11.5t-0.5 -13.5t-1 -13.5t-11.5 -9.5l5 -16
q-5 -5 -9.5 -5.5t-8.5 -5.5q10 -8 10 -21.5v-22.5q-3 -5 -8 -8.5t-2 -9.5l3 -4q-18 0 -34 11q-9 5 -10.5 15t0.5 18q2 4 5.5 6.5t1.5 7.5l-2 2q9 0 11 4.5t1.5 10l-1 11t3.5 7.5q-8 20 -3.5 39.5t8.5 37.5q9 -2 11.5 5.5t4.5 14.5q-7 11 -1 18.5t12.5 13t7 10.5t-18.5 12
l15 12q-7 6 -5.5 15.5t3.5 16.5q5 2 6 7.5t6 7.5q-8 4 -9 9.5t1 11.5t5 11.5t3 11.5q9 9 10 20.5t1 23.5t1.5 23.5t11.5 20.5q2 -7 6 -8t8.5 -0.5t8.5 -1t5 -9.5q-4 -11 -8.5 -21t-11.5 -14q4 -11 8.5 -24t17.5 -15zM318 209q-2 -5 -8.5 -5.5t-13 -0.5t-10 -1.5t0.5 -7.5
q-9 3 -19 3.5t-19 2.5t-16 7t-10 17q5 -2 14.5 4t16.5 10q7 -4 16.5 -3.5t18 0.5t15 -2.5t7.5 -13.5zM470 25q-6 -11 -18.5 -15.5t-25.5 -0.5q-4 2 -6.5 5t-5.5 5v9q3 -2 4 0.5t3 4.5q2 5 -1.5 7t-5.5 7l-8 -4q-5 4 -2 9t7 5q-5 10 -11 22.5t1 26.5l8 10q-12 8 -17.5 21.5
t-10.5 27t-13.5 25t-26.5 14.5q-2 10 -7.5 21t2.5 19q9 0 17 2t12 14q3 6 0.5 10.5t-4.5 8t-2 7t6 7.5q4 10 1.5 16t-7.5 11.5t-10.5 10t-7.5 11.5q7 7 11.5 18t-0.5 21q-7 4 -8 8t-0.5 8.5t-0.5 9t-7 8.5q4 5 2.5 10.5t-4 11t-4 11t2.5 11.5q-8 6 -7.5 13.5t3 14.5t3 14.5
t-8.5 13.5q-4 15 -11.5 27.5t-12.5 29.5q-10 0 -25 1.5t-20 9.5q-15 2 -21 -7q4 -5 3 -8.5t-6 -8.5q-9 2 -11 -2.5t-3 -10.5t-3 -11.5t-12 -6.5q2 -4 0.5 -8t-3 -8.5t-2 -9t2.5 -9.5q-8 -2 -13 3t-12 7q6 2 7.5 8t2.5 11.5t4 9t11 0.5q0 7 -6 4.5t-9 2.5q1 9 5.5 17.5
t11.5 16.5t14 15l13 13q10 -8 20.5 -6.5t21 4t20.5 1t18 -16.5q11 -3 23.5 -8.5t16.5 -20.5q6 -6 6 -11t-1 -10t-1 -10t8 -10q-4 -19 -6 -31t-1 -31q3 -8 8 -14t9 -11.5t6.5 -12.5t0.5 -16q11 -13 8.5 -30.5t-0.5 -34.5q-4 -2 -3.5 -6.5t-4.5 -6.5q4 -2 10 -3.5t10 -3.5
t4.5 -6.5t-4.5 -12.5l12 -6q-4 -22 -2.5 -48t12.5 -49q6 -1 6.5 -3.5t0.5 -6v-7t5 -6.5q0 -5 -3.5 -11t1.5 -11h-3l5 -16h-12q3 -6 4 -10.5t2 -8.5t2.5 -8t6.5 -10q5 3 6.5 6t9.5 4q-3 -6 2 -6.5t8 -3.5q-5 -9 -7 -15.5t2 -18.5l13 -11q-5 -5 -8.5 -11.5t-4.5 -12.5
q3 -3 5 -3t3.5 1.5l3 3t3.5 0.5zM370 760q10 -14 6 -33.5t-18 -30.5q-5 -2 -9.5 2t-9 7.5t-9 3.5t-8.5 -8q-2 -6 -1.5 -11.5t0 -10t-3 -8t-10.5 -4.5q-4 -1 -8 1t-7.5 3t-7 -0.5t-6.5 -7.5q5 -1 3.5 -4t0.5 -6q-6 4 -10.5 2t-8.5 -6.5t-7.5 -9.5t-7.5 -8q3 -2 2 -6
q-2 0 -2.5 -2t-2.5 0q-3 5 -2.5 10.5t1 10t-2 7t-12.5 1.5q3 16 14 28l7 -3l66 64q5 -2 11.5 -3.5t8.5 -6.5q5 3 7 10t4.5 12.5t7.5 8t15 -1.5z" />
    <glyph glyph-name="Acircumflex" unicode="&#xc2;" 
d="M145 80l10 7v-7h-10zM205 356q-8 -7 -8.5 -15t-1 -14t-4.5 -9t-20 1q-3 -20 -7 -36t-9 -35q9 -5 18 -8.5t15.5 -8t10 -12t2.5 -19.5q-13 -2 -26.5 -2.5t-24.5 -8.5q3 -4 6 -8.5t5 -9t1.5 -8.5t-5.5 -8q-8 -5 -9 -11.5t-0.5 -13.5t-1 -13.5t-11.5 -9.5l5 -16
q-5 -5 -9.5 -5.5t-8.5 -5.5q10 -8 10 -21.5v-22.5q-3 -5 -8 -8.5t-2 -9.5l3 -4q-18 0 -34 11q-9 5 -10.5 15t0.5 18q2 4 5.5 6.5t1.5 7.5l-2 2q9 0 11 4.5t1.5 10l-1 11t3.5 7.5q-8 20 -3.5 39.5t8.5 37.5q9 -2 11.5 5.5t4.5 14.5q-7 11 -1 18.5t12.5 13t7 10.5t-18.5 12
l15 12q-7 6 -5.5 15.5t3.5 16.5q5 2 6 7.5t6 7.5q-8 4 -9 9.5t1 11.5t5 11.5t3 11.5q9 9 10 20.5t1 23.5t1.5 23.5t11.5 20.5q2 -7 6 -8t8.5 -0.5t8.5 -1t5 -9.5q-4 -11 -8.5 -21t-11.5 -14q4 -11 8.5 -24t17.5 -15zM318 209q-2 -5 -8.5 -5.5t-13 -0.5t-10 -1.5t0.5 -7.5
q-9 3 -19 3.5t-19 2.5t-16 7t-10 17q5 -2 14.5 4t16.5 10q7 -4 16.5 -3.5t18 0.5t15 -2.5t7.5 -13.5zM470 25q-6 -11 -18.5 -15.5t-25.5 -0.5q-4 2 -6.5 5t-5.5 5v9q3 -2 4 0.5t3 4.5q2 5 -1.5 7t-5.5 7l-8 -4q-5 4 -2 9t7 5q-5 10 -11 22.5t1 26.5l8 10q-12 8 -17.5 21.5
t-10.5 27t-13.5 25t-26.5 14.5q-2 10 -7.5 21t2.5 19q9 0 17 2t12 14q3 6 0.5 10.5t-4.5 8t-2 7t6 7.5q4 10 1.5 16t-7.5 11.5t-10.5 10t-7.5 11.5q7 7 11.5 18t-0.5 21q-7 4 -8 8t-0.5 8.5t-0.5 9t-7 8.5q4 5 2.5 10.5t-4 11t-4 11t2.5 11.5q-8 6 -7.5 13.5t3 14.5t3 14.5
t-8.5 13.5q-4 15 -11.5 27.5t-12.5 29.5q-10 0 -25 1.5t-20 9.5q-15 2 -21 -7q4 -5 3 -8.5t-6 -8.5q-9 2 -11 -2.5t-3 -10.5t-3 -11.5t-12 -6.5q2 -4 0.5 -8t-3 -8.5t-2 -9t2.5 -9.5q-8 -2 -13 3t-12 7q6 2 7.5 8t2.5 11.5t4 9t11 0.5q0 7 -6 4.5t-9 2.5q1 9 5.5 17.5
t11.5 16.5t14 15l13 13q10 -8 20.5 -6.5t21 4t20.5 1t18 -16.5q11 -3 23.5 -8.5t16.5 -20.5q6 -6 6 -11t-1 -10t-1 -10t8 -10q-4 -19 -6 -31t-1 -31q3 -8 8 -14t9 -11.5t6.5 -12.5t0.5 -16q11 -13 8.5 -30.5t-0.5 -34.5q-4 -2 -3.5 -6.5t-4.5 -6.5q4 -2 10 -3.5t10 -3.5
t4.5 -6.5t-4.5 -12.5l12 -6q-4 -22 -2.5 -48t12.5 -49q6 -1 6.5 -3.5t0.5 -6v-7t5 -6.5q0 -5 -3.5 -11t1.5 -11h-3l5 -16h-12q3 -6 4 -10.5t2 -8.5t2.5 -8t6.5 -10q5 3 6.5 6t9.5 4q-3 -6 2 -6.5t8 -3.5q-5 -9 -7 -15.5t2 -18.5l13 -11q-5 -5 -8.5 -11.5t-4.5 -12.5
q3 -3 5 -3t3.5 1.5l3 3t3.5 0.5zM287 665q-7 -7 -9.5 -8.5t-3.5 0t-1 4t-1 4.5h-14q12 17 15 15.5t14 -15.5zM441 593q-8 -10 -18.5 -10t-21.5 2t-22 2t-21 -10q-9 2 -14.5 9.5t-10.5 15.5l6 6t9 10q-21 6 -31.5 13.5t-16 17t-8.5 21.5t-8 27q-16 -8 -23 -14.5t-9 -13
t-1.5 -12t0.5 -10.5q-14 -6 -22.5 -20t-18.5 -25.5t-23.5 -15t-36.5 12.5q-13 -8 -21.5 -13.5t-13.5 -0.5q-8 1 -11 6t-4 11.5t-1.5 13.5t-3.5 13q5 15 15 29t18 29q12 3 18 15t15 21t25 9.5t48 -19.5q-5 41 -1 57t13 23q4 6 9 6.5t10 -1.5t9.5 -5t9.5 -4q6 -4 14 -5t14 -3
t8 -9t-5 -23q9 -7 17.5 -9t15.5 -3t12.5 -1.5t8.5 -4.5q1 -13 10.5 -18.5t21.5 -10.5t22 -12t12 -23q3 -27 2.5 -40.5t3.5 -33.5z" />
    <glyph glyph-name="Atilde" unicode="&#xc3;" 
d="M145 63l10 7v-7h-10zM205 339q-8 -7 -8.5 -15t-1 -14t-4.5 -9t-20 1q-3 -20 -7 -36t-9 -35q9 -5 18 -8.5t15.5 -8t10 -12t2.5 -19.5q-13 -2 -26.5 -2.5t-24.5 -8.5q3 -4 6 -8.5t5 -9t1.5 -8.5t-5.5 -8q-8 -5 -9 -11.5t-0.5 -13.5t-1 -13.5t-11.5 -9.5l5 -16
q-5 -5 -9.5 -5.5t-8.5 -5.5q10 -8 10 -21.5v-22.5q-3 -5 -8 -8.5t-2 -9.5l3 -4q-18 0 -34 11q-9 5 -10.5 15t0.5 18q2 4 5.5 6.5t1.5 7.5l-2 2q9 0 11 4.5t1.5 10l-1 11t3.5 7.5q-8 20 -3.5 39.5t8.5 37.5q9 -2 11.5 5.5t4.5 14.5q-7 11 -1 18.5t12.5 13t7 10.5t-18.5 12
l15 12q-7 6 -5.5 15.5t3.5 16.5q5 2 6 7.5t6 7.5q-8 4 -9 9.5t1 11.5t5 11.5t3 11.5q9 9 10 20.5t1 23.5t1.5 23.5t11.5 20.5q2 -7 6 -8t8.5 -0.5t8.5 -1t5 -9.5q-4 -11 -8.5 -21t-11.5 -14q4 -11 8.5 -24t17.5 -15zM318 192q-2 -5 -8.5 -5.5t-13 -0.5t-10 -1.5t0.5 -7.5
q-9 3 -19 3.5t-19 2.5t-16 7t-10 17q5 -2 14.5 4t16.5 10q7 -4 16.5 -3.5t18 0.5t15 -2.5t7.5 -13.5zM470 8q-6 -11 -18.5 -15.5t-25.5 -0.5q-4 2 -6.5 5t-5.5 5v9q3 -2 4 0.5t3 4.5q2 5 -1.5 7t-5.5 7l-8 -4q-5 4 -2 9t7 5q-5 10 -11 22.5t1 26.5l8 10q-12 8 -17.5 21.5
t-10.5 27t-13.5 25t-26.5 14.5q-2 10 -7.5 21t2.5 19q9 0 17 2t12 14q3 6 0.5 10.5t-4.5 8t-2 7t6 7.5q4 10 1.5 16t-7.5 11.5t-10.5 10t-7.5 11.5q7 7 11.5 18t-0.5 21q-7 4 -8 8t-0.5 8.5t-0.5 9t-7 8.5q4 5 2.5 10.5t-4 11t-4 11t2.5 11.5q-8 6 -7.5 13.5t3 14.5t3 14.5
t-8.5 13.5q-4 15 -11.5 27.5t-12.5 29.5q-10 0 -25 1.5t-20 9.5q-15 2 -21 -7q4 -5 3 -8.5t-6 -8.5q-9 2 -11 -2.5t-3 -10.5t-3 -11.5t-12 -6.5q2 -4 0.5 -8t-3 -8.5t-2 -9t2.5 -9.5q-8 -2 -13 3t-12 7q6 2 7.5 8t2.5 11.5t4 9t11 0.5q0 7 -6 4.5t-9 2.5q1 9 5.5 17.5
t11.5 16.5t14 15l13 13q10 -8 20.5 -6.5t21 4t20.5 1t18 -16.5q11 -3 23.5 -8.5t16.5 -20.5q6 -6 6 -11t-1 -10t-1 -10t8 -10q-4 -19 -6 -31t-1 -31q3 -8 8 -14t9 -11.5t6.5 -12.5t0.5 -16q11 -13 8.5 -30.5t-0.5 -34.5q-4 -2 -3.5 -6.5t-4.5 -6.5q4 -2 10 -3.5t10 -3.5
t4.5 -6.5t-4.5 -12.5l12 -6q-4 -22 -2.5 -48t12.5 -49q6 -1 6.5 -3.5t0.5 -6v-7t5 -6.5q0 -5 -3.5 -11t1.5 -11h-3l5 -16h-12q3 -6 4 -10.5t2 -8.5t2.5 -8t6.5 -10q5 3 6.5 6t9.5 4q-3 -6 2 -6.5t8 -3.5q-5 -9 -7 -15.5t2 -18.5l13 -11q-5 -5 -8.5 -11.5t-4.5 -12.5
q3 -3 5 -3t3.5 1.5l3 3t3.5 0.5zM403 622l-5 -18l-14 -13l-18 -2l-4 -12v-1l-13 -10h-19l-6 6l-19 -8l-19 4l-23 6l-23 21l-11 12q-1 5 -2 9q-1 6 -7 14q-10 9 -21 2t-20 -15q-5 -4 -8.5 -8t-5.5 -8q-3 -4 -5 -10l2 -6q1 -5 -1 -11q-2 -2 -4 -5.5t-5 -2.5l-18 -2l-17 25
l11 29l19 28h17l6 8q2 3 5 6.5t7 5.5q7 3 20 -1l12 -4q2 1 5 3q2 1 5 2l6 2t6.5 0.5t6.5 -0.5q4 -1 7 -1l13 -10q3 -5 3 -12v-7l16 -12q1 2 3 3q4 2 7 3q4 0 9 -3q3 -2 5 -4q6 -3 10 -7q9 -7 15 -16l9 -7v8q0 3 1 5q2 0 6 1q2 1 5.5 1t5.5 2q5 2 6.5 8t3.5 12l2 14l2 10
l11 7l15 -1l6 -16l5 -6z" />
    <glyph glyph-name="Adieresis" unicode="&#xc4;" 
d="M422 124q-2 5 -6 2.5t-6 -4.5q2 -4 5 -3t5 0q-2 5 2 5zM485 32q-3 -11 -9.5 -15.5t-14.5 -6t-16 -2t-14 -1.5q-3 -2 -3.5 -1l-1.5 3q9 26 0 54q7 4 7.5 8.5t-2.5 9.5t-6.5 10t-2.5 11q-8 6 -16.5 13.5t-10.5 20.5l7 5q-11 8 -8.5 19t11.5 18q2 4 -0.5 6t-4.5 4
q-2 0 -4.5 0.5t-3.5 -2.5q-3 4 -6.5 7.5t-2.5 8.5q11 4 22 -0.5t22 -4.5q4 -5 5 -11.5t2 -12.5t3.5 -11.5t9.5 -8.5q-1 -5 -6 -11t-8 -11t-2 -10t11 -9h5q-6 -5 -5 -8.5t4.5 -7.5t7 -8.5t2.5 -9.5q6 -2 12 -8t8 -12q1 -3 0.5 -7.5t-0.5 -8t1.5 -6.5t7.5 -4zM441 232
q2 -9 -6 -12t-13 -8q-8 -2 -14 -0.5t-12 3.5t-13 3.5t-15 -1.5q6 6 7.5 12t1.5 12v12.5t5 12.5q-13 13 -14.5 27t-0.5 29t1.5 30.5t-7.5 31.5q0 7 2 12.5t0 13.5q-2 4 -7.5 2.5t-9.5 0.5q-2 4 -1 8.5t2 8t0.5 7t-4.5 6.5l5 5q-2 8 -7 16.5t-9.5 17.5t-4.5 18.5t9 18.5
q-2 13 -11 25.5t-26 13.5q-4 -4 -8 -4.5t-8.5 -0.5t-8.5 -0.5t-7 -4.5v5q-5 3 -9.5 1t-8 -5t-7.5 -4.5t-9 3.5q0 -16 -2 -29.5t-4 -26t-3.5 -26t-0.5 -28.5q-11 1 -14.5 -3t-4.5 -10t-1 -13t-4 -13q10 -5 8 -15t0 -18q-9 -5 -10 -13t-1 -16.5t-1.5 -16.5t-10.5 -14
q-6 -6 -4 -11.5t5 -11t3.5 -10.5t-8.5 -11q5 -6 8 -14.5t14 -10.5q7 4 14 0.5t13 -2.5q-2 -8 2 -9.5t9 -3.5q12 -1 24.5 3t25.5 7t25 2t23 -12l20 8q2 -2 -1 -4t-4 -4l5 -5q-8 -11 -20 -17.5t-26 -6.5q-9 6 -18 5t-17.5 -4t-18 -5.5t-20.5 -0.5q-5 -1 -11.5 3t-12.5 7.5
t-11.5 3t-8.5 -10.5q-3 -3 -6.5 -2.5t-6.5 1t-5.5 0t-5.5 -6.5q-2 -4 1.5 -7t7.5 -5q-9 -6 -11.5 -14t2.5 -16q4 -5 9.5 -3t9.5 -2q1 -6 -5 -12q-6 9 -12 8.5t-11 -5.5t-9 -11.5t-7 -8.5q3 -2 3 -3.5t-1.5 -3.5t-3 -3.5t-0.5 -3.5q4 -2 5 -7.5t1 -12t2 -12t9 -7.5
q1 -3 -0.5 -8l-3 -10t-0.5 -9.5t7 -7.5q-1 -2 -8 -2l-5 5q-14 -8 -26.5 -10t-29.5 2q-9 9 -5 20.5t7 19.5q6 9 7 19t2 19.5t3 18t8 13.5q3 4 1 8.5t-3.5 8.5t-1.5 8t7 7q-8 9 0.5 17.5t18.5 12.5q-2 16 -0.5 31t-2.5 29q6 7 5.5 15.5t-1.5 16.5t1 14t15 9q-5 8 -3.5 16.5
t4.5 16.5l6 16t1 16q10 12 7 28q-6 4 -5 6.5t3.5 5l5 5t1.5 7.5q2 8 1 18t-1 19t2.5 16.5t11.5 12.5q-6 5 -4 9.5t5 9.5t5 10t-3 10q4 6 6 14.5t5 16t7.5 13t12.5 5.5q-4 6 -2.5 10t6 7t10 5.5t8.5 4.5q7 3 14.5 0t13.5 -6t11.5 -4t9.5 5q-2 -3 5 -2t13 -3q13 -5 21 -13
t15 -18t13 -19.5t15 -15.5q0 -14 4.5 -23.5t-4.5 -22.5q5 -10 3.5 -20t-4 -19.5t-2 -20t9.5 -21.5q5 -14 13 -27t-1 -29q-4 2 -5.5 -0.5t-2.5 -4.5q1 -8 7 -8t11 -2l2 2q11 -10 12 -22.5t0.5 -25t3 -25t18.5 -22.5zM208 633q-11 1 -19 -5t-15 -12t-15.5 -9t-21.5 4
q-2 8 -8 13t-12 9.5t-10.5 9t-3.5 12.5q8 3 10.5 10t4.5 13t5.5 10t13.5 1q9 15 17 16.5t16 -3t16.5 -11t18.5 -7.5q3 -6 6.5 -9.5t6.5 -7.5t4.5 -9t0.5 -14zM440 661q-3 -5 -4.5 -11.5t-3.5 -12.5t-5.5 -10t-11.5 -4q-10 2 -18.5 -1.5t-16 -7t-15 -4t-15.5 6.5
q-1 7 -5 12.5t-9 10t-9 9t-5 10.5q10 2 14.5 10.5t9 17.5t12 15t23.5 2q3 -5 9 -6l12 -2t11 -3.5t7 -9.5l-19 -14q6 -7 11 -4.5t10 6t9.5 3t8.5 -12.5z" />
    <glyph glyph-name="Aring" unicode="&#xc5;" 
d="M158 230q-2 5 -3.5 12.5t-6.5 9.5q-2 -2 -3 -6t1 -6q0 -5 4 -8.5t8 -1.5zM387 279q1 6 -6 10l-1 -8zM326 705q-5 -5 -5.5 -2t0.5 7q-2 5 -5.5 10t-14.5 1q1 -12 3 -18q2 -5 4 -6.5t6 9.5q5 2 3.5 6.5t0.5 9.5l-10 2h-10q0 -4 -0.5 -4t1.5 -4l16 10q-5 5 -8 4.5t-8 -5.5
l16 -10q1 1 -1 1.5t-3 0.5t0.5 0.5t9.5 2.5q-11 17 -17 19.5t-13 1.5q0 1 0.5 1.5t-2.5 0.5l-11 -2q-5 -2 -8 1t-3 17l13 -16q-10 -2 -16 -2.5t-9 -2.5q-2 -2 -5 -2t-5 -2q-6 -6 -6 -27h12q4 0 -3 4.5t-7 5.5q-1 0 -0.5 -1t0.5 -2.5t-2 -4.5t-8 -7q8 -8 7.5 -10.5t-0.5 -7.5
q8 -4 11 -5t8 1l-6 18q-2 0 -1 -1t2 -1t0 1.5t-6 5.5q-6 -11 -6.5 -18t7.5 -18q8 5 11 3t1 -5l-13 14q2 2 2 4t2 4q-11 0 -18 -1q-6 -1 -8 -3t6 -5l4 1q9 -10 11.5 -11t3.5 -1q-1 -8 4 -7t10 -3q6 -5 10.5 -1.5t8.5 1.5q5 2 12.5 0.5t18.5 0.5q-2 12 2.5 12t13.5 9
q-12 5 -11.5 3t2.5 -4q-2 -2 -2 11h-7q-2 2 -1.5 -2t-0.5 -6h2q4 3 1 3t-8 -2q-2 2 6 5.5t21 16.5zM331 217q-9 -17 -25 -17t-31 -2q3 7 0 12q-4 0 -5 -1.5t-4 -3.5q0 -7 4 -8q-5 -5 -12 -5.5t-12 1.5q-2 4 -2.5 7.5t-2.5 6.5q-9 -7 -20 -12.5t-22 -11.5q-8 4 -17.5 5.5
t-18.5 -7.5q3 -15 -2 -26.5t-8 -22.5q8 -5 5 -13l-12 -4t-10 -8q1 -5 4 -6t6.5 -1.5t6.5 -1.5t4 -6q3 -11 -2.5 -18.5t-12 -15t-11.5 -15.5t-1 -19q-4 0 -7.5 -2.5t-6.5 -4.5t-6.5 -2.5t-7.5 4.5q0 6 -4 9t-7.5 5.5t-5 5.5t3.5 9q5 1 8 5t7 7q-5 7 -3.5 14.5t4.5 14.5
t5.5 14.5t-1.5 15.5q4 14 4.5 25t2 20.5t5.5 18.5t15 19q-5 4 -3.5 8.5t3.5 9t2.5 8.5t-5.5 7v22q2 0 4 2t4 3q-1 3 -1 5t-2 4q4 -3 7.5 -1.5t7 3.5t6.5 2.5t8 -4.5v-23.5t15 -17.5q6 8 12 8t12.5 -2.5t12.5 -4t12 3.5q12 -8 25 -6t25.5 5t25 3.5t24.5 -10.5l-5 -5zM158 281
q-2 0 -3.5 3t-1.5 5q3 5 6 2t4 -5zM182 361q-1 -7 0 -17.5t0 -20.5t-5 -18t-15 -9l-5 9q-2 -4 -5 -3t-6 -1q9 6 8 14.5t-3.5 16.5t-2.5 15t10 12q5 10 11 6.5t13 -4.5zM199 433q-8 -1 -6.5 -7.5t-3.5 -10.5l-22 5q-3 15 6.5 28.5t13.5 28.5q7 -4 10 -9t3 -11t-1 -12t0 -12z
M464 43q5 -10 2 -13t-8.5 -4t-11.5 -3t-7 -9q-5 2 -7.5 9.5t-11.5 5.5l9 10q-3 5 -6.5 5t-7 -1.5t-6.5 -3.5t-6 0q10 8 10 16t-3 16.5t-6.5 16.5t-0.5 16q-8 8 -11 18t-5 20q9 1 11 4t1.5 6.5t-0.5 8t4 7.5l-6 5l-7 -7q-2 8 4.5 12.5t10.5 9.5q-5 14 -17.5 13t-24.5 -3
t-19.5 0.5t-2.5 23.5q-8 0 -4.5 5.5t7.5 7.5h10q3 -8 6 -7.5t6.5 3.5t7 6.5t7.5 2.5q9 10 6.5 18.5t-7.5 16t-8.5 16t4.5 19.5q-4 2 -9.5 3.5t-5.5 8.5q4 5 3.5 10.5t-2.5 11t-4.5 11.5t-3.5 11q6 8 2 17.5t-9.5 18.5t-7 17.5t9.5 15.5l-5 5l10 10q-9 7 -11.5 15.5
t-2.5 17.5t-1 18t-8 18q-5 14 -14.5 27.5t-24.5 15.5q0 5 -5 8t-10 -2q-6 -4 -5.5 -8.5t1.5 -9t0 -8t-10 -6.5q9 10 5 16.5t-10 12t-9 12t9 15.5q8 -2 18 -1.5t14 8.5v-2q5 -3 11.5 -2.5t12.5 0t11 -3t7 -9.5q-3 -8 -0.5 -13.5t6.5 -11.5t7 -12.5t1 -14.5q6 -5 9 -12
t4.5 -14.5t3.5 -15t8 -11.5q-5 -3 -4.5 -6.5t2.5 -7t4.5 -8t1.5 -10.5h5q-5 -5 -4.5 -10.5t2.5 -11.5t5 -11t4 -9q-2 -14 1.5 -22t1.5 -22q-6 -8 -2 -13t9 -9.5t6 -9.5t-11 -12q0 -15 6 -31t17 -27q3 -4 0.5 -6t-5 -3.5t-4 -4t2.5 -6.5q7 1 10 -2.5t5 -8t3 -10t3 -9.5
q-6 -10 -1 -16.5t11 -12.5t8.5 -13t-7.5 -18q12 -13 11 -26.5t-3.5 -27t-1.5 -26.5t17 -24zM231 582q3 -6 0.5 -11t-5 -9t-3.5 -7.5t5 -7.5q-5 -9 0 -17q-5 0 -11 -0.5t-6 -6.5q1 -2 1 -9q-4 0 -8.5 -3t-9.5 2q1 4 -2 7t-5.5 5t-3 4.5t5.5 6.5q-6 5 -5 10t4.5 9.5t8 8.5
t5.5 8q9 0 13.5 7t15.5 3zM352 742q-8 -9 -3 -19q-2 -9 -1 -18.5t-1 -23.5q6 -5 6.5 -8t-2 -5t-5.5 -2.5l-3 -0.5q3 -4 5 -8q2 -3 1.5 -6.5t-5.5 -5.5q-3 -5 -9.5 -7.5t-14.5 -6.5q-1 -8 -4 -9.5t-6.5 -1t-7 2t-4.5 0.5q-3 1 -10 2t-17 -7q0 -5 1.5 -1t3.5 4q2 -2 0 -2t-7 6
q-13 -3 -22 -0.5t-18 0.5q-5 2 -9 4t-3 7q0 1 -2 3t9 13q-14 4 -16.5 6.5t-3.5 4.5q6 8 5.5 18.5t-1.5 19.5l-2 3q4 4 4 10q-7 7 -4.5 10.5t4.5 6.5q0 3 -0.5 6t5.5 8q0 8 1 10t3 4q3 0 5.5 2.5t5 4.5t6 2t9.5 -4q11 4 19 2.5t15 1.5q5 1 10 0t10 1q6 0 11.5 2t10.5 -3
q3 -4 8 -8.5t7 -12.5q11 0 13.5 -1.5t2.5 -3.5z" />
    <glyph glyph-name="AE" unicode="&#xc6;" 
d="M259 205l-2 -3q0 -1 1 -1t1.5 -0.5t2.5 -0.5q1 1 1.5 2.5t1.5 2.5h-6zM44 78l10 7v-7h-10zM104 354q-8 -7 -8.5 -15t-1 -14t-4.5 -9t-20 1q-3 -20 -7 -36t-9 -35q9 -5 18 -8.5t15.5 -8t10 -12t2.5 -19.5q-13 -2 -26.5 -2.5t-24.5 -8.5q3 -4 6 -8.5t5 -9t1.5 -8.5t-5.5 -8
q-8 -5 -9 -11.5t-0.5 -13.5t-1 -13.5t-11.5 -9.5l5 -16q-5 -5 -9.5 -5.5t-8.5 -5.5q10 -8 10 -21.5v-22.5q-3 -5 -8 -8.5t-2 -9.5l3 -4q-18 0 -34 11q-9 5 -10.5 15t0.5 18q2 4 5.5 6.5t1.5 7.5l-2 2q9 0 11 4.5t1.5 10l-1 11t3.5 7.5q-8 20 -3.5 39.5t8.5 37.5
q9 -2 11.5 5.5t4.5 14.5q-7 11 -1 18.5t12.5 13t7 10.5t-18.5 12l15 12q-7 6 -5.5 15.5t3.5 16.5q5 2 6 7.5t6 7.5q-8 4 -9 9.5t1 11.5t5 11.5t3 11.5q9 9 10 20.5t1 23.5t1.5 23.5t11.5 20.5q2 -7 6 -8t8.5 -0.5t8.5 -1t5 -9.5q-4 -11 -8.5 -21t-11.5 -14q4 -11 8.5 -24
t17.5 -15zM217 207q-2 -5 -8.5 -5.5t-13 -0.5t-10 -1.5t0.5 -7.5q-9 3 -19 3.5t-19 2.5t-16 7t-10 17q5 -2 14.5 4t16.5 10q7 -4 16.5 -3.5t18 0.5t15 -2.5t7.5 -13.5zM587 38q1 -5 3.5 -10t1.5 -10q-21 0 -42 -4.5t-41 4.5q-18 -4 -31 -2t-32 -2l-5 14q-11 -15 -24.5 -16
t-24.5 -8q-5 5 -9 11t-13 4q-11 0 -23 -3t-25 -5t-25.5 -1t-23.5 9q-6 -2 -12.5 2.5t-13.5 9.5q2 8 3 16t-7 16l10 47q-5 3 -3.5 11.5t-1.5 10.5q5 13 2.5 29t6.5 32q-6 0 -21 3q-2 10 -5.5 24t4.5 22h9t8 2q-4 13 -6 26.5t10 26.5q-7 4 -8.5 9t-0.5 10t2.5 10.5t0.5 10.5
q6 3 10 10.5t-1 15.5q3 8 -1.5 16.5t-2.5 19.5q-14 8 -13.5 17t5 18t9 18.5t-0.5 20.5q3 7 1.5 14.5t-3 16t-1.5 16t6 14.5q-3 7 -3 13q-6 0 -11.5 4t-12.5 7q-4 2 -6.5 2.5t-6.5 2.5l-10.5 3.5t-9.5 3.5q-5 0 -11.5 -3t-12.5 -5.5t-11.5 -3.5t-7.5 3q-15 2 -21 -7
q4 -5 3 -8.5t-6 -8.5q-9 2 -11 -2.5t-3 -10.5t-3 -11.5t-12 -6.5q2 -4 0.5 -8t-3 -8.5t-2 -9t2.5 -9.5q-8 -2 -13 3t-12 7q6 2 7.5 8t2.5 11.5t4 9t11 0.5q0 7 -6 4.5t-9 2.5q1 9 5.5 17.5t11.5 16.5t14 15l13 13q10 -8 20.5 -3t20.5 11t19.5 7.5t17.5 -13.5q6 -2 9 -0.5
t5 3t4 3.5t6 2q11 0 22 -2t14 -13q1 -2 1 -5q8 5 17 8t15 8q6 -5 11 -10t14 -1q4 1 6 7q4 0 8.5 1t9 1.5t9 -0.5t8.5 -7q10 9 19 8.5t18 -2.5t17.5 -2.5t17.5 7.5q10 -7 20.5 -5.5t21 4.5t20.5 4t19 -6q9 6 18 5.5t18 -3t18 -5.5t18 -2q-1 -5 2 -10t5 -10.5t1.5 -11
t-7.5 -11.5q-5 -2 -11.5 0t-13.5 3t-13.5 0t-12.5 -8q-12 9 -24 7.5t-28 -6.5q-11 4 -25.5 3t-24.5 6q-9 2 -17.5 0t-16.5 -4.5t-16 -4t-15 2.5q-2 -7 -5.5 -7.5t-7 1t-8 2t-7.5 -3.5q-8 2 -14.5 3.5t-14.5 -6.5v-4l-5 5q-7 -14 -16.5 -21.5t-11.5 -17.5q2 -4 6 -4.5t8 -0.5
q1 -7 -1 -14t-4.5 -14.5t-2 -15t6.5 -13.5q-2 -3 -4.5 -6.5t-2.5 -6.5q5 -1 7 -8t1 -11q-8 -8 -4 -20.5t4 -24.5q7 -2 14.5 -2h15.5t15.5 -1.5t15.5 -7.5q7 -2 15.5 -0.5t18 2.5t19.5 0t19 -7q1 -3 4.5 -7t5.5 -7.5t2 -7.5t-6 -7q-15 -7 -26.5 -9.5t-28.5 0.5
q-7 7 -13.5 7.5t-14 -0.5l-15 -2t-16.5 3q-2 -10 -12 -12q-9 -2 -9 -14t-4 -22q4 -6 3.5 -12.5t-2 -12.5t-2 -12t2.5 -12q-5 -8 -3 -16t-4 -13q4 -8 3 -15.5t-3 -15t-2 -15t6 -15.5q-5 -6 -13.5 -10.5t-2.5 -13.5q6 3 8 4.5t7 -1.5q-2 -5 0 -11q-4 0 -7.5 -3t-8.5 -5
q6 -9 14.5 -10t18.5 1t19.5 4.5t17.5 0.5q9 -5 17 -3t16 5t16 3t16 -10q18 -7 33.5 -2.5t30 10.5t29 7.5t29.5 -10.5q8 0 19.5 1t23 0t20.5 -6t12 -17z" />
    <glyph glyph-name="Ccedilla" unicode="&#xc7;" 
d="M113 224l5 1zM459 113q-1 -6 -5 -12t-7.5 -12t-4.5 -12.5t5 -12.5l-33 -29l1 -3q-13 -8 -21.5 -15.5t-23.5 -15.5q-9 -4 -19 -4.5t-20 1.5q6 -11 10.5 -27.5t12.5 -27.5q-2 -7 -2.5 -12.5t-0.5 -13.5q5 5 9.5 1t11.5 -2q-4 -20 -15 -34.5t-17 -32.5q-13 -9 -28.5 -10
t-32 0t-32.5 1.5t-29 -6.5q-3 1 -4.5 5t-2.5 7.5t-3 5.5t-7 1q3 4 1.5 8t-4.5 7.5t-5 7t-1 8.5q-5 2 -8.5 7.5t-11.5 1.5q-2 7 0.5 10.5t7 5.5t9 3.5t7.5 4.5q8 -5 13.5 -3t10.5 6t10.5 6.5t13.5 -1.5q5 -11 13.5 -21.5t20.5 -11.5q2 3 3 5t6 4q-2 -4 0.5 -6t3.5 -3
q5 2 6.5 6.5t1 9.5t-0.5 10.5t2 10.5q-3 4 -7 3t-8 -3t-8 -2t-5 7q1 1 4.5 11t5.5 12q-11 -3 -16.5 1.5t-10 11.5t-10 12.5t-15.5 5.5l-2 11q-15 -1 -28.5 1t-24.5 10q-8 4 -11.5 10t-12.5 0q-4 7 -11 12.5t-14.5 10.5t-13 11t-6.5 15h-5q3 5 0.5 7.5t-6.5 5t-7 5.5t-1 9
l15 3q-1 5 1 11.5t-6 9.5q-2 -2 -2.5 -5t-2.5 -5q-4 1 -7.5 6.5t4.5 8.5l8 8l-18 22q2 7 6.5 13t7.5 11t4 11t-5 13q8 3 10.5 11t10.5 10q-9 0 -12 5t-4.5 12t-3 14.5t-6.5 11.5q0 13 11.5 19t22.5 6q2 -2 6 -0.5t6 -2.5q-5 -6 -5.5 -12.5t0 -13l1 -13t-2.5 -12.5
q2 -5 1.5 -9t-6.5 -6q6 -3 7 -9.5t0.5 -13t0.5 -12.5t7 -9q4 -9 3.5 -16.5t-3 -14.5t-5.5 -14.5t-3 -15.5q4 -5 9 -1t9 -2q-6 -11 -1.5 -20.5t8.5 -20.5q5 3 8 1.5t4.5 -4.5t3.5 -5.5t6 -1.5q-3 -19 7 -29q0 8 6.5 11t11.5 8q22 -11 49.5 -12.5t54.5 2.5q6 5 15 4.5t18 -0.5
t16 3t10 15q4 -5 12 -2t15 5q6 3 6.5 9t0.5 12.5t1.5 12t9.5 7.5q3 4 3 8.5v9.5t1.5 9t6.5 6q6 3 10 -2.5t8 -10.5q3 -8 8 -15t14 -2zM136 519q-2 -23 -8.5 -50.5t0.5 -51.5l-5 -5l-5 5q-8 -5 -4 -12t4 -13q7 -1 7.5 -4t-0.5 -6.5t-1 -6.5t7 -3q-1 -8 -0.5 -15.5t-0.5 -13.5
t-4.5 -11t-12.5 -9q2 -2 4.5 -5t-1.5 -6q-8 -7 -10.5 -5t-3 7t-1.5 11t-5 8q-2 11 4 24.5t2 24.5l11 -5q4 2 2.5 5.5t0.5 7.5q-2 5 -7.5 5.5t-2.5 6.5l7 5q-3 3 -6.5 4.5t-6 3t-4 4t0.5 8.5l9 9q-3 2 -4.5 4.5t-4.5 0.5q3 15 3 33t-3 35q0 4 7.5 13t11.5 14q9 0 12 -5.5
t8 -11.5zM136 549q-1 -2 0 -5t-3 -5q-3 2 -2.5 6t5.5 4zM180 551q-8 3 -11 1.5t-5.5 -5t-5.5 -7.5t-10 -6q-5 9 -0.5 20t10.5 15q13 3 16.5 -2.5t5.5 -15.5zM234 580q1 -5 -1 -6.5t-6 -3t-7 -3.5t-3 -6h-6l10 8l-9 9q4 6 10.5 5t11.5 -3zM452 495q-2 -6 -2.5 -13.5
t-2.5 -14.5t-7 -11t-15 -2q-6 -2 -10.5 2t-9.5 9q-3 6 -1 11.5t3 10.5t-1.5 8.5t-15.5 4.5q-4 3 -5.5 8.5t-3 10t-4 8t-9.5 2.5q-3 8 -5.5 15t-11.5 12q-9 -2 -17.5 -7.5t-19.5 -2.5q-8 8 -16 10.5t-16 -5.5q-6 -9 -16 -2q3 7 -0.5 10.5t-7 6.5t-6 6t2.5 11q12 4 20.5 -0.5
t15.5 -9t14 -4t16 15.5q8 2 15.5 -3.5t9.5 -12.5l27 16q-2 -8 5.5 -9.5t11.5 2.5q6 -13 16.5 -21.5t20.5 -16.5t17.5 -18.5t7.5 -26.5z" />
    <glyph glyph-name="Egrave" unicode="&#xc8;" 
d="M446 25q2 -5 5 -10.5t0 -11.5q-23 0 -45 -4.5t-44 4.5q-20 -4 -34 -2t-34 -2l-5 10q-5 -6 -11.5 -8.5t-13 -4t-13.5 -3.5t-13 -6q-5 5 -9 12t-13 5q-11 0 -24 -3t-26.5 -5.5t-27 -1.5t-25.5 10q-8 -2 -15 3.5t-15 10.5q2 9 3 17t-7 17l12 49q-3 2 -3 6t0.5 8t-0.5 6.5
t-5 1.5q4 7 4.5 16t0 18.5t1 19t7.5 17.5l-13 6q12 10 10.5 22t-5.5 25t-6 26t9 25q-7 4 -8 9.5t0.5 11.5t3 11.5t-0.5 11.5q8 3 11.5 11t-1.5 15q3 4 2.5 8t-2 8.5t-3 9.5t-0.5 11q-15 9 -14.5 18t5.5 19t9 20.5t-2 21.5q4 7 2.5 15t-3 16.5t-1 17t6.5 16.5q-7 16 -3 24
t13 13.5t19.5 9t16.5 10.5q6 -5 11 -10.5t14 -2.5q4 1 4 8q6 -2 11.5 -0.5t10.5 2.5t9.5 0t8.5 -7q10 9 19.5 8t19 -3.5t19 -2.5t18.5 10q11 -9 22 -8t22 4.5t22 5t21 -6.5q10 6 19.5 5.5t19 -3.5l19 -6t19.5 -1q-3 -6 0 -12l6 -12t3 -12.5t-9 -12.5q-5 -2 -12 0t-14.5 3
t-15 -0.5t-12.5 -9.5q-14 10 -26.5 8.5t-29.5 -6.5q-12 5 -27.5 3.5t-26.5 6.5q-9 2 -17.5 -0.5l-17 -5t-16 -4t-15.5 2.5q-2 -8 -5.5 -7.5t-7.5 2t-8.5 2.5t-8.5 -5q-8 1 -15 4t-14 -6v-10l-7 7q-6 -12 -16 -18.5t-12 -17.5q2 -4 6.5 -3t8.5 0q2 -7 -0.5 -15l-5 -16
t-2.5 -15.5t8 -14.5q-2 -3 -6 -6.5t-4 -7.5q8 -1 10 -9.5t0 -13.5q-9 -8 -4.5 -20.5t4.5 -23.5q7 -3 15 -2.5t16 0.5t16 -1.5t16 -7.5q7 -2 16.5 -0.5t19.5 2.5t20.5 0t20.5 -7q1 -4 4.5 -8.5t6 -9t2 -9t-7.5 -8.5q-17 -8 -29 -11t-31 2q-7 7 -14 8t-14 0t-15 -2t-17 3
q-2 -11 -12 -14q-10 -2 -9.5 -14t-3.5 -21q4 -7 3.5 -13.5t-2 -13t-2 -13t3.5 -13.5q-6 -8 -4 -16.5t-4 -13.5q4 -8 3 -16t-3.5 -15.5t-2.5 -15.5t8 -16q-1 -3 -5.5 -5.5t-8.5 -5t-6 -6t1 -8.5q7 4 8 6t9 -3q-2 -9 2 -18q-4 6 -9 2.5t-10 -6.5q6 -9 15.5 -9.5t19.5 2t20 5.5
t18 1q9 -6 18 -3.5t17.5 5.5t16.5 3t17 -10q19 -7 35 -2.5t31 10.5t29.5 8t31.5 -11q9 0 21.5 1.5t24.5 0t21.5 -7.5t12.5 -20zM333 658q-4 -13 -8 -25t-14 -21q-11 -1 -16.5 5t-15.5 2q-4 -8 -8 -9t-8.5 1t-9.5 6t-10 6q-8 10 -16 18.5t-21 14.5q-2 7 -8 13.5t-14 -1.5
q-5 7 -8.5 16t-8.5 17t-12 12.5t-18 3.5q-3 3 -4.5 5t-5.5 0l-2 -1q-2 10 -11.5 16t-17.5 12q-10 -4 -16 -0.5t-11.5 10t-10.5 13.5t-14 10q-5 12 -2 22t9 19t13 17.5t10 18.5q5 7 14 7.5t15 2.5q7 -12 16 -12t18.5 2.5t18.5 2.5t15 -13q5 0 10.5 3.5t11 6t10 1t7.5 -11.5
q8 -13 17.5 -23t10.5 -21q18 -9 31.5 -24.5t17.5 -35.5q8 -10 18 -19t18.5 -19t12 -21.5t-2.5 -26.5z" />
    </font>
</defs>
</svg>
